<svg width="120" height="120" viewBox="0 0 120 120" xmlns="http://www.w3.org/2000/svg">
  <defs>
    <pattern id="brushedMetal" patternUnits="userSpaceOnUse" width="100" height="100">
      <rect width="100" height="100" fill="#2a2a2a"/>
      <g opacity="0.3">
        <path d="M0,10 Q20,5 40,10 T80,10 T120,10" stroke="#3a3a3a" stroke-width="1" fill="none"/>
        <path d="M0,30 Q20,25 40,30 T80,30 T120,30" stroke="#3a3a3a" stroke-width="1" fill="none"/>
        <path d="M0,50 Q20,45 40,50 T80,50 T120,50" stroke="#3a3a3a" stroke-width="1" fill="none"/>
        <path d="M0,70 Q20,65 40,70 T80,70 T120,70" stroke="#3a3a3a" stroke-width="1" fill="none"/>
        <path d="M0,90 Q20,85 40,90 T80,90 T120,90" stroke="#3a3a3a" stroke-width="1" fill="none"/>
      </g>
      <g opacity="0.2">
        <line x1="0" y1="0" x2="100" y2="100" stroke="#4a4a4a" stroke-width="0.5"/>
        <line x1="20" y1="0" x2="100" y2="80" stroke="#4a4a4a" stroke-width="0.5"/>
        <line x1="40" y1="0" x2="100" y2="60" stroke="#4a4a4a" stroke-width="0.5"/>
      </g>
    </pattern>
    <radialGradient id="hexGradient" cx="50%" cy="50%">
      <stop offset="0%" style="stop-color:#3a3a3a;stop-opacity:1" />
      <stop offset="50%" style="stop-color:#2a2a2a;stop-opacity:1" />
      <stop offset="100%" style="stop-color:#1a1a1a;stop-opacity:1" />
    </radialGradient>
  </defs>
  <polygon points="60,10 105,32.5 105,87.5 60,110 15,87.5 15,32.5" 
           fill="url(#brushedMetal)" 
           stroke="#1a1a1a" 
           stroke-width="1"/>
  <polygon points="60,10 105,32.5 105,87.5 60,110 15,87.5 15,32.5" 
           fill="url(#hexGradient)" 
           fill-opacity="0.6"/>
</svg>

