<svg width="56" height="60" viewBox="0 0 56 60" fill="none" xmlns="http://www.w3.org/2000/svg">
<g id="Polygon" filter="url(#filter0_d_63_7480)">
<path d="M19.1406 6.17306C22.4048 4.28849 24.0368 3.34621 25.772 2.97739C27.3072 2.65106 28.8939 2.65106 30.4292 2.97739C32.1643 3.34621 33.7964 4.28849 37.0606 6.17306L43.3893 9.82694C46.6535 11.7115 48.2855 12.6538 49.4725 13.9721C50.5228 15.1385 51.3161 16.5126 51.8011 18.0053C52.3493 19.6924 52.3493 21.577 52.3493 25.3461V32.6539C52.3493 36.423 52.3493 38.3076 51.8011 39.9947C51.3161 41.4874 50.5228 42.8615 49.4725 44.0279C48.2855 45.3462 46.6535 46.2885 43.3893 48.1731L37.0606 51.8269C33.7964 53.7115 32.1643 54.6538 30.4292 55.0226C28.8939 55.3489 27.3072 55.3489 25.772 55.0226C24.0368 54.6538 22.4048 53.7115 19.1406 51.8269L12.8119 48.1731C9.54771 46.2885 7.91563 45.3462 6.72865 44.0279C5.67841 42.8615 4.88506 41.4874 4.40004 39.9947C3.85188 38.3076 3.85188 36.423 3.85188 32.6539V25.3461C3.85188 21.577 3.85188 19.6924 4.40004 18.0053C4.88506 16.5126 5.67841 15.1385 6.72865 13.9721C7.91563 12.6538 9.54771 11.7115 12.8119 9.82694L19.1406 6.17306Z" fill="url(#paint0_linear_63_7480)"/>
<path d="M19.1406 6.17306C22.4048 4.28849 24.0368 3.34621 25.772 2.97739C27.3072 2.65106 28.8939 2.65106 30.4292 2.97739C32.1643 3.34621 33.7964 4.28849 37.0606 6.17306L43.3893 9.82694C46.6535 11.7115 48.2855 12.6538 49.4725 13.9721C50.5228 15.1385 51.3161 16.5126 51.8011 18.0053C52.3493 19.6924 52.3493 21.577 52.3493 25.3461V32.6539C52.3493 36.423 52.3493 38.3076 51.8011 39.9947C51.3161 41.4874 50.5228 42.8615 49.4725 44.0279C48.2855 45.3462 46.6535 46.2885 43.3893 48.1731L37.0606 51.8269C33.7964 53.7115 32.1643 54.6538 30.4292 55.0226C28.8939 55.3489 27.3072 55.3489 25.772 55.0226C24.0368 54.6538 22.4048 53.7115 19.1406 51.8269L12.8119 48.1731C9.54771 46.2885 7.91563 45.3462 6.72865 44.0279C5.67841 42.8615 4.88506 41.4874 4.40004 39.9947C3.85188 38.3076 3.85188 36.423 3.85188 32.6539V25.3461C3.85188 21.577 3.85188 19.6924 4.40004 18.0053C4.88506 16.5126 5.67841 15.1385 6.72865 13.9721C7.91563 12.6538 9.54771 11.7115 12.8119 9.82694L19.1406 6.17306Z" fill="url(#paint1_radial_63_7480)" fill-opacity="0.6"/>
</g>
<defs>
<filter id="filter0_d_63_7480" x="0.379562" y="0.156666" width="55.442" height="59.4787" filterUnits="userSpaceOnUse" color-interpolation-filters="sRGB">
<feFlood flood-opacity="0" result="BackgroundImageFix"/>
<feColorMatrix in="SourceAlpha" type="matrix" values="0 0 0 0 0 0 0 0 0 0 0 0 0 0 0 0 0 0 127 0" result="hardAlpha"/>
<feOffset dy="0.896"/>
<feGaussianBlur stdDeviation="1.736"/>
<feComposite in2="hardAlpha" operator="out"/>
<feColorMatrix type="matrix" values="0 0 0 0 0 0 0 0 0 0 0 0 0 0 0 0 0 0 0.2 0"/>
<feBlend mode="normal" in2="BackgroundImageFix" result="effect1_dropShadow_63_7480"/>
<feBlend mode="normal" in="SourceGraphic" in2="effect1_dropShadow_63_7480" result="shape"/>
</filter>
<linearGradient id="paint0_linear_63_7480" x1="7.56725" y1="3.33333" x2="50.9673" y2="51.6333" gradientUnits="userSpaceOnUse">
<stop stop-color="#F5A361"/>
<stop offset="0.94" stop-color="#9E4D0A"/>
</linearGradient>
<radialGradient id="paint1_radial_63_7480" cx="0" cy="0" r="1" gradientUnits="userSpaceOnUse" gradientTransform="translate(28.1006 8.5) rotate(90) scale(20.5)">
<stop stop-color="white"/>
<stop offset="1" stop-color="white" stop-opacity="0"/>
</radialGradient>
</defs>
</svg>
