<svg width="57" height="60" viewBox="0 0 57 60" fill="none" xmlns="http://www.w3.org/2000/svg">
<g id="Polygon" filter="url(#filter0_d_63_7578)">
<path d="M19.3408 6.17306C22.6049 4.28849 24.237 3.34621 25.9722 2.97739C27.5074 2.65106 29.0941 2.65106 30.6294 2.97739C32.3645 3.34621 33.9966 4.28849 37.2608 6.17306L43.5895 9.82694C46.8537 11.7115 48.4857 12.6538 49.6727 13.9721C50.723 15.1385 51.5163 16.5126 52.0013 18.0053C52.5495 19.6924 52.5495 21.577 52.5495 25.3461V32.6539C52.5495 36.423 52.5495 38.3076 52.0013 39.9947C51.5163 41.4874 50.723 42.8615 49.6727 44.0279C48.4857 45.3462 46.8537 46.2885 43.5895 48.1731L37.2608 51.8269C33.9966 53.7115 32.3645 54.6538 30.6294 55.0226C29.0941 55.3489 27.5074 55.3489 25.9722 55.0226C24.237 54.6538 22.6049 53.7115 19.3408 51.8269L13.0121 48.1731C9.7479 46.2885 8.11582 45.3462 6.92885 44.0279C5.87861 42.8615 5.08526 41.4874 4.60024 39.9947C4.05207 38.3076 4.05207 36.423 4.05207 32.6539V25.3461C4.05207 21.577 4.05207 19.6924 4.60024 18.0053C5.08526 16.5126 5.87861 15.1385 6.92885 13.9721C8.11582 12.6538 9.7479 11.7115 13.0121 9.82694L19.3408 6.17306Z" fill="url(#paint0_diamond_63_7578)"/>
<path d="M19.3408 6.17306C22.6049 4.28849 24.237 3.34621 25.9722 2.97739C27.5074 2.65106 29.0941 2.65106 30.6294 2.97739C32.3645 3.34621 33.9966 4.28849 37.2608 6.17306L43.5895 9.82694C46.8537 11.7115 48.4857 12.6538 49.6727 13.9721C50.723 15.1385 51.5163 16.5126 52.0013 18.0053C52.5495 19.6924 52.5495 21.577 52.5495 25.3461V32.6539C52.5495 36.423 52.5495 38.3076 52.0013 39.9947C51.5163 41.4874 50.723 42.8615 49.6727 44.0279C48.4857 45.3462 46.8537 46.2885 43.5895 48.1731L37.2608 51.8269C33.9966 53.7115 32.3645 54.6538 30.6294 55.0226C29.0941 55.3489 27.5074 55.3489 25.9722 55.0226C24.237 54.6538 22.6049 53.7115 19.3408 51.8269L13.0121 48.1731C9.7479 46.2885 8.11582 45.3462 6.92885 44.0279C5.87861 42.8615 5.08526 41.4874 4.60024 39.9947C4.05207 38.3076 4.05207 36.423 4.05207 32.6539V25.3461C4.05207 21.577 4.05207 19.6924 4.60024 18.0053C5.08526 16.5126 5.87861 15.1385 6.92885 13.9721C8.11582 12.6538 9.7479 11.7115 13.0121 9.82694L19.3408 6.17306Z" fill="url(#paint1_diamond_63_7578)"/>
<path d="M19.3408 6.17306C22.6049 4.28849 24.237 3.34621 25.9722 2.97739C27.5074 2.65106 29.0941 2.65106 30.6294 2.97739C32.3645 3.34621 33.9966 4.28849 37.2608 6.17306L43.5895 9.82694C46.8537 11.7115 48.4857 12.6538 49.6727 13.9721C50.723 15.1385 51.5163 16.5126 52.0013 18.0053C52.5495 19.6924 52.5495 21.577 52.5495 25.3461V32.6539C52.5495 36.423 52.5495 38.3076 52.0013 39.9947C51.5163 41.4874 50.723 42.8615 49.6727 44.0279C48.4857 45.3462 46.8537 46.2885 43.5895 48.1731L37.2608 51.8269C33.9966 53.7115 32.3645 54.6538 30.6294 55.0226C29.0941 55.3489 27.5074 55.3489 25.9722 55.0226C24.237 54.6538 22.6049 53.7115 19.3408 51.8269L13.0121 48.1731C9.7479 46.2885 8.11582 45.3462 6.92885 44.0279C5.87861 42.8615 5.08526 41.4874 4.60024 39.9947C4.05207 38.3076 4.05207 36.423 4.05207 32.6539V25.3461C4.05207 21.577 4.05207 19.6924 4.60024 18.0053C5.08526 16.5126 5.87861 15.1385 6.92885 13.9721C8.11582 12.6538 9.7479 11.7115 13.0121 9.82694L19.3408 6.17306Z" fill="url(#paint2_linear_63_7578)"/>
<path d="M19.4808 6.41554C22.7613 4.52153 24.3489 3.60868 26.0304 3.25127C27.5273 2.9331 29.0743 2.9331 30.5712 3.25127C32.2526 3.60868 33.8403 4.52153 37.1208 6.41554L43.4495 10.0694C46.73 11.9634 48.3144 12.8819 49.4646 14.1594C50.4886 15.2967 51.2621 16.6364 51.735 18.0919C52.2662 19.7268 52.2695 21.5581 52.2695 25.3461V32.6539C52.2695 36.4419 52.2662 38.2732 51.735 39.9081C51.2621 41.3636 50.4886 42.7033 49.4646 43.8406C48.3144 45.1181 46.73 46.0366 43.4495 47.9306L37.1208 51.5845C33.8403 53.4785 32.2526 54.3913 30.5712 54.7487C29.0743 55.0669 27.5273 55.0669 26.0304 54.7487C24.3489 54.3913 22.7613 53.4785 19.4808 51.5845L13.1521 47.9306C9.87155 46.0366 8.28718 45.1181 7.13693 43.8406C6.11295 42.7033 5.33943 41.3636 4.86653 39.9081C4.33532 38.2732 4.33207 36.4419 4.33207 32.6539V25.3461C4.33207 21.5581 4.33532 19.7268 4.86653 18.0919C5.33943 16.6364 6.11295 15.2967 7.13693 14.1594C8.28718 12.8819 9.87155 11.9634 13.1521 10.0694L19.4808 6.41554Z" stroke="#474747" stroke-width="0.56" stroke-linecap="round"/>
</g>
<defs>
<filter id="filter0_d_63_7578" x="0.579757" y="0.156666" width="55.442" height="59.4787" filterUnits="userSpaceOnUse" color-interpolation-filters="sRGB">
<feFlood flood-opacity="0" result="BackgroundImageFix"/>
<feColorMatrix in="SourceAlpha" type="matrix" values="0 0 0 0 0 0 0 0 0 0 0 0 0 0 0 0 0 0 127 0" result="hardAlpha"/>
<feOffset dy="0.896"/>
<feGaussianBlur stdDeviation="1.736"/>
<feComposite in2="hardAlpha" operator="out"/>
<feColorMatrix type="matrix" values="0 0 0 0 0 0 0 0 0 0 0 0 0 0 0 0 0 0 0.2 0"/>
<feBlend mode="normal" in2="BackgroundImageFix" result="effect1_dropShadow_63_7578"/>
<feBlend mode="normal" in="SourceGraphic" in2="effect1_dropShadow_63_7578" result="shape"/>
</filter>
<radialGradient id="paint0_diamond_63_7578" cx="0" cy="0" r="1" gradientUnits="userSpaceOnUse" gradientTransform="translate(-8.79922 42.0667) rotate(-17.4699) scale(92.0015)">
<stop offset="0.421875" stop-color="#A349EF"/>
<stop offset="1" stop-color="#FF65E6"/>
</radialGradient>
<radialGradient id="paint1_diamond_63_7578" cx="0" cy="0" r="1" gradientUnits="userSpaceOnUse" gradientTransform="translate(17.6258 13.95) rotate(-26.2587) scale(43.9058 23.2443)">
<stop stop-color="#FF9FEA"/>
<stop offset="1" stop-color="white" stop-opacity="0"/>
</radialGradient>
<linearGradient id="paint2_linear_63_7578" x1="1.70078" y1="2.16667" x2="53.2675" y2="59.3333" gradientUnits="userSpaceOnUse">
<stop stop-color="#7A96AC"/>
<stop offset="0.18" stop-color="#ABBFCF"/>
<stop offset="0.315" stop-color="#7DA2BF"/>
<stop offset="0.491919" stop-color="#CCCCCC"/>
<stop offset="0.615" stop-color="#93ACBE"/>
<stop offset="0.785" stop-color="#6E8DA0"/>
<stop offset="0.955" stop-color="#7D99B0"/>
</linearGradient>
</defs>
</svg>
