<svg width="57" height="60" viewBox="0 0 57 60" fill="none" xmlns="http://www.w3.org/2000/svg">
<g id="Polygon" filter="url(#filter0_d_63_8560)">
<path d="M19.7402 6.17306C23.0044 4.28849 24.6364 3.34621 26.3716 2.97739C27.9068 2.65106 29.4935 2.65106 31.0288 2.97739C32.7639 3.34621 34.396 4.28849 37.6602 6.17306L43.9889 9.82694C47.2531 11.7115 48.8852 12.6538 50.0721 13.9721C51.1224 15.1385 51.9157 16.5126 52.4007 18.0053C52.9489 19.6924 52.9489 21.577 52.9489 25.3461V32.6539C52.9489 36.423 52.9489 38.3076 52.4007 39.9947C51.9157 41.4874 51.1224 42.8615 50.0721 44.0279C48.8852 45.3462 47.2531 46.2885 43.9889 48.1731L37.6602 51.8269C34.396 53.7115 32.7639 54.6538 31.0288 55.0226C29.4935 55.3489 27.9068 55.3489 26.3716 55.0226C24.6364 54.6538 23.0044 53.7115 19.7402 51.8269L13.4115 48.1731C10.1473 46.2885 8.51524 45.3462 7.32826 44.0279C6.27802 42.8615 5.48467 41.4874 4.99965 39.9947C4.45148 38.3076 4.45148 36.423 4.45148 32.6539V25.3461C4.45148 21.577 4.45148 19.6924 4.99965 18.0053C5.48467 16.5126 6.27802 15.1385 7.32826 13.9721C8.51524 12.6538 10.1473 11.7115 13.4115 9.82694L19.7402 6.17306Z" fill="url(#paint0_linear_63_8560)"/>
<path d="M19.8802 6.41554C23.1607 4.52153 24.7483 3.60868 26.4298 3.25127C27.9267 2.9331 29.4737 2.9331 30.9706 3.25127C32.6521 3.60868 34.2397 4.52153 37.5202 6.41554L43.8489 10.0694C47.1294 11.9634 48.7138 12.8819 49.864 14.1594C50.888 15.2967 51.6615 16.6364 52.1344 18.0919C52.6657 19.7268 52.6689 21.5581 52.6689 25.3461V32.6539C52.6689 36.4419 52.6657 38.2732 52.1344 39.9081C51.6615 41.3636 50.888 42.7033 49.864 43.8406C48.7138 45.1181 47.1294 46.0366 43.8489 47.9306L37.5202 51.5845C34.2397 53.4785 32.6521 54.3913 30.9706 54.7487C29.4737 55.0669 27.9267 55.0669 26.4298 54.7487C24.7483 54.3913 23.1607 53.4785 19.8802 51.5845L13.5515 47.9306C10.271 46.0366 8.6866 45.1181 7.53634 43.8406C6.51236 42.7033 5.73884 41.3636 5.26595 39.9081C4.73474 38.2732 4.73148 36.4419 4.73148 32.6539V25.3461C4.73148 21.5581 4.73474 19.7268 5.26595 18.0919C5.73884 16.6364 6.51236 15.2967 7.53634 14.1594C8.6866 12.8819 10.271 11.9634 13.5515 10.0694L19.8802 6.41554Z" stroke="#474747" stroke-width="0.56" stroke-linecap="round"/>
</g>
<defs>
<filter id="filter0_d_63_8560" x="0.979172" y="0.156666" width="55.442" height="59.4787" filterUnits="userSpaceOnUse" color-interpolation-filters="sRGB">
<feFlood flood-opacity="0" result="BackgroundImageFix"/>
<feColorMatrix in="SourceAlpha" type="matrix" values="0 0 0 0 0 0 0 0 0 0 0 0 0 0 0 0 0 0 127 0" result="hardAlpha"/>
<feOffset dy="0.896"/>
<feGaussianBlur stdDeviation="1.736"/>
<feComposite in2="hardAlpha" operator="out"/>
<feColorMatrix type="matrix" values="0 0 0 0 0 0 0 0 0 0 0 0 0 0 0 0 0 0 0.2 0"/>
<feBlend mode="normal" in2="BackgroundImageFix" result="effect1_dropShadow_63_8560"/>
<feBlend mode="normal" in="SourceGraphic" in2="effect1_dropShadow_63_8560" result="shape"/>
</filter>
<linearGradient id="paint0_linear_63_8560" x1="4.99874" y1="5.29872" x2="33.1443" y2="61.5899" gradientUnits="userSpaceOnUse">
<stop stop-color="#9E8976"/>
<stop offset="0.195" stop-color="#7A5E50"/>
<stop offset="0.41" stop-color="#F6D0AB"/>
<stop offset="0.61" stop-color="#9D774E"/>
<stop offset="0.855" stop-color="#C99B70"/>
<stop offset="1" stop-color="#795F52"/>
</linearGradient>
</defs>
</svg>
