<svg width="56" height="60" viewBox="0 0 56 60" fill="none" xmlns="http://www.w3.org/2000/svg">
<g id="Polygon" filter="url(#filter0_d_63_7527)">
<path d="M19.1406 6.17306C22.4048 4.28849 24.0368 3.34621 25.772 2.97739C27.3072 2.65106 28.8939 2.65106 30.4292 2.97739C32.1643 3.34621 33.7964 4.28849 37.0606 6.17306L43.3893 9.82694C46.6535 11.7115 48.2855 12.6538 49.4725 13.9721C50.5228 15.1385 51.3161 16.5126 51.8011 18.0053C52.3493 19.6924 52.3493 21.577 52.3493 25.3461V32.6539C52.3493 36.423 52.3493 38.3076 51.8011 39.9947C51.3161 41.4874 50.5228 42.8615 49.4725 44.0279C48.2855 45.3462 46.6535 46.2885 43.3893 48.1731L37.0606 51.8269C33.7964 53.7115 32.1643 54.6538 30.4292 55.0226C28.8939 55.3489 27.3072 55.3489 25.772 55.0226C24.0368 54.6538 22.4048 53.7115 19.1406 51.8269L12.8119 48.1731C9.54771 46.2885 7.91563 45.3462 6.72865 44.0279C5.67841 42.8615 4.88506 41.4874 4.40004 39.9947C3.85188 38.3076 3.85188 36.423 3.85188 32.6539V25.3461C3.85188 21.577 3.85188 19.6924 4.40004 18.0053C4.88506 16.5126 5.67841 15.1385 6.72865 13.9721C7.91563 12.6538 9.54771 11.7115 12.8119 9.82694L19.1406 6.17306Z" fill="url(#paint0_linear_63_7527)"/>
<path d="M19.2806 6.41554C22.5611 4.52153 24.1487 3.60868 25.8302 3.25127C27.3271 2.9331 28.8741 2.9331 30.371 3.25127C32.0524 3.60868 33.6401 4.52153 36.9206 6.41554L43.2493 10.0694C46.5298 11.9634 48.1142 12.8819 49.2644 14.1594C50.2884 15.2967 51.0619 16.6364 51.5348 18.0919C52.066 19.7268 52.0693 21.5581 52.0693 25.3461V32.6539C52.0693 36.4419 52.066 38.2732 51.5348 39.9081C51.0619 41.3636 50.2884 42.7033 49.2644 43.8406C48.1142 45.1181 46.5298 46.0366 43.2493 47.9306L36.9206 51.5845C33.6401 53.4785 32.0524 54.3913 30.371 54.7487C28.8741 55.0669 27.3271 55.0669 25.8302 54.7487C24.1487 54.3913 22.5611 53.4785 19.2806 51.5845L12.9519 47.9306C9.67135 46.0366 8.08699 45.1181 6.93673 43.8406C5.91275 42.7033 5.13923 41.3636 4.66634 39.9081C4.13513 38.2732 4.13188 36.4419 4.13188 32.6539V25.3461C4.13188 21.5581 4.13513 19.7268 4.66634 18.0919C5.13923 16.6364 5.91275 15.2967 6.93673 14.1594C8.08699 12.8819 9.67135 11.9634 12.9519 10.0694L19.2806 6.41554Z" stroke="#474747" stroke-width="0.56" stroke-linecap="round"/>
</g>
<defs>
<filter id="filter0_d_63_7527" x="0.379562" y="0.156666" width="55.442" height="59.4787" filterUnits="userSpaceOnUse" color-interpolation-filters="sRGB">
<feFlood flood-opacity="0" result="BackgroundImageFix"/>
<feColorMatrix in="SourceAlpha" type="matrix" values="0 0 0 0 0 0 0 0 0 0 0 0 0 0 0 0 0 0 127 0" result="hardAlpha"/>
<feOffset dy="0.896"/>
<feGaussianBlur stdDeviation="1.736"/>
<feComposite in2="hardAlpha" operator="out"/>
<feColorMatrix type="matrix" values="0 0 0 0 0 0 0 0 0 0 0 0 0 0 0 0 0 0 0.2 0"/>
<feBlend mode="normal" in2="BackgroundImageFix" result="effect1_dropShadow_63_7527"/>
<feBlend mode="normal" in="SourceGraphic" in2="effect1_dropShadow_63_7527" result="shape"/>
</filter>
<linearGradient id="paint0_linear_63_7527" x1="4.39913" y1="5.29872" x2="32.5447" y2="61.5899" gradientUnits="userSpaceOnUse">
<stop stop-color="#9E8F76"/>
<stop offset="0.195" stop-color="#7A6A50"/>
<stop offset="0.41" stop-color="#F6D9AB"/>
<stop offset="0.61" stop-color="#9D7F4E"/>
<stop offset="0.855" stop-color="#C9A770"/>
<stop offset="1" stop-color="#796A52"/>
</linearGradient>
</defs>
</svg>
