<svg width="57" height="60" viewBox="0 0 57 60" fill="none" xmlns="http://www.w3.org/2000/svg">
<g id="Polygon" filter="url(#filter0_d_63_13354)">
<path d="M19.54 6.17306C22.8042 4.28849 24.4362 3.34621 26.1714 2.97739C27.7066 2.65106 29.2934 2.65106 30.8286 2.97739C32.5638 3.34621 34.1958 4.28849 37.46 6.17306L43.7887 9.82694C47.0529 11.7115 48.685 12.6538 49.8719 13.9721C50.9222 15.1385 51.7155 16.5126 52.2005 18.0053C52.7487 19.6924 52.7487 21.577 52.7487 25.3461V32.6539C52.7487 36.423 52.7487 38.3076 52.2005 39.9947C51.7155 41.4874 50.9222 42.8615 49.8719 44.0279C48.685 45.3462 47.0529 46.2885 43.7887 48.1731L37.46 51.8269C34.1958 53.7115 32.5638 54.6538 30.8286 55.0226C29.2934 55.3489 27.7066 55.3489 26.1714 55.0226C24.4362 54.6538 22.8042 53.7115 19.54 51.8269L13.2113 48.1731C9.94712 46.2885 8.31504 45.3462 7.12807 44.0279C6.07783 42.8615 5.28448 41.4874 4.79946 39.9947C4.25129 38.3076 4.25129 36.423 4.25129 32.6539V25.3461C4.25129 21.577 4.25129 19.6924 4.79946 18.0053C5.28448 16.5126 6.07783 15.1385 7.12807 13.9721C8.31504 12.6538 9.94712 11.7115 13.2113 9.82694L19.54 6.17306Z" fill="url(#paint0_diamond_63_13354)"/>
<path d="M19.54 6.17306C22.8042 4.28849 24.4362 3.34621 26.1714 2.97739C27.7066 2.65106 29.2934 2.65106 30.8286 2.97739C32.5638 3.34621 34.1958 4.28849 37.46 6.17306L43.7887 9.82694C47.0529 11.7115 48.685 12.6538 49.8719 13.9721C50.9222 15.1385 51.7155 16.5126 52.2005 18.0053C52.7487 19.6924 52.7487 21.577 52.7487 25.3461V32.6539C52.7487 36.423 52.7487 38.3076 52.2005 39.9947C51.7155 41.4874 50.9222 42.8615 49.8719 44.0279C48.685 45.3462 47.0529 46.2885 43.7887 48.1731L37.46 51.8269C34.1958 53.7115 32.5638 54.6538 30.8286 55.0226C29.2934 55.3489 27.7066 55.3489 26.1714 55.0226C24.4362 54.6538 22.8042 53.7115 19.54 51.8269L13.2113 48.1731C9.94712 46.2885 8.31504 45.3462 7.12807 44.0279C6.07783 42.8615 5.28448 41.4874 4.79946 39.9947C4.25129 38.3076 4.25129 36.423 4.25129 32.6539V25.3461C4.25129 21.577 4.25129 19.6924 4.79946 18.0053C5.28448 16.5126 6.07783 15.1385 7.12807 13.9721C8.31504 12.6538 9.94712 11.7115 13.2113 9.82694L19.54 6.17306Z" fill="url(#paint1_diamond_63_13354)"/>
<path d="M19.54 6.17306C22.8042 4.28849 24.4362 3.34621 26.1714 2.97739C27.7066 2.65106 29.2934 2.65106 30.8286 2.97739C32.5638 3.34621 34.1958 4.28849 37.46 6.17306L43.7887 9.82694C47.0529 11.7115 48.685 12.6538 49.8719 13.9721C50.9222 15.1385 51.7155 16.5126 52.2005 18.0053C52.7487 19.6924 52.7487 21.577 52.7487 25.3461V32.6539C52.7487 36.423 52.7487 38.3076 52.2005 39.9947C51.7155 41.4874 50.9222 42.8615 49.8719 44.0279C48.685 45.3462 47.0529 46.2885 43.7887 48.1731L37.46 51.8269C34.1958 53.7115 32.5638 54.6538 30.8286 55.0226C29.2934 55.3489 27.7066 55.3489 26.1714 55.0226C24.4362 54.6538 22.8042 53.7115 19.54 51.8269L13.2113 48.1731C9.94712 46.2885 8.31504 45.3462 7.12807 44.0279C6.07783 42.8615 5.28448 41.4874 4.79946 39.9947C4.25129 38.3076 4.25129 36.423 4.25129 32.6539V25.3461C4.25129 21.577 4.25129 19.6924 4.79946 18.0053C5.28448 16.5126 6.07783 15.1385 7.12807 13.9721C8.31504 12.6538 9.94712 11.7115 13.2113 9.82694L19.54 6.17306Z" fill="url(#paint2_linear_63_13354)"/>
<path d="M19.68 6.41554C22.9605 4.52153 24.5481 3.60868 26.2296 3.25127C27.7265 2.9331 29.2735 2.9331 30.7704 3.25127C32.4519 3.60868 34.0395 4.52153 37.32 6.41554L43.6487 10.0694C46.9292 11.9634 48.5136 12.8819 49.6639 14.1594C50.6878 15.2967 51.4614 16.6364 51.9342 18.0919C52.4655 19.7268 52.4687 21.5581 52.4687 25.3461V32.6539C52.4687 36.4419 52.4655 38.2732 51.9342 39.9081C51.4614 41.3636 50.6878 42.7033 49.6639 43.8406C48.5136 45.1181 46.9292 46.0366 43.6487 47.9306L37.32 51.5845C34.0395 53.4785 32.4519 54.3913 30.7704 54.7487C29.2735 55.0669 27.7265 55.0669 26.2296 54.7487C24.5481 54.3913 22.9605 53.4785 19.68 51.5845L13.3513 47.9306C10.0708 46.0366 8.4864 45.1181 7.33615 43.8406C6.31217 42.7033 5.53865 41.3636 5.06575 39.9081C4.53454 38.2732 4.53129 36.4419 4.53129 32.6539V25.3461C4.53129 21.5581 4.53454 19.7268 5.06575 18.0919C5.53865 16.6364 6.31217 15.2967 7.33615 14.1594C8.4864 12.8819 10.0708 11.9634 13.3513 10.0694L19.68 6.41554Z" stroke="#474747" stroke-width="0.56" stroke-linecap="round"/>
</g>
<defs>
<filter id="filter0_d_63_13354" x="0.778976" y="0.156666" width="55.442" height="59.4787" filterUnits="userSpaceOnUse" color-interpolation-filters="sRGB">
<feFlood flood-opacity="0" result="BackgroundImageFix"/>
<feColorMatrix in="SourceAlpha" type="matrix" values="0 0 0 0 0 0 0 0 0 0 0 0 0 0 0 0 0 0 127 0" result="hardAlpha"/>
<feOffset dy="0.896"/>
<feGaussianBlur stdDeviation="1.736"/>
<feComposite in2="hardAlpha" operator="out"/>
<feColorMatrix type="matrix" values="0 0 0 0 0 0 0 0 0 0 0 0 0 0 0 0 0 0 0.2 0"/>
<feBlend mode="normal" in2="BackgroundImageFix" result="effect1_dropShadow_63_13354"/>
<feBlend mode="normal" in="SourceGraphic" in2="effect1_dropShadow_63_13354" result="shape"/>
</filter>
<radialGradient id="paint0_diamond_63_13354" cx="0" cy="0" r="1" gradientUnits="userSpaceOnUse" gradientTransform="translate(-8.6 42.0667) rotate(-17.4699) scale(92.0015)">
<stop offset="0.421875" stop-color="#A349EF"/>
<stop offset="1" stop-color="#FF65E6"/>
</radialGradient>
<radialGradient id="paint1_diamond_63_13354" cx="0" cy="0" r="1" gradientUnits="userSpaceOnUse" gradientTransform="translate(17.825 13.95) rotate(-26.2587) scale(43.9058 23.2443)">
<stop stop-color="#FF9FEA"/>
<stop offset="1" stop-color="white" stop-opacity="0"/>
</radialGradient>
<linearGradient id="paint2_linear_63_13354" x1="1.9" y1="2.16667" x2="53.4667" y2="59.3333" gradientUnits="userSpaceOnUse">
<stop stop-color="#7B7AAC"/>
<stop offset="0.18" stop-color="#ABABCF"/>
<stop offset="0.315" stop-color="#7E7DBF"/>
<stop offset="0.491919" stop-color="#B3B3B3"/>
<stop offset="0.615" stop-color="#9493BE"/>
<stop offset="0.785" stop-color="#6F6EA0"/>
<stop offset="0.955" stop-color="#7D7DB0"/>
</linearGradient>
</defs>
</svg>
