<svg width="56" height="60" viewBox="0 0 56 60" fill="none" xmlns="http://www.w3.org/2000/svg">
<g id="Polygon" filter="url(#filter0_d_63_13396)">
<path d="M18.9404 6.17306C22.2046 4.28849 23.8366 3.34621 25.5718 2.97739C27.107 2.65106 28.6937 2.65106 30.229 2.97739C31.9641 3.34621 33.5962 4.28849 36.8604 6.17306L43.1891 9.82694C46.4533 11.7115 48.0854 12.6538 49.2723 13.9721C50.3226 15.1385 51.1159 16.5126 51.6009 18.0053C52.1491 19.6924 52.1491 21.577 52.1491 25.3461V32.6539C52.1491 36.423 52.1491 38.3076 51.6009 39.9947C51.1159 41.4874 50.3226 42.8615 49.2723 44.0279C48.0854 45.3462 46.4533 46.2885 43.1891 48.1731L36.8604 51.8269C33.5962 53.7115 31.9641 54.6538 30.229 55.0226C28.6937 55.3489 27.107 55.3489 25.5718 55.0226C23.8366 54.6538 22.2046 53.7115 18.9404 51.8269L12.6117 48.1731C9.34751 46.2885 7.71543 45.3462 6.52846 44.0279C5.47822 42.8615 4.68487 41.4874 4.19985 39.9947C3.65168 38.3076 3.65168 36.423 3.65168 32.6539V25.3461C3.65168 21.577 3.65168 19.6924 4.19985 18.0053C4.68487 16.5126 5.47822 15.1385 6.52846 13.9721C7.71543 12.6538 9.34751 11.7115 12.6117 9.82694L18.9404 6.17306Z" fill="url(#paint0_linear_63_13396)"/>
<path d="M18.9404 6.17306C22.2046 4.28849 23.8366 3.34621 25.5718 2.97739C27.107 2.65106 28.6937 2.65106 30.229 2.97739C31.9641 3.34621 33.5962 4.28849 36.8604 6.17306L43.1891 9.82694C46.4533 11.7115 48.0854 12.6538 49.2723 13.9721C50.3226 15.1385 51.1159 16.5126 51.6009 18.0053C52.1491 19.6924 52.1491 21.577 52.1491 25.3461V32.6539C52.1491 36.423 52.1491 38.3076 51.6009 39.9947C51.1159 41.4874 50.3226 42.8615 49.2723 44.0279C48.0854 45.3462 46.4533 46.2885 43.1891 48.1731L36.8604 51.8269C33.5962 53.7115 31.9641 54.6538 30.229 55.0226C28.6937 55.3489 27.107 55.3489 25.5718 55.0226C23.8366 54.6538 22.2046 53.7115 18.9404 51.8269L12.6117 48.1731C9.34751 46.2885 7.71543 45.3462 6.52846 44.0279C5.47822 42.8615 4.68487 41.4874 4.19985 39.9947C3.65168 38.3076 3.65168 36.423 3.65168 32.6539V25.3461C3.65168 21.577 3.65168 19.6924 4.19985 18.0053C4.68487 16.5126 5.47822 15.1385 6.52846 13.9721C7.71543 12.6538 9.34751 11.7115 12.6117 9.82694L18.9404 6.17306Z" fill="url(#paint1_radial_63_13396)" fill-opacity="0.6"/>
</g>
<defs>
<filter id="filter0_d_63_13396" x="0.179367" y="0.156666" width="55.442" height="59.4787" filterUnits="userSpaceOnUse" color-interpolation-filters="sRGB">
<feFlood flood-opacity="0" result="BackgroundImageFix"/>
<feColorMatrix in="SourceAlpha" type="matrix" values="0 0 0 0 0 0 0 0 0 0 0 0 0 0 0 0 0 0 127 0" result="hardAlpha"/>
<feOffset dy="0.896"/>
<feGaussianBlur stdDeviation="1.736"/>
<feComposite in2="hardAlpha" operator="out"/>
<feColorMatrix type="matrix" values="0 0 0 0 0 0 0 0 0 0 0 0 0 0 0 0 0 0 0.2 0"/>
<feBlend mode="normal" in2="BackgroundImageFix" result="effect1_dropShadow_63_13396"/>
<feBlend mode="normal" in="SourceGraphic" in2="effect1_dropShadow_63_13396" result="shape"/>
</filter>
<linearGradient id="paint0_linear_63_13396" x1="7.36706" y1="3.33333" x2="50.7671" y2="51.6333" gradientUnits="userSpaceOnUse">
<stop stop-color="#52D193"/>
<stop offset="0.94" stop-color="#0A9E57"/>
</linearGradient>
<radialGradient id="paint1_radial_63_13396" cx="0" cy="0" r="1" gradientUnits="userSpaceOnUse" gradientTransform="translate(27.9004 8.5) rotate(90) scale(20.5)">
<stop stop-color="white"/>
<stop offset="1" stop-color="white" stop-opacity="0"/>
</radialGradient>
</defs>
</svg>
