<svg width="19" height="22" viewBox="0 0 19 22" fill="none" xmlns="http://www.w3.org/2000/svg">
    <path d="M6.84321 19.75C7.54834 20.3724 8.47459 20.75 9.48903 20.75C10.5035 20.75 11.4297 20.3724 12.1349 19.75M15.489 6.75C15.489 5.1587 14.8569 3.63258 13.7317 2.50736C12.6065 1.38214 11.0803 0.75 9.48903 0.75C7.89773 0.75 6.37161 1.38214 5.24639 2.50736C4.12117 3.63258 3.48903 5.1587 3.48903 6.75C3.48903 9.84018 2.7095 11.956 1.8387 13.3554C1.10416 14.5359 0.736891 15.1261 0.750357 15.2908C0.765269 15.4731 0.803892 15.5426 0.950808 15.6516C1.08349 15.75 1.68162 15.75 2.87789 15.75H16.1002C17.2964 15.75 17.8946 15.75 18.0273 15.6516C18.1742 15.5426 18.2128 15.4731 18.2277 15.2908C18.2412 15.1261 17.8739 14.5359 17.1394 13.3554C16.2686 11.956 15.489 9.84019 15.489 6.75Z" stroke="white" stroke-width="1.5" stroke-linecap="round" stroke-linejoin="round"/>
    </svg>
    