<svg width="20" height="18" viewBox="0 0 20 18" fill="none" xmlns="http://www.w3.org/2000/svg">
<path d="M6.66667 3.33268H6.5C5.09987 3.33268 4.3998 3.33268 3.86502 3.60517C3.39462 3.84485 3.01217 4.2273 2.77248 4.69771C2.5 5.23249 2.5 5.93255 2.5 7.33268V8.33268M6.66667 3.33268H13.3333M6.66667 3.33268V1.66602M6.66667 3.33268V4.99935M13.3333 3.33268H13.5C14.9001 3.33268 15.6002 3.33268 16.135 3.60517C16.6054 3.84485 16.9878 4.2273 17.2275 4.69771C17.5 5.23249 17.5 5.93255 17.5 7.33268V8.33268M13.3333 3.33268V1.66602M13.3333 3.33268V4.99935M2.5 8.33268V14.3327C2.5 15.7328 2.5 16.4329 2.77248 16.9677C3.01217 17.4381 3.39462 17.8205 3.86502 18.0602C4.3998 18.3327 5.09987 18.3327 6.5 18.3327H10.4167M2.5 8.33268H17.5M17.5 8.33268V9.58268M13.2322 16.7671L15 14.9993M15 14.9993L16.7678 13.2316M15 14.9993L13.2322 13.2316M15 14.9993L16.7678 16.7671" stroke="#C73838" stroke-width="1.25" stroke-linecap="round" stroke-linejoin="round"/>
</svg>
