<svg width="18" height="18" viewBox="0 0 18 18" fill="none" xmlns="http://www.w3.org/2000/svg">
<path d="M8.31999 11.4253L5.81999 8.92534M8.31999 11.4253C9.48403 10.9826 10.6007 10.4243 11.6533 9.75867M8.31999 11.4253V13.9949C8.31999 14.5153 8.31999 14.7755 8.45729 14.984C8.56535 15.1481 8.7857 15.299 8.97778 15.3404C9.22188 15.393 9.43195 15.3115 9.8521 15.1486C10.5401 14.8817 11.2799 14.4836 11.6533 13.9253C12.5533 12.5753 11.6533 9.75867 11.6533 9.75867M5.81999 8.92534C6.26344 7.77486 6.82182 6.67206 7.48665 5.63367C8.45764 4.08116 9.80967 2.80288 11.4142 1.92041C12.6303 1.25152 13.9609 0.826902 15.3311 0.665494C15.7267 0.618888 15.9246 0.595586 16.1351 0.690427C16.2949 0.762426 16.4788 0.945725 16.5513 1.10528C16.6469 1.31546 16.6241 1.51474 16.5786 1.9133C16.3161 4.2097 15.2481 7.3484 11.6533 9.75867M5.81999 8.92534H3.25047C2.73006 8.92534 2.46985 8.92534 2.2613 8.78803C2.09718 8.67998 1.9463 8.45963 1.90491 8.26754C1.85231 8.02345 1.9338 7.81337 2.09676 7.39322C2.36361 6.70525 2.76176 5.96544 3.31999 5.592C4.66999 4.692 7.48665 5.592 7.48665 5.592M2.06999 12.6753C1.44829 13.1976 1.03273 14.231 0.772046 15.138C0.639459 15.5993 0.573165 15.8299 0.670129 16.0881C0.742698 16.2813 0.964033 16.5026 1.15725 16.5752C1.41541 16.6722 1.64606 16.6059 2.10735 16.4733C3.01432 16.2126 4.04776 15.797 4.56999 15.1753C5.16165 14.4753 5.15332 13.4003 4.49499 12.7503C4.17108 12.4412 3.7444 12.2625 3.29684 12.2487C2.84929 12.2349 2.41238 12.3868 2.06999 12.6753Z" stroke="#9E660A" stroke-width="1.25" stroke-linecap="round" stroke-linejoin="round"/>
</svg>
