<svg width="20" height="20" viewBox="0 0 20 20" fill="none" xmlns="http://www.w3.org/2000/svg">
<path d="M8.33366 6.66732V5.83398M8.33366 10.4173V9.58398M8.33366 14.1673V13.334M4.33366 3.33398H15.667C16.6004 3.33398 17.0671 3.33398 17.4236 3.51564C17.7372 3.67543 17.9922 3.9304 18.152 4.244C18.3337 4.60052 18.3337 5.06723 18.3337 6.00065C18.3337 6.2502 18.3337 6.37497 18.3202 6.4489C18.2642 6.75721 18.2039 6.84538 17.937 7.00958C17.873 7.04896 17.6736 7.12669 17.2748 7.28215C16.1874 7.70599 15.417 8.76334 15.417 10.0007C15.417 11.238 16.1874 12.2953 17.2748 12.7192C17.6736 12.8746 17.873 12.9523 17.937 12.9917C18.2039 13.1559 18.2642 13.2441 18.3202 13.5524C18.3337 13.6263 18.3337 13.7511 18.3337 14.0007C18.3337 14.9341 18.3337 15.4008 18.152 15.7573C17.9922 16.0709 17.7372 16.3259 17.4236 16.4857C17.0671 16.6673 16.6004 16.6673 15.667 16.6673H4.33366C3.40024 16.6673 2.93353 16.6673 2.57701 16.4857C2.2634 16.3259 2.00844 16.0709 1.84865 15.7573C1.66699 15.4008 1.66699 14.9341 1.66699 14.0007C1.66699 13.7511 1.66699 13.6263 1.68044 13.5524C1.7365 13.2441 1.79675 13.1559 2.06365 12.9917C2.12766 12.9523 2.32707 12.8746 2.72589 12.7192C3.81321 12.2953 4.58366 11.238 4.58366 10.0007C4.58366 8.76334 3.81321 7.70599 2.72589 7.28215C2.32707 7.12669 2.12766 7.04896 2.06365 7.00958C1.79675 6.84538 1.7365 6.75721 1.68044 6.4489C1.66699 6.37497 1.66699 6.2502 1.66699 6.00065C1.66699 5.06723 1.66699 4.60052 1.84865 4.244C2.00844 3.9304 2.2634 3.67543 2.57701 3.51564C2.93353 3.33398 3.40024 3.33398 4.33366 3.33398Z" stroke="#9E660A" stroke-width="1.25" stroke-linecap="round" stroke-linejoin="round"/>
</svg>
