<svg width="20" height="20" viewBox="0 0 20 20" fill="none" xmlns="http://www.w3.org/2000/svg">
<path d="M9.99984 12.9167H6.24984C5.08687 12.9167 4.50538 12.9167 4.03222 13.0602C2.96688 13.3834 2.1332 14.217 1.81004 15.2824C1.6665 15.7555 1.6665 16.337 1.6665 17.5M13.3332 15L14.057 15.7239C14.387 16.0539 14.552 16.2189 14.7423 16.2807C14.9097 16.3351 15.09 16.3351 15.2574 16.2807C15.4476 16.2189 15.6126 16.0539 15.9426 15.7239L18.3332 13.3333M12.0832 6.25C12.0832 8.32107 10.4042 10 8.33317 10C6.2621 10 4.58317 8.32107 4.58317 6.25C4.58317 4.17893 6.2621 2.5 8.33317 2.5C10.4042 2.5 12.0832 4.17893 12.0832 6.25Z" stroke="#1D6D46" stroke-width="1.25" stroke-linecap="round" stroke-linejoin="round"/>
</svg>
