<svg width="20" height="20" viewBox="0 0 20 20" fill="none" xmlns="http://www.w3.org/2000/svg">
<path d="M18.3332 8.33333H1.6665M9.1665 15.8333L15.6665 15.8333C16.5999 15.8333 17.0666 15.8333 17.4232 15.6517C17.7368 15.4919 17.9917 15.2369 18.1515 14.9233C18.3332 14.5668 18.3332 14.1001 18.3332 13.1667V6.83333C18.3332 5.89991 18.3332 5.4332 18.1515 5.07668C17.9917 4.76308 17.7368 4.50811 17.4232 4.34832C17.0666 4.16667 16.5999 4.16667 15.6665 4.16667H14.1665M9.1665 15.8333L10.8332 17.5M9.1665 15.8333L10.8332 14.1667M5.83317 15.8333H4.33317C3.39975 15.8333 2.93304 15.8333 2.57652 15.6517C2.26292 15.4919 2.00795 15.2369 1.84816 14.9233C1.6665 14.5668 1.6665 14.1001 1.6665 13.1667V6.83333C1.6665 5.89991 1.6665 5.4332 1.84816 5.07668C2.00795 4.76308 2.26292 4.50811 2.57652 4.34832C2.93304 4.16667 3.39975 4.16667 4.33317 4.16667H10.8332M10.8332 4.16667L9.1665 5.83333M10.8332 4.16667L9.1665 2.5" stroke="#767676" stroke-width="1.25" stroke-linecap="round" stroke-linejoin="round"/>
</svg>
