<svg width="16" height="17" viewBox="0 0 16 17" fill="none" xmlns="http://www.w3.org/2000/svg">
<path d="M8.95833 11.0417H5.20834C4.04536 11.0417 3.46388 11.0417 2.99072 11.1852C1.92538 11.5084 1.0917 12.342 0.768533 13.4074C0.625 13.8805 0.625 14.462 0.625 15.625M11.3572 14.8928L13.125 13.125M13.125 13.125L14.8928 11.3572M13.125 13.125L11.3572 11.3572M13.125 13.125L14.8928 14.8928M11.0417 4.375C11.0417 6.44607 9.36273 8.125 7.29167 8.125C5.2206 8.125 3.54167 6.44607 3.54167 4.375C3.54167 2.30393 5.2206 0.625 7.29167 0.625C9.36273 0.625 11.0417 2.30393 11.0417 4.375Z" stroke="#9E0A0A" stroke-width="1.25" stroke-linecap="round" stroke-linejoin="round"/>
</svg>
