<svg width="17" height="18" viewBox="0 0 17 18" fill="none" xmlns="http://www.w3.org/2000/svg">
<path d="M15.625 8.54167V6.29167C15.625 4.89154 15.625 4.19147 15.3525 3.65669C15.1128 3.18629 14.7304 2.80383 14.26 2.56415C13.7252 2.29167 13.0251 2.29167 11.625 2.29167H4.625C3.22487 2.29167 2.5248 2.29167 1.99002 2.56415C1.51962 2.80383 1.13717 3.18629 0.897484 3.65669C0.625 4.19147 0.625 4.89154 0.625 6.29167V13.2917C0.625 14.6918 0.625 15.3919 0.897484 15.9266C1.13717 16.397 1.51962 16.7795 1.99002 17.0192C2.5248 17.2917 3.22487 17.2917 4.625 17.2917H8.54167M15.625 7.29167H0.625M11.4583 0.625V3.95833M4.79167 0.625V3.95833M13.125 16.4583V11.4583M10.625 13.9583H15.625" stroke="#767676" stroke-width="1.25" stroke-linecap="round" stroke-linejoin="round"/>
</svg>
