<svg width="18" height="18" viewBox="0 0 18 18" fill="none" xmlns="http://www.w3.org/2000/svg">
<path d="M0.625 5.93935C0.625 5.64742 0.625 5.50145 0.637181 5.37851C0.754668 4.19272 1.69272 3.25467 2.87851 3.13718C3.00145 3.125 3.1553 3.125 3.46299 3.125C3.58154 3.125 3.64082 3.125 3.69115 3.12195C4.33384 3.08303 4.89663 2.6774 5.13679 2.08C5.1556 2.03321 5.17317 1.98048 5.20833 1.875C5.24349 1.76952 5.26107 1.71679 5.27988 1.67C5.52004 1.0726 6.08282 0.666971 6.72551 0.628048C6.77584 0.625 6.83143 0.625 6.94262 0.625H10.9741C11.0852 0.625 11.1408 0.625 11.1912 0.628048C11.8338 0.666971 12.3966 1.0726 12.6368 1.67C12.6556 1.71679 12.6732 1.76952 12.7083 1.875C12.7435 1.98048 12.7611 2.03321 12.7799 2.08C13.02 2.6774 13.5828 3.08303 14.2255 3.12195C14.2758 3.125 14.3351 3.125 14.4537 3.125C14.7614 3.125 14.9152 3.125 15.0382 3.13718C16.2239 3.25467 17.162 4.19272 17.2795 5.37851C17.2917 5.50145 17.2917 5.64742 17.2917 5.93935V12.4583C17.2917 13.8585 17.2917 14.5585 17.0192 15.0933C16.7795 15.5637 16.397 15.9462 15.9266 16.1858C15.3919 16.4583 14.6918 16.4583 13.2917 16.4583H4.625C3.22487 16.4583 2.5248 16.4583 1.99002 16.1858C1.51962 15.9462 1.13717 15.5637 0.897484 15.0933C0.625 14.5585 0.625 13.8585 0.625 12.4583V5.93935Z" stroke="#767676" stroke-width="1.25" stroke-linecap="round" stroke-linejoin="round"/>
<path d="M8.95833 12.7083C10.7993 12.7083 12.2917 11.2159 12.2917 9.375C12.2917 7.53405 10.7993 6.04167 8.95833 6.04167C7.11738 6.04167 5.625 7.53405 5.625 9.375C5.625 11.2159 7.11738 12.7083 8.95833 12.7083Z" stroke="#767676" stroke-width="1.25" stroke-linecap="round" stroke-linejoin="round"/>
</svg>
