<svg width="18" height="18" viewBox="0 0 18 18" fill="none" xmlns="http://www.w3.org/2000/svg">
<path d="M8.54167 1.45833H4.625C3.22487 1.45833 2.5248 1.45833 1.99002 1.73082C1.51962 1.9705 1.13717 2.35295 0.897484 2.82336C0.625 3.35814 0.625 4.0582 0.625 5.45833V12.4583C0.625 13.8585 0.625 14.5585 0.897484 15.0933C1.13717 15.5637 1.51962 15.9462 1.99002 16.1858C2.5248 16.4583 3.22487 16.4583 4.625 16.4583H12.2917C13.0666 16.4583 13.4541 16.4583 13.772 16.3731C14.6348 16.142 15.3086 15.4681 15.5398 14.6054C15.625 14.2875 15.625 13.9 15.625 13.125M13.9583 5.625V0.625M11.4583 3.125H16.4583M6.875 6.04167C6.875 6.96214 6.12881 7.70833 5.20833 7.70833C4.28786 7.70833 3.54167 6.96214 3.54167 6.04167C3.54167 5.12119 4.28786 4.375 5.20833 4.375C6.12881 4.375 6.875 5.12119 6.875 6.04167ZM10.6167 8.89012L3.56762 15.2984C3.17114 15.6588 2.97289 15.839 2.95536 15.9952C2.94016 16.1305 2.99204 16.2647 3.09432 16.3546C3.21232 16.4583 3.48023 16.4583 4.01607 16.4583H11.8383C13.0376 16.4583 13.6373 16.4583 14.1083 16.2569C14.6995 16.0039 15.1706 15.5329 15.4235 14.9416C15.625 14.4706 15.625 13.871 15.625 12.6716C15.625 12.2681 15.625 12.0664 15.5809 11.8785C15.5254 11.6423 15.4191 11.4211 15.2694 11.2303C15.1502 11.0785 14.9927 10.9525 14.6776 10.7004L12.3465 8.83555C12.0312 8.58326 11.8735 8.45711 11.6998 8.41259C11.5468 8.37335 11.3857 8.37843 11.2354 8.42724C11.065 8.48262 10.9155 8.61846 10.6167 8.89012Z" stroke="#767676" stroke-width="1.25" stroke-linecap="round" stroke-linejoin="round"/>
</svg>
