<svg width="19" height="17" viewBox="0 0 19 17" fill="none" xmlns="http://www.w3.org/2000/svg">
<path d="M9.17786 6.04511V9.37845M9.17786 12.7118H9.18619M8.02395 1.78822L1.16988 13.6271C0.789712 14.2837 0.599626 14.6121 0.627721 14.8815C0.652225 15.1166 0.775367 15.3301 0.966499 15.4691C1.18563 15.6284 1.56502 15.6284 2.32379 15.6284H16.0319C16.7907 15.6284 17.1701 15.6284 17.3892 15.4691C17.5803 15.3301 17.7035 15.1166 17.728 14.8815C17.7561 14.6121 17.566 14.2837 17.1858 13.6271L10.3318 1.78821C9.95295 1.13391 9.76355 0.806761 9.51644 0.696883C9.30089 0.601039 9.05482 0.601039 8.83927 0.696883C8.59217 0.806761 8.40276 1.13391 8.02395 1.78822Z" stroke="black" stroke-width="1.25" stroke-linecap="round" stroke-linejoin="round"/>
</svg>
