<svg width="20" height="20" viewBox="0 0 20 20" fill="none" xmlns="http://www.w3.org/2000/svg">
<path d="M6.66667 3.33341H6.5C5.09987 3.33341 4.3998 3.33341 3.86502 3.6059C3.39462 3.84558 3.01217 4.22803 2.77248 4.69844C2.5 5.23322 2.5 5.93328 2.5 7.33341V8.33341M6.66667 3.33341H13.3333M6.66667 3.33341V1.66675M6.66667 3.33341V5.00008M13.3333 3.33341H13.5C14.9001 3.33341 15.6002 3.33341 16.135 3.6059C16.6054 3.84558 16.9878 4.22803 17.2275 4.69844C17.5 5.23322 17.5 5.93328 17.5 7.33341V8.33341M13.3333 3.33341V1.66675M13.3333 3.33341V5.00008M2.5 8.33341V14.3334C2.5 15.7335 2.5 16.4336 2.77248 16.9684C3.01217 17.4388 3.39462 17.8212 3.86502 18.0609C4.3998 18.3334 5.09987 18.3334 6.5 18.3334H10.4167M2.5 8.33341H17.5M17.5 8.33341V9.58341M13.2322 16.7678L15 15.0001M15 15.0001L16.7678 13.2323M15 15.0001L13.2322 13.2323M15 15.0001L16.7678 16.7678" stroke="#C73838" stroke-width="1.25" stroke-linecap="round" stroke-linejoin="round"/>
</svg>
