<svg width="18" height="18" viewBox="0 0 18 18" fill="none" xmlns="http://www.w3.org/2000/svg">
<path d="M7.29167 11.4583L4.72895 14.0531C4.37149 14.415 4.19275 14.596 4.03913 14.6087C3.90584 14.6198 3.77535 14.5662 3.6883 14.4647C3.58796 14.3477 3.58796 14.0933 3.58796 13.5846V12.2847C3.58796 11.8283 3.21423 11.4981 2.76267 11.4319C1.66979 11.2719 0.81148 10.4135 0.651396 9.32066C0.625 9.14046 0.625 8.92543 0.625 8.49537V4.625C0.625 3.22487 0.625 2.5248 0.897484 1.99002C1.13717 1.51962 1.51962 1.13717 1.99002 0.897484C2.5248 0.625 3.22487 0.625 4.625 0.625H10.7917C12.1918 0.625 12.8919 0.625 13.4266 0.897484C13.897 1.13717 14.2795 1.51962 14.5192 1.99002C14.7917 2.5248 14.7917 3.22487 14.7917 4.625V8.125M11.4558 15.5536H9.95833C9.02491 15.5536 8.5582 15.5536 8.20168 15.3719C7.88808 15.2121 7.63311 14.9572 7.47332 14.6436C7.29167 14.287 7.29167 13.8203 7.29167 12.8869V10.7917C7.29167 9.85825 7.29167 9.39154 7.47332 9.03502C7.63311 8.72141 7.88808 8.46645 8.20168 8.30666C8.5582 8.125 9.02491 8.125 9.95833 8.125H14.625C15.5584 8.125 16.0251 8.125 16.3817 8.30666C16.6953 8.46645 16.9502 8.72141 17.11 9.03502C17.2917 9.39154 17.2917 9.85825 17.2917 10.7917V13.0536C17.2917 13.8301 17.2917 14.2184 17.1648 14.5247C16.9956 14.9331 16.6712 15.2575 16.2628 15.4267C16.0474 15.5159 15.7915 15.5424 15.3885 15.5503C15.0591 15.5567 14.7917 15.8207 14.7917 16.1502C14.7917 16.632 14.2501 16.9151 13.8545 16.6401L12.978 16.0307C12.723 15.8535 12.5956 15.7649 12.4568 15.702C12.3337 15.6463 12.2042 15.6057 12.0713 15.5812C11.9215 15.5536 11.7663 15.5536 11.4558 15.5536Z" stroke="#F0F0F0" stroke-width="1.25" stroke-linecap="round" stroke-linejoin="round"/>
</svg>
