<svg width="17" height="17" viewBox="0 0 17 17" fill="none" xmlns="http://www.w3.org/2000/svg">
<path d="M6.45833 4.79353C6.60516 4.37613 6.89498 4.02417 7.27644 3.79998C7.65791 3.57579 8.10641 3.49384 8.54251 3.56864C8.97861 3.64344 9.37417 3.87017 9.65912 4.20867C9.94407 4.54717 10.1 4.9756 10.0994 5.41806C10.0994 6.66713 8.22577 7.29167 8.22577 7.29167M8.24992 9.79167H8.25825M0.625 9.79167V4.625C0.625 3.22487 0.625 2.5248 0.897484 1.99002C1.13717 1.51962 1.51962 1.13717 1.99002 0.897484C2.5248 0.625 3.22487 0.625 4.625 0.625H11.625C13.0251 0.625 13.7252 0.625 14.26 0.897484C14.7304 1.13717 15.1128 1.51962 15.3525 1.99002C15.625 2.5248 15.625 3.22487 15.625 4.625V9.125C15.625 10.5251 15.625 11.2252 15.3525 11.76C15.1128 12.2304 14.7304 12.6128 14.26 12.8525C13.7252 13.125 13.0251 13.125 11.625 13.125H9.52812C9.00808 13.125 8.74806 13.125 8.49935 13.176C8.27869 13.2213 8.06517 13.2962 7.86457 13.3987C7.63847 13.5142 7.43543 13.6767 7.02934 14.0015L5.04146 15.5918C4.69473 15.8692 4.52136 16.0079 4.37545 16.0081C4.24856 16.0082 4.12852 15.9505 4.04936 15.8513C3.95833 15.7373 3.95833 15.5153 3.95833 15.0713V14.4583C3.95833 14.0398 3.95833 13.8306 3.88641 13.6689C3.81489 13.5081 3.73739 13.4156 3.59158 13.3171C3.44494 13.218 3.17244 13.1696 2.62744 13.0728C2.57531 13.0635 2.52584 13.0526 2.47795 13.0398C1.61522 12.8086 0.941353 12.1348 0.710185 11.272C0.625 10.9541 0.625 10.5666 0.625 9.79167Z" stroke="#474747" stroke-width="1.25" stroke-linecap="round" stroke-linejoin="round"/>
</svg>
