<svg width="17" height="18" viewBox="0 0 17 18" fill="none" xmlns="http://www.w3.org/2000/svg">
<path d="M5.91677 15.1009L6.4038 16.1963C6.54859 16.5224 6.78487 16.7994 7.08399 16.9938C7.38312 17.1883 7.73223 17.2917 8.08899 17.2917C8.44575 17.2917 8.79486 17.1883 9.09399 16.9938C9.39311 16.7994 9.62939 16.5224 9.77417 16.1963L10.2612 15.1009C10.4346 14.7123 10.7262 14.3882 11.0945 14.175C11.4652 13.9612 11.894 13.8701 12.3195 13.9148L13.5112 14.0417C13.8659 14.0792 14.2239 14.013 14.5418 13.8511C14.8596 13.6892 15.1237 13.4386 15.302 13.1296C15.4804 12.8208 15.5655 12.4669 15.5467 12.1107C15.528 11.7546 15.4063 11.4115 15.1964 11.1231L14.4908 10.1537C14.2396 9.80594 14.1054 9.38735 14.1075 8.95833C14.1074 8.53049 14.2429 8.11363 14.4945 7.76759L15.2001 6.79815C15.41 6.5098 15.5317 6.16672 15.5504 5.81056C15.5692 5.4544 15.4841 5.10045 15.3057 4.79167C15.1274 4.4827 14.8633 4.23207 14.5455 4.07019C14.2276 3.9083 13.8696 3.84211 13.5149 3.87963L12.3232 4.00648C11.8977 4.05117 11.4689 3.9601 11.0982 3.7463C10.7292 3.53188 10.4375 3.20613 10.2649 2.81574L9.77417 1.72037C9.62939 1.39431 9.39311 1.11726 9.09399 0.922832C8.79486 0.728402 8.44575 0.624942 8.08899 0.625C7.73223 0.624942 7.38312 0.728402 7.08399 0.922832C6.78487 1.11726 6.54859 1.39431 6.4038 1.72037L5.91677 2.81574C5.74421 3.20613 5.45249 3.53188 5.08343 3.7463C4.71278 3.9601 4.28399 4.05117 3.85843 4.00648L2.66306 3.87963C2.30834 3.84211 1.95035 3.9083 1.63249 4.07019C1.31464 4.23207 1.05058 4.4827 0.872322 4.79167C0.69384 5.10045 0.608808 5.4544 0.627545 5.81056C0.646282 6.16672 0.767982 6.5098 0.977878 6.79815L1.68343 7.76759C1.93505 8.11363 2.07055 8.53049 2.07047 8.95833C2.07055 9.38618 1.93505 9.80304 1.68343 10.1491L0.977878 11.1185C0.767982 11.4069 0.646282 11.7499 0.627545 12.1061C0.608808 12.4623 0.69384 12.8162 0.872322 13.125C1.05075 13.4338 1.31485 13.6843 1.63265 13.8462C1.95046 14.008 2.30836 14.0743 2.66306 14.037L3.85473 13.9102C4.28029 13.8655 4.70908 13.9566 5.07973 14.1704C5.45017 14.3842 5.74324 14.71 5.91677 15.1009Z" stroke="#474747" stroke-width="1.25" stroke-linecap="round" stroke-linejoin="round"/>
<path d="M8.0875 11.4583C9.46821 11.4583 10.5875 10.339 10.5875 8.95833C10.5875 7.57762 9.46821 6.45833 8.0875 6.45833C6.70679 6.45833 5.5875 7.57762 5.5875 8.95833C5.5875 10.339 6.70679 11.4583 8.0875 11.4583Z" stroke="#474747" stroke-width="1.25" stroke-linecap="round" stroke-linejoin="round"/>
</svg>

