<svg width="18" height="17" viewBox="0 0 18 17" fill="none" xmlns="http://www.w3.org/2000/svg">
<path d="M17.2917 15.625V13.9583C17.2917 12.4051 16.2294 11.1001 14.7917 10.73M11.875 0.867299C13.0966 1.36179 13.9583 2.55943 13.9583 3.95833C13.9583 5.35724 13.0966 6.55488 11.875 7.04937M13.125 15.625C13.125 14.0719 13.125 13.2953 12.8713 12.6827C12.533 11.866 11.884 11.217 11.0673 10.8787C10.4547 10.625 9.67814 10.625 8.125 10.625H5.625C4.07186 10.625 3.29529 10.625 2.68272 10.8787C1.86596 11.217 1.21705 11.866 0.878735 12.6827C0.625 13.2953 0.625 14.0719 0.625 15.625M10.2083 3.95833C10.2083 5.79928 8.71595 7.29167 6.875 7.29167C5.03405 7.29167 3.54167 5.79928 3.54167 3.95833C3.54167 2.11738 5.03405 0.625 6.875 0.625C8.71595 0.625 10.2083 2.11738 10.2083 3.95833Z" stroke="#474747" stroke-width="1.25" stroke-linecap="round" stroke-linejoin="round"/>
</svg>
