<svg width="13" height="13" viewBox="0 0 13 13" fill="none" xmlns="http://www.w3.org/2000/svg">
<path d="M4.1 0.5H1.56667C1.1933 0.5 1.00661 0.5 0.864006 0.572662C0.738565 0.636578 0.636578 0.738565 0.572662 0.864006C0.5 1.00661 0.5 1.1933 0.5 1.56667V4.1C0.5 4.47337 0.5 4.66005 0.572662 4.80266C0.636578 4.9281 0.738565 5.03009 0.864006 5.094C1.00661 5.16667 1.1933 5.16667 1.56667 5.16667H4.1C4.47337 5.16667 4.66005 5.16667 4.80266 5.094C4.9281 5.03009 5.03009 4.9281 5.094 4.80266C5.16667 4.66005 5.16667 4.47337 5.16667 4.1V1.56667C5.16667 1.1933 5.16667 1.00661 5.094 0.864006C5.03009 0.738565 4.9281 0.636578 4.80266 0.572662C4.66005 0.5 4.47337 0.5 4.1 0.5Z" stroke="#474747" stroke-linecap="round" stroke-linejoin="round"/>
<path d="M11.4333 0.5H8.9C8.52663 0.5 8.33995 0.5 8.19734 0.572662C8.0719 0.636578 7.96991 0.738565 7.906 0.864006C7.83333 1.00661 7.83333 1.1933 7.83333 1.56667V4.1C7.83333 4.47337 7.83333 4.66005 7.906 4.80266C7.96991 4.9281 8.0719 5.03009 8.19734 5.094C8.33995 5.16667 8.52663 5.16667 8.9 5.16667H11.4333C11.8067 5.16667 11.9934 5.16667 12.136 5.094C12.2614 5.03009 12.3634 4.9281 12.4273 4.80266C12.5 4.66005 12.5 4.47337 12.5 4.1V1.56667C12.5 1.1933 12.5 1.00661 12.4273 0.864006C12.3634 0.738565 12.2614 0.636578 12.136 0.572662C11.9934 0.5 11.8067 0.5 11.4333 0.5Z" stroke="#474747" stroke-linecap="round" stroke-linejoin="round"/>
<path d="M11.4333 7.83333H8.9C8.52663 7.83333 8.33995 7.83333 8.19734 7.906C8.0719 7.96991 7.96991 8.0719 7.906 8.19734C7.83333 8.33995 7.83333 8.52663 7.83333 8.9V11.4333C7.83333 11.8067 7.83333 11.9934 7.906 12.136C7.96991 12.2614 8.0719 12.3634 8.19734 12.4273C8.33995 12.5 8.52663 12.5 8.9 12.5H11.4333C11.8067 12.5 11.9934 12.5 12.136 12.4273C12.2614 12.3634 12.3634 12.2614 12.4273 12.136C12.5 11.9934 12.5 11.8067 12.5 11.4333V8.9C12.5 8.52663 12.5 8.33995 12.4273 8.19734C12.3634 8.0719 12.2614 7.96991 12.136 7.906C11.9934 7.83333 11.8067 7.83333 11.4333 7.83333Z" stroke="#474747" stroke-linecap="round" stroke-linejoin="round"/>
<path d="M4.1 7.83333H1.56667C1.1933 7.83333 1.00661 7.83333 0.864006 7.906C0.738565 7.96991 0.636578 8.0719 0.572662 8.19734C0.5 8.33995 0.5 8.52663 0.5 8.9V11.4333C0.5 11.8067 0.5 11.9934 0.572662 12.136C0.636578 12.2614 0.738565 12.3634 0.864006 12.4273C1.00661 12.5 1.1933 12.5 1.56667 12.5H4.1C4.47337 12.5 4.66005 12.5 4.80266 12.4273C4.9281 12.3634 5.03009 12.2614 5.094 12.136C5.16667 11.9934 5.16667 11.8067 5.16667 11.4333V8.9C5.16667 8.52663 5.16667 8.33995 5.094 8.19734C5.03009 8.0719 4.9281 7.96991 4.80266 7.906C4.66005 7.83333 4.47337 7.83333 4.1 7.83333Z" stroke="#474747" stroke-linecap="round" stroke-linejoin="round"/>
</svg>
