<svg width="15" height="13" viewBox="0 0 15 13" fill="none" xmlns="http://www.w3.org/2000/svg">
<path d="M7.16667 8.83333H4.16667C3.23629 8.83333 2.7711 8.83333 2.39257 8.94816C1.5403 9.20669 0.87336 9.87364 0.614826 10.7259C0.5 11.1044 0.5 11.5696 0.5 12.5M9.83333 10.5L10.4124 11.0791C10.6764 11.3431 10.8084 11.4751 10.9607 11.5246C11.0946 11.5681 11.2388 11.5681 11.3727 11.5246C11.5249 11.4751 11.6569 11.3431 11.9209 11.0791L13.8333 9.16667M8.83333 3.5C8.83333 5.15685 7.49019 6.5 5.83333 6.5C4.17648 6.5 2.83333 5.15685 2.83333 3.5C2.83333 1.84315 4.17648 0.5 5.83333 0.5C7.49019 0.5 8.83333 1.84315 8.83333 3.5Z" stroke="#474747" stroke-linecap="round" stroke-linejoin="round"/>
</svg>
