<svg width="84" height="20" viewBox="0 0 84 20" fill="none" xmlns="http://www.w3.org/2000/svg">
<rect width="84" height="20" rx="4" fill="#0A839E"/>
<g clip-path="url(#clip0_8577_27999)">
<path d="M11.3309 8.66659H11.3409M11.3334 12.6666H11.3434M8.66683 10.6666H14.0002M16.6668 6.33325C16.6668 5.78097 16.2191 5.33325 15.6668 5.33325C15.1145 5.33325 14.6668 5.78097 14.6668 6.33325C14.6668 6.88554 15.1145 7.33325 15.6668 7.33325C16.2191 7.33325 16.6668 6.88554 16.6668 6.33325ZM5.84965 9.42919C5.18088 10.1761 5.1665 11.303 5.78027 12.0957C6.99824 13.6688 8.33132 15.0019 9.90439 16.2198C10.6971 16.8336 11.824 16.8192 12.5709 16.1505C14.5988 14.3347 16.4558 12.4372 18.2481 10.3519C18.4253 10.1457 18.5361 9.89305 18.561 9.62232C18.671 8.42524 18.897 4.97637 17.9604 4.03975C17.0237 3.10313 13.5748 3.3291 12.3778 3.43909C12.107 3.46397 11.8544 3.57481 11.6482 3.75199C9.56291 5.54423 7.66537 7.40133 5.84965 9.42919Z" stroke="white" stroke-linecap="round" stroke-linejoin="round"/>
</g>
<path d="M24.84 14.5V5.86H30.3V6.874H25.908V9.58H29.58V10.594H25.908V13.486H30.3V14.5H24.84ZM33.5843 14.68C33.1003 14.68 32.6943 14.592 32.3663 14.416C32.0423 14.236 31.7963 14 31.6283 13.708C31.4643 13.416 31.3823 13.096 31.3823 12.748C31.3823 12.408 31.4463 12.114 31.5743 11.866C31.7063 11.614 31.8903 11.406 32.1263 11.242C32.3623 11.074 32.6443 10.942 32.9723 10.846C33.2803 10.762 33.6243 10.69 34.0043 10.63C34.3883 10.566 34.7763 10.508 35.1683 10.456C35.5603 10.404 35.9263 10.354 36.2663 10.306L35.8823 10.528C35.8943 9.952 35.7783 9.526 35.5343 9.25C35.2943 8.974 34.8783 8.836 34.2863 8.836C33.8943 8.836 33.5503 8.926 33.2543 9.106C32.9623 9.282 32.7563 9.57 32.6363 9.97L31.6223 9.664C31.7783 9.096 32.0803 8.65 32.5283 8.326C32.9763 8.002 33.5663 7.84 34.2983 7.84C34.8863 7.84 35.3903 7.946 35.8103 8.158C36.2343 8.366 36.5383 8.682 36.7223 9.106C36.8143 9.306 36.8723 9.524 36.8963 9.76C36.9203 9.992 36.9323 10.236 36.9323 10.492V14.5H35.9843V12.946L36.2063 13.09C35.9623 13.614 35.6203 14.01 35.1803 14.278C34.7443 14.546 34.2123 14.68 33.5843 14.68ZM33.7463 13.786C34.1303 13.786 34.4623 13.718 34.7423 13.582C35.0263 13.442 35.2543 13.26 35.4263 13.036C35.5983 12.808 35.7103 12.56 35.7623 12.292C35.8223 12.092 35.8543 11.87 35.8583 11.626C35.8663 11.378 35.8703 11.188 35.8703 11.056L36.2423 11.218C35.8943 11.266 35.5523 11.312 35.2163 11.356C34.8803 11.4 34.5623 11.448 34.2623 11.5C33.9623 11.548 33.6923 11.606 33.4523 11.674C33.2763 11.73 33.1103 11.802 32.9543 11.89C32.8023 11.978 32.6783 12.092 32.5823 12.232C32.4903 12.368 32.4443 12.538 32.4443 12.742C32.4443 12.918 32.4883 13.086 32.5763 13.246C32.6683 13.406 32.8083 13.536 32.9963 13.636C33.1883 13.736 33.4383 13.786 33.7463 13.786ZM38.4923 14.5V8.02H39.4463V9.586L39.2903 9.382C39.3663 9.182 39.4643 8.998 39.5843 8.83C39.7083 8.662 39.8463 8.524 39.9983 8.416C40.1663 8.28 40.3563 8.176 40.5683 8.104C40.7803 8.032 40.9963 7.99 41.2163 7.978C41.4363 7.962 41.6423 7.976 41.8343 8.02V9.022C41.6103 8.962 41.3643 8.946 41.0963 8.974C40.8283 9.002 40.5803 9.1 40.3523 9.268C40.1443 9.416 39.9823 9.596 39.8663 9.808C39.7543 10.02 39.6763 10.25 39.6323 10.498C39.5883 10.742 39.5663 10.992 39.5663 11.248V14.5H38.4923ZM43.0889 14.5V5.68H44.1569V14.5H43.0889ZM46.8572 17.38L48.1112 13.972L48.1292 14.98L45.2972 8.02H46.4192L48.6392 13.618H48.2552L50.3372 8.02H51.4232L47.8952 17.38H46.8572ZM54.8166 14.5V5.86H58.1826C58.6986 5.86 59.1386 5.966 59.5026 6.178C59.8706 6.39 60.1506 6.67 60.3426 7.018C60.5386 7.362 60.6366 7.734 60.6366 8.134C60.6366 8.602 60.5166 9.012 60.2766 9.364C60.0366 9.716 59.7126 9.958 59.3046 10.09L59.2926 9.796C59.8486 9.944 60.2806 10.216 60.5886 10.612C60.8966 11.008 61.0506 11.48 61.0506 12.028C61.0506 12.532 60.9466 12.968 60.7386 13.336C60.5346 13.704 60.2386 13.99 59.8506 14.194C59.4666 14.398 59.0106 14.5 58.4826 14.5H54.8166ZM55.8966 13.48H58.2786C58.5986 13.48 58.8846 13.422 59.1366 13.306C59.3886 13.186 59.5866 13.018 59.7306 12.802C59.8786 12.586 59.9526 12.326 59.9526 12.022C59.9526 11.73 59.8866 11.468 59.7546 11.236C59.6266 11.004 59.4446 10.82 59.2086 10.684C58.9766 10.544 58.7066 10.474 58.3986 10.474H55.8966V13.48ZM55.8966 9.466H58.1706C58.4266 9.466 58.6566 9.412 58.8606 9.304C59.0686 9.192 59.2326 9.036 59.3526 8.836C59.4766 8.636 59.5386 8.402 59.5386 8.134C59.5386 7.762 59.4126 7.458 59.1606 7.222C58.9086 6.986 58.5786 6.868 58.1706 6.868H55.8966V9.466ZM62.3663 6.874V5.77H63.4343V6.874H62.3663ZM62.3663 14.5V8.02H63.4343V14.5H62.3663ZM65.2345 14.5V8.02H66.1885V9.586L66.0325 9.382C66.1085 9.182 66.2065 8.998 66.3265 8.83C66.4505 8.662 66.5885 8.524 66.7405 8.416C66.9085 8.28 67.0985 8.176 67.3105 8.104C67.5225 8.032 67.7385 7.99 67.9585 7.978C68.1785 7.962 68.3845 7.976 68.5765 8.02V9.022C68.3525 8.962 68.1065 8.946 67.8385 8.974C67.5705 9.002 67.3225 9.1 67.0945 9.268C66.8865 9.416 66.7245 9.596 66.6085 9.808C66.4965 10.02 66.4185 10.25 66.3745 10.498C66.3305 10.742 66.3085 10.992 66.3085 11.248V14.5H65.2345ZM72.1379 14.68C71.5339 14.68 71.0159 14.53 70.5839 14.23C70.1519 13.926 69.8179 13.516 69.5819 13C69.3499 12.484 69.2339 11.902 69.2339 11.254C69.2339 10.606 69.3499 10.024 69.5819 9.508C69.8179 8.992 70.1519 8.586 70.5839 8.29C71.0159 7.99 71.5319 7.84 72.1319 7.84C72.7439 7.84 73.2579 7.988 73.6739 8.284C74.0899 8.58 74.4039 8.986 74.6159 9.502C74.8319 10.018 74.9399 10.602 74.9399 11.254C74.9399 11.898 74.8319 12.48 74.6159 13C74.4039 13.516 74.0899 13.926 73.6739 14.23C73.2579 14.53 72.7459 14.68 72.1379 14.68ZM72.2699 13.702C72.7059 13.702 73.0639 13.598 73.3439 13.39C73.6239 13.178 73.8299 12.888 73.9619 12.52C74.0979 12.148 74.1659 11.726 74.1659 11.254C74.1659 10.774 74.0979 10.352 73.9619 9.988C73.8299 9.62 73.6259 9.334 73.3499 9.13C73.0739 8.922 72.7239 8.818 72.2999 8.818C71.8599 8.818 71.4959 8.926 71.2079 9.142C70.9239 9.358 70.7119 9.65 70.5719 10.018C70.4359 10.386 70.3679 10.798 70.3679 11.254C70.3679 11.714 70.4379 12.13 70.5779 12.502C70.7179 12.87 70.9279 13.162 71.2079 13.378C71.4919 13.594 71.8459 13.702 72.2699 13.702ZM74.1659 14.5V9.73H74.0459V5.86H75.1199V14.5H74.1659Z" fill="white"/>
<defs>
<clipPath id="clip0_8577_27999">
<rect width="16" height="16" fill="white" transform="translate(4 2)"/>
</clipPath>
</defs>
</svg>
