<svg width="40" height="40" viewBox="0 0 40 40" fill="none" xmlns="http://www.w3.org/2000/svg">
<rect x="0.5" y="0.5" width="39" height="39" rx="7.5" fill="#E2F8FD"/>
<rect x="0.5" y="0.5" width="39" height="39" rx="7.5" stroke="url(#paint0_linear_8577_52642)"/>
<path d="M19.1635 18.3334H19.176M19.1666 23.3334H19.1791M15.8334 20.8334H22.5001M25.8334 15.4167C25.8334 14.7264 25.2738 14.1667 24.5834 14.1667C23.8931 14.1667 23.3334 14.7264 23.3334 15.4167C23.3334 16.1071 23.8931 16.6667 24.5834 16.6667C25.2738 16.6667 25.8334 16.1071 25.8334 15.4167ZM12.3119 19.2867C11.476 20.2203 11.458 21.6289 12.2252 22.6198C13.7477 24.5862 15.414 26.2525 17.3804 27.7749C18.3713 28.5422 19.7798 28.5242 20.7135 27.6882C23.2483 25.4186 25.5697 23.0467 27.81 20.44C28.0315 20.1823 28.17 19.8665 28.2011 19.5281C28.3386 18.0317 28.6211 13.7206 27.4503 12.5499C26.2795 11.3791 21.9684 11.6616 20.4721 11.799C20.1337 11.8301 19.8178 11.9687 19.5601 12.1902C16.9535 14.4305 14.5816 16.7518 12.3119 19.2867Z" stroke="#076C82" stroke-width="1.25" stroke-linecap="round" stroke-linejoin="round"/>
<defs>
<linearGradient id="paint0_linear_8577_52642" x1="5.33333" y1="1.66667" x2="36.3333" y2="36.1667" gradientUnits="userSpaceOnUse">
<stop stop-color="#61DAF5"/>
<stop offset="0.94" stop-color="#0A839E"/>
</linearGradient>
</defs>
</svg>
