<svg width="361" height="28" viewBox="0 0 361 28" fill="none" xmlns="http://www.w3.org/2000/svg">
<rect width="361" height="28" fill="#007BFE"/>
<g clip-path="url(#clip0_8577_53700)">
<path d="M23.3307 12.6666H23.3407M23.3332 16.6666H23.3432M20.6666 14.6666H26M28.6666 10.3333C28.6666 9.78097 28.2189 9.33325 27.6666 9.33325C27.1144 9.33325 26.6666 9.78097 26.6666 10.3333C26.6666 10.8855 27.1144 11.3333 27.6666 11.3333C28.2189 11.3333 28.6666 10.8855 28.6666 10.3333ZM17.8495 13.4292C17.1807 14.1761 17.1663 15.303 17.7801 16.0957C18.9981 17.6688 20.3311 19.0019 21.9042 20.2198C22.6969 20.8336 23.8238 20.8192 24.5707 20.1505C26.5986 18.3347 28.4556 16.4372 30.2479 14.3519C30.4251 14.1457 30.5359 13.8931 30.5608 13.6223C30.6708 12.4252 30.8968 8.97637 29.9602 8.03975C29.0235 7.10313 25.5746 7.3291 24.3776 7.43909C24.1068 7.46397 23.8542 7.57481 23.648 7.75199C21.5627 9.54423 19.6652 11.4013 17.8495 13.4292Z" stroke="white" stroke-linecap="round" stroke-linejoin="round"/>
</g>
<path d="M36.84 19V10.36H42.3V11.374H37.908V14.08H41.58V15.094H37.908V17.986H42.3V19H36.84ZM45.5843 19.18C45.1003 19.18 44.6943 19.092 44.3663 18.916C44.0423 18.736 43.7963 18.5 43.6283 18.208C43.4643 17.916 43.3823 17.596 43.3823 17.248C43.3823 16.908 43.4463 16.614 43.5743 16.366C43.7063 16.114 43.8903 15.906 44.1263 15.742C44.3623 15.574 44.6443 15.442 44.9723 15.346C45.2803 15.262 45.6243 15.19 46.0043 15.13C46.3883 15.066 46.7763 15.008 47.1683 14.956C47.5603 14.904 47.9263 14.854 48.2663 14.806L47.8823 15.028C47.8943 14.452 47.7783 14.026 47.5343 13.75C47.2943 13.474 46.8783 13.336 46.2863 13.336C45.8943 13.336 45.5503 13.426 45.2543 13.606C44.9623 13.782 44.7563 14.07 44.6363 14.47L43.6223 14.164C43.7783 13.596 44.0803 13.15 44.5283 12.826C44.9763 12.502 45.5663 12.34 46.2983 12.34C46.8863 12.34 47.3903 12.446 47.8103 12.658C48.2343 12.866 48.5383 13.182 48.7223 13.606C48.8143 13.806 48.8723 14.024 48.8963 14.26C48.9203 14.492 48.9323 14.736 48.9323 14.992V19H47.9843V17.446L48.2063 17.59C47.9623 18.114 47.6203 18.51 47.1803 18.778C46.7443 19.046 46.2123 19.18 45.5843 19.18ZM45.7463 18.286C46.1303 18.286 46.4623 18.218 46.7423 18.082C47.0263 17.942 47.2543 17.76 47.4263 17.536C47.5983 17.308 47.7103 17.06 47.7623 16.792C47.8223 16.592 47.8543 16.37 47.8583 16.126C47.8663 15.878 47.8703 15.688 47.8703 15.556L48.2423 15.718C47.8943 15.766 47.5523 15.812 47.2163 15.856C46.8803 15.9 46.5623 15.948 46.2623 16C45.9623 16.048 45.6923 16.106 45.4523 16.174C45.2763 16.23 45.1103 16.302 44.9543 16.39C44.8023 16.478 44.6783 16.592 44.5823 16.732C44.4903 16.868 44.4443 17.038 44.4443 17.242C44.4443 17.418 44.4883 17.586 44.5763 17.746C44.6683 17.906 44.8083 18.036 44.9963 18.136C45.1883 18.236 45.4383 18.286 45.7463 18.286ZM50.4923 19V12.52H51.4463V14.086L51.2903 13.882C51.3663 13.682 51.4643 13.498 51.5843 13.33C51.7083 13.162 51.8463 13.024 51.9983 12.916C52.1663 12.78 52.3563 12.676 52.5683 12.604C52.7803 12.532 52.9963 12.49 53.2163 12.478C53.4363 12.462 53.6423 12.476 53.8343 12.52V13.522C53.6103 13.462 53.3643 13.446 53.0963 13.474C52.8283 13.502 52.5803 13.6 52.3523 13.768C52.1443 13.916 51.9823 14.096 51.8663 14.308C51.7543 14.52 51.6763 14.75 51.6323 14.998C51.5883 15.242 51.5663 15.492 51.5663 15.748V19H50.4923ZM55.0889 19V10.18H56.1569V19H55.0889ZM58.8572 21.88L60.1112 18.472L60.1292 19.48L57.2972 12.52H58.4192L60.6392 18.118H60.2552L62.3372 12.52H63.4232L59.8952 21.88H58.8572ZM66.8166 19V10.36H70.1826C70.6986 10.36 71.1386 10.466 71.5026 10.678C71.8706 10.89 72.1506 11.17 72.3426 11.518C72.5386 11.862 72.6366 12.234 72.6366 12.634C72.6366 13.102 72.5166 13.512 72.2766 13.864C72.0366 14.216 71.7126 14.458 71.3046 14.59L71.2926 14.296C71.8486 14.444 72.2806 14.716 72.5886 15.112C72.8966 15.508 73.0506 15.98 73.0506 16.528C73.0506 17.032 72.9466 17.468 72.7386 17.836C72.5346 18.204 72.2386 18.49 71.8506 18.694C71.4666 18.898 71.0106 19 70.4826 19H66.8166ZM67.8966 17.98H70.2786C70.5986 17.98 70.8846 17.922 71.1366 17.806C71.3886 17.686 71.5866 17.518 71.7306 17.302C71.8786 17.086 71.9526 16.826 71.9526 16.522C71.9526 16.23 71.8866 15.968 71.7546 15.736C71.6266 15.504 71.4446 15.32 71.2086 15.184C70.9766 15.044 70.7066 14.974 70.3986 14.974H67.8966V17.98ZM67.8966 13.966H70.1706C70.4266 13.966 70.6566 13.912 70.8606 13.804C71.0686 13.692 71.2326 13.536 71.3526 13.336C71.4766 13.136 71.5386 12.902 71.5386 12.634C71.5386 12.262 71.4126 11.958 71.1606 11.722C70.9086 11.486 70.5786 11.368 70.1706 11.368H67.8966V13.966ZM74.3663 11.374V10.27H75.4343V11.374H74.3663ZM74.3663 19V12.52H75.4343V19H74.3663ZM77.2345 19V12.52H78.1885V14.086L78.0325 13.882C78.1085 13.682 78.2065 13.498 78.3265 13.33C78.4505 13.162 78.5885 13.024 78.7405 12.916C78.9085 12.78 79.0985 12.676 79.3105 12.604C79.5225 12.532 79.7385 12.49 79.9585 12.478C80.1785 12.462 80.3845 12.476 80.5765 12.52V13.522C80.3525 13.462 80.1065 13.446 79.8385 13.474C79.5705 13.502 79.3225 13.6 79.0945 13.768C78.8865 13.916 78.7245 14.096 78.6085 14.308C78.4965 14.52 78.4185 14.75 78.3745 14.998C78.3305 15.242 78.3085 15.492 78.3085 15.748V19H77.2345ZM84.1379 19.18C83.5339 19.18 83.0159 19.03 82.5839 18.73C82.1519 18.426 81.8179 18.016 81.5819 17.5C81.3499 16.984 81.2339 16.402 81.2339 15.754C81.2339 15.106 81.3499 14.524 81.5819 14.008C81.8179 13.492 82.1519 13.086 82.5839 12.79C83.0159 12.49 83.5319 12.34 84.1319 12.34C84.7439 12.34 85.2579 12.488 85.6739 12.784C86.0899 13.08 86.4039 13.486 86.6159 14.002C86.8319 14.518 86.9399 15.102 86.9399 15.754C86.9399 16.398 86.8319 16.98 86.6159 17.5C86.4039 18.016 86.0899 18.426 85.6739 18.73C85.2579 19.03 84.7459 19.18 84.1379 19.18ZM84.2699 18.202C84.7059 18.202 85.0639 18.098 85.3439 17.89C85.6239 17.678 85.8299 17.388 85.9619 17.02C86.0979 16.648 86.1659 16.226 86.1659 15.754C86.1659 15.274 86.0979 14.852 85.9619 14.488C85.8299 14.12 85.6259 13.834 85.3499 13.63C85.0739 13.422 84.7239 13.318 84.2999 13.318C83.8599 13.318 83.4959 13.426 83.2079 13.642C82.9239 13.858 82.7119 14.15 82.5719 14.518C82.4359 14.886 82.3679 15.298 82.3679 15.754C82.3679 16.214 82.4379 16.63 82.5779 17.002C82.7179 17.37 82.9279 17.662 83.2079 17.878C83.4919 18.094 83.8459 18.202 84.2699 18.202ZM86.1659 19V14.23H86.0459V10.36H87.1199V19H86.1659Z" fill="white"/>
<defs>
<clipPath id="clip0_8577_53700">
<rect width="16" height="16" fill="white" transform="translate(16 6)"/>
</clipPath>
</defs>
</svg>

