<svg width="15" height="15" viewBox="0 0 15 15" fill="none" xmlns="http://www.w3.org/2000/svg">
<path d="M6.4974 5.83333H6.5074M6.49987 9.83333H6.50987M3.83334 7.83333H9.16667M11.8333 3.5C11.8333 2.94772 11.3856 2.5 10.8333 2.5C10.2811 2.5 9.83334 2.94772 9.83334 3.5C9.83334 4.05228 10.2811 4.5 10.8333 4.5C11.3856 4.5 11.8333 4.05228 11.8333 3.5ZM1.01616 6.59593C0.347389 7.34287 0.333002 8.46973 0.946776 9.26247C2.16474 10.8355 3.49783 12.1686 5.07089 13.3865C5.8636 14.0003 6.99047 13.9859 7.7374 13.3172C9.76527 11.5015 11.6223 9.60393 13.4146 7.5186C13.5918 7.31247 13.7026 7.0598 13.7275 6.78907C13.8375 5.59199 14.0635 2.14311 13.1269 1.20649C12.1902 0.269873 8.74134 0.495846 7.54427 0.60584C7.27354 0.63072 7.02087 0.741553 6.81467 0.91874C4.72942 2.71097 2.83188 4.56807 1.01616 6.59593Z" stroke="white" stroke-linecap="round" stroke-linejoin="round"/>
</svg>
