<svg width="48" height="18" viewBox="0 0 48 18" fill="none" xmlns="http://www.w3.org/2000/svg">
<rect x="0.5" y="0.5" width="47" height="17" rx="3.5" fill="#F0F0F0"/>
<rect x="0.5" y="0.5" width="47" height="17" rx="3.5" stroke="#DBDBDB"/>
<path d="M6.84 13.5V4.86H12.3V5.874H7.908V8.58H11.58V9.594H7.908V12.486H12.3V13.5H6.84ZM18.3563 13.5V10.254C18.3563 9.946 18.3283 9.65 18.2723 9.366C18.2203 9.082 18.1263 8.828 17.9903 8.604C17.8583 8.376 17.6783 8.196 17.4503 8.064C17.2263 7.932 16.9423 7.866 16.5983 7.866C16.3303 7.866 16.0863 7.912 15.8663 8.004C15.6503 8.092 15.4643 8.228 15.3083 8.412C15.1523 8.596 15.0303 8.828 14.9423 9.108C14.8583 9.384 14.8163 9.71 14.8163 10.086L14.1143 9.87C14.1143 9.242 14.2263 8.704 14.4503 8.256C14.6783 7.804 14.9963 7.458 15.4043 7.218C15.8163 6.974 16.3003 6.852 16.8563 6.852C17.2763 6.852 17.6343 6.918 17.9303 7.05C18.2263 7.182 18.4723 7.358 18.6683 7.578C18.8643 7.794 19.0183 8.038 19.1303 8.31C19.2423 8.578 19.3203 8.852 19.3643 9.132C19.4123 9.408 19.4363 9.67 19.4363 9.918V13.5H18.3563ZM13.7363 13.5V7.02H14.6963V8.754H14.8163V13.5H13.7363ZM23.4817 13.68C22.8777 13.68 22.3597 13.53 21.9277 13.23C21.4957 12.926 21.1617 12.516 20.9257 12C20.6937 11.484 20.5777 10.902 20.5777 10.254C20.5777 9.606 20.6937 9.024 20.9257 8.508C21.1617 7.992 21.4957 7.586 21.9277 7.29C22.3597 6.99 22.8757 6.84 23.4757 6.84C24.0877 6.84 24.6017 6.988 25.0177 7.284C25.4337 7.58 25.7477 7.986 25.9597 8.502C26.1757 9.018 26.2837 9.602 26.2837 10.254C26.2837 10.898 26.1757 11.48 25.9597 12C25.7477 12.516 25.4337 12.926 25.0177 13.23C24.6017 13.53 24.0897 13.68 23.4817 13.68ZM23.6137 12.702C24.0497 12.702 24.4077 12.598 24.6877 12.39C24.9677 12.178 25.1737 11.888 25.3057 11.52C25.4417 11.148 25.5097 10.726 25.5097 10.254C25.5097 9.774 25.4417 9.352 25.3057 8.988C25.1737 8.62 24.9697 8.334 24.6937 8.13C24.4177 7.922 24.0677 7.818 23.6437 7.818C23.2037 7.818 22.8397 7.926 22.5517 8.142C22.2677 8.358 22.0557 8.65 21.9157 9.018C21.7797 9.386 21.7117 9.798 21.7117 10.254C21.7117 10.714 21.7817 11.13 21.9217 11.502C22.0617 11.87 22.2717 12.162 22.5517 12.378C22.8357 12.594 23.1897 12.702 23.6137 12.702ZM25.5097 13.5V8.73H25.3897V4.86H26.4637V13.5H25.5097ZM30.9527 13.68C30.3167 13.68 29.7607 13.54 29.2847 13.26C28.8127 12.976 28.4447 12.582 28.1807 12.078C27.9167 11.57 27.7847 10.978 27.7847 10.302C27.7847 9.594 27.9147 8.982 28.1747 8.466C28.4347 7.946 28.7967 7.546 29.2607 7.266C29.7287 6.982 30.2767 6.84 30.9047 6.84C31.5567 6.84 32.1107 6.99 32.5667 7.29C33.0267 7.59 33.3707 8.018 33.5987 8.574C33.8307 9.13 33.9307 9.792 33.8987 10.56H32.8187V10.176C32.8067 9.38 32.6447 8.786 32.3327 8.394C32.0207 7.998 31.5567 7.8 30.9407 7.8C30.2807 7.8 29.7787 8.012 29.4347 8.436C29.0907 8.86 28.9187 9.468 28.9187 10.26C28.9187 11.024 29.0907 11.616 29.4347 12.036C29.7787 12.456 30.2687 12.666 30.9047 12.666C31.3327 12.666 31.7047 12.568 32.0207 12.372C32.3367 12.176 32.5847 11.894 32.7647 11.526L33.7907 11.88C33.5387 12.452 33.1587 12.896 32.6507 13.212C32.1467 13.524 31.5807 13.68 30.9527 13.68ZM28.5587 10.56V9.702H33.3467V10.56H28.5587ZM37.7785 13.68C37.1745 13.68 36.6565 13.53 36.2245 13.23C35.7925 12.926 35.4585 12.516 35.2225 12C34.9905 11.484 34.8745 10.902 34.8745 10.254C34.8745 9.606 34.9905 9.024 35.2225 8.508C35.4585 7.992 35.7925 7.586 36.2245 7.29C36.6565 6.99 37.1725 6.84 37.7725 6.84C38.3845 6.84 38.8985 6.988 39.3145 7.284C39.7305 7.58 40.0445 7.986 40.2565 8.502C40.4725 9.018 40.5805 9.602 40.5805 10.254C40.5805 10.898 40.4725 11.48 40.2565 12C40.0445 12.516 39.7305 12.926 39.3145 13.23C38.8985 13.53 38.3865 13.68 37.7785 13.68ZM37.9105 12.702C38.3465 12.702 38.7045 12.598 38.9845 12.39C39.2645 12.178 39.4705 11.888 39.6025 11.52C39.7385 11.148 39.8065 10.726 39.8065 10.254C39.8065 9.774 39.7385 9.352 39.6025 8.988C39.4705 8.62 39.2665 8.334 38.9905 8.13C38.7145 7.922 38.3645 7.818 37.9405 7.818C37.5005 7.818 37.1365 7.926 36.8485 8.142C36.5645 8.358 36.3525 8.65 36.2125 9.018C36.0765 9.386 36.0085 9.798 36.0085 10.254C36.0085 10.714 36.0785 11.13 36.2185 11.502C36.3585 11.87 36.5685 12.162 36.8485 12.378C37.1325 12.594 37.4865 12.702 37.9105 12.702ZM39.8065 13.5V8.73H39.6865V4.86H40.7605V13.5H39.8065Z" fill="#767676"/>
</svg>
