<svg width="361" height="28" viewBox="0 0 361 28" fill="none" xmlns="http://www.w3.org/2000/svg">
<rect width="361" height="28" fill="#F7CD87"/>
<g clip-path="url(#clip0_8577_54258)">
<path d="M23.3308 12.6666H23.3408M23.3332 16.6666H23.3432M20.6667 14.6666H26M28.6667 10.3333C28.6667 9.78097 28.219 9.33325 27.6667 9.33325C27.1144 9.33325 26.6667 9.78097 26.6667 10.3333C26.6667 10.8855 27.1144 11.3333 27.6667 11.3333C28.219 11.3333 28.6667 10.8855 28.6667 10.3333ZM17.8495 13.4292C17.1808 14.1761 17.1664 15.303 17.7801 16.0957C18.9981 17.6688 20.3312 19.0019 21.9043 20.2198C22.697 20.8336 23.8238 20.8192 24.5708 20.1505C26.5986 18.3347 28.4557 16.4372 30.248 14.3519C30.4252 14.1457 30.536 13.8931 30.5608 13.6223C30.6708 12.4252 30.8968 8.97637 29.9602 8.03975C29.0236 7.10313 25.5747 7.3291 24.3776 7.43909C24.1069 7.46397 23.8542 7.57481 23.648 7.75199C21.5628 9.54423 19.6652 11.4013 17.8495 13.4292Z" stroke="#191919" stroke-linecap="round" stroke-linejoin="round"/>
</g>
<path d="M36.84 19V10.36H41.88V11.428H37.908V14.146H41.16V15.214H37.908V19H36.84ZM42.9572 19V12.52H43.9112V14.086L43.7552 13.882C43.8312 13.682 43.9292 13.498 44.0492 13.33C44.1732 13.162 44.3112 13.024 44.4632 12.916C44.6312 12.78 44.8212 12.676 45.0332 12.604C45.2452 12.532 45.4612 12.49 45.6812 12.478C45.9012 12.462 46.1072 12.476 46.2992 12.52V13.522C46.0752 13.462 45.8292 13.446 45.5612 13.474C45.2932 13.502 45.0452 13.6 44.8172 13.768C44.6092 13.916 44.4472 14.096 44.3312 14.308C44.2192 14.52 44.1412 14.75 44.0972 14.998C44.0532 15.242 44.0312 15.492 44.0312 15.748V19H42.9572ZM50.1246 19.18C49.4886 19.18 48.9326 19.04 48.4566 18.76C47.9846 18.476 47.6166 18.082 47.3526 17.578C47.0886 17.07 46.9566 16.478 46.9566 15.802C46.9566 15.094 47.0866 14.482 47.3466 13.966C47.6066 13.446 47.9686 13.046 48.4326 12.766C48.9006 12.482 49.4486 12.34 50.0766 12.34C50.7286 12.34 51.2826 12.49 51.7386 12.79C52.1986 13.09 52.5426 13.518 52.7706 14.074C53.0026 14.63 53.1026 15.292 53.0706 16.06H51.9906V15.676C51.9786 14.88 51.8166 14.286 51.5046 13.894C51.1926 13.498 50.7286 13.3 50.1126 13.3C49.4526 13.3 48.9506 13.512 48.6066 13.936C48.2626 14.36 48.0906 14.968 48.0906 15.76C48.0906 16.524 48.2626 17.116 48.6066 17.536C48.9506 17.956 49.4406 18.166 50.0766 18.166C50.5046 18.166 50.8766 18.068 51.1926 17.872C51.5086 17.676 51.7566 17.394 51.9366 17.026L52.9626 17.38C52.7106 17.952 52.3306 18.396 51.8226 18.712C51.3186 19.024 50.7526 19.18 50.1246 19.18ZM47.7306 16.06V15.202H52.5186V16.06H47.7306ZM57.2144 19.18C56.5784 19.18 56.0224 19.04 55.5464 18.76C55.0744 18.476 54.7064 18.082 54.4424 17.578C54.1784 17.07 54.0464 16.478 54.0464 15.802C54.0464 15.094 54.1764 14.482 54.4364 13.966C54.6964 13.446 55.0584 13.046 55.5224 12.766C55.9904 12.482 56.5384 12.34 57.1664 12.34C57.8184 12.34 58.3724 12.49 58.8284 12.79C59.2884 13.09 59.6324 13.518 59.8604 14.074C60.0924 14.63 60.1924 15.292 60.1604 16.06H59.0804V15.676C59.0684 14.88 58.9064 14.286 58.5944 13.894C58.2824 13.498 57.8184 13.3 57.2024 13.3C56.5424 13.3 56.0404 13.512 55.6964 13.936C55.3524 14.36 55.1804 14.968 55.1804 15.76C55.1804 16.524 55.3524 17.116 55.6964 17.536C56.0404 17.956 56.5304 18.166 57.1664 18.166C57.5944 18.166 57.9664 18.068 58.2824 17.872C58.5984 17.676 58.8464 17.394 59.0264 17.026L60.0524 17.38C59.8004 17.952 59.4204 18.396 58.9124 18.712C58.4084 19.024 57.8424 19.18 57.2144 19.18ZM54.8204 16.06V15.202H59.6084V16.06H54.8204ZM66.1246 19V11.374H63.1786V10.36H70.1386V11.374H67.1926V19H66.1246ZM71.2139 11.374V10.27H72.2819V11.374H71.2139ZM71.2139 19V12.52H72.2819V19H71.2139ZM76.8122 19.18C76.1562 19.18 75.5982 19.034 75.1382 18.742C74.6822 18.446 74.3342 18.04 74.0942 17.524C73.8542 17.008 73.7302 16.42 73.7222 15.76C73.7302 15.084 73.8562 14.49 74.1002 13.978C74.3482 13.462 74.7022 13.06 75.1622 12.772C75.6222 12.484 76.1762 12.34 76.8242 12.34C77.5082 12.34 78.0962 12.508 78.5882 12.844C79.0842 13.18 79.4162 13.64 79.5842 14.224L78.5282 14.542C78.3922 14.166 78.1702 13.874 77.8622 13.666C77.5582 13.458 77.2082 13.354 76.8122 13.354C76.3682 13.354 76.0022 13.458 75.7142 13.666C75.4262 13.87 75.2122 14.154 75.0722 14.518C74.9322 14.878 74.8602 15.292 74.8562 15.76C74.8642 16.48 75.0302 17.062 75.3542 17.506C75.6822 17.946 76.1682 18.166 76.8122 18.166C77.2362 18.166 77.5882 18.07 77.8682 17.878C78.1482 17.682 78.3602 17.4 78.5042 17.032L79.5842 17.314C79.3602 17.918 79.0102 18.38 78.5342 18.7C78.0582 19.02 77.4842 19.18 76.8122 19.18ZM80.8028 19L80.8088 10.36H81.8888V15.64L84.6068 12.52H85.9928L83.1308 15.76L86.3288 19H84.8348L81.8888 15.88V19H80.8028ZM89.6168 19.18C88.9808 19.18 88.4248 19.04 87.9488 18.76C87.4768 18.476 87.1088 18.082 86.8448 17.578C86.5808 17.07 86.4488 16.478 86.4488 15.802C86.4488 15.094 86.5788 14.482 86.8388 13.966C87.0988 13.446 87.4608 13.046 87.9248 12.766C88.3928 12.482 88.9408 12.34 89.5688 12.34C90.2208 12.34 90.7748 12.49 91.2308 12.79C91.6908 13.09 92.0348 13.518 92.2628 14.074C92.4948 14.63 92.5948 15.292 92.5628 16.06H91.4828V15.676C91.4708 14.88 91.3088 14.286 90.9968 13.894C90.6848 13.498 90.2208 13.3 89.6048 13.3C88.9448 13.3 88.4428 13.512 88.0988 13.936C87.7548 14.36 87.5828 14.968 87.5828 15.76C87.5828 16.524 87.7548 17.116 88.0988 17.536C88.4428 17.956 88.9328 18.166 89.5688 18.166C89.9968 18.166 90.3688 18.068 90.6848 17.872C91.0008 17.676 91.2488 17.394 91.4288 17.026L92.4548 17.38C92.2028 17.952 91.8228 18.396 91.3148 18.712C90.8108 19.024 90.2448 19.18 89.6168 19.18ZM87.2228 16.06V15.202H92.0108V16.06H87.2228ZM97.5166 19C97.1326 19.076 96.7526 19.106 96.3766 19.09C96.0046 19.078 95.6726 19.004 95.3806 18.868C95.0886 18.728 94.8666 18.512 94.7146 18.22C94.5866 17.964 94.5166 17.706 94.5046 17.446C94.4966 17.182 94.4926 16.884 94.4926 16.552V10.72H95.5606V16.504C95.5606 16.768 95.5626 16.994 95.5666 17.182C95.5746 17.37 95.6166 17.532 95.6926 17.668C95.8366 17.924 96.0646 18.074 96.3766 18.118C96.6926 18.162 97.0726 18.15 97.5166 18.082V19ZM93.1786 13.402V12.52H97.5166V13.402H93.1786Z" fill="#191919"/>
<defs>
<clipPath id="clip0_8577_54258">
<rect width="16" height="16" fill="white" transform="translate(16 6)"/>
</clipPath>
</defs>
</svg>
