<svg width="192" height="192" viewBox="0 0 192 192" fill="none" xmlns="http://www.w3.org/2000/svg">
<g filter="url(#filter0_d_9899_30528)">
<rect x="15.6521" y="7.82605" width="160" height="160" rx="48" fill="url(#paint0_linear_9899_30528)" shape-rendering="crispEdges"/>
<rect x="16.3043" y="8.47822" width="158.696" height="158.696" rx="47.3478" stroke="white" stroke-opacity="0.3" stroke-width="1.30435" shape-rendering="crispEdges"/>
<path d="M35.9686 42.2081C36.1903 41.2897 37.4967 41.2897 37.7184 42.2081L38.4645 45.2991C38.5438 45.6273 38.8 45.8836 39.1282 45.9628L42.2193 46.709C43.1377 46.9307 43.1377 48.237 42.2193 48.4587L39.1282 49.2049C38.8 49.2841 38.5438 49.5404 38.4645 49.8686L37.7184 52.9596C37.4967 53.878 36.1903 53.878 35.9686 52.9596L35.2225 49.8686C35.1432 49.5404 34.887 49.2841 34.5588 49.2049L31.4677 48.4587C30.5493 48.237 30.5493 46.9307 31.4677 46.709L34.5588 45.9628C34.887 45.8836 35.1432 45.6273 35.2225 45.2991L35.9686 42.2081Z" fill="url(#paint1_linear_9899_30528)"/>
<path d="M121.969 138.208C122.19 137.29 123.497 137.29 123.718 138.208L124.465 141.299C124.544 141.627 124.8 141.884 125.128 141.963L128.219 142.709C129.138 142.931 129.138 144.237 128.219 144.459L125.128 145.205C124.8 145.284 124.544 145.54 124.465 145.869L123.718 148.96C123.497 149.878 122.19 149.878 121.969 148.96L121.222 145.869C121.143 145.54 120.887 145.284 120.559 145.205L117.468 144.459C116.549 144.237 116.549 142.931 117.468 142.709L120.559 141.963C120.887 141.884 121.143 141.627 121.222 141.299L121.969 138.208Z" fill="url(#paint2_linear_9899_30528)"/>
<path d="M46.1631 33.4027C46.3355 32.6884 47.3515 32.6884 47.524 33.4027L48.1043 35.8069C48.1659 36.0621 48.3652 36.2614 48.6205 36.3231L51.0247 36.9034C51.739 37.0758 51.739 38.0919 51.0247 38.2643L48.6205 38.8447C48.3652 38.9063 48.1659 39.1056 48.1043 39.3609L47.524 41.765C47.3515 42.4793 46.3355 42.4793 46.1631 41.765L45.5827 39.3609C45.5211 39.1056 45.3218 38.9063 45.0665 38.8447L42.6624 38.2643C41.948 38.0919 41.948 37.0758 42.6624 36.9034L45.0665 36.3231C45.3218 36.2614 45.5211 36.0621 45.5827 35.8069L46.1631 33.4027Z" fill="url(#paint3_linear_9899_30528)"/>
<g filter="url(#filter1_d_9899_30528)">
<path d="M127.652 80.826C128.315 80.826 128.951 80.5627 129.42 80.0938C129.889 79.625 130.152 78.9891 130.152 78.326V68.326C130.152 67 129.625 65.7282 128.688 64.7905C127.75 63.8528 126.478 63.326 125.152 63.326H65.1521C63.826 63.326 62.5542 63.8528 61.6166 64.7905C60.6789 65.7282 60.1521 67 60.1521 68.326V78.326C60.1521 78.9891 60.4155 79.625 60.8843 80.0938C61.3532 80.5627 61.9891 80.826 62.6521 80.826C64.6412 80.826 66.5489 81.6162 67.9554 83.0227C69.3619 84.4293 70.1521 86.3369 70.1521 88.326C70.1521 90.3152 69.3619 92.2228 67.9554 93.6294C66.5489 95.0359 64.6412 95.826 62.6521 95.826C61.9891 95.826 61.3532 96.0894 60.8843 96.5583C60.4155 97.0271 60.1521 97.663 60.1521 98.326V108.326C60.1521 109.652 60.6789 110.924 61.6166 111.862C62.5542 112.799 63.826 113.326 65.1521 113.326H125.152C126.478 113.326 127.75 112.799 128.688 111.862C129.625 110.924 130.152 109.652 130.152 108.326V98.326C130.152 97.663 129.889 97.0271 129.42 96.5583C128.951 96.0894 128.315 95.826 127.652 95.826C125.663 95.826 123.755 95.0359 122.349 93.6294C120.942 92.2228 120.152 90.3152 120.152 88.326C120.152 86.3369 120.942 84.4293 122.349 83.0227C123.755 81.6162 125.663 80.826 127.652 80.826ZM65.1521 100.576C67.9778 100.002 70.5183 98.4692 72.343 96.2367C74.1678 94.0042 75.1646 91.2094 75.1646 88.326C75.1646 85.4427 74.1678 82.6479 72.343 80.4154C70.5183 78.1829 67.9778 76.6498 65.1521 76.0761V68.326H82.6521V108.326H65.1521V100.576Z" fill="url(#paint4_linear_9899_30528)"/>
</g>
<path d="M132.547 107.372L132.537 98.4636C132.513 97.6056 132.155 96.791 131.54 96.1927C130.924 95.5945 130.1 95.2598 129.241 95.2598C128.383 95.2598 127.559 95.5945 126.943 96.1927C126.328 96.791 125.97 97.6056 125.945 98.4636L125.945 107.382L117.037 107.372C116.596 107.359 116.158 107.435 115.747 107.595C115.336 107.756 114.962 107.996 114.646 108.304C114.329 108.611 114.078 108.978 113.907 109.385C113.735 109.791 113.647 110.227 113.647 110.668C113.647 111.109 113.735 111.545 113.907 111.951C114.078 112.357 114.329 112.725 114.646 113.032C114.962 113.339 115.336 113.58 115.747 113.74C116.158 113.9 116.596 113.976 117.037 113.964L125.953 113.966L125.955 122.882C125.943 123.323 126.019 123.761 126.179 124.172C126.339 124.583 126.58 124.958 126.887 125.274C127.194 125.59 127.562 125.841 127.968 126.013C128.374 126.184 128.81 126.273 129.251 126.273C129.692 126.273 130.129 126.184 130.535 126.013C130.941 125.841 131.308 125.59 131.616 125.274C131.923 124.958 132.164 124.583 132.324 124.172C132.484 123.761 132.56 123.323 132.547 122.882L132.547 113.964L141.466 113.964C142.303 113.911 143.089 113.54 143.663 112.928C144.237 112.316 144.555 111.507 144.554 110.668C144.553 109.829 144.232 109.022 143.656 108.411C143.08 107.801 142.293 107.432 141.456 107.382L132.547 107.372Z" fill="url(#paint5_linear_9899_30528)"/>
</g>
<defs>
<filter id="filter0_d_9899_30528" x="-7.43866e-05" y="-3.71933e-05" width="191.304" height="191.304" filterUnits="userSpaceOnUse" color-interpolation-filters="sRGB">
<feFlood flood-opacity="0" result="BackgroundImageFix"/>
<feColorMatrix in="SourceAlpha" type="matrix" values="0 0 0 0 0 0 0 0 0 0 0 0 0 0 0 0 0 0 127 0" result="hardAlpha"/>
<feOffset dy="7.82609"/>
<feGaussianBlur stdDeviation="7.82609"/>
<feComposite in2="hardAlpha" operator="out"/>
<feColorMatrix type="matrix" values="0 0 0 0 0.402817 0 0 0 0 0.262657 0 0 0 0 0.0371831 0 0 0 0.3 0"/>
<feBlend mode="normal" in2="BackgroundImageFix" result="effect1_dropShadow_9899_30528"/>
<feBlend mode="normal" in="SourceGraphic" in2="effect1_dropShadow_9899_30528" result="shape"/>
</filter>
<filter id="filter1_d_9899_30528" x="56.1521" y="63.326" width="78" height="58" filterUnits="userSpaceOnUse" color-interpolation-filters="sRGB">
<feFlood flood-opacity="0" result="BackgroundImageFix"/>
<feColorMatrix in="SourceAlpha" type="matrix" values="0 0 0 0 0 0 0 0 0 0 0 0 0 0 0 0 0 0 127 0" result="hardAlpha"/>
<feOffset dy="4"/>
<feGaussianBlur stdDeviation="2"/>
<feComposite in2="hardAlpha" operator="out"/>
<feColorMatrix type="matrix" values="0 0 0 0 0.54142 0 0 0 0 0.351171 0 0 0 0 0.0451183 0 0 0 0.15 0"/>
<feBlend mode="normal" in2="BackgroundImageFix" result="effect1_dropShadow_9899_30528"/>
<feBlend mode="normal" in="SourceGraphic" in2="effect1_dropShadow_9899_30528" result="shape"/>
</filter>
<linearGradient id="paint0_linear_9899_30528" x1="95.6521" y1="7.82605" x2="95.6521" y2="167.826" gradientUnits="userSpaceOnUse">
<stop stop-color="#FDF6EB"/>
<stop offset="1" stop-color="white"/>
</linearGradient>
<linearGradient id="paint1_linear_9899_30528" x1="27.8231" y1="42.738" x2="45.9414" y2="42.8556" gradientUnits="userSpaceOnUse">
<stop stop-color="#F5CF90"/>
<stop offset="1" stop-color="#DEB065"/>
</linearGradient>
<linearGradient id="paint2_linear_9899_30528" x1="113.823" y1="138.738" x2="131.941" y2="138.856" gradientUnits="userSpaceOnUse">
<stop stop-color="#F5CF90"/>
<stop offset="1" stop-color="#DEB065"/>
</linearGradient>
<linearGradient id="paint3_linear_9899_30528" x1="39.8276" y1="33.8149" x2="53.9196" y2="33.9064" gradientUnits="userSpaceOnUse">
<stop stop-color="#F5CF90"/>
<stop offset="1" stop-color="#DEB065"/>
</linearGradient>
<linearGradient id="paint4_linear_9899_30528" x1="57.1915" y1="111.264" x2="134.293" y2="111.264" gradientUnits="userSpaceOnUse">
<stop stop-color="#DEB065"/>
<stop offset="1" stop-color="#FFEED2"/>
</linearGradient>
<linearGradient id="paint5_linear_9899_30528" x1="120.766" y1="119.153" x2="137.633" y2="102.286" gradientUnits="userSpaceOnUse">
<stop stop-color="#9E8F76"/>
<stop offset="0.142813" stop-color="#7A6A50"/>
<stop offset="0.240931" stop-color="#F6D9AB"/>
<stop offset="0.405027" stop-color="#9D7F4E"/>
<stop offset="0.604648" stop-color="#C9A770"/>
<stop offset="0.86517" stop-color="#796A52"/>
</linearGradient>
</defs>
</svg>
