<svg width="60" height="18" viewBox="0 0 60 18" fill="none" xmlns="http://www.w3.org/2000/svg">
<rect width="60" height="18" rx="4" fill="#E2F8FD"/>
<path d="M10.392 13.18C9.532 13.18 8.802 12.99 8.202 12.61C7.602 12.23 7.144 11.702 6.828 11.026C6.516 10.35 6.36 9.568 6.36 8.68C6.36 7.792 6.516 7.01 6.828 6.334C7.144 5.658 7.602 5.13 8.202 4.75C8.802 4.37 9.532 4.18 10.392 4.18C11.256 4.18 11.988 4.37 12.588 4.75C13.188 5.13 13.644 5.658 13.956 6.334C14.268 7.01 14.424 7.792 14.424 8.68C14.424 9.568 14.268 10.35 13.956 11.026C13.644 11.702 13.188 12.23 12.588 12.61C11.988 12.99 11.256 13.18 10.392 13.18ZM10.392 12.16C11.036 12.164 11.572 12.02 12 11.728C12.432 11.432 12.754 11.022 12.966 10.498C13.182 9.974 13.29 9.368 13.29 8.68C13.29 7.988 13.182 7.382 12.966 6.862C12.754 6.342 12.432 5.936 12 5.644C11.572 5.352 11.036 5.204 10.392 5.2C9.748 5.196 9.212 5.34 8.784 5.632C8.36 5.924 8.04 6.332 7.824 6.856C7.608 7.38 7.498 7.988 7.494 8.68C7.49 9.368 7.596 9.972 7.812 10.492C8.028 11.012 8.35 11.42 8.778 11.716C9.21 12.008 9.748 12.156 10.392 12.16ZM20.2431 13V9.754C20.2431 9.446 20.2151 9.15 20.1591 8.866C20.1071 8.582 20.0131 8.328 19.8771 8.104C19.7451 7.876 19.5651 7.696 19.3371 7.564C19.1131 7.432 18.8291 7.366 18.4851 7.366C18.2171 7.366 17.9731 7.412 17.7531 7.504C17.5371 7.592 17.3511 7.728 17.1951 7.912C17.0391 8.096 16.9171 8.328 16.8291 8.608C16.7451 8.884 16.7031 9.21 16.7031 9.586L16.0011 9.37C16.0011 8.742 16.1131 8.204 16.3371 7.756C16.5651 7.304 16.8831 6.958 17.2911 6.718C17.7031 6.474 18.1871 6.352 18.7431 6.352C19.1631 6.352 19.5211 6.418 19.8171 6.55C20.1131 6.682 20.3591 6.858 20.5551 7.078C20.7511 7.294 20.9051 7.538 21.0171 7.81C21.1291 8.078 21.2071 8.352 21.2511 8.632C21.2991 8.908 21.3231 9.17 21.3231 9.418V13H20.2431ZM15.6231 13V6.52H16.5831V8.254H16.7031V13H15.6231ZM25.505 16.06C25.165 16.06 24.833 16.008 24.509 15.904C24.185 15.8 23.887 15.642 23.615 15.43C23.347 15.222 23.123 14.958 22.943 14.638L23.921 14.122C24.081 14.438 24.307 14.668 24.599 14.812C24.895 14.956 25.199 15.028 25.511 15.028C25.923 15.028 26.265 14.952 26.537 14.8C26.809 14.652 27.009 14.43 27.137 14.134C27.269 13.838 27.333 13.47 27.329 13.03V11.26H27.455V6.52H28.403V13.042C28.403 13.218 28.397 13.388 28.385 13.552C28.377 13.716 28.357 13.878 28.325 14.038C28.241 14.498 28.075 14.876 27.827 15.172C27.579 15.472 27.259 15.694 26.867 15.838C26.475 15.986 26.021 16.06 25.505 16.06ZM25.427 13.18C24.823 13.18 24.305 13.03 23.873 12.73C23.441 12.426 23.107 12.016 22.871 11.5C22.639 10.984 22.523 10.402 22.523 9.754C22.523 9.106 22.639 8.524 22.871 8.008C23.107 7.492 23.441 7.086 23.873 6.79C24.305 6.49 24.821 6.34 25.421 6.34C26.033 6.34 26.547 6.488 26.963 6.784C27.379 7.08 27.693 7.486 27.905 8.002C28.121 8.518 28.229 9.102 28.229 9.754C28.229 10.398 28.121 10.98 27.905 11.5C27.693 12.016 27.379 12.426 26.963 12.73C26.547 13.03 26.035 13.18 25.427 13.18ZM25.559 12.202C25.995 12.202 26.353 12.098 26.633 11.89C26.913 11.678 27.119 11.388 27.251 11.02C27.387 10.648 27.455 10.226 27.455 9.754C27.455 9.274 27.387 8.852 27.251 8.488C27.119 8.12 26.915 7.834 26.639 7.63C26.363 7.422 26.013 7.318 25.589 7.318C25.149 7.318 24.785 7.426 24.497 7.642C24.213 7.858 24.001 8.15 23.861 8.518C23.725 8.886 23.657 9.298 23.657 9.754C23.657 10.214 23.727 10.63 23.867 11.002C24.007 11.37 24.217 11.662 24.497 11.878C24.781 12.094 25.135 12.202 25.559 12.202ZM32.8383 13.18C32.1943 13.18 31.6383 13.034 31.1703 12.742C30.7063 12.45 30.3483 12.046 30.0963 11.53C29.8443 11.014 29.7183 10.422 29.7183 9.754C29.7183 9.074 29.8463 8.478 30.1023 7.966C30.3583 7.454 30.7203 7.056 31.1883 6.772C31.6563 6.484 32.2063 6.34 32.8383 6.34C33.4863 6.34 34.0443 6.486 34.5123 6.778C34.9803 7.066 35.3383 7.468 35.5863 7.984C35.8383 8.496 35.9643 9.086 35.9643 9.754C35.9643 10.43 35.8383 11.026 35.5863 11.542C35.3343 12.054 34.9743 12.456 34.5063 12.748C34.0383 13.036 33.4823 13.18 32.8383 13.18ZM32.8383 12.166C33.5103 12.166 34.0103 11.942 34.3383 11.494C34.6663 11.046 34.8303 10.466 34.8303 9.754C34.8303 9.022 34.6643 8.44 34.3323 8.008C34.0003 7.572 33.5023 7.354 32.8383 7.354C32.3863 7.354 32.0143 7.456 31.7223 7.66C31.4303 7.864 31.2123 8.146 31.0683 8.506C30.9243 8.866 30.8523 9.282 30.8523 9.754C30.8523 10.482 31.0203 11.066 31.3563 11.506C31.6923 11.946 32.1863 12.166 32.8383 12.166ZM37.4053 5.374V4.27H38.4733V5.374H37.4053ZM37.4053 13V6.52H38.4733V13H37.4053ZM44.8876 13V9.754C44.8876 9.446 44.8596 9.15 44.8036 8.866C44.7516 8.582 44.6576 8.328 44.5216 8.104C44.3896 7.876 44.2096 7.696 43.9816 7.564C43.7576 7.432 43.4736 7.366 43.1296 7.366C42.8616 7.366 42.6176 7.412 42.3976 7.504C42.1816 7.592 41.9956 7.728 41.8396 7.912C41.6836 8.096 41.5616 8.328 41.4736 8.608C41.3896 8.884 41.3476 9.21 41.3476 9.586L40.6456 9.37C40.6456 8.742 40.7576 8.204 40.9816 7.756C41.2096 7.304 41.5276 6.958 41.9356 6.718C42.3476 6.474 42.8316 6.352 43.3876 6.352C43.8076 6.352 44.1656 6.418 44.4616 6.55C44.7576 6.682 45.0036 6.858 45.1996 7.078C45.3956 7.294 45.5496 7.538 45.6616 7.81C45.7736 8.078 45.8516 8.352 45.8956 8.632C45.9436 8.908 45.9676 9.17 45.9676 9.418V13H44.8876ZM40.2676 13V6.52H41.2276V8.254H41.3476V13H40.2676ZM50.1495 16.06C49.8095 16.06 49.4775 16.008 49.1535 15.904C48.8295 15.8 48.5315 15.642 48.2595 15.43C47.9915 15.222 47.7675 14.958 47.5875 14.638L48.5655 14.122C48.7255 14.438 48.9515 14.668 49.2435 14.812C49.5395 14.956 49.8435 15.028 50.1555 15.028C50.5675 15.028 50.9095 14.952 51.1815 14.8C51.4535 14.652 51.6535 14.43 51.7815 14.134C51.9135 13.838 51.9775 13.47 51.9735 13.03V11.26H52.0995V6.52H53.0475V13.042C53.0475 13.218 53.0415 13.388 53.0295 13.552C53.0215 13.716 53.0015 13.878 52.9695 14.038C52.8855 14.498 52.7195 14.876 52.4715 15.172C52.2235 15.472 51.9035 15.694 51.5115 15.838C51.1195 15.986 50.6655 16.06 50.1495 16.06ZM50.0715 13.18C49.4675 13.18 48.9495 13.03 48.5175 12.73C48.0855 12.426 47.7515 12.016 47.5155 11.5C47.2835 10.984 47.1675 10.402 47.1675 9.754C47.1675 9.106 47.2835 8.524 47.5155 8.008C47.7515 7.492 48.0855 7.086 48.5175 6.79C48.9495 6.49 49.4655 6.34 50.0655 6.34C50.6775 6.34 51.1915 6.488 51.6075 6.784C52.0235 7.08 52.3375 7.486 52.5495 8.002C52.7655 8.518 52.8735 9.102 52.8735 9.754C52.8735 10.398 52.7655 10.98 52.5495 11.5C52.3375 12.016 52.0235 12.426 51.6075 12.73C51.1915 13.03 50.6795 13.18 50.0715 13.18ZM50.2035 12.202C50.6395 12.202 50.9975 12.098 51.2775 11.89C51.5575 11.678 51.7635 11.388 51.8955 11.02C52.0315 10.648 52.0995 10.226 52.0995 9.754C52.0995 9.274 52.0315 8.852 51.8955 8.488C51.7635 8.12 51.5595 7.834 51.2835 7.63C51.0075 7.422 50.6575 7.318 50.2335 7.318C49.7935 7.318 49.4295 7.426 49.1415 7.642C48.8575 7.858 48.6455 8.15 48.5055 8.518C48.3695 8.886 48.3015 9.298 48.3015 9.754C48.3015 10.214 48.3715 10.63 48.5115 11.002C48.6515 11.37 48.8615 11.662 49.1415 11.878C49.4255 12.094 49.7795 12.202 50.2035 12.202Z" fill="#076C82"/>
</svg>
