<svg width="40" height="40" viewBox="0 0 40 40" fill="none" xmlns="http://www.w3.org/2000/svg">
<rect width="40" height="40" rx="8" fill="#F7CD87"/>
<path d="M18.6666 17.3334V16.6667M18.6666 20.3334V19.6667M18.6666 23.3334V22.6667M15.4666 14.6667H24.5333C25.28 14.6667 25.6534 14.6667 25.9386 14.8121C26.1895 14.9399 26.3934 15.1439 26.5213 15.3948C26.6666 15.68 26.6666 16.0533 26.6666 16.8001C26.6666 16.9997 26.6666 17.0995 26.6558 17.1587C26.611 17.4053 26.5628 17.4759 26.3493 17.6072C26.2981 17.6387 26.1385 17.7009 25.8195 17.8253C24.9496 18.1643 24.3333 19.0102 24.3333 20.0001C24.3333 20.9899 24.9496 21.8358 25.8195 22.1749C26.1385 22.2993 26.2981 22.3614 26.3493 22.3929C26.5628 22.5243 26.611 22.5948 26.6558 22.8415C26.6666 22.9006 26.6666 23.0004 26.6666 23.2001C26.6666 23.9468 26.6666 24.3202 26.5213 24.6054C26.3934 24.8563 26.1895 25.0603 25.9386 25.1881C25.6534 25.3334 25.28 25.3334 24.5333 25.3334H15.4666C14.7198 25.3334 14.3465 25.3334 14.0613 25.1881C13.8104 25.0603 13.6064 24.8563 13.4786 24.6054C13.3333 24.3202 13.3333 23.9468 13.3333 23.2001C13.3333 23.0004 13.3333 22.9006 13.344 22.8415C13.3889 22.5948 13.4371 22.5243 13.6506 22.3929C13.7018 22.3614 13.8613 22.2993 14.1804 22.1749C15.0502 21.8358 15.6666 20.9899 15.6666 20.0001C15.6666 19.0102 15.0502 18.1643 14.1804 17.8253C13.8613 17.7009 13.7018 17.6387 13.6506 17.6072C13.4371 17.4759 13.3889 17.4053 13.344 17.1587C13.3333 17.0995 13.3333 16.9997 13.3333 16.8001C13.3333 16.0533 13.3333 15.68 13.4786 15.3948C13.6064 15.1439 13.8104 14.9399 14.0613 14.8121C14.3465 14.6667 14.7198 14.6667 15.4666 14.6667Z" stroke="#191919" stroke-linecap="round" stroke-linejoin="round"/>
</svg>
