<svg width="20" height="20" viewBox="0 0 20 20" fill="none" xmlns="http://www.w3.org/2000/svg">
<path d="M9.16326 8.33342H9.17576M9.16634 13.3334H9.17884M5.83317 10.8334H12.4998M15.8332 5.41675C15.8332 4.72639 15.2735 4.16675 14.5832 4.16675C13.8928 4.16675 13.3332 4.72639 13.3332 5.41675C13.3332 6.1071 13.8928 6.66675 14.5832 6.66675C15.2735 6.66675 15.8332 6.1071 15.8332 5.41675ZM2.3117 9.28667C1.47574 10.2203 1.45776 11.6289 2.22497 12.6198C3.74743 14.5862 5.41379 16.2525 7.38012 17.7749C8.37101 18.5422 9.77959 18.5242 10.7133 17.6882C13.2481 15.4186 15.5694 13.0467 17.8098 10.44C18.0313 10.1823 18.1698 9.8665 18.2008 9.52808C18.3383 8.03173 18.6208 3.72064 17.4501 2.54986C16.2793 1.37909 11.9682 1.66156 10.4718 1.79905C10.1334 1.83015 9.81759 1.96869 9.55984 2.19017C6.95327 4.43046 4.58135 6.75184 2.3117 9.28667Z" stroke="#191919" stroke-width="1.25" stroke-linecap="round" stroke-linejoin="round"/>
</svg>
