<svg width="56" height="20" viewBox="0 0 56 20" fill="none" xmlns="http://www.w3.org/2000/svg">
<rect width="56" height="20" rx="4" fill="#DBDBDB"/>
<path d="M6.84 14.5V5.86H10.254C10.338 5.86 10.438 5.864 10.554 5.872C10.67 5.876 10.782 5.888 10.89 5.908C11.358 5.98 11.75 6.14 12.066 6.388C12.386 6.636 12.626 6.95 12.786 7.33C12.946 7.706 13.026 8.124 13.026 8.584C13.026 9.252 12.852 9.832 12.504 10.324C12.156 10.812 11.646 11.118 10.974 11.242L10.566 11.308H7.908V14.5H6.84ZM11.982 14.5L10.278 10.984L11.334 10.66L13.206 14.5H11.982ZM7.908 10.294H10.218C10.294 10.294 10.38 10.29 10.476 10.282C10.576 10.274 10.67 10.26 10.758 10.24C11.034 10.176 11.258 10.06 11.43 9.892C11.606 9.72 11.734 9.52 11.814 9.292C11.894 9.06 11.934 8.824 11.934 8.584C11.934 8.344 11.894 8.11 11.814 7.882C11.734 7.65 11.606 7.448 11.43 7.276C11.258 7.104 11.034 6.988 10.758 6.928C10.67 6.904 10.576 6.89 10.476 6.886C10.38 6.878 10.294 6.874 10.218 6.874H7.908V10.294ZM17.3355 14.68C16.6995 14.68 16.1435 14.54 15.6675 14.26C15.1955 13.976 14.8275 13.582 14.5635 13.078C14.2995 12.57 14.1675 11.978 14.1675 11.302C14.1675 10.594 14.2975 9.982 14.5575 9.466C14.8175 8.946 15.1795 8.546 15.6435 8.266C16.1115 7.982 16.6595 7.84 17.2875 7.84C17.9395 7.84 18.4935 7.99 18.9495 8.29C19.4095 8.59 19.7535 9.018 19.9815 9.574C20.2135 10.13 20.3135 10.792 20.2815 11.56H19.2015V11.176C19.1895 10.38 19.0275 9.786 18.7155 9.394C18.4035 8.998 17.9395 8.8 17.3235 8.8C16.6635 8.8 16.1615 9.012 15.8175 9.436C15.4735 9.86 15.3015 10.468 15.3015 11.26C15.3015 12.024 15.4735 12.616 15.8175 13.036C16.1615 13.456 16.6515 13.666 17.2875 13.666C17.7155 13.666 18.0875 13.568 18.4035 13.372C18.7195 13.176 18.9675 12.894 19.1475 12.526L20.1735 12.88C19.9215 13.452 19.5415 13.896 19.0335 14.212C18.5295 14.524 17.9635 14.68 17.3355 14.68ZM14.9415 11.56V10.702H19.7295V11.56H14.9415ZM24.2393 17.56C23.8993 17.56 23.5673 17.508 23.2433 17.404C22.9193 17.3 22.6213 17.142 22.3493 16.93C22.0813 16.722 21.8573 16.458 21.6773 16.138L22.6553 15.622C22.8153 15.938 23.0413 16.168 23.3333 16.312C23.6293 16.456 23.9333 16.528 24.2453 16.528C24.6573 16.528 24.9993 16.452 25.2713 16.3C25.5433 16.152 25.7433 15.93 25.8713 15.634C26.0033 15.338 26.0673 14.97 26.0633 14.53V12.76H26.1893V8.02H27.1373V14.542C27.1373 14.718 27.1313 14.888 27.1193 15.052C27.1113 15.216 27.0913 15.378 27.0593 15.538C26.9753 15.998 26.8093 16.376 26.5613 16.672C26.3133 16.972 25.9933 17.194 25.6013 17.338C25.2093 17.486 24.7553 17.56 24.2393 17.56ZM24.1613 14.68C23.5573 14.68 23.0393 14.53 22.6073 14.23C22.1753 13.926 21.8413 13.516 21.6053 13C21.3733 12.484 21.2573 11.902 21.2573 11.254C21.2573 10.606 21.3733 10.024 21.6053 9.508C21.8413 8.992 22.1753 8.586 22.6073 8.29C23.0393 7.99 23.5553 7.84 24.1553 7.84C24.7673 7.84 25.2813 7.988 25.6973 8.284C26.1133 8.58 26.4273 8.986 26.6393 9.502C26.8553 10.018 26.9633 10.602 26.9633 11.254C26.9633 11.898 26.8553 12.48 26.6393 13C26.4273 13.516 26.1133 13.926 25.6973 14.23C25.2813 14.53 24.7693 14.68 24.1613 14.68ZM24.2933 13.702C24.7293 13.702 25.0873 13.598 25.3673 13.39C25.6473 13.178 25.8533 12.888 25.9853 12.52C26.1213 12.148 26.1893 11.726 26.1893 11.254C26.1893 10.774 26.1213 10.352 25.9853 9.988C25.8533 9.62 25.6493 9.334 25.3733 9.13C25.0973 8.922 24.7473 8.818 24.3233 8.818C23.8833 8.818 23.5193 8.926 23.2313 9.142C22.9473 9.358 22.7353 9.65 22.5953 10.018C22.4593 10.386 22.3913 10.798 22.3913 11.254C22.3913 11.714 22.4613 12.13 22.6013 12.502C22.7413 12.87 22.9513 13.162 23.2313 13.378C23.5153 13.594 23.8693 13.702 24.2933 13.702ZM31.2727 14.668C30.8567 14.668 30.4987 14.602 30.1987 14.47C29.9027 14.338 29.6567 14.162 29.4607 13.942C29.2647 13.722 29.1107 13.478 28.9987 13.21C28.8867 12.942 28.8067 12.668 28.7587 12.388C28.7147 12.108 28.6927 11.846 28.6927 11.602V8.02H29.7727V11.266C29.7727 11.57 29.8007 11.864 29.8567 12.148C29.9127 12.432 30.0067 12.688 30.1387 12.916C30.2747 13.144 30.4547 13.324 30.6787 13.456C30.9067 13.588 31.1907 13.654 31.5307 13.654C31.7987 13.654 32.0427 13.608 32.2627 13.516C32.4827 13.424 32.6707 13.288 32.8267 13.108C32.9827 12.924 33.1027 12.692 33.1867 12.412C33.2707 12.132 33.3127 11.806 33.3127 11.434L34.0147 11.65C34.0147 12.274 33.9007 12.812 33.6727 13.264C33.4487 13.716 33.1307 14.064 32.7187 14.308C32.3107 14.548 31.8287 14.668 31.2727 14.668ZM33.4327 14.5V12.766H33.3127V8.02H34.3867V14.5H33.4327ZM36.1866 14.5V5.68H37.2546V14.5H36.1866ZM40.8968 14.68C40.4128 14.68 40.0068 14.592 39.6788 14.416C39.3548 14.236 39.1088 14 38.9408 13.708C38.7768 13.416 38.6948 13.096 38.6948 12.748C38.6948 12.408 38.7588 12.114 38.8868 11.866C39.0188 11.614 39.2028 11.406 39.4388 11.242C39.6748 11.074 39.9568 10.942 40.2848 10.846C40.5928 10.762 40.9368 10.69 41.3168 10.63C41.7008 10.566 42.0888 10.508 42.4808 10.456C42.8728 10.404 43.2388 10.354 43.5788 10.306L43.1948 10.528C43.2068 9.952 43.0908 9.526 42.8468 9.25C42.6068 8.974 42.1908 8.836 41.5988 8.836C41.2068 8.836 40.8628 8.926 40.5668 9.106C40.2748 9.282 40.0688 9.57 39.9488 9.97L38.9348 9.664C39.0908 9.096 39.3928 8.65 39.8408 8.326C40.2888 8.002 40.8788 7.84 41.6108 7.84C42.1988 7.84 42.7028 7.946 43.1228 8.158C43.5468 8.366 43.8508 8.682 44.0348 9.106C44.1268 9.306 44.1848 9.524 44.2088 9.76C44.2328 9.992 44.2448 10.236 44.2448 10.492V14.5H43.2968V12.946L43.5188 13.09C43.2748 13.614 42.9328 14.01 42.4928 14.278C42.0568 14.546 41.5248 14.68 40.8968 14.68ZM41.0588 13.786C41.4428 13.786 41.7748 13.718 42.0548 13.582C42.3388 13.442 42.5668 13.26 42.7388 13.036C42.9108 12.808 43.0228 12.56 43.0748 12.292C43.1348 12.092 43.1668 11.87 43.1708 11.626C43.1788 11.378 43.1828 11.188 43.1828 11.056L43.5548 11.218C43.2068 11.266 42.8648 11.312 42.5288 11.356C42.1928 11.4 41.8748 11.448 41.5748 11.5C41.2748 11.548 41.0048 11.606 40.7648 11.674C40.5888 11.73 40.4228 11.802 40.2668 11.89C40.1148 11.978 39.9908 12.092 39.8948 12.232C39.8028 12.368 39.7568 12.538 39.7568 12.742C39.7568 12.918 39.8008 13.086 39.8888 13.246C39.9808 13.406 40.1208 13.536 40.3088 13.636C40.5008 13.736 40.7508 13.786 41.0588 13.786ZM45.8048 14.5V8.02H46.7588V9.586L46.6028 9.382C46.6788 9.182 46.7768 8.998 46.8968 8.83C47.0208 8.662 47.1588 8.524 47.3108 8.416C47.4788 8.28 47.6688 8.176 47.8808 8.104C48.0928 8.032 48.3088 7.99 48.5288 7.978C48.7488 7.962 48.9548 7.976 49.1468 8.02V9.022C48.9228 8.962 48.6768 8.946 48.4088 8.974C48.1408 9.002 47.8928 9.1 47.6648 9.268C47.4568 9.416 47.2948 9.596 47.1788 9.808C47.0668 10.02 46.9888 10.25 46.9448 10.498C46.9008 10.742 46.8788 10.992 46.8788 11.248V14.5H45.8048Z" fill="#767676"/>
</svg>
