<svg width="65" height="20" viewBox="0 0 65 20" fill="none" xmlns="http://www.w3.org/2000/svg">
<rect x="0.5" y="0.5" width="64" height="19" rx="3.5" stroke="#C73838"/>
<path d="M11.906 15.18C11.294 15.18 10.742 15.076 10.25 14.868C9.762 14.66 9.358 14.364 9.038 13.98C8.722 13.592 8.516 13.134 8.42 12.606L9.524 12.432C9.664 12.976 9.954 13.402 10.394 13.71C10.838 14.014 11.36 14.166 11.96 14.166C12.348 14.166 12.698 14.106 13.01 13.986C13.326 13.862 13.576 13.686 13.76 13.458C13.944 13.23 14.036 12.96 14.036 12.648C14.036 12.456 14.002 12.292 13.934 12.156C13.87 12.016 13.78 11.898 13.664 11.802C13.552 11.702 13.424 11.618 13.28 11.55C13.136 11.482 12.986 11.426 12.83 11.382L10.628 10.728C10.388 10.656 10.156 10.566 9.932 10.458C9.708 10.346 9.508 10.208 9.332 10.044C9.156 9.876 9.016 9.676 8.912 9.444C8.808 9.208 8.756 8.93 8.756 8.61C8.756 8.098 8.888 7.662 9.152 7.302C9.42 6.938 9.782 6.66 10.238 6.468C10.694 6.276 11.208 6.182 11.78 6.186C12.36 6.19 12.878 6.294 13.334 6.498C13.794 6.698 14.174 6.986 14.474 7.362C14.778 7.738 14.982 8.188 15.086 8.712L13.952 8.91C13.892 8.558 13.758 8.256 13.55 8.004C13.346 7.748 13.09 7.552 12.782 7.416C12.474 7.276 12.136 7.204 11.768 7.2C11.416 7.196 11.098 7.252 10.814 7.368C10.53 7.484 10.304 7.646 10.136 7.854C9.968 8.058 9.884 8.294 9.884 8.562C9.884 8.826 9.96 9.04 10.112 9.204C10.264 9.364 10.45 9.492 10.67 9.588C10.894 9.68 11.112 9.756 11.324 9.816L12.968 10.29C13.156 10.342 13.372 10.414 13.616 10.506C13.864 10.598 14.104 10.728 14.336 10.896C14.568 11.06 14.76 11.28 14.912 11.556C15.064 11.828 15.14 12.172 15.14 12.588C15.14 13.004 15.056 13.374 14.888 13.698C14.724 14.022 14.494 14.294 14.198 14.514C13.902 14.73 13.558 14.894 13.166 15.006C12.774 15.122 12.354 15.18 11.906 15.18ZM19.1586 15.18C18.5146 15.18 17.9586 15.034 17.4906 14.742C17.0266 14.45 16.6686 14.046 16.4166 13.53C16.1646 13.014 16.0386 12.422 16.0386 11.754C16.0386 11.074 16.1666 10.478 16.4226 9.966C16.6786 9.454 17.0406 9.056 17.5086 8.772C17.9766 8.484 18.5266 8.34 19.1586 8.34C19.8066 8.34 20.3646 8.486 20.8326 8.778C21.3006 9.066 21.6586 9.468 21.9066 9.984C22.1586 10.496 22.2846 11.086 22.2846 11.754C22.2846 12.43 22.1586 13.026 21.9066 13.542C21.6546 14.054 21.2946 14.456 20.8266 14.748C20.3586 15.036 19.8026 15.18 19.1586 15.18ZM19.1586 14.166C19.8306 14.166 20.3306 13.942 20.6586 13.494C20.9866 13.046 21.1506 12.466 21.1506 11.754C21.1506 11.022 20.9846 10.44 20.6526 10.008C20.3206 9.572 19.8226 9.354 19.1586 9.354C18.7066 9.354 18.3346 9.456 18.0426 9.66C17.7506 9.864 17.5326 10.146 17.3886 10.506C17.2446 10.866 17.1726 11.282 17.1726 11.754C17.1726 12.482 17.3406 13.066 17.6766 13.506C18.0126 13.946 18.5066 14.166 19.1586 14.166ZM23.7256 15V6.18H24.7936V15H23.7256ZM29.1379 15.18C28.5339 15.18 28.0159 15.03 27.5839 14.73C27.1519 14.426 26.8179 14.016 26.5819 13.5C26.3499 12.984 26.2339 12.402 26.2339 11.754C26.2339 11.106 26.3499 10.524 26.5819 10.008C26.8179 9.492 27.1519 9.086 27.5839 8.79C28.0159 8.49 28.5319 8.34 29.1319 8.34C29.7439 8.34 30.2579 8.488 30.6739 8.784C31.0899 9.08 31.4039 9.486 31.6159 10.002C31.8319 10.518 31.9399 11.102 31.9399 11.754C31.9399 12.398 31.8319 12.98 31.6159 13.5C31.4039 14.016 31.0899 14.426 30.6739 14.73C30.2579 15.03 29.7459 15.18 29.1379 15.18ZM29.2699 14.202C29.7059 14.202 30.0639 14.098 30.3439 13.89C30.6239 13.678 30.8299 13.388 30.9619 13.02C31.0979 12.648 31.1659 12.226 31.1659 11.754C31.1659 11.274 31.0979 10.852 30.9619 10.488C30.8299 10.12 30.6259 9.834 30.3499 9.63C30.0739 9.422 29.7239 9.318 29.2999 9.318C28.8599 9.318 28.4959 9.426 28.2079 9.642C27.9239 9.858 27.7119 10.15 27.5719 10.518C27.4359 10.886 27.3679 11.298 27.3679 11.754C27.3679 12.214 27.4379 12.63 27.5779 13.002C27.7179 13.37 27.9279 13.662 28.2079 13.878C28.4919 14.094 28.8459 14.202 29.2699 14.202ZM31.1659 15V10.23H31.0459V6.36H32.1199V15H31.1659ZM39.7553 15.18C38.8953 15.18 38.1653 14.99 37.5653 14.61C36.9653 14.23 36.5073 13.702 36.1913 13.026C35.8793 12.35 35.7233 11.568 35.7233 10.68C35.7233 9.792 35.8793 9.01 36.1913 8.334C36.5073 7.658 36.9653 7.13 37.5653 6.75C38.1653 6.37 38.8953 6.18 39.7553 6.18C40.6193 6.18 41.3513 6.37 41.9513 6.75C42.5513 7.13 43.0073 7.658 43.3193 8.334C43.6313 9.01 43.7873 9.792 43.7873 10.68C43.7873 11.568 43.6313 12.35 43.3193 13.026C43.0073 13.702 42.5513 14.23 41.9513 14.61C41.3513 14.99 40.6193 15.18 39.7553 15.18ZM39.7553 14.16C40.3993 14.164 40.9353 14.02 41.3633 13.728C41.7953 13.432 42.1173 13.022 42.3293 12.498C42.5453 11.974 42.6533 11.368 42.6533 10.68C42.6533 9.988 42.5453 9.382 42.3293 8.862C42.1173 8.342 41.7953 7.936 41.3633 7.644C40.9353 7.352 40.3993 7.204 39.7553 7.2C39.1113 7.196 38.5753 7.34 38.1473 7.632C37.7233 7.924 37.4033 8.332 37.1873 8.856C36.9713 9.38 36.8613 9.988 36.8573 10.68C36.8533 11.368 36.9593 11.972 37.1753 12.492C37.3913 13.012 37.7133 13.42 38.1413 13.716C38.5733 14.008 39.1113 14.156 39.7553 14.16ZM47.4523 15.168C47.0363 15.168 46.6783 15.102 46.3783 14.97C46.0823 14.838 45.8363 14.662 45.6403 14.442C45.4443 14.222 45.2903 13.978 45.1783 13.71C45.0663 13.442 44.9863 13.168 44.9383 12.888C44.8943 12.608 44.8723 12.346 44.8723 12.102V8.52H45.9523V11.766C45.9523 12.07 45.9803 12.364 46.0363 12.648C46.0923 12.932 46.1863 13.188 46.3183 13.416C46.4543 13.644 46.6343 13.824 46.8583 13.956C47.0863 14.088 47.3703 14.154 47.7103 14.154C47.9783 14.154 48.2223 14.108 48.4423 14.016C48.6623 13.924 48.8503 13.788 49.0063 13.608C49.1623 13.424 49.2823 13.192 49.3663 12.912C49.4503 12.632 49.4923 12.306 49.4923 11.934L50.1943 12.15C50.1943 12.774 50.0803 13.312 49.8523 13.764C49.6283 14.216 49.3103 14.564 48.8983 14.808C48.4903 15.048 48.0083 15.168 47.4523 15.168ZM49.6123 15V13.266H49.4923V8.52H50.5663V15H49.6123ZM55.8643 15C55.4803 15.076 55.1003 15.106 54.7243 15.09C54.3523 15.078 54.0203 15.004 53.7283 14.868C53.4363 14.728 53.2143 14.512 53.0623 14.22C52.9343 13.964 52.8643 13.706 52.8523 13.446C52.8443 13.182 52.8403 12.884 52.8403 12.552V6.72H53.9083V12.504C53.9083 12.768 53.9103 12.994 53.9143 13.182C53.9223 13.37 53.9643 13.532 54.0403 13.668C54.1843 13.924 54.4123 14.074 54.7243 14.118C55.0403 14.162 55.4203 14.15 55.8643 14.082V15ZM51.5263 9.402V8.52H55.8643V9.402H51.5263Z" fill="#9E0A0A"/>
</svg>
