<svg width="15" height="12" viewBox="0 0 15 12" fill="none" xmlns="http://www.w3.org/2000/svg">
<path d="M5.83333 3.16667V2.5M5.83333 6.16667V5.5M5.83333 9.16667V8.5M2.63333 0.5H11.7C12.4467 0.5 12.8201 0.5 13.1053 0.645325C13.3562 0.773156 13.5602 0.97713 13.688 1.22801C13.8333 1.51323 13.8333 1.8866 13.8333 2.63333C13.8333 2.83297 13.8333 2.93279 13.8226 2.99193C13.7777 3.23858 13.7295 3.30911 13.516 3.44048C13.4648 3.47198 13.3053 3.53416 12.9862 3.65853C12.1164 3.9976 11.5 4.84349 11.5 5.83333C11.5 6.82318 12.1164 7.66907 12.9862 8.00814C13.3053 8.1325 13.4648 8.19469 13.516 8.22619C13.7295 8.35755 13.7777 8.42808 13.8226 8.67473C13.8333 8.73388 13.8333 8.8337 13.8333 9.03333C13.8333 9.78007 13.8333 10.1534 13.688 10.4387C13.5602 10.6895 13.3562 10.8935 13.1053 11.0213C12.8201 11.1667 12.4467 11.1667 11.7 11.1667H2.63333C1.8866 11.1667 1.51323 11.1667 1.22801 11.0213C0.97713 10.8935 0.773156 10.6895 0.645325 10.4387C0.5 10.1534 0.5 9.78007 0.5 9.03333C0.5 8.8337 0.5 8.73388 0.510755 8.67473C0.555604 8.42808 0.60381 8.35755 0.817329 8.22619C0.868532 8.19469 1.02806 8.1325 1.34712 8.00814C2.21698 7.66907 2.83333 6.82318 2.83333 5.83333C2.83333 4.84349 2.21698 3.9976 1.34712 3.65853C1.02806 3.53416 0.868532 3.47198 0.817329 3.44048C0.60381 3.30911 0.555604 3.23858 0.510755 2.99193C0.5 2.93279 0.5 2.83297 0.5 2.63333C0.5 1.8866 0.5 1.51323 0.645325 1.22801C0.773156 0.97713 0.97713 0.773156 1.22801 0.645325C1.51323 0.5 1.8866 0.5 2.63333 0.5Z" stroke="#191919" stroke-linecap="round" stroke-linejoin="round"/>
</svg>
