<svg width="18" height="15" viewBox="0 0 18 15" fill="none" xmlns="http://www.w3.org/2000/svg">
<path d="M7.29167 3.95833V3.125M7.29167 7.70833V6.875M7.29167 11.4583V10.625M3.29167 0.625H14.625C15.5584 0.625 16.0251 0.625 16.3817 0.806656C16.6953 0.966445 16.9502 1.22141 17.11 1.53502C17.2917 1.89154 17.2917 2.35825 17.2917 3.29167C17.2917 3.54121 17.2917 3.66598 17.2782 3.73992C17.2222 4.04823 17.1619 4.13639 16.895 4.3006C16.831 4.33997 16.6316 4.4177 16.2328 4.57317C15.1454 4.997 14.375 6.05436 14.375 7.29167C14.375 8.52897 15.1454 9.58633 16.2328 10.0102C16.6316 10.1656 16.831 10.2434 16.895 10.2827C17.1619 10.4469 17.2222 10.5351 17.2782 10.8434C17.2917 10.9174 17.2917 11.0421 17.2917 11.2917C17.2917 12.2251 17.2917 12.6918 17.11 13.0483C16.9502 13.3619 16.6953 13.6169 16.3817 13.7767C16.0251 13.9583 15.5584 13.9583 14.625 13.9583H3.29167C2.35825 13.9583 1.89154 13.9583 1.53502 13.7767C1.22141 13.6169 0.966445 13.3619 0.806656 13.0483C0.625 12.6918 0.625 12.2251 0.625 11.2917C0.625 11.0421 0.625 10.9174 0.638444 10.8434C0.694505 10.5351 0.754763 10.4469 1.02166 10.2827C1.08566 10.2434 1.28508 10.1656 1.6839 10.0102C2.77122 9.58633 3.54167 8.52897 3.54167 7.29167C3.54167 6.05436 2.77122 4.997 1.6839 4.57317C1.28508 4.4177 1.08566 4.33997 1.02166 4.3006C0.754763 4.13639 0.694505 4.04823 0.638444 3.73992C0.625 3.66598 0.625 3.54121 0.625 3.29167C0.625 2.35825 0.625 1.89154 0.806656 1.53502C0.966445 1.22141 1.22141 0.966445 1.53502 0.806656C1.89154 0.625 2.35825 0.625 3.29167 0.625Z" stroke="#191919" stroke-width="1.25" stroke-linecap="round" stroke-linejoin="round"/>
</svg>
