<svg width="70" height="18" viewBox="0 0 70 18" fill="none" xmlns="http://www.w3.org/2000/svg">
<rect width="70" height="18" rx="4" fill="#E2FDE7"/>
<path d="M10.248 13.18C9.58 13.18 8.99 13.042 8.478 12.766C7.966 12.49 7.564 12.104 7.272 11.608C6.984 11.108 6.84 10.522 6.84 9.85V4.366L7.92 4.36V9.76C7.92 10.168 7.988 10.524 8.124 10.828C8.264 11.128 8.448 11.378 8.676 11.578C8.904 11.778 9.154 11.928 9.426 12.028C9.702 12.124 9.976 12.172 10.248 12.172C10.524 12.172 10.8 12.122 11.076 12.022C11.352 11.922 11.602 11.774 11.826 11.578C12.054 11.378 12.236 11.126 12.372 10.822C12.508 10.518 12.576 10.164 12.576 9.76V4.36H13.656V9.85C13.656 10.518 13.51 11.102 13.218 11.602C12.93 12.102 12.53 12.49 12.018 12.766C11.506 13.042 10.916 13.18 10.248 13.18ZM18.3121 13.18C17.7041 13.18 17.1921 13.03 16.7761 12.73C16.3601 12.426 16.0441 12.016 15.8281 11.5C15.6161 10.98 15.5101 10.398 15.5101 9.754C15.5101 9.102 15.6161 8.518 15.8281 8.002C16.0441 7.486 16.3601 7.08 16.7761 6.784C17.1961 6.488 17.7101 6.34 18.3181 6.34C18.9181 6.34 19.4341 6.49 19.8661 6.79C20.3021 7.086 20.6361 7.492 20.8681 8.008C21.1001 8.524 21.2161 9.106 21.2161 9.754C21.2161 10.402 21.1001 10.984 20.8681 11.5C20.6361 12.016 20.3021 12.426 19.8661 12.73C19.4341 13.03 18.9161 13.18 18.3121 13.18ZM15.3301 15.88V6.52H16.2841V11.29H16.4041V15.88H15.3301ZM18.1801 12.202C18.6081 12.202 18.9621 12.094 19.2421 11.878C19.5221 11.662 19.7321 11.37 19.8721 11.002C20.0121 10.63 20.0821 10.214 20.0821 9.754C20.0821 9.298 20.0121 8.886 19.8721 8.518C19.7361 8.15 19.5241 7.858 19.2361 7.642C18.9521 7.426 18.5901 7.318 18.1501 7.318C17.7301 7.318 17.3821 7.422 17.1061 7.63C16.8301 7.834 16.6241 8.12 16.4881 8.488C16.3521 8.852 16.2841 9.274 16.2841 9.754C16.2841 10.226 16.3501 10.648 16.4821 11.02C16.6181 11.388 16.8261 11.678 17.1061 11.89C17.3861 12.098 17.7441 12.202 18.1801 12.202ZM25.2614 13.18C24.6054 13.18 24.0474 13.034 23.5874 12.742C23.1314 12.446 22.7834 12.04 22.5434 11.524C22.3034 11.008 22.1794 10.42 22.1714 9.76C22.1794 9.084 22.3054 8.49 22.5494 7.978C22.7974 7.462 23.1514 7.06 23.6114 6.772C24.0714 6.484 24.6254 6.34 25.2734 6.34C25.9574 6.34 26.5454 6.508 27.0374 6.844C27.5334 7.18 27.8654 7.64 28.0334 8.224L26.9774 8.542C26.8414 8.166 26.6194 7.874 26.3114 7.666C26.0074 7.458 25.6574 7.354 25.2614 7.354C24.8174 7.354 24.4514 7.458 24.1634 7.666C23.8754 7.87 23.6614 8.154 23.5214 8.518C23.3814 8.878 23.3094 9.292 23.3054 9.76C23.3134 10.48 23.4794 11.062 23.8034 11.506C24.1314 11.946 24.6174 12.166 25.2614 12.166C25.6854 12.166 26.0374 12.07 26.3174 11.878C26.5974 11.682 26.8094 11.4 26.9534 11.032L28.0334 11.314C27.8094 11.918 27.4594 12.38 26.9834 12.7C26.5074 13.02 25.9334 13.18 25.2614 13.18ZM31.8422 13.18C31.1982 13.18 30.6422 13.034 30.1742 12.742C29.7102 12.45 29.3522 12.046 29.1002 11.53C28.8482 11.014 28.7222 10.422 28.7222 9.754C28.7222 9.074 28.8502 8.478 29.1062 7.966C29.3622 7.454 29.7242 7.056 30.1922 6.772C30.6602 6.484 31.2102 6.34 31.8422 6.34C32.4902 6.34 33.0482 6.486 33.5162 6.778C33.9842 7.066 34.3422 7.468 34.5902 7.984C34.8422 8.496 34.9682 9.086 34.9682 9.754C34.9682 10.43 34.8422 11.026 34.5902 11.542C34.3382 12.054 33.9782 12.456 33.5102 12.748C33.0422 13.036 32.4862 13.18 31.8422 13.18ZM31.8422 12.166C32.5142 12.166 33.0142 11.942 33.3422 11.494C33.6702 11.046 33.8342 10.466 33.8342 9.754C33.8342 9.022 33.6682 8.44 33.3362 8.008C33.0042 7.572 32.5062 7.354 31.8422 7.354C31.3902 7.354 31.0182 7.456 30.7262 7.66C30.4342 7.864 30.2162 8.146 30.0722 8.506C29.9282 8.866 29.8562 9.282 29.8562 9.754C29.8562 10.482 30.0242 11.066 30.3602 11.506C30.6962 11.946 31.1902 12.166 31.8422 12.166ZM44.0352 13L44.0412 8.854C44.0412 8.37 43.9112 7.992 43.6512 7.72C43.3952 7.444 43.0612 7.306 42.6492 7.306C42.4092 7.306 42.1812 7.362 41.9652 7.474C41.7492 7.582 41.5732 7.754 41.4372 7.99C41.3012 8.222 41.2332 8.52 41.2332 8.884L40.6692 8.656C40.6612 8.196 40.7552 7.794 40.9512 7.45C41.1512 7.102 41.4232 6.832 41.7672 6.64C42.1112 6.448 42.4992 6.352 42.9312 6.352C43.6072 6.352 44.1392 6.558 44.5272 6.97C44.9152 7.378 45.1092 7.928 45.1092 8.62L45.1032 13H44.0352ZM36.2832 13V6.52H37.2372V8.254H37.3572V13H36.2832ZM40.1652 13L40.1712 8.896C40.1712 8.4 40.0432 8.012 39.7872 7.732C39.5312 7.448 39.1912 7.306 38.7672 7.306C38.3472 7.306 38.0072 7.45 37.7472 7.738C37.4872 8.026 37.3572 8.408 37.3572 8.884L36.7932 8.548C36.7932 8.128 36.8932 7.752 37.0932 7.42C37.2932 7.088 37.5652 6.828 37.9092 6.64C38.2532 6.448 38.6432 6.352 39.0792 6.352C39.5152 6.352 39.8952 6.444 40.2192 6.628C40.5432 6.812 40.7932 7.076 40.9692 7.42C41.1452 7.76 41.2332 8.166 41.2332 8.638L41.2272 13H40.1652ZM46.792 5.374V4.27H47.86V5.374H46.792ZM46.792 13V6.52H47.86V13H46.792ZM54.2743 13V9.754C54.2743 9.446 54.2463 9.15 54.1903 8.866C54.1383 8.582 54.0443 8.328 53.9083 8.104C53.7763 7.876 53.5963 7.696 53.3683 7.564C53.1443 7.432 52.8603 7.366 52.5163 7.366C52.2483 7.366 52.0043 7.412 51.7843 7.504C51.5683 7.592 51.3823 7.728 51.2263 7.912C51.0703 8.096 50.9483 8.328 50.8603 8.608C50.7763 8.884 50.7343 9.21 50.7343 9.586L50.0323 9.37C50.0323 8.742 50.1443 8.204 50.3683 7.756C50.5963 7.304 50.9143 6.958 51.3223 6.718C51.7343 6.474 52.2183 6.352 52.7743 6.352C53.1943 6.352 53.5523 6.418 53.8483 6.55C54.1443 6.682 54.3903 6.858 54.5863 7.078C54.7823 7.294 54.9363 7.538 55.0483 7.81C55.1603 8.078 55.2383 8.352 55.2823 8.632C55.3303 8.908 55.3543 9.17 55.3543 9.418V13H54.2743ZM49.6543 13V6.52H50.6143V8.254H50.7343V13H49.6543ZM59.5362 16.06C59.1962 16.06 58.8642 16.008 58.5402 15.904C58.2162 15.8 57.9182 15.642 57.6462 15.43C57.3782 15.222 57.1542 14.958 56.9742 14.638L57.9522 14.122C58.1122 14.438 58.3382 14.668 58.6302 14.812C58.9262 14.956 59.2302 15.028 59.5422 15.028C59.9542 15.028 60.2962 14.952 60.5682 14.8C60.8402 14.652 61.0402 14.43 61.1682 14.134C61.3002 13.838 61.3642 13.47 61.3602 13.03V11.26H61.4862V6.52H62.4342V13.042C62.4342 13.218 62.4282 13.388 62.4162 13.552C62.4082 13.716 62.3882 13.878 62.3562 14.038C62.2722 14.498 62.1062 14.876 61.8582 15.172C61.6102 15.472 61.2902 15.694 60.8982 15.838C60.5062 15.986 60.0522 16.06 59.5362 16.06ZM59.4582 13.18C58.8542 13.18 58.3362 13.03 57.9042 12.73C57.4722 12.426 57.1382 12.016 56.9022 11.5C56.6702 10.984 56.5542 10.402 56.5542 9.754C56.5542 9.106 56.6702 8.524 56.9022 8.008C57.1382 7.492 57.4722 7.086 57.9042 6.79C58.3362 6.49 58.8522 6.34 59.4522 6.34C60.0642 6.34 60.5782 6.488 60.9942 6.784C61.4102 7.08 61.7242 7.486 61.9362 8.002C62.1522 8.518 62.2602 9.102 62.2602 9.754C62.2602 10.398 62.1522 10.98 61.9362 11.5C61.7242 12.016 61.4102 12.426 60.9942 12.73C60.5782 13.03 60.0662 13.18 59.4582 13.18ZM59.5902 12.202C60.0262 12.202 60.3842 12.098 60.6642 11.89C60.9442 11.678 61.1502 11.388 61.2822 11.02C61.4182 10.648 61.4862 10.226 61.4862 9.754C61.4862 9.274 61.4182 8.852 61.2822 8.488C61.1502 8.12 60.9462 7.834 60.6702 7.63C60.3942 7.422 60.0442 7.318 59.6202 7.318C59.1802 7.318 58.8162 7.426 58.5282 7.642C58.2442 7.858 58.0322 8.15 57.8922 8.518C57.7562 8.886 57.6882 9.298 57.6882 9.754C57.6882 10.214 57.7582 10.63 57.8982 11.002C58.0382 11.37 58.2482 11.662 58.5282 11.878C58.8122 12.094 59.1662 12.202 59.5902 12.202Z" fill="#07821C"/>
</svg>
