<svg width="17" height="18" viewBox="0 0 17 18" fill="none" xmlns="http://www.w3.org/2000/svg">
<path d="M9.79167 16.4583H6.45833M5.31921 1.48643C6.14132 0.929083 7.11748 0.625 8.12499 0.625C9.45108 0.625 10.7228 1.15178 11.6605 2.08947C12.5982 3.02715 13.125 4.29892 13.125 5.625C13.125 7.37564 13.3502 8.75101 13.6653 9.81868M3.34056 4.17269C3.19888 4.63938 3.125 5.12838 3.125 5.625C3.125 8.20015 2.47539 9.9633 1.74972 11.1295C1.13761 12.1132 0.831548 12.6051 0.842771 12.7423C0.855197 12.8942 0.887383 12.9522 1.00981 13.043C1.12038 13.125 1.61883 13.125 2.61571 13.125H12.2917M15.625 16.4583L0.625 1.45833" stroke="#191919" stroke-width="1.25" stroke-linecap="round" stroke-linejoin="round"/>
</svg>

