<svg width="17" height="19" viewBox="0 0 17 19" fill="none" xmlns="http://www.w3.org/2000/svg">
<path d="M5.44422 1.61142C6.26633 1.05408 7.24249 0.75 8.25 0.75C9.57608 0.75 10.8479 1.27678 11.7855 2.21447C12.7232 3.15215 13.25 4.42392 13.25 5.75C13.25 7.50064 13.4752 8.87601 13.7903 9.94368M3.46556 4.2977C3.32388 4.76438 3.25 5.25338 3.25 5.75C3.25 8.32515 2.60039 10.0883 1.87472 11.2545C1.26261 12.2382 0.956548 12.7301 0.967771 12.8673C0.980197 13.0192 1.01238 13.0772 1.13481 13.168C1.24538 13.25 1.74383 13.25 2.74071 13.25H12.4167M6.04515 16.5833C6.63276 17.102 7.40463 17.4167 8.25 17.4167C9.09537 17.4167 9.86724 17.102 10.4549 16.5833M15.75 16.5833L0.75 1.58333" stroke="black" stroke-width="1.5" stroke-linecap="round" stroke-linejoin="round"/>
</svg>
