<svg width="16" height="14" viewBox="0 0 16 14" fill="none" xmlns="http://www.w3.org/2000/svg">
<path d="M7.63185 4.73524V7.40191M7.63185 10.0686H7.63852M6.49185 1.30858L0.845183 10.7352C0.728762 10.9369 0.667161 11.1654 0.666509 11.3983C0.665857 11.6311 0.726177 11.86 0.841468 12.0623C0.956758 12.2645 1.123 12.4331 1.32366 12.5511C1.52431 12.6692 1.75238 12.7327 1.98518 12.7352H13.2785C13.5113 12.7327 13.7394 12.6692 13.94 12.5511C14.1407 12.4331 14.3069 12.2645 14.4222 12.0623C14.5375 11.86 14.5978 11.6311 14.5972 11.3983C14.5965 11.1654 14.5349 10.9369 14.4185 10.7352L8.77185 1.30858C8.653 1.11265 8.48566 0.950657 8.28598 0.838233C8.0863 0.725809 7.86101 0.666748 7.63185 0.666748C7.40269 0.666748 7.1774 0.725809 6.97772 0.838233C6.77804 0.950657 6.6107 1.11265 6.49185 1.30858Z" stroke="#E1910E" stroke-width="1.33333" stroke-linecap="round" stroke-linejoin="round"/>
</svg>
