<svg width="23" height="20" viewBox="0 0 23 20" fill="none" xmlns="http://www.w3.org/2000/svg">
<path d="M11.0134 7.25414V11.2541M11.0134 15.2541H11.0234M9.62875 2.14586L1.40386 16.3525C0.947654 17.1405 0.719552 17.5345 0.753265 17.8578C0.78267 18.1399 0.930441 18.3962 1.1598 18.5629C1.42276 18.7541 1.87802 18.7541 2.78854 18.7541H19.2383C20.1488 18.7541 20.6041 18.7541 20.8671 18.5629C21.0964 18.3962 21.2442 18.1399 21.2736 17.8578C21.3073 17.5345 21.0792 17.1405 20.623 16.3525L12.3981 2.14586C11.9435 1.36069 11.7163 0.968113 11.4197 0.83626C11.1611 0.721247 10.8658 0.721247 10.6071 0.83626C10.3106 0.968113 10.0833 1.3607 9.62875 2.14586Z" stroke="white" stroke-width="1.5" stroke-linecap="round" stroke-linejoin="round"/>
</svg>
