<svg width="20" height="20" viewBox="0 0 20 20" fill="none" xmlns="http://www.w3.org/2000/svg">
<path d="M6.66666 6.66536V4.9987C6.66666 4.55667 6.84226 4.13275 7.15482 3.82019C7.46738 3.50763 7.8913 3.33203 8.33333 3.33203H11.6667C12.1087 3.33203 12.5326 3.50763 12.8452 3.82019C13.1577 4.13275 13.3333 4.55667 13.3333 4.9987V6.66536M3.33333 11.6654L5.95833 12.3212C8.61195 12.9845 11.388 12.9845 14.0417 12.3212L16.6667 11.6654M11.25 9.9987C10.8333 9.9987 10.4602 9.9987 9.99999 9.9987C9.53976 9.9987 9.16666 9.9987 8.74999 9.9987M3.33333 8.33203C3.33333 7.89 3.50892 7.46608 3.82148 7.15352C4.13404 6.84096 4.55797 6.66536 4.99999 6.66536H15C15.442 6.66536 15.8659 6.84096 16.1785 7.15352C16.4911 7.46608 16.6667 7.89 16.6667 8.33203V14.9987C16.6667 15.4407 16.4911 15.8646 16.1785 16.1772C15.8659 16.4898 15.442 16.6654 15 16.6654H4.99999C4.55797 16.6654 4.13404 16.4898 3.82148 16.1772C3.50892 15.8646 3.33333 15.4407 3.33333 14.9987V8.33203Z" stroke="#767676" stroke-width="1.25" stroke-linecap="round" stroke-linejoin="round"/>
</svg>
