<svg width="16" height="16" viewBox="0 0 16 16" fill="none" xmlns="http://www.w3.org/2000/svg">
<path d="M14 6.66659H2M14 8.33325V5.86659C14 4.74648 14 4.18643 13.782 3.7586C13.5903 3.38228 13.2843 3.07632 12.908 2.88457C12.4802 2.66659 11.9201 2.66659 10.8 2.66659H5.2C4.0799 2.66659 3.51984 2.66659 3.09202 2.88457C2.71569 3.07632 2.40973 3.38228 2.21799 3.7586C2 4.18643 2 4.74648 2 5.86659V11.4666C2 12.5867 2 13.1467 2.21799 13.5746C2.40973 13.9509 2.71569 14.2569 3.09202 14.4486C3.51984 14.6666 4.0799 14.6666 5.2 14.6666H8M10.6667 1.33325V3.99992M5.33333 1.33325V3.99992M9.66667 12.6666L10.2458 13.2457C10.5098 13.5097 10.6418 13.6417 10.794 13.6911C10.9279 13.7347 11.0721 13.7347 11.206 13.6911C11.3582 13.6417 11.4902 13.5097 11.7542 13.2457L14 10.9999" stroke="#767676" stroke-linecap="round" stroke-linejoin="round"/>
</svg>
