<svg width="67" height="37" viewBox="0 0 67 37" fill="none" xmlns="http://www.w3.org/2000/svg">
<path d="M55.7621 12.2335L55.7315 12.1485C55.5728 11.7197 55.3516 11.5362 55.578 11.0585C55.6868 10.8294 55.9071 10.6658 56.1457 10.5905C56.4241 10.5025 56.77 10.5379 57.0251 10.6794C57.2097 10.7819 57.3566 10.9399 57.4145 11.1461C57.4947 11.4319 57.4044 11.7995 57.2439 12.043C57.1112 12.2445 56.8994 12.3339 56.7422 12.5006C56.3536 12.4986 56.1045 12.4182 55.7621 12.2335Z" fill="url(#paint0_linear_28_43614)"/>
<path d="M51.8601 3.61723C51.9341 3.63403 52.0076 3.65254 52.0807 3.67276C52.4048 3.76487 52.6668 3.94152 52.8191 4.25142C52.9319 4.48079 52.9318 4.74618 52.833 4.98006C52.6671 5.37327 52.3697 5.5154 51.9927 5.6662C51.8724 5.6371 51.7516 5.60742 51.6341 5.56794C51.3508 5.47261 51.1413 5.26597 51.0162 4.99557C50.9116 4.76904 50.9183 4.50056 51.0186 4.27338C51.1844 3.89805 51.4957 3.75282 51.8601 3.61723Z" fill="url(#paint1_linear_28_43614)"/>
<path d="M10.0146 -2.91495L19.5515 -1.58123C21.0959 -1.36794 23.2535 -1.25878 24.6723 -0.742607C25.5964 -0.40623 26.3876 0.219165 26.9793 0.999428C27.4153 1.57438 27.7454 2.23265 27.9925 2.90897C28.3332 3.84166 29.4116 8.38751 29.467 9.30552C29.4577 9.34119 29.4473 9.37657 29.4391 9.41252C29.3654 9.73839 29.6211 9.96474 29.4714 10.2906C29.0757 10.3917 21.0119 9.14746 19.9955 8.98567C19.163 8.85311 18.3026 8.4747 17.4651 8.60903C17.3984 8.61976 17.3306 8.62307 17.2632 8.62957L17.131 8.64354C17.0829 8.50603 17.0379 8.36881 16.9728 8.23812L16.9302 8.34435C16.6784 7.75662 16.5981 7.00646 16.4079 6.38406C16.2077 5.5596 16.0275 4.72289 15.7697 3.91458C15.7618 3.87572 15.7543 3.83679 15.746 3.79801C15.0308 0.481282 12.6557 -1.18134 10.0146 -2.91495Z" fill="url(#paint2_linear_28_43614)"/>
<path d="M29.467 9.30552C30.2501 12.6755 30.9415 16.0707 31.6745 19.4521C32.0034 20.9689 32.2684 22.54 32.69 24.0325C32.7367 24.3432 32.866 24.7828 32.852 25.0854C32.8516 25.1122 32.8506 25.139 32.8507 25.1657C32.8511 25.6069 33.2453 26.7542 33.0219 27.0521C31.4871 26.8102 29.9634 26.4973 28.4241 26.266C26.9547 26.0452 23.1817 25.7781 22.0439 25.2375C21.8425 25.1417 21.7808 25.0827 21.5602 25.1283L21.4288 25.3428L21.2908 25.283C21.2373 25.0446 21.2311 24.7229 21.0172 24.5896C21.0105 24.5856 21.0025 24.5842 20.9952 24.5815C20.0977 21.5689 19.431 18.4442 18.6691 15.3916C18.0896 13.0704 17.3534 10.6929 16.9302 8.34435L16.9728 8.23812C17.0379 8.36881 17.0829 8.50603 17.131 8.64354L17.2632 8.62957C17.3306 8.62307 17.3984 8.61976 17.4651 8.60903C18.3026 8.4747 19.163 8.85311 19.9955 8.98567C21.0119 9.14746 29.0757 10.3917 29.4714 10.2906C29.6211 9.96474 29.3654 9.73839 29.4391 9.41252C29.4473 9.37657 29.4577 9.34119 29.467 9.30552Z" fill="url(#paint3_linear_28_43614)"/>
<path fill-rule="evenodd" clip-rule="evenodd" d="M59.7789 4.07026L61.4973 4.32189C60.9411 4.84717 60.4139 5.38028 59.9163 5.96179C59.7911 6.10804 59.667 6.2651 59.5412 6.42421C59.2574 6.7831 58.9654 7.15246 58.6347 7.43194C58.504 7.54238 58.3832 7.57275 58.2226 7.61295C57.8928 7.69542 57.6693 7.75793 57.5011 8.07142C57.3605 8.33392 57.3002 8.66414 57.4014 8.95024C57.5052 9.2436 57.7441 9.46423 58.0283 9.58096C58.3131 9.69805 58.6532 9.71381 58.9393 9.59199C59.1798 9.48945 59.3468 9.29215 59.4268 9.045C59.5579 8.6399 59.4594 8.32303 59.3027 7.94389C60.286 6.6696 61.3108 5.53021 62.512 4.45763L66.907 5.08528C64.0376 6.67201 61.825 8.92076 59.9477 11.5904C59.7235 11.9092 59.5102 12.2551 59.2956 12.6033C58.9585 13.1501 58.6179 13.7027 58.2257 14.165C57.9549 14.7924 57.5952 15.4099 57.2416 16.017L57.2411 16.0178C57.097 16.2651 56.954 16.5107 56.8184 16.7545L50.5896 27.99C50.4282 28.2811 50.2684 28.5751 50.1081 28.8702L50.106 28.874L50.1055 28.875L50.1047 28.8763C49.4053 30.1635 48.6962 31.4684 47.8035 32.6186C46.7659 33.9554 45.4874 35.2578 43.8903 35.8968C43.3482 36.1137 42.7676 36.2956 42.178 36.2948C40.7741 36.2932 39.1114 36.0222 37.554 35.7684C36.9566 35.6711 36.3748 35.5762 35.829 35.5001C34.9503 35.3775 34.0639 35.266 33.1754 35.1543C31.2189 34.9081 29.2522 34.6607 27.3359 34.2913C26.8496 34.1975 26.3369 34.0785 25.8816 33.8794C24.2243 33.1547 22.9699 31.4178 22.3554 29.7697C22.2862 29.5845 22.2289 29.4135 22.1971 29.2179C21.7358 28.2817 21.2032 25.695 20.9952 24.5815C20.9966 24.582 20.9981 24.5825 20.9995 24.5829L21.0027 24.5839C21.0077 24.5854 21.0127 24.5869 21.0172 24.5896C21.1874 24.6957 21.2261 24.921 21.2618 25.1288C21.2709 25.1821 21.2799 25.2343 21.2908 25.283L21.4288 25.3428L21.5602 25.1283C21.7471 25.0897 21.82 25.1261 21.9604 25.1964L21.9605 25.1965C21.97 25.2013 21.9798 25.2062 21.9899 25.2112C21.9988 25.2156 22.008 25.2201 22.0175 25.2247C22.026 25.2289 22.0348 25.2332 22.0439 25.2375C22.8737 25.6318 25.1054 25.8806 26.8227 26.072C27.46 26.143 28.0264 26.2062 28.4241 26.266C29.2492 26.39 30.0698 26.5374 30.8901 26.6848C31.6 26.8123 32.3098 26.9399 33.0219 27.0521C33.1649 26.8613 33.0548 26.3224 32.957 25.8436C32.902 25.5745 32.8509 25.3244 32.8507 25.1657C32.8507 25.154 32.8509 25.1422 32.8511 25.1305L32.8515 25.1139C32.8517 25.1044 32.8519 25.095 32.852 25.0854C32.8614 24.8817 32.8059 24.6158 32.7544 24.369C32.7293 24.2492 32.7053 24.134 32.69 24.0325L37.0716 15.8843C37.2496 15.5538 37.4427 15.1892 37.6483 14.8008C38.9926 12.262 40.8729 8.71084 42.5927 7.07566C43.9295 5.23035 46.0513 3.47149 48.0779 2.43488L49.4566 2.63045C48.6199 3.52198 47.824 4.44856 47.0689 5.41018L46.955 5.42712C46.5313 5.4921 46.1623 5.57683 45.9086 5.96042C45.8929 5.98382 45.8785 6.00791 45.8653 6.0327C45.8521 6.05756 45.8401 6.08298 45.8293 6.10897C45.8186 6.13496 45.8092 6.16144 45.801 6.1884C45.7929 6.21528 45.7862 6.24252 45.7807 6.27012C45.7753 6.29773 45.7713 6.32552 45.7686 6.35351C45.766 6.38151 45.7647 6.40961 45.7647 6.4378C45.7648 6.46592 45.7663 6.49398 45.7692 6.52197C45.772 6.54987 45.7763 6.57762 45.7819 6.60522C45.8428 6.90085 46.0472 7.16436 46.3102 7.30898C46.5274 7.42849 46.7825 7.46474 47.022 7.39461C47.269 7.32219 47.5336 7.12873 47.6429 6.89051C47.7183 6.72654 47.6913 6.55381 47.6651 6.3865C47.6448 6.25628 47.625 6.12934 47.6543 6.01236C47.7904 5.46969 49.3488 3.85121 50.1127 3.05786C50.2281 2.93805 50.3253 2.83705 50.3968 2.76142L55.9336 3.5423C54.5614 4.87787 53.2604 6.27952 52.0305 7.74724C51.7258 8.11431 51.436 8.49565 51.1463 8.87684C50.8093 9.32019 50.4725 9.76332 50.1128 10.1835C49.8167 10.7566 49.417 11.3208 49.0228 11.8773L49.0227 11.8774C48.8012 12.19 48.5814 12.5003 48.3828 12.8082C47.8934 12.9276 47.5179 13.0746 47.212 13.5042C47.081 13.688 47.0189 13.8849 47.0683 14.1093C47.1337 14.406 47.3667 14.6498 47.6193 14.8038C47.927 14.9915 48.343 15.0721 48.6913 14.961C48.8992 14.8947 49.0737 14.7553 49.1611 14.5526C49.3674 14.0742 49.234 13.6773 49.034 13.237C49.7301 12.1516 50.4255 11.088 51.2201 10.0716C52.8869 7.79004 54.8371 5.55837 56.9579 3.68898L58.7596 3.95633C56.9662 5.75525 55.3741 7.68402 53.8734 9.73111C53.4292 9.79826 53.0122 9.87988 52.736 10.2778C52.5866 10.4932 52.5615 10.7786 52.6109 11.0308C52.655 11.2554 52.7613 11.408 52.8829 11.5825C52.901 11.6085 52.9195 11.635 52.9381 11.6623C52.9538 11.6853 52.9688 11.7088 52.9837 11.7323C52.9912 11.7441 52.9986 11.7559 53.0062 11.7676C53.3246 11.8632 53.5975 11.9398 53.9351 11.9337C53.9496 11.9233 53.9642 11.9128 53.979 11.9022C54.2878 11.6808 54.6682 11.4081 54.7134 11.0064C54.748 10.699 54.6451 10.4269 54.5238 10.1513C56.0551 8.06121 57.7759 5.73452 59.7789 4.07026ZM45.1569 7.79511C45.1978 7.81484 45.2387 7.83508 45.2798 7.85537C45.4101 7.91983 45.5414 7.98476 45.6765 8.03522C45.6894 8.05487 45.7021 8.0747 45.7148 8.09453L45.715 8.09486C45.7318 8.12122 45.7486 8.14757 45.766 8.1735C45.9862 8.50163 46.1025 8.84667 46.0199 9.25158C45.9776 9.45941 45.8562 9.61047 45.6695 9.70784C45.4381 9.82865 45.1021 9.80776 44.8594 9.73862C44.5471 9.64986 44.1735 9.42107 44.0423 9.10882C43.9633 8.92065 43.9637 8.73028 44.0578 8.54802C44.2762 8.12509 44.7284 7.92325 45.1569 7.79511ZM52.2245 12.9044C52.0751 12.8326 51.9089 12.7944 51.7475 12.7624C51.388 12.8458 51.0024 12.9671 50.8046 13.3085C50.5791 13.6973 50.6884 14.1171 50.8157 14.5143L50.8465 14.6091C50.6357 15.0262 50.4106 15.4355 50.1714 15.8369C49.8059 15.8462 49.4393 15.8522 49.0723 15.8582C48.2872 15.871 47.5004 15.8839 46.7198 15.9287C46.1656 16.7674 44.4682 19.5096 44.4295 20.4504L44.5125 20.6329C44.663 20.6889 44.8133 20.6905 44.9659 20.634C44.9822 20.628 44.9976 20.6201 45.0131 20.6122C45.0207 20.6083 45.0283 20.6044 45.036 20.6008C45.3008 20.1231 45.5522 19.6363 45.8038 19.1493L45.8039 19.1491C46.2349 18.3145 46.6664 17.4792 47.166 16.6877C47.6312 16.6668 48.0991 16.6632 48.5671 16.6596C49.2585 16.6542 49.9502 16.6488 50.6342 16.5879C50.9598 16.0562 51.2799 15.5211 51.5944 14.9828C52.0145 14.9197 52.3615 14.8229 52.6143 14.4547C52.7872 14.2029 52.8932 13.8844 52.8154 13.5802C52.7402 13.2864 52.4931 13.0336 52.2245 12.9044ZM54.6882 13.253C54.8225 13.2814 54.9616 13.3109 55.0863 13.3667C55.3318 13.4766 55.5724 13.6993 55.663 13.9568C55.7417 14.1805 55.6953 14.4318 55.5978 14.6423C55.4029 15.0627 55.0752 15.194 54.6765 15.3537L54.6548 15.3624C54.2848 16.1724 53.9104 16.9803 53.5315 17.7861C53.0396 17.9005 52.5205 17.968 52.0083 18.0346C51.7963 18.0622 51.5853 18.0896 51.3781 18.1201C50.6756 19.1609 50.0995 20.3605 49.5423 21.5209C49.4021 21.8128 49.2631 22.1022 49.1236 22.386C49.2727 22.7042 49.3996 23.0557 49.261 23.401C49.1177 23.7576 48.7756 23.9148 48.4485 24.0651L48.4336 24.0719C48.2954 24.0462 48.1534 24.0077 48.0224 23.9569C47.766 23.8576 47.5275 23.6452 47.4231 23.3876C47.3255 23.1465 47.3634 22.8896 47.4756 22.6604C47.6779 22.2475 48.0136 22.1309 48.4096 21.9933C48.4318 21.9856 48.4542 21.9778 48.4768 21.9698L48.4815 21.9601L48.4816 21.96C49.232 20.417 49.9937 18.8511 50.9028 17.3954C51.5969 17.2814 52.2925 17.1777 52.9897 17.0841C53.3236 16.3795 53.644 15.6689 53.9508 14.9521C53.8161 14.6202 53.6794 14.2433 53.8116 13.8886C53.9425 13.537 54.2742 13.3995 54.5934 13.2671C54.6117 13.2596 54.6299 13.252 54.648 13.2444L54.6882 13.253ZM48.5047 8.03972C48.1233 8.57428 47.7429 9.10741 47.2844 9.54369C46.98 10.044 46.6317 10.5195 46.2834 10.9948C46.0223 11.3512 45.7613 11.7076 45.5188 12.0743C44.2402 14.014 43.0521 16.0075 41.9542 18.0548C41.8691 18.0772 41.7845 18.1003 41.7007 18.1277C41.3372 18.2464 40.8969 18.5734 40.7321 18.9272C40.6459 19.1124 40.6469 19.3015 40.7306 19.488C40.8762 19.8126 41.2175 20.0553 41.548 20.1622C41.8767 20.2686 42.2779 20.2721 42.5826 20.0922C42.746 19.9958 42.8572 19.843 42.8982 19.6575C43.009 19.1552 42.879 18.8425 42.6253 18.4296C44.3866 15.2722 46.2528 12.1684 48.4978 9.3261C48.9265 8.76215 49.3589 8.20455 49.8201 7.66658C49.9167 7.55397 50.0285 7.44116 50.142 7.3267C50.3511 7.11579 50.5659 6.89925 50.7008 6.6679C50.7867 6.5206 50.78 6.43874 50.7679 6.29167C50.7666 6.27606 50.7652 6.25972 50.7639 6.24249L50.6213 6.05628C50.35 6.03319 50.2269 6.10604 50.0119 6.27974C49.418 6.75975 48.9606 7.40075 48.5047 8.03972Z" fill="url(#paint4_linear_28_43614)"/>
<path d="M32.852 25.0854C33.3733 26.8129 33.7349 28.5542 34.428 30.2336L34.3565 30.2162C34.17 29.7406 33.9739 29.2754 33.756 28.8133L26.8662 27.8713C25.5948 27.6927 24.2701 27.4146 22.9898 27.3744C22.6032 27.3624 22.2493 27.4066 21.8759 27.5117C21.9803 27.9521 22.3243 28.7978 22.1971 29.2179C21.7358 28.2817 21.2032 25.695 20.9952 24.5815C21.0025 24.5842 21.0105 24.5856 21.0172 24.5896C21.2311 24.7229 21.2373 25.0446 21.2908 25.283L21.4288 25.3428L21.5602 25.1283C21.7808 25.0827 21.8425 25.1417 22.0439 25.2375C23.1817 25.7781 26.9547 26.0452 28.4241 26.266C29.9634 26.4973 31.4871 26.8102 33.0219 27.0521C33.2453 26.7542 32.8511 25.6069 32.8507 25.1657C32.8506 25.139 32.8516 25.1122 32.852 25.0854Z" fill="url(#paint5_linear_28_43614)"/>
<path d="M-0.513341 1.1218C0.0942213 0.149217 1.58438 -1.21288 2.5055 -1.89585C4.91234 -3.68041 7.2606 -3.33054 10.0146 -2.91495C12.6557 -1.18134 15.0308 0.481282 15.746 3.79801C15.7543 3.83679 15.7618 3.87572 15.7697 3.91458C16.0275 4.72289 16.2077 5.5596 16.4079 6.38406C15.2024 8.01434 14.2711 9.9252 13.2878 11.6958L8.47373 20.3745C6.81559 23.3646 5.18483 27.0471 2.29549 29.063C1.47301 29.6367 0.487736 30.1171 -0.522472 30.2147C-1.95179 30.3529 -4.9139 29.7448 -6.43424 29.531C-9.67144 29.0757 -12.9379 28.6888 -16.1577 28.1261L-7.66045 12.8184C-5.61036 9.11326 -3.2938 4.26986 -0.513341 1.1218Z" fill="url(#paint6_linear_28_43614)"/>
<path d="M-0.513341 1.1218C0.0942213 0.149217 1.58438 -1.21288 2.5055 -1.89585C4.91234 -3.68041 7.2606 -3.33054 10.0146 -2.91495C12.6557 -1.18134 15.0308 0.481282 15.746 3.79801C15.7543 3.83679 15.7618 3.87572 15.7697 3.91458C15.6174 3.81054 15.5732 3.6894 15.5004 3.5274L15.4037 3.31651C14.2777 3.33961 13.1749 3.66509 12.0322 3.65679C10.3821 3.64475 8.62328 3.27161 6.99083 3.01844C4.83356 2.68387 2.72687 2.44629 0.605085 1.9137C0.572003 1.90542 0.538762 1.89828 0.505898 1.88938C0.272391 1.82673 -0.227968 1.51319 -0.332851 1.2931C-0.384435 1.1848 -0.409152 1.18807 -0.513341 1.1218Z" fill="url(#paint7_linear_28_43614)"/>
<defs>
<linearGradient id="paint0_linear_28_43614" x1="-5.72381" y1="-2.51589" x2="-2.51666" y2="39.7981" gradientUnits="userSpaceOnUse">
<stop stop-color="#9E8F76"/>
<stop offset="0.195" stop-color="#7A6A50"/>
<stop offset="0.41" stop-color="#F6D9AB"/>
<stop offset="0.61" stop-color="#9D7F4E"/>
<stop offset="0.855" stop-color="#C9A770"/>
<stop offset="1" stop-color="#796A52"/>
</linearGradient>
<linearGradient id="paint1_linear_28_43614" x1="-5.72381" y1="-2.51589" x2="-2.51666" y2="39.7981" gradientUnits="userSpaceOnUse">
<stop stop-color="#9E8F76"/>
<stop offset="0.195" stop-color="#7A6A50"/>
<stop offset="0.41" stop-color="#F6D9AB"/>
<stop offset="0.61" stop-color="#9D7F4E"/>
<stop offset="0.855" stop-color="#C9A770"/>
<stop offset="1" stop-color="#796A52"/>
</linearGradient>
<linearGradient id="paint2_linear_28_43614" x1="-5.72381" y1="-2.51589" x2="-2.51666" y2="39.7981" gradientUnits="userSpaceOnUse">
<stop stop-color="#9E8F76"/>
<stop offset="0.195" stop-color="#7A6A50"/>
<stop offset="0.41" stop-color="#F6D9AB"/>
<stop offset="0.61" stop-color="#9D7F4E"/>
<stop offset="0.855" stop-color="#C9A770"/>
<stop offset="1" stop-color="#796A52"/>
</linearGradient>
<linearGradient id="paint3_linear_28_43614" x1="-5.72381" y1="-2.51589" x2="-2.51666" y2="39.7981" gradientUnits="userSpaceOnUse">
<stop stop-color="#9E8F76"/>
<stop offset="0.195" stop-color="#7A6A50"/>
<stop offset="0.41" stop-color="#F6D9AB"/>
<stop offset="0.61" stop-color="#9D7F4E"/>
<stop offset="0.855" stop-color="#C9A770"/>
<stop offset="1" stop-color="#796A52"/>
</linearGradient>
<linearGradient id="paint4_linear_28_43614" x1="-5.72381" y1="-2.51589" x2="-2.51666" y2="39.7981" gradientUnits="userSpaceOnUse">
<stop stop-color="#9E8F76"/>
<stop offset="0.195" stop-color="#7A6A50"/>
<stop offset="0.41" stop-color="#F6D9AB"/>
<stop offset="0.61" stop-color="#9D7F4E"/>
<stop offset="0.855" stop-color="#C9A770"/>
<stop offset="1" stop-color="#796A52"/>
</linearGradient>
<linearGradient id="paint5_linear_28_43614" x1="-5.72381" y1="-2.51589" x2="-2.51666" y2="39.7981" gradientUnits="userSpaceOnUse">
<stop stop-color="#9E8F76"/>
<stop offset="0.195" stop-color="#7A6A50"/>
<stop offset="0.41" stop-color="#F6D9AB"/>
<stop offset="0.61" stop-color="#9D7F4E"/>
<stop offset="0.855" stop-color="#C9A770"/>
<stop offset="1" stop-color="#796A52"/>
</linearGradient>
<linearGradient id="paint6_linear_28_43614" x1="-5.72381" y1="-2.51589" x2="-2.51666" y2="39.7981" gradientUnits="userSpaceOnUse">
<stop stop-color="#9E8F76"/>
<stop offset="0.195" stop-color="#7A6A50"/>
<stop offset="0.41" stop-color="#F6D9AB"/>
<stop offset="0.61" stop-color="#9D7F4E"/>
<stop offset="0.855" stop-color="#C9A770"/>
<stop offset="1" stop-color="#796A52"/>
</linearGradient>
<linearGradient id="paint7_linear_28_43614" x1="-5.72381" y1="-2.51589" x2="-2.51666" y2="39.7981" gradientUnits="userSpaceOnUse">
<stop stop-color="#9E8F76"/>
<stop offset="0.195" stop-color="#7A6A50"/>
<stop offset="0.41" stop-color="#F6D9AB"/>
<stop offset="0.61" stop-color="#9D7F4E"/>
<stop offset="0.855" stop-color="#C9A770"/>
<stop offset="1" stop-color="#796A52"/>
</linearGradient>
</defs>
</svg>
