<svg width="17" height="17" viewBox="0 0 17 17" fill="none" xmlns="http://www.w3.org/2000/svg">
<path d="M8.25 9.5V4.5M5.75 7H10.75M0.75 9.91667V4.75C0.75 3.34987 0.75 2.6498 1.02248 2.11502C1.26217 1.64462 1.64462 1.26217 2.11502 1.02248C2.6498 0.75 3.34987 0.75 4.75 0.75H11.75C13.1501 0.75 13.8502 0.75 14.385 1.02248C14.8554 1.26217 15.2378 1.64462 15.4775 2.11502C15.75 2.6498 15.75 3.34987 15.75 4.75V9.25C15.75 10.6501 15.75 11.3502 15.4775 11.885C15.2378 12.3554 14.8554 12.7378 14.385 12.9775C13.8502 13.25 13.1501 13.25 11.75 13.25H9.65312C9.13308 13.25 8.87306 13.25 8.62435 13.301C8.40369 13.3463 8.19017 13.4212 7.98957 13.5237C7.76347 13.6392 7.56043 13.8017 7.15434 14.1265L5.16646 15.7168C4.81973 15.9942 4.64636 16.1329 4.50045 16.1331C4.37356 16.1332 4.25352 16.0755 4.17436 15.9763C4.08333 15.8623 4.08333 15.6403 4.08333 15.1963V14.7365C4.08333 14.3577 4.08333 14.1682 4.03307 14.0157C3.94773 13.7569 3.8595 13.6419 3.63154 13.4925C3.49725 13.4044 3.19915 13.3246 2.60295 13.1648C1.74022 12.9336 1.06635 12.2598 0.835185 11.397C0.75 11.0791 0.75 10.6916 0.75 9.91667Z" stroke="black" stroke-width="1.5" stroke-linecap="round" stroke-linejoin="round"/>
</svg>
