<svg width="20" height="20" viewBox="0 0 20 20" fill="none" xmlns="http://www.w3.org/2000/svg">
<path d="M18.9166 11.25L18.3817 10.7149C17.9857 10.3188 17.7877 10.1208 17.5594 10.0465C17.3586 9.98125 17.1422 9.98122 16.9414 10.0464C16.713 10.1206 16.515 10.3186 16.1189 10.7145L15.5833 11.25M17.5 10C17.5 14.1421 14.1421 17.5 10 17.5C5.85786 17.5 2.5 14.1421 2.5 10C2.5 5.85786 5.85786 2.5 10 2.5C12.7516 2.5 15.1571 3.98178 16.4621 6.19091M10 5.83333V9.14371C10 9.45678 10 9.61331 10.0432 9.7554C10.0814 9.88119 10.144 9.99821 10.2275 10.0998C10.3217 10.2145 10.452 10.3013 10.7125 10.475L12.5 11.6667" stroke="#9E660A" stroke-width="1.5" stroke-linecap="round" stroke-linejoin="round"/>
</svg>
