<svg width="73" height="78" viewBox="0 0 73 78" fill="none" xmlns="http://www.w3.org/2000/svg">
  <g filter="url(#filter0_d_8595_39964)">
  <rect x="17" y="3" width="40" height="40" rx="8" fill="#F5BC61"/>
  <path d="M37 24.25V19.25M34.5 21.75H39.5M29.5 24.6667V19.5C29.5 18.0999 29.5 17.3998 29.7725 16.865C30.0122 16.3946 30.3946 16.0122 30.865 15.7725C31.3998 15.5 32.0999 15.5 33.5 15.5H40.5C41.9001 15.5 42.6002 15.5 43.135 15.7725C43.6054 16.0122 43.9878 16.3946 44.2275 16.865C44.5 17.3998 44.5 18.0999 44.5 19.5V24C44.5 25.4001 44.5 26.1002 44.2275 26.635C43.9878 27.1054 43.6054 27.4878 43.135 27.7275C42.6002 28 41.9001 28 40.5 28H38.4031C37.8831 28 37.6231 28 37.3743 28.051C37.1537 28.0963 36.9402 28.1712 36.7396 28.2737C36.5135 28.3892 36.3104 28.5517 35.9043 28.8765L33.9165 30.4668C33.5697 30.7442 33.3964 30.8829 33.2504 30.8831C33.1236 30.8832 33.0035 30.8255 32.9244 30.7263C32.8333 30.6123 32.8333 30.3903 32.8333 29.9463V29.3333C32.8333 28.9148 32.8333 28.7056 32.7614 28.5439C32.6899 28.3831 32.6124 28.2906 32.4666 28.1921C32.3199 28.093 32.0474 28.0446 31.5024 27.9478C31.4503 27.9385 31.4008 27.9276 31.353 27.9148C30.4902 27.6836 29.8164 27.0098 29.5852 26.147C29.5 25.8291 29.5 25.4416 29.5 24.6667Z" stroke="#191919" stroke-width="1.5" stroke-linecap="round" stroke-linejoin="round"/>
  </g>
  <defs>
  <filter id="filter0_d_8595_39964" x="0" y="0" width="78" height="78" filterUnits="userSpaceOnUse" color-interpolation-filters="sRGB">
  <feFlood flood-opacity="0" result="BackgroundImageFix"/>
  <feColorMatrix in="SourceAlpha" type="matrix" values="0 0 0 0 0 0 0 0 0 0 0 0 0 0 0 0 0 0 127 0" result="hardAlpha"/>
  <feOffset dx="2" dy="16"/>
  <feGaussianBlur stdDeviation="9.5"/>
  <feColorMatrix type="matrix" values="0 0 0 0 0 0 0 0 0 0 0 0 0 0 0 0 0 0 0.09 0"/>
  <feBlend mode="normal" in2="BackgroundImageFix" result="effect1_dropShadow_8595_39964"/>
  <feBlend mode="normal" in="SourceGraphic" in2="effect1_dropShadow_8595_39964" result="shape"/>
  </filter>
  </defs>
  </svg>
  