<svg width="20" height="20" viewBox="0 0 20 20" fill="none" xmlns="http://www.w3.org/2000/svg">
    <path d="M5.83379 18.3337H14.1671M2.93212 8.58866C2.60879 7.69366 2.44712 7.24616 2.51546 6.95949C2.59129 6.64533 2.81463 6.40116 3.09963 6.31949C3.36046 6.24449 3.76629 6.42533 4.57713 6.78616C5.29379 7.10449 5.65212 7.26366 5.98962 7.25533C6.36129 7.24533 6.71796 7.09699 7.00213 6.83283C7.26046 6.59366 7.43296 6.21283 7.77879 5.45116L8.54129 3.77116C9.17796 2.36866 9.49629 1.66699 10.0005 1.66699C10.5046 1.66699 10.823 2.36866 11.4596 3.77116L12.2221 5.45116C12.568 6.21283 12.7413 6.59366 12.9988 6.83283C13.283 7.09616 13.6405 7.24533 14.0113 7.25533C14.348 7.26366 14.7071 7.10449 15.4238 6.78533C16.2355 6.42533 16.6405 6.24449 16.9013 6.31949C17.1863 6.40116 17.4096 6.64533 17.4846 6.95949C17.5538 7.24616 17.3921 7.69283 17.068 8.58866L15.6788 12.4353C15.0838 14.0812 14.7871 14.9037 14.1646 15.3687C13.5421 15.8337 12.738 15.8337 11.1305 15.8337H8.87046C7.26213 15.8337 6.45879 15.8337 5.83713 15.3687C5.21463 14.9037 4.91713 14.0812 4.32213 12.4353L2.93212 8.58866Z" stroke="#474747" stroke-width="1.5" stroke-linecap="round" stroke-linejoin="round"/>
    </svg>
    