<svg width="96" height="96" viewBox="0 0 96 96" fill="none" xmlns="http://www.w3.org/2000/svg">
<g filter="url(#filter0_d_8585_34056)">
<rect x="24" y="12" width="48" height="48" rx="12" fill="url(#paint0_linear_8585_34056)" shape-rendering="crispEdges"/>
<rect x="25" y="13" width="46" height="46" rx="11" stroke="white" stroke-opacity="0.3" stroke-width="2" shape-rendering="crispEdges"/>
<g filter="url(#filter1_d_8585_34056)">
<path d="M45 27H51M39 30H57M55 30L54.2987 40.5193C54.1935 42.0975 54.1409 42.8867 53.8 43.485C53.4999 44.0118 53.0472 44.4353 52.5017 44.6997C51.882 45 51.0911 45 49.5093 45H46.4907C44.9089 45 44.118 45 43.4983 44.6997C42.9528 44.4353 42.5001 44.0118 42.2 43.485C41.8591 42.8867 41.8065 42.0975 41.7013 40.5193L41 30" stroke="white" stroke-width="1.5" stroke-linecap="round" stroke-linejoin="round"/>
</g>
</g>
<defs>
<filter id="filter0_d_8585_34056" x="0" y="0" width="96" height="96" filterUnits="userSpaceOnUse" color-interpolation-filters="sRGB">
<feFlood flood-opacity="0" result="BackgroundImageFix"/>
<feColorMatrix in="SourceAlpha" type="matrix" values="0 0 0 0 0 0 0 0 0 0 0 0 0 0 0 0 0 0 127 0" result="hardAlpha"/>
<feOffset dy="12"/>
<feGaussianBlur stdDeviation="12"/>
<feComposite in2="hardAlpha" operator="out"/>
<feColorMatrix type="matrix" values="0 0 0 0 0.0371831 0 0 0 0 0.272676 0 0 0 0 0.402817 0 0 0 0.3 0"/>
<feBlend mode="normal" in2="BackgroundImageFix" result="effect1_dropShadow_8585_34056"/>
<feBlend mode="normal" in="SourceGraphic" in2="effect1_dropShadow_8585_34056" result="shape"/>
</filter>
<filter id="filter1_d_8585_34056" x="35.25" y="24" width="25.5" height="25.5" filterUnits="userSpaceOnUse" color-interpolation-filters="sRGB">
<feFlood flood-opacity="0" result="BackgroundImageFix"/>
<feColorMatrix in="SourceAlpha" type="matrix" values="0 0 0 0 0 0 0 0 0 0 0 0 0 0 0 0 0 0 127 0" result="hardAlpha"/>
<feOffset dy="0.75"/>
<feGaussianBlur stdDeviation="0.375"/>
<feComposite in2="hardAlpha" operator="out"/>
<feColorMatrix type="matrix" values="0 0 0 0 0 0 0 0 0 0 0 0 0 0 0 0 0 0 0.15 0"/>
<feBlend mode="normal" in2="BackgroundImageFix" result="effect1_dropShadow_8585_34056"/>
<feBlend mode="normal" in="SourceGraphic" in2="effect1_dropShadow_8585_34056" result="shape"/>
</filter>
<linearGradient id="paint0_linear_8585_34056" x1="30.4" y1="14" x2="67.6" y2="55.4" gradientUnits="userSpaceOnUse">
<stop stop-color="#F56161"/>
<stop offset="0.94" stop-color="#9E0A0A"/>
</linearGradient>
</defs>
</svg>
