<svg width="15" height="12" viewBox="0 0 15 12" fill="none" xmlns="http://www.w3.org/2000/svg">
<mask id="mask0_8808_13097" style="mask-type:alpha" maskUnits="userSpaceOnUse" x="0" y="0" width="15" height="12">
<path d="M3.6635 3.29465e-05C3.54194 3.34784e-05 3.42536 0.0483224 3.33941 0.134277L0.305888 3.16779C0.134167 3.33952 0.126195 3.61537 0.287713 3.79672L6.99113 11.3233C7.17342 11.5279 7.49339 11.5279 7.67567 11.3233L14.379 3.79683C14.5405 3.61547 14.5326 3.33962 14.3608 3.1679L11.3272 0.134244C11.2412 0.048289 11.1246 2.98821e-07 11.0031 8.30727e-07L3.6635 3.29465e-05Z" fill="#C4C4C4"/>
</mask>
<g mask="url(#mask0_8808_13097)">
<g filter="url(#filter0_d_8808_13097)">
<path d="M3.34521 3.98871H7.33359L5.33937 0.708008L3.34521 3.98871Z" fill="url(#paint0_linear_8808_13097)"/>
<path d="M7.3335 3.98871H11.3218L9.32765 0.708008L7.3335 3.98871Z" fill="url(#paint1_linear_8808_13097)"/>
<path d="M14.667 3.47368L11.1934 0L11.322 3.9883L14.667 3.47368Z" fill="url(#paint2_linear_8808_13097)"/>
<path d="M3.47368 0L0 3.47368L3.34503 3.9883L3.47368 0Z" fill="url(#paint3_linear_8808_13097)"/>
<path d="M0 3.47363L7.3334 11.7075L3.34503 3.98825L0 3.47363Z" fill="url(#paint4_linear_8808_13097)"/>
<path d="M7.3335 11.7075L14.6668 3.47363L11.3218 3.98825L7.3335 11.7075Z" fill="url(#paint5_linear_8808_13097)"/>
<path d="M7.3335 11.7076L11.3218 3.98828H7.3335V11.7076Z" fill="url(#paint6_linear_8808_13097)"/>
<path d="M7.33359 11.7076V3.98828H3.34521L7.33359 11.7076Z" fill="url(#paint7_linear_8808_13097)"/>
<path d="M7.33358 3.98871L9.32773 0.708008H7.33358H5.33936L7.33358 3.98871Z" fill="url(#paint8_linear_8808_13097)"/>
<path d="M3.47387 0L3.34521 3.9883L5.33937 0.707602L3.47387 0Z" fill="url(#paint9_linear_8808_13097)"/>
<path d="M11.3218 3.9883L11.1931 0L9.32764 0.707602L11.3218 3.9883Z" fill="url(#paint10_linear_8808_13097)"/>
<path d="M11.193 0H7.33335H3.47363L5.33913 0.707602H7.33335H9.3275L11.193 0Z" fill="url(#paint11_linear_8808_13097)"/>
</g>
</g>
<defs>
<filter id="filter0_d_8808_13097" x="-3.42225" y="-2.93336" width="21.5115" height="18.5525" filterUnits="userSpaceOnUse" color-interpolation-filters="sRGB">
<feFlood flood-opacity="0" result="BackgroundImageFix"/>
<feColorMatrix in="SourceAlpha" type="matrix" values="0 0 0 0 0 0 0 0 0 0 0 0 0 0 0 0 0 0 127 0" result="hardAlpha"/>
<feOffset dy="0.488893"/>
<feGaussianBlur stdDeviation="1.71113"/>
<feColorMatrix type="matrix" values="0 0 0 0 0.776471 0 0 0 0 0.662745 0 0 0 0 0.960784 0 0 0 0.71 0"/>
<feBlend mode="normal" in2="BackgroundImageFix" result="effect1_dropShadow_8808_13097"/>
<feBlend mode="normal" in="SourceGraphic" in2="effect1_dropShadow_8808_13097" result="shape"/>
</filter>
<linearGradient id="paint0_linear_8808_13097" x1="5.78966" y1="1.09397" x2="3.66685" y2="3.98871" gradientUnits="userSpaceOnUse">
<stop stop-color="#FBD79D"/>
<stop offset="1" stop-color="#FFBF59"/>
</linearGradient>
<linearGradient id="paint1_linear_8808_13097" x1="9.32765" y1="0.708008" x2="9.32765" y2="3.98871" gradientUnits="userSpaceOnUse">
<stop stop-color="#F6E9D5"/>
<stop offset="1" stop-color="#FBFBFB"/>
</linearGradient>
<linearGradient id="paint2_linear_8808_13097" x1="11.1932" y1="-6.14306e-09" x2="12.9302" y2="3.9883" gradientUnits="userSpaceOnUse">
<stop stop-color="#FFBF57"/>
<stop offset="1" stop-color="#FFD591"/>
</linearGradient>
<linearGradient id="paint3_linear_8808_13097" x1="3.47368" y1="0" x2="1.73684" y2="3.9883" gradientUnits="userSpaceOnUse">
<stop stop-color="#E8A63C"/>
<stop offset="1" stop-color="#FA9D08"/>
</linearGradient>
<linearGradient id="paint4_linear_8808_13097" x1="1.54386" y1="3.98825" x2="7.06756" y2="11.467" gradientUnits="userSpaceOnUse">
<stop stop-color="#FEB135"/>
<stop offset="1" stop-color="#FB9F0A"/>
</linearGradient>
<linearGradient id="paint5_linear_8808_13097" x1="13.1872" y1="3.47363" x2="12.3037" y2="12.2102" gradientUnits="userSpaceOnUse">
<stop stop-color="#FFC25F"/>
<stop offset="1" stop-color="#EAA12B"/>
</linearGradient>
<linearGradient id="paint6_linear_8808_13097" x1="9.39185" y1="3.98828" x2="10.4742" y2="11.2387" gradientUnits="userSpaceOnUse">
<stop stop-color="#FAEEDB"/>
<stop offset="1" stop-color="#EAA12B"/>
</linearGradient>
<linearGradient id="paint7_linear_8808_13097" x1="5.4036" y1="3.98828" x2="9.57332" y2="9.90132" gradientUnits="userSpaceOnUse">
<stop stop-color="#FFE3B6"/>
<stop offset="1" stop-color="#FFB742"/>
</linearGradient>
<linearGradient id="paint8_linear_8808_13097" x1="8.29842" y1="0.772335" x2="7.39787" y2="3.98871" gradientUnits="userSpaceOnUse">
<stop stop-color="#FBBA51"/>
<stop offset="1" stop-color="#FBD291"/>
</linearGradient>
<linearGradient id="paint9_linear_8808_13097" x1="4.37445" y1="0.385965" x2="4.80638" y2="3.80364" gradientUnits="userSpaceOnUse">
<stop stop-color="#FFD99C"/>
<stop offset="1" stop-color="#FAF0DF"/>
</linearGradient>
<linearGradient id="paint10_linear_8808_13097" x1="10.3569" y1="0.385965" x2="10.7888" y2="3.80364" gradientUnits="userSpaceOnUse">
<stop stop-color="#FFD99C"/>
<stop offset="1" stop-color="#FAF0DF"/>
</linearGradient>
<linearGradient id="paint11_linear_8808_13097" x1="3.73094" y1="0.385964" x2="10.614" y2="0.385964" gradientUnits="userSpaceOnUse">
<stop stop-color="#FDCB7A"/>
<stop offset="1" stop-color="#FFE8C2"/>
</linearGradient>
</defs>
</svg>
