<svg width="56" height="49" viewBox="0 0 56 49" fill="none" xmlns="http://www.w3.org/2000/svg">
<g filter="url(#filter0_f_9443_9941)">
<mask id="mask0_9443_9941" style="mask-type:alpha" maskUnits="userSpaceOnUse" x="10" y="10" width="36" height="29">
<path d="M18.73 10.0001C18.4261 10.0001 18.1347 10.1208 17.9198 10.3357L10.336 17.9195C9.90671 18.3488 9.88678 19.0384 10.2906 19.4918L27.0491 38.3082C27.5048 38.8198 28.3048 38.8198 28.7605 38.3082L45.5188 19.4921C45.9226 19.0387 45.9027 18.349 45.4734 17.9197L37.8892 10.3356C37.6743 10.1207 37.3829 10 37.079 10L18.73 10.0001Z" fill="#C4C4C4"/>
</mask>
<g mask="url(#mask0_9443_9941)">
<g filter="url(#filter1_d_9443_9941)">
<path d="M17.9346 19.9713H27.9055L22.9199 11.7695L17.9346 19.9713Z" fill="url(#paint0_linear_9443_9941)"/>
<path d="M27.9053 19.9713H37.876L32.8907 11.7695L27.9053 19.9713Z" fill="url(#paint1_linear_9443_9941)"/>
<path d="M46.2389 18.6842L37.5547 10L37.8763 19.9708L46.2389 18.6842Z" fill="url(#paint2_linear_9443_9941)"/>
<path d="M18.2555 10L9.57129 18.6842L17.9339 19.9708L18.2555 10Z" fill="url(#paint3_linear_9443_9941)"/>
<path d="M9.57129 18.6846L27.9048 39.2694L17.9339 19.9711L9.57129 18.6846Z" fill="url(#paint4_linear_9443_9941)"/>
<path d="M27.9053 39.2694L46.2386 18.6846L37.876 19.9711L27.9053 39.2694Z" fill="url(#paint5_linear_9443_9941)"/>
<path d="M27.9053 39.2689L37.876 19.9707H27.9053V39.2689Z" fill="url(#paint6_linear_9443_9941)"/>
<path d="M27.9055 39.2689V19.9707H17.9346L27.9055 39.2689Z" fill="url(#paint7_linear_9443_9941)"/>
<path d="M27.9055 19.9713L32.8909 11.7695H27.9055H22.9199L27.9055 19.9713Z" fill="url(#paint8_linear_9443_9941)"/>
<path d="M18.2562 10L17.9346 19.9708L22.9199 11.769L18.2562 10Z" fill="url(#paint9_linear_9443_9941)"/>
<path d="M37.876 19.9708L37.5544 10L32.8906 11.769L37.876 19.9708Z" fill="url(#paint10_linear_9443_9941)"/>
<path d="M37.5543 10H27.9052H18.2559L22.9196 11.769H27.9052H32.8905L37.5543 10Z" fill="url(#paint11_linear_9443_9941)"/>
</g>
</g>
</g>
<mask id="mask1_9443_9941" style="mask-type:alpha" maskUnits="userSpaceOnUse" x="10" y="10" width="36" height="29">
<path d="M18.73 10.0001C18.4261 10.0001 18.1347 10.1208 17.9198 10.3357L10.336 17.9195C9.90671 18.3488 9.88678 19.0384 10.2906 19.4918L27.0491 38.3082C27.5048 38.8198 28.3048 38.8198 28.7605 38.3082L45.5188 19.4921C45.9226 19.0387 45.9027 18.349 45.4734 17.9197L37.8892 10.3356C37.6743 10.1207 37.3829 10 37.079 10L18.73 10.0001Z" fill="#C4C4C4"/>
</mask>
<g mask="url(#mask1_9443_9941)">
<g filter="url(#filter2_d_9443_9941)">
<path d="M17.9346 19.9713H27.9055L22.9199 11.7695L17.9346 19.9713Z" fill="url(#paint12_linear_9443_9941)"/>
<path d="M27.9053 19.9713H37.876L32.8907 11.7695L27.9053 19.9713Z" fill="url(#paint13_linear_9443_9941)"/>
<path d="M46.2389 18.6842L37.5547 10L37.8763 19.9708L46.2389 18.6842Z" fill="url(#paint14_linear_9443_9941)"/>
<path d="M18.2555 10L9.57129 18.6842L17.9339 19.9708L18.2555 10Z" fill="url(#paint15_linear_9443_9941)"/>
<path d="M9.57129 18.6846L27.9048 39.2694L17.9339 19.9711L9.57129 18.6846Z" fill="url(#paint16_linear_9443_9941)"/>
<path d="M27.9053 39.2694L46.2386 18.6846L37.876 19.9711L27.9053 39.2694Z" fill="url(#paint17_linear_9443_9941)"/>
<path d="M27.9053 39.2689L37.876 19.9707H27.9053V39.2689Z" fill="url(#paint18_linear_9443_9941)"/>
<path d="M27.9055 39.2689V19.9707H17.9346L27.9055 39.2689Z" fill="url(#paint19_linear_9443_9941)"/>
<path d="M27.9055 19.9713L32.8909 11.7695H27.9055H22.9199L27.9055 19.9713Z" fill="url(#paint20_linear_9443_9941)"/>
<path d="M18.2562 10L17.9346 19.9708L22.9199 11.769L18.2562 10Z" fill="url(#paint21_linear_9443_9941)"/>
<path d="M37.876 19.9708L37.5544 10L32.8906 11.769L37.876 19.9708Z" fill="url(#paint22_linear_9443_9941)"/>
<path d="M37.5543 10H27.9052H18.2559L22.9196 11.769H27.9052H32.8905L37.5543 10Z" fill="url(#paint23_linear_9443_9941)"/>
</g>
</g>
<defs>
<filter id="filter0_f_9443_9941" x="0" y="0" width="55.8086" height="48.6924" filterUnits="userSpaceOnUse" color-interpolation-filters="sRGB">
<feFlood flood-opacity="0" result="BackgroundImageFix"/>
<feBlend mode="normal" in="SourceGraphic" in2="BackgroundImageFix" result="shape"/>
<feGaussianBlur stdDeviation="5" result="effect1_foregroundBlur_9443_9941"/>
</filter>
<filter id="filter1_d_9443_9941" x="1.01566" y="2.66661" width="53.7792" height="46.3808" filterUnits="userSpaceOnUse" color-interpolation-filters="sRGB">
<feFlood flood-opacity="0" result="BackgroundImageFix"/>
<feColorMatrix in="SourceAlpha" type="matrix" values="0 0 0 0 0 0 0 0 0 0 0 0 0 0 0 0 0 0 127 0" result="hardAlpha"/>
<feOffset dy="1.22223"/>
<feGaussianBlur stdDeviation="4.27781"/>
<feColorMatrix type="matrix" values="0 0 0 0 0.776471 0 0 0 0 0.662745 0 0 0 0 0.960784 0 0 0 0.71 0"/>
<feBlend mode="normal" in2="BackgroundImageFix" result="effect1_dropShadow_9443_9941"/>
<feBlend mode="normal" in="SourceGraphic" in2="effect1_dropShadow_9443_9941" result="shape"/>
</filter>
<filter id="filter2_d_9443_9941" x="1.01566" y="2.66661" width="53.7792" height="46.3808" filterUnits="userSpaceOnUse" color-interpolation-filters="sRGB">
<feFlood flood-opacity="0" result="BackgroundImageFix"/>
<feColorMatrix in="SourceAlpha" type="matrix" values="0 0 0 0 0 0 0 0 0 0 0 0 0 0 0 0 0 0 127 0" result="hardAlpha"/>
<feOffset dy="1.22223"/>
<feGaussianBlur stdDeviation="4.27781"/>
<feColorMatrix type="matrix" values="0 0 0 0 0.776471 0 0 0 0 0.662745 0 0 0 0 0.960784 0 0 0 0.71 0"/>
<feBlend mode="normal" in2="BackgroundImageFix" result="effect1_dropShadow_9443_9941"/>
<feBlend mode="normal" in="SourceGraphic" in2="effect1_dropShadow_9443_9941" result="shape"/>
</filter>
<linearGradient id="paint0_linear_9443_9941" x1="24.0457" y1="12.7344" x2="18.7387" y2="19.9713" gradientUnits="userSpaceOnUse">
<stop stop-color="#FBD79D"/>
<stop offset="1" stop-color="#FFBF59"/>
</linearGradient>
<linearGradient id="paint1_linear_9443_9941" x1="32.8907" y1="11.7695" x2="32.8907" y2="19.9713" gradientUnits="userSpaceOnUse">
<stop stop-color="#F6E9D5"/>
<stop offset="1" stop-color="#FBFBFB"/>
</linearGradient>
<linearGradient id="paint2_linear_9443_9941" x1="37.5544" y1="10" x2="41.8968" y2="19.9708" gradientUnits="userSpaceOnUse">
<stop stop-color="#FFBF57"/>
<stop offset="1" stop-color="#FFD591"/>
</linearGradient>
<linearGradient id="paint3_linear_9443_9941" x1="18.2555" y1="10" x2="13.9134" y2="19.9708" gradientUnits="userSpaceOnUse">
<stop stop-color="#E8A63C"/>
<stop offset="1" stop-color="#FA9D08"/>
</linearGradient>
<linearGradient id="paint4_linear_9443_9941" x1="13.4309" y1="19.9711" x2="27.2402" y2="38.668" gradientUnits="userSpaceOnUse">
<stop stop-color="#FEB135"/>
<stop offset="1" stop-color="#FB9F0A"/>
</linearGradient>
<linearGradient id="paint5_linear_9443_9941" x1="42.5395" y1="18.6846" x2="40.3308" y2="40.5259" gradientUnits="userSpaceOnUse">
<stop stop-color="#FFC25F"/>
<stop offset="1" stop-color="#EAA12B"/>
</linearGradient>
<linearGradient id="paint6_linear_9443_9941" x1="33.0512" y1="19.9707" x2="35.7571" y2="38.0968" gradientUnits="userSpaceOnUse">
<stop stop-color="#FAEEDB"/>
<stop offset="1" stop-color="#EAA12B"/>
</linearGradient>
<linearGradient id="paint7_linear_9443_9941" x1="23.0805" y1="19.9707" x2="33.5048" y2="34.7533" gradientUnits="userSpaceOnUse">
<stop stop-color="#FFE3B6"/>
<stop offset="1" stop-color="#FFB742"/>
</linearGradient>
<linearGradient id="paint8_linear_9443_9941" x1="30.3176" y1="11.9303" x2="28.0662" y2="19.9713" gradientUnits="userSpaceOnUse">
<stop stop-color="#FBBA51"/>
<stop offset="1" stop-color="#FBD291"/>
</linearGradient>
<linearGradient id="paint9_linear_9443_9941" x1="20.5077" y1="10.9649" x2="21.5875" y2="19.5091" gradientUnits="userSpaceOnUse">
<stop stop-color="#FFD99C"/>
<stop offset="1" stop-color="#FAF0DF"/>
</linearGradient>
<linearGradient id="paint10_linear_9443_9941" x1="35.4637" y1="10.9649" x2="36.5435" y2="19.5091" gradientUnits="userSpaceOnUse">
<stop stop-color="#FFD99C"/>
<stop offset="1" stop-color="#FAF0DF"/>
</linearGradient>
<linearGradient id="paint11_linear_9443_9941" x1="18.8991" y1="10.9649" x2="36.1067" y2="10.9649" gradientUnits="userSpaceOnUse">
<stop stop-color="#FDCB7A"/>
<stop offset="1" stop-color="#FFE8C2"/>
</linearGradient>
<linearGradient id="paint12_linear_9443_9941" x1="24.0457" y1="12.7344" x2="18.7387" y2="19.9713" gradientUnits="userSpaceOnUse">
<stop stop-color="#FBD79D"/>
<stop offset="1" stop-color="#FFBF59"/>
</linearGradient>
<linearGradient id="paint13_linear_9443_9941" x1="32.8907" y1="11.7695" x2="32.8907" y2="19.9713" gradientUnits="userSpaceOnUse">
<stop stop-color="#F6E9D5"/>
<stop offset="1" stop-color="#FBFBFB"/>
</linearGradient>
<linearGradient id="paint14_linear_9443_9941" x1="37.5544" y1="10" x2="41.8968" y2="19.9708" gradientUnits="userSpaceOnUse">
<stop stop-color="#FFBF57"/>
<stop offset="1" stop-color="#FFD591"/>
</linearGradient>
<linearGradient id="paint15_linear_9443_9941" x1="18.2555" y1="10" x2="13.9134" y2="19.9708" gradientUnits="userSpaceOnUse">
<stop stop-color="#E8A63C"/>
<stop offset="1" stop-color="#FA9D08"/>
</linearGradient>
<linearGradient id="paint16_linear_9443_9941" x1="13.4309" y1="19.9711" x2="27.2402" y2="38.668" gradientUnits="userSpaceOnUse">
<stop stop-color="#FEB135"/>
<stop offset="1" stop-color="#FB9F0A"/>
</linearGradient>
<linearGradient id="paint17_linear_9443_9941" x1="42.5395" y1="18.6846" x2="40.3308" y2="40.5259" gradientUnits="userSpaceOnUse">
<stop stop-color="#FFC25F"/>
<stop offset="1" stop-color="#EAA12B"/>
</linearGradient>
<linearGradient id="paint18_linear_9443_9941" x1="33.0512" y1="19.9707" x2="35.7571" y2="38.0968" gradientUnits="userSpaceOnUse">
<stop stop-color="#FAEEDB"/>
<stop offset="1" stop-color="#EAA12B"/>
</linearGradient>
<linearGradient id="paint19_linear_9443_9941" x1="23.0805" y1="19.9707" x2="33.5048" y2="34.7533" gradientUnits="userSpaceOnUse">
<stop stop-color="#FFE3B6"/>
<stop offset="1" stop-color="#FFB742"/>
</linearGradient>
<linearGradient id="paint20_linear_9443_9941" x1="30.3176" y1="11.9303" x2="28.0662" y2="19.9713" gradientUnits="userSpaceOnUse">
<stop stop-color="#FBBA51"/>
<stop offset="1" stop-color="#FBD291"/>
</linearGradient>
<linearGradient id="paint21_linear_9443_9941" x1="20.5077" y1="10.9649" x2="21.5875" y2="19.5091" gradientUnits="userSpaceOnUse">
<stop stop-color="#FFD99C"/>
<stop offset="1" stop-color="#FAF0DF"/>
</linearGradient>
<linearGradient id="paint22_linear_9443_9941" x1="35.4637" y1="10.9649" x2="36.5435" y2="19.5091" gradientUnits="userSpaceOnUse">
<stop stop-color="#FFD99C"/>
<stop offset="1" stop-color="#FAF0DF"/>
</linearGradient>
<linearGradient id="paint23_linear_9443_9941" x1="18.8991" y1="10.9649" x2="36.1067" y2="10.9649" gradientUnits="userSpaceOnUse">
<stop stop-color="#FDCB7A"/>
<stop offset="1" stop-color="#FFE8C2"/>
</linearGradient>
</defs>
</svg>
