<svg width="28" height="25" viewBox="0 0 28 25" fill="none" xmlns="http://www.w3.org/2000/svg">
<g filter="url(#filter0_f_9443_9982)">
<mask id="mask0_9443_9982" style="mask-type:alpha" maskUnits="userSpaceOnUse" x="5" y="5" width="18" height="15">
<path d="M9.36453 5.00004C9.21258 5.00004 9.06686 5.0604 8.95941 5.16785L5.16752 8.95974C4.95286 9.1744 4.9429 9.51922 5.1448 9.74591L13.5241 19.1541C13.7519 19.4099 14.1519 19.4099 14.3797 19.1541L22.7589 9.74603C22.9608 9.51934 22.9509 9.17452 22.7362 8.95987L18.9441 5.1678C18.8367 5.06036 18.6909 5 18.539 5L9.36453 5.00004Z" fill="#C4C4C4"/>
</mask>
<g mask="url(#mask0_9443_9982)">
<g filter="url(#filter1_d_9443_9982)">
<path d="M8.9668 9.98564H13.9523L11.4595 5.88477L8.9668 9.98564Z" fill="url(#paint0_linear_9443_9982)"/>
<path d="M13.9521 9.98564H18.9375L16.4448 5.88477L13.9521 9.98564Z" fill="url(#paint1_linear_9443_9982)"/>
<path d="M23.1185 9.3421L18.7764 5L18.9372 9.98538L23.1185 9.3421Z" fill="url(#paint2_linear_9443_9982)"/>
<path d="M9.12726 5L4.78516 9.3421L8.96644 9.98538L9.12726 5Z" fill="url(#paint3_linear_9443_9982)"/>
<path d="M4.78516 9.3418L13.9519 19.6342L8.96644 9.98507L4.78516 9.3418Z" fill="url(#paint4_linear_9443_9982)"/>
<path d="M13.9521 19.6342L23.1188 9.3418L18.9375 9.98507L13.9521 19.6342Z" fill="url(#paint5_linear_9443_9982)"/>
<path d="M13.9521 19.6345L18.9375 9.98535H13.9521V19.6345Z" fill="url(#paint6_linear_9443_9982)"/>
<path d="M13.9523 19.6345V9.98535H8.9668L13.9523 19.6345Z" fill="url(#paint7_linear_9443_9982)"/>
<path d="M13.9518 9.98564L16.4445 5.88477H13.9518H11.459L13.9518 9.98564Z" fill="url(#paint8_linear_9443_9982)"/>
<path d="M9.12762 5L8.9668 9.98538L11.4595 5.8845L9.12762 5Z" fill="url(#paint9_linear_9443_9982)"/>
<path d="M18.938 9.98538L18.7772 5L16.4453 5.8845L18.938 9.98538Z" fill="url(#paint10_linear_9443_9982)"/>
<path d="M18.7762 5H13.9516H9.12695L11.4588 5.8845H13.9516H16.4443L18.7762 5Z" fill="url(#paint11_linear_9443_9982)"/>
</g>
</g>
</g>
<mask id="mask1_9443_9982" style="mask-type:alpha" maskUnits="userSpaceOnUse" x="5" y="5" width="18" height="15">
<path d="M9.36453 5.00004C9.21258 5.00004 9.06686 5.0604 8.95941 5.16785L5.16752 8.95974C4.95286 9.1744 4.9429 9.51922 5.1448 9.74591L13.5241 19.1541C13.7519 19.4099 14.1519 19.4099 14.3797 19.1541L22.7589 9.74603C22.9608 9.51934 22.9509 9.17452 22.7362 8.95987L18.9441 5.1678C18.8367 5.06036 18.6909 5 18.539 5L9.36453 5.00004Z" fill="#C4C4C4"/>
</mask>
<g mask="url(#mask1_9443_9982)">
<g filter="url(#filter2_d_9443_9982)">
<path d="M8.9668 9.98564H13.9523L11.4595 5.88477L8.9668 9.98564Z" fill="url(#paint12_linear_9443_9982)"/>
<path d="M13.9521 9.98564H18.9375L16.4448 5.88477L13.9521 9.98564Z" fill="url(#paint13_linear_9443_9982)"/>
<path d="M23.1185 9.3421L18.7764 5L18.9372 9.98538L23.1185 9.3421Z" fill="url(#paint14_linear_9443_9982)"/>
<path d="M9.12726 5L4.78516 9.3421L8.96644 9.98538L9.12726 5Z" fill="url(#paint15_linear_9443_9982)"/>
<path d="M4.78516 9.3418L13.9519 19.6342L8.96644 9.98507L4.78516 9.3418Z" fill="url(#paint16_linear_9443_9982)"/>
<path d="M13.9521 19.6342L23.1188 9.3418L18.9375 9.98507L13.9521 19.6342Z" fill="url(#paint17_linear_9443_9982)"/>
<path d="M13.9521 19.6345L18.9375 9.98535H13.9521V19.6345Z" fill="url(#paint18_linear_9443_9982)"/>
<path d="M13.9523 19.6345V9.98535H8.9668L13.9523 19.6345Z" fill="url(#paint19_linear_9443_9982)"/>
<path d="M13.9518 9.98564L16.4445 5.88477H13.9518H11.459L13.9518 9.98564Z" fill="url(#paint20_linear_9443_9982)"/>
<path d="M9.12762 5L8.9668 9.98538L11.4595 5.8845L9.12762 5Z" fill="url(#paint21_linear_9443_9982)"/>
<path d="M18.938 9.98538L18.7772 5L16.4453 5.8845L18.938 9.98538Z" fill="url(#paint22_linear_9443_9982)"/>
<path d="M18.7762 5H13.9516H9.12695L11.4588 5.8845H13.9516H16.4443L18.7762 5Z" fill="url(#paint23_linear_9443_9982)"/>
</g>
</g>
<defs>
<filter id="filter0_f_9443_9982" x="0" y="0" width="27.9043" height="24.3457" filterUnits="userSpaceOnUse" color-interpolation-filters="sRGB">
<feFlood flood-opacity="0" result="BackgroundImageFix"/>
<feBlend mode="normal" in="SourceGraphic" in2="BackgroundImageFix" result="shape"/>
<feGaussianBlur stdDeviation="2.5" result="effect1_foregroundBlur_9443_9982"/>
</filter>
<filter id="filter1_d_9443_9982" x="0.507343" y="1.3333" width="26.8896" height="23.1904" filterUnits="userSpaceOnUse" color-interpolation-filters="sRGB">
<feFlood flood-opacity="0" result="BackgroundImageFix"/>
<feColorMatrix in="SourceAlpha" type="matrix" values="0 0 0 0 0 0 0 0 0 0 0 0 0 0 0 0 0 0 127 0" result="hardAlpha"/>
<feOffset dy="0.611116"/>
<feGaussianBlur stdDeviation="2.13891"/>
<feColorMatrix type="matrix" values="0 0 0 0 0.776471 0 0 0 0 0.662745 0 0 0 0 0.960784 0 0 0 0.71 0"/>
<feBlend mode="normal" in2="BackgroundImageFix" result="effect1_dropShadow_9443_9982"/>
<feBlend mode="normal" in="SourceGraphic" in2="effect1_dropShadow_9443_9982" result="shape"/>
</filter>
<filter id="filter2_d_9443_9982" x="0.507343" y="1.3333" width="26.8896" height="23.1904" filterUnits="userSpaceOnUse" color-interpolation-filters="sRGB">
<feFlood flood-opacity="0" result="BackgroundImageFix"/>
<feColorMatrix in="SourceAlpha" type="matrix" values="0 0 0 0 0 0 0 0 0 0 0 0 0 0 0 0 0 0 127 0" result="hardAlpha"/>
<feOffset dy="0.611116"/>
<feGaussianBlur stdDeviation="2.13891"/>
<feColorMatrix type="matrix" values="0 0 0 0 0.776471 0 0 0 0 0.662745 0 0 0 0 0.960784 0 0 0 0.71 0"/>
<feBlend mode="normal" in2="BackgroundImageFix" result="effect1_dropShadow_9443_9982"/>
<feBlend mode="normal" in="SourceGraphic" in2="effect1_dropShadow_9443_9982" result="shape"/>
</filter>
<linearGradient id="paint0_linear_9443_9982" x1="12.0224" y1="6.36722" x2="9.36884" y2="9.98564" gradientUnits="userSpaceOnUse">
<stop stop-color="#BCD1DC"/>
<stop offset="1" stop-color="#93B4C5"/>
</linearGradient>
<linearGradient id="paint1_linear_9443_9982" x1="16.4448" y1="5.88477" x2="16.4448" y2="9.98564" gradientUnits="userSpaceOnUse">
<stop stop-color="#F6E9D5"/>
<stop offset="1" stop-color="#FBFBFB"/>
</linearGradient>
<linearGradient id="paint2_linear_9443_9982" x1="18.7762" y1="5" x2="20.9474" y2="9.98538" gradientUnits="userSpaceOnUse">
<stop stop-color="#92B3C4"/>
<stop offset="1" stop-color="#B8CED9"/>
</linearGradient>
<linearGradient id="paint3_linear_9443_9982" x1="9.12726" y1="5" x2="6.95621" y2="9.98538" gradientUnits="userSpaceOnUse">
<stop stop-color="#D9E6EB"/>
<stop offset="1" stop-color="#9BA7AD"/>
</linearGradient>
<linearGradient id="paint4_linear_9443_9982" x1="6.71498" y1="9.98507" x2="13.6196" y2="19.3335" gradientUnits="userSpaceOnUse">
<stop stop-color="#7CA3B7"/>
<stop offset="1" stop-color="#6D8A98"/>
</linearGradient>
<linearGradient id="paint5_linear_9443_9982" x1="21.2692" y1="9.3418" x2="20.1649" y2="20.2624" gradientUnits="userSpaceOnUse">
<stop stop-color="#97B7C7"/>
<stop offset="1" stop-color="#7D8F98"/>
</linearGradient>
<linearGradient id="paint6_linear_9443_9982" x1="16.5251" y1="9.98535" x2="17.8781" y2="19.0484" gradientUnits="userSpaceOnUse">
<stop stop-color="#DFEEF6"/>
<stop offset="1" stop-color="#6597B0"/>
</linearGradient>
<linearGradient id="paint7_linear_9443_9982" x1="11.5398" y1="9.98535" x2="16.7519" y2="17.3767" gradientUnits="userSpaceOnUse">
<stop stop-color="#D0DEE5"/>
<stop offset="1" stop-color="#A1A1A1"/>
</linearGradient>
<linearGradient id="paint8_linear_9443_9982" x1="15.1578" y1="5.96517" x2="14.0321" y2="9.98564" gradientUnits="userSpaceOnUse">
<stop stop-color="#8FAEBD"/>
<stop offset="1" stop-color="#BFC8CD"/>
</linearGradient>
<linearGradient id="paint9_linear_9443_9982" x1="10.2533" y1="5.48246" x2="10.7932" y2="9.75455" gradientUnits="userSpaceOnUse">
<stop stop-color="#BFD2DC"/>
<stop offset="1" stop-color="#DFF1FA"/>
</linearGradient>
<linearGradient id="paint10_linear_9443_9982" x1="17.7319" y1="5.48246" x2="18.2718" y2="9.75455" gradientUnits="userSpaceOnUse">
<stop stop-color="#BFD2DC"/>
<stop offset="1" stop-color="#DFF1FA"/>
</linearGradient>
<linearGradient id="paint11_linear_9443_9982" x1="9.44859" y1="5.48245" x2="18.0524" y2="5.48246" gradientUnits="userSpaceOnUse">
<stop stop-color="#A9C2CE"/>
<stop offset="1" stop-color="#D7E4EA"/>
</linearGradient>
<linearGradient id="paint12_linear_9443_9982" x1="12.0224" y1="6.36722" x2="9.36884" y2="9.98564" gradientUnits="userSpaceOnUse">
<stop stop-color="#BCD1DC"/>
<stop offset="1" stop-color="#93B4C5"/>
</linearGradient>
<linearGradient id="paint13_linear_9443_9982" x1="16.4448" y1="5.88477" x2="16.4448" y2="9.98564" gradientUnits="userSpaceOnUse">
<stop stop-color="#F6E9D5"/>
<stop offset="1" stop-color="#FBFBFB"/>
</linearGradient>
<linearGradient id="paint14_linear_9443_9982" x1="18.7762" y1="5" x2="20.9474" y2="9.98538" gradientUnits="userSpaceOnUse">
<stop stop-color="#92B3C4"/>
<stop offset="1" stop-color="#B8CED9"/>
</linearGradient>
<linearGradient id="paint15_linear_9443_9982" x1="9.12726" y1="5" x2="6.95621" y2="9.98538" gradientUnits="userSpaceOnUse">
<stop stop-color="#D9E6EB"/>
<stop offset="1" stop-color="#9BA7AD"/>
</linearGradient>
<linearGradient id="paint16_linear_9443_9982" x1="6.71498" y1="9.98507" x2="13.6196" y2="19.3335" gradientUnits="userSpaceOnUse">
<stop stop-color="#7CA3B7"/>
<stop offset="1" stop-color="#6D8A98"/>
</linearGradient>
<linearGradient id="paint17_linear_9443_9982" x1="21.2692" y1="9.3418" x2="20.1649" y2="20.2624" gradientUnits="userSpaceOnUse">
<stop stop-color="#97B7C7"/>
<stop offset="1" stop-color="#7D8F98"/>
</linearGradient>
<linearGradient id="paint18_linear_9443_9982" x1="16.5251" y1="9.98535" x2="17.8781" y2="19.0484" gradientUnits="userSpaceOnUse">
<stop stop-color="#DFEEF6"/>
<stop offset="1" stop-color="#6597B0"/>
</linearGradient>
<linearGradient id="paint19_linear_9443_9982" x1="11.5398" y1="9.98535" x2="16.7519" y2="17.3767" gradientUnits="userSpaceOnUse">
<stop stop-color="#D0DEE5"/>
<stop offset="1" stop-color="#A1A1A1"/>
</linearGradient>
<linearGradient id="paint20_linear_9443_9982" x1="15.1578" y1="5.96517" x2="14.0321" y2="9.98564" gradientUnits="userSpaceOnUse">
<stop stop-color="#8FAEBD"/>
<stop offset="1" stop-color="#BFC8CD"/>
</linearGradient>
<linearGradient id="paint21_linear_9443_9982" x1="10.2533" y1="5.48246" x2="10.7932" y2="9.75455" gradientUnits="userSpaceOnUse">
<stop stop-color="#BFD2DC"/>
<stop offset="1" stop-color="#DFF1FA"/>
</linearGradient>
<linearGradient id="paint22_linear_9443_9982" x1="17.7319" y1="5.48246" x2="18.2718" y2="9.75455" gradientUnits="userSpaceOnUse">
<stop stop-color="#BFD2DC"/>
<stop offset="1" stop-color="#DFF1FA"/>
</linearGradient>
<linearGradient id="paint23_linear_9443_9982" x1="9.44859" y1="5.48245" x2="18.0524" y2="5.48246" gradientUnits="userSpaceOnUse">
<stop stop-color="#A9C2CE"/>
<stop offset="1" stop-color="#D7E4EA"/>
</linearGradient>
</defs>
</svg>
