<svg width="20" height="20" viewBox="0 0 20 20" fill="none" xmlns="http://www.w3.org/2000/svg">
<path d="M9.99998 16.6669H17.5M5.78107 15.8859L16.25 5.41694C16.9404 4.72658 16.9404 3.60729 16.25 2.91694C15.5597 2.22658 14.4404 2.22658 13.75 2.91694L3.28105 13.3859C2.9928 13.6741 2.84867 13.8183 2.7456 13.9865C2.65422 14.1356 2.58688 14.2982 2.54605 14.4682C2.5 14.66 2.5 14.8639 2.5 15.2715V15.3336C2.5 15.8003 2.5 16.0337 2.59083 16.2119C2.67072 16.3687 2.79821 16.4962 2.95501 16.5761C3.13327 16.6669 3.36662 16.6669 3.83333 16.6669H3.89545C4.3031 16.6669 4.50693 16.6669 4.69874 16.6209C4.8688 16.5801 5.03138 16.5127 5.1805 16.4213C5.34869 16.3183 5.49282 16.1741 5.78107 15.8859Z" stroke="#474747" stroke-width="1.25" stroke-linecap="round" stroke-linejoin="round"/>
</svg>
