<svg width="17" height="16" viewBox="0 0 17 16" fill="none" xmlns="http://www.w3.org/2000/svg">
<path d="M8.24998 15.0178H15.75M4.03107 14.2367L14.5 3.76777C15.1904 3.07741 15.1904 1.95812 14.5 1.26777C13.8097 0.577411 12.6904 0.577412 12 1.26777L1.53105 11.7367C1.2428 12.025 1.09867 12.1691 0.9956 12.3373C0.904219 12.4864 0.836878 12.649 0.79605 12.819C0.75 13.0109 0.75 13.2147 0.75 13.6223C0.75 13.9903 0.75 14.1743 0.797841 14.3234C0.896439 14.6306 1.1372 14.8713 1.4444 14.9699C1.59345 15.0178 1.77745 15.0178 2.14545 15.0178C2.5531 15.0178 2.75693 15.0178 2.94874 14.9717C3.1188 14.9309 3.28138 14.8635 3.4305 14.7722C3.59869 14.6691 3.74282 14.525 4.03107 14.2367Z" stroke="#474747" stroke-width="1.5" stroke-linecap="round" stroke-linejoin="round"/>
</svg>
