<svg width="20" height="20" viewBox="0 0 20 20" fill="none" xmlns="http://www.w3.org/2000/svg">
<path d="M9.99999 16.6662H17.5M5.78109 15.8852L16.25 5.4162C16.9404 4.72585 16.9404 3.60656 16.25 2.9162C15.5597 2.22585 14.4404 2.22585 13.75 2.9162L3.28107 13.3852C2.99281 13.6734 2.84869 13.8175 2.74562 13.9857C2.65423 14.1349 2.58689 14.2974 2.54607 14.4675C2.50002 14.6593 2.50002 14.8631 2.50002 15.2708C2.50002 15.6388 2.50002 15.8228 2.54786 15.9718C2.64645 16.279 2.88721 16.5198 3.19441 16.6184C3.34347 16.6662 3.52747 16.6662 3.89547 16.6662C4.30312 16.6662 4.50694 16.6662 4.69876 16.6202C4.86882 16.5793 5.03139 16.512 5.18051 16.4206C5.34871 16.3175 5.49283 16.1734 5.78109 15.8852Z" stroke="#474747" stroke-width="1.5" stroke-linecap="round" stroke-linejoin="round"/>
</svg>
