<svg width="36" height="36" viewBox="0 0 36 36" fill="none" xmlns="http://www.w3.org/2000/svg">
<rect width="36" height="36" rx="8" fill="#F5BC61"/>
<g transform="translate(8, 8) scale(1.0)">
<path d="M1.6665 5.83398L8.4706 10.5969C9.02158 10.9825 9.29707 11.1754 9.59672 11.2501C9.86142 11.3161 10.1383 11.3161 10.403 11.2501C10.7026 11.1754 10.9781 10.9825 11.5291 10.5969L18.3332 5.83398M5.6665 16.6673H14.3332C15.7333 16.6673 16.4334 16.6673 16.9681 16.3948C17.4386 16.1552 17.821 15.7727 18.0607 15.3023C18.3332 14.7675 18.3332 14.0674 18.3332 12.6673V7.33398C18.3332 5.93385 18.3332 5.23379 18.0607 4.69901C17.821 4.2286 17.4386 3.84615 16.9681 3.60647C16.4334 3.33398 15.7333 3.33398 14.3332 3.33398H5.6665C4.26637 3.33398 3.56631 3.33398 3.03153 3.60647C2.56112 3.84615 2.17867 4.2286 1.93899 4.69901C1.6665 5.23379 1.6665 5.93385 1.6665 7.33398V12.6673C1.6665 14.0674 1.6665 14.7675 1.93899 15.3023C2.17867 15.7727 2.56112 16.1552 3.03153 16.3948C3.56631 16.6673 4.26637 16.6673 5.6665 16.6673Z" stroke="#474747" stroke-width="1.25" stroke-linecap="round" stroke-linejoin="round"/>
</g>
</svg>
