<svg width="32" height="32" viewBox="0 0 32 32" fill="none" xmlns="http://www.w3.org/2000/svg">
<rect width="32" height="32" rx="16" fill="#F0F0F0"/>
<path fill-rule="evenodd" clip-rule="evenodd" d="M17.1627 9.25621C16.6023 9.61564 16.3222 9.79536 16.1819 9.82792C15.9931 9.87172 15.9935 9.87172 15.8048 9.82785C15.6645 9.79524 15.3848 9.61565 14.8253 9.25649C13.2012 8.21385 11.1151 8.17933 9.46208 9.59168C7.37454 11.3753 7.08064 14.3575 8.72 16.467C10.083 18.2209 14.208 21.9201 15.5599 23.1174C15.7112 23.2513 15.7868 23.3183 15.875 23.3446C15.952 23.3676 16.0363 23.3676 16.1132 23.3446C16.2015 23.3183 16.2771 23.2513 16.4283 23.1174C17.7803 21.9201 21.9052 18.2209 23.2683 16.467C24.9076 14.3575 24.6496 11.3566 22.5262 9.59168C20.846 8.19518 18.7782 8.22 17.1627 9.25621Z" stroke="#474747" stroke-width="1.25" stroke-linecap="round" stroke-linejoin="round"/>
</svg>
