<?xml version="1.0" encoding="utf-8"?>
<!-- Generator: Adobe Illustrator 24.3.0, SVG Export Plug-In . SVG Version: 6.00 Build 0)  -->
<svg version="1.1" id="Layer_1" xmlns="http://www.w3.org/2000/svg" xmlns:xlink="http://www.w3.org/1999/xlink" x="0px" y="0px"
	 viewBox="0 0 138.2 158.4" style="enable-background:new 0 0 138.2 158.4;" xml:space="preserve">
<g>
	<g>
		<path d="M69.6,158.4c-0.5,0-1,0-1.5,0s-1,0-1.5,0s-1,0-1.5-0.1c-0.5,0-1-0.1-1.5-0.1s-1-0.1-1.4-0.1c-0.5,0-1-0.1-1.4-0.1
			c-0.5,0-1-0.1-1.4-0.2c-0.5-0.1-0.9-0.1-1.4-0.2c-0.5-0.1-0.9-0.1-1.4-0.2c-0.5-0.1-0.9-0.1-1.4-0.2c-0.5-0.1-0.9-0.2-1.4-0.3
			s-0.9-0.2-1.4-0.3s-0.9-0.2-1.4-0.3s-0.9-0.2-1.3-0.3c-0.4-0.1-0.9-0.2-1.3-0.4c-0.4-0.1-0.9-0.2-1.3-0.4s-0.9-0.3-1.3-0.4
			s-0.9-0.3-1.3-0.4c-0.4-0.1-0.9-0.3-1.3-0.4c-0.4-0.2-0.9-0.3-1.3-0.5c-0.4-0.2-0.8-0.3-1.3-0.5c-0.4-0.2-0.8-0.3-1.2-0.5
			s-0.8-0.4-1.2-0.5c-0.4-0.2-0.8-0.4-1.2-0.6c-0.4-0.2-0.8-0.4-1.2-0.6c-0.4-0.2-0.8-0.4-1.2-0.6c-0.4-0.2-0.8-0.4-1.2-0.6
			c-0.4-0.2-0.8-0.4-1.2-0.7c-0.4-0.2-0.8-0.5-1.1-0.7c-0.4-0.2-0.8-0.5-1.1-0.7c-0.4-0.2-0.7-0.5-1.1-0.7c-0.4-0.3-0.7-0.5-1.1-0.8
			s-0.7-0.5-1.1-0.8s-0.7-0.5-1.1-0.8c-0.3-0.3-0.7-0.6-1-0.8c-0.3-0.3-0.7-0.6-1-0.9c-0.3-0.3-0.7-0.6-1-0.9
			c-0.3-0.3-0.7-0.6-1-0.9c-0.3-0.3-0.6-0.6-1-0.9c-0.3-0.3-0.6-0.6-0.9-1c-0.3-0.3-0.6-0.7-0.9-1s-0.6-0.7-0.9-1s-0.6-0.7-0.9-1
			s-0.6-0.7-0.9-1.1c-0.3-0.4-0.6-0.7-0.8-1.1c-0.3-0.4-0.6-0.7-0.8-1.1c-0.3-0.4-0.5-0.7-0.8-1.1c-0.3-0.4-0.5-0.8-0.8-1.2
			s-0.5-0.8-0.8-1.2s-0.5-0.8-0.7-1.2c-0.2-0.4-0.5-0.8-0.7-1.2c-0.2-0.4-0.5-0.8-0.7-1.3c-0.2-0.4-0.5-0.8-0.7-1.3
			c-0.2-0.4-0.4-0.9-0.7-1.3c-0.2-0.4-0.4-0.9-0.6-1.3c-0.2-0.4-0.4-0.9-0.6-1.4s-0.4-0.9-0.6-1.4s-0.4-0.9-0.6-1.4
			s-0.4-0.9-0.5-1.4s-0.3-1-0.5-1.5s-0.3-1-0.5-1.5s-0.3-1-0.5-1.5c-0.2-0.5-0.3-1-0.4-1.5c-0.1-0.5-0.3-1-0.4-1.5
			c-0.1-0.3-0.1-0.6-0.2-0.9c-0.1-0.3-0.1-0.6-0.2-0.9c-0.1-0.3-0.1-0.6-0.2-0.9c-0.1-0.3-0.1-0.6-0.2-0.9s-0.1-0.6-0.2-0.9
			c-0.1-0.3-0.1-0.6-0.2-0.9C2,103,2,102.7,1.9,102.4c-0.1-0.3-0.1-0.6-0.2-0.9s-0.1-0.6-0.2-0.9s-0.1-0.6-0.1-0.9s-0.1-0.6-0.1-0.9
			s-0.1-0.6-0.1-0.9S1.1,97.3,1.1,97S1,96.4,1,96.1s-0.1-0.6-0.1-0.9s-0.1-0.6-0.1-0.9s-0.1-0.6-0.1-0.9s-0.1-0.6-0.1-0.9
			s-0.1-0.6-0.1-0.9S0.4,91,0.4,90.7s0-0.6-0.1-0.9c0-0.3,0-0.6-0.1-0.9c0-0.3,0-0.6-0.1-0.9c0-0.3,0-0.6,0-0.9s0-0.6,0-0.9
			s0-0.6,0-0.9s0-0.6,0-0.9s0-0.6,0-0.9s0-0.6,0-0.9s0-0.6,0-0.9s0-0.6,0-0.9s0-0.6,0-0.9s0-0.6,0-0.9s0-0.6,0-0.9s0-0.6,0-0.9
			s0-0.6,0-0.9s0-0.6,0-0.9s0-0.6,0-0.9s0-0.6,0-0.8c0-0.3,0-0.6,0-0.8c0-0.3,0-0.6,0-0.8c0-0.3,0-0.6,0-0.8c0-0.3,0-0.6,0.1-0.8
			c0-0.3,0-0.5,0.1-0.8c0-0.3,0-0.5,0.1-0.8c0-0.3,0-0.5,0.1-0.8c0-0.3,0-0.5,0.1-0.8c0-0.3,0-0.5,0.1-0.8s0.1-0.5,0.1-0.8
			s0.1-0.5,0.1-0.8S1,64.4,1,64.1c0-0.3,0.1-0.5,0.1-0.8s0.1-0.5,0.1-0.7s0.1-0.5,0.1-0.7s0.1-0.5,0.1-0.7s0.1-0.5,0.1-0.7
			s0.1-0.5,0.1-0.7s0.1-0.5,0.1-0.7s0.1-0.5,0.1-0.7s0.1-0.5,0.1-0.7S2,57.2,2,57s0.1-0.4,0.1-0.7c0-0.2,0.1-0.4,0.1-0.7
			c0-0.2,0.1-0.4,0.1-0.6c0-0.2,0.1-0.5,0.1-0.7c0.1-0.2,0.1-0.5,0.2-0.7c0.1-0.2,0.1-0.5,0.2-0.7c0.1-0.2,0.1-0.5,0.2-0.7
			c0.1-0.2,0.1-0.5,0.2-0.7c0.1-0.3,0.1-0.5,0.2-0.8c0.1-0.3,0.1-0.5,0.2-0.8c0.1-0.3,0.1-0.5,0.2-0.8c0.1-0.3,0.1-0.5,0.2-0.8
			s0.2-0.5,0.2-0.8c0.1-0.3,0.2-0.5,0.2-0.8c0.1-0.3,0.2-0.5,0.3-0.8c0.1-0.3,0.2-0.5,0.3-0.8c0.1-0.3,0.2-0.5,0.3-0.8
			c0.1-0.3,0.2-0.5,0.3-0.8c0.1-0.3,0.2-0.5,0.3-0.8C6,42.5,6.1,42.2,6.2,42c0.1-0.3,0.2-0.5,0.3-0.8c0.1-0.3,0.2-0.5,0.3-0.8
			c0.1-0.3,0.2-0.5,0.3-0.8c0.1-0.3,0.2-0.5,0.4-0.8c0.1-0.3,0.2-0.5,0.4-0.8c0.1-0.3,0.2-0.5,0.4-0.8c0.1-0.3,0.3-0.5,0.4-0.8
			C8.8,36,8.9,35.8,9,35.5s0.3-0.5,0.4-0.8c0.1-0.3,0.3-0.5,0.4-0.8c0.1-0.3,0.3-0.5,0.4-0.8c0.1-0.3,0.3-0.5,0.4-0.8
			c0.1-0.3,0.3-0.5,0.4-0.8c0.2-0.3,0.3-0.5,0.5-0.8s0.3-0.5,0.5-0.8s0.3-0.5,0.5-0.8s0.3-0.5,0.5-0.8s0.3-0.5,0.5-0.8
			s0.3-0.5,0.5-0.8s0.3-0.5,0.5-0.8s0.4-0.5,0.5-0.8s0.4-0.5,0.5-0.8c0.2-0.2,0.4-0.5,0.6-0.7s0.4-0.5,0.6-0.7s0.4-0.5,0.6-0.7
			s0.4-0.5,0.6-0.7s0.4-0.5,0.6-0.7s0.4-0.5,0.6-0.7s0.4-0.5,0.6-0.7s0.4-0.5,0.6-0.7s0.4-0.5,0.6-0.7s0.4-0.4,0.7-0.7
			c0.2-0.2,0.4-0.4,0.7-0.7c0.2-0.2,0.4-0.4,0.7-0.6c0.2-0.2,0.5-0.4,0.7-0.6c0.2-0.2,0.5-0.4,0.7-0.6c0.2-0.2,0.5-0.4,0.7-0.6
			c0.2-0.2,0.5-0.4,0.7-0.6c0.2-0.2,0.5-0.4,0.7-0.6c0.2-0.2,0.5-0.4,0.7-0.6c0.2-0.2,0.5-0.4,0.8-0.6c0.3-0.2,0.5-0.4,0.8-0.5
			c0.3-0.2,0.5-0.4,0.8-0.5c0.3-0.2,0.5-0.3,0.8-0.5s0.5-0.3,0.8-0.5s0.5-0.3,0.8-0.5s0.5-0.3,0.8-0.5s0.6-0.3,0.9-0.5
			C34,8.1,34.3,8,34.6,7.8c0.3-0.1,0.6-0.3,0.9-0.4s0.6-0.3,0.9-0.4c0.3,0.1,0.6,0,0.9-0.2c0.3-0.1,0.6-0.3,0.9-0.4
			c0.3-0.1,0.6-0.3,0.9-0.4c0.3-0.1,0.6-0.2,0.9-0.4c0.3-0.1,0.6-0.2,0.9-0.4c0.3-0.1,0.6-0.2,0.9-0.3c0.3-0.1,0.6-0.2,0.9-0.3
			c0.3-0.1,0.6-0.2,0.9-0.3c0.3-0.1,0.6-0.2,0.9-0.3c0.3-0.1,0.6-0.2,0.9-0.3c0.3-0.1,0.6-0.2,0.9-0.3c0.3-0.1,0.6-0.2,0.9-0.3
			c0.3-0.1,0.6-0.2,0.9-0.3c0.3-0.1,0.6-0.2,0.9-0.2c0.3-0.1,0.6-0.2,0.9-0.2c0.3-0.1,0.6-0.1,0.9-0.2c0.3-0.1,0.6-0.1,0.9-0.2
			c0.3-0.1,0.6-0.1,0.9-0.2c0.3-0.1,0.6-0.1,0.9-0.2c0.3-0.1,0.6-0.1,0.9-0.2c0.3-0.1,0.6-0.1,0.9-0.2c0.3-0.1,0.6-0.1,0.9-0.2
			c0.3,0,0.6-0.1,0.9-0.1c0.3,0,0.6-0.1,0.9-0.1c0.3,0,0.6-0.1,0.9-0.1c0.3,0,0.6-0.1,0.9-0.1c0.3,0,0.6-0.1,0.9-0.1
			c0.3,0,0.6-0.1,0.9-0.1c0.3,0,0.6-0.1,0.9-0.1c0.3,0,0.6-0.1,0.9-0.1c0.3,0,0.6,0,0.9-0.1c0.3,0,0.6,0,0.9-0.1c0.3,0,0.6,0,0.9,0
			s0.6,0,0.9,0s0.6,0,0.9,0s0.6,0,0.9,0s0.6,0,0.9,0s0.6,0,0.8,0s0.6,0,0.8,0c0.3,0,0.6,0,0.8,0c0.3,0,0.6,0,0.8,0
			c0.3,0,0.5,0,0.8,0s0.5,0,0.8,0s0.5,0,0.8,0s0.5,0,0.8,0s0.5,0,0.8,0.1c0.3,0,0.5,0,0.8,0.1c0.3,0,0.5,0,0.8,0.1
			c0.3,0,0.5,0,0.8,0.1c0.3,0,0.5,0.1,0.7,0.1s0.5,0.1,0.7,0.1s0.5,0.1,0.7,0.1s0.5,0.1,0.7,0.1s0.5,0.1,0.7,0.1S83.3,1,83.5,1
			s0.5,0.1,0.7,0.1s0.4,0.1,0.7,0.1c0.2,0,0.4,0.1,0.7,0.1c0.2,0,0.4,0.1,0.6,0.1s0.4,0.1,0.6,0.1c0.3,0.1,0.5,0.1,0.8,0.2
			s0.5,0.1,0.8,0.2s0.5,0.1,0.8,0.2s0.5,0.1,0.8,0.2c0.3,0.1,0.5,0.1,0.8,0.2c0.3,0.1,0.5,0.1,0.8,0.2c0.3,0.1,0.5,0.1,0.7,0.2
			C92.7,3,93,3.1,93.2,3.2c0.2,0.1,0.5,0.1,0.7,0.2c0.2,0.1,0.5,0.1,0.7,0.2c0.2,0.1,0.5,0.2,0.7,0.2C95.5,3.9,95.8,4,96,4
			c0.2,0.1,0.5,0.2,0.7,0.2c0.2,0.1,0.5,0.2,0.7,0.2c0.2,0.1,0.5,0.2,0.7,0.3s0.5,0.2,0.7,0.3c0.2,0.1,0.5,0.2,0.7,0.3
			c0.2,0.1,0.5,0.2,0.7,0.3c0.2,0.1,0.5,0.2,0.7,0.3c0.2,0.1,0.4,0.2,0.7,0.3c0.2,0.1,0.4,0.2,0.7,0.3c0.2,0.1,0.4,0.2,0.7,0.3
			c0.2,0.1,0.4,0.2,0.6,0.3c0.2,0.1,0.4,0.2,0.6,0.3c0.2,0.1,0.4,0.2,0.6,0.3c0.2,0.1,0.4,0.2,0.6,0.3s0.4,0.2,0.6,0.3
			s0.4,0.2,0.6,0.3s0.4,0.2,0.6,0.3s0.4,0.2,0.6,0.3s0.4,0.2,0.6,0.3s0.4,0.2,0.6,0.4c0.2,0.1,0.4,0.2,0.6,0.4
			c0.2,0.1,0.4,0.2,0.6,0.4c0.2,0.1,0.4,0.2,0.6,0.4c0.2,0.1,0.4,0.2,0.6,0.4c0.2,0.1,0.4,0.3,0.6,0.4c0.2,0.1,0.4,0.3,0.6,0.4
			c0.2,0.1,0.4,0.3,0.6,0.4c0.2,0.1,0.4,0.3,0.6,0.4c0.2,0.1,0.4,0.3,0.5,0.4c0.2,0.1,0.4,0.3,0.5,0.4c0.2,0.1,0.4,0.3,0.5,0.4
			s0.4,0.3,0.5,0.4c0.2,0.1,0.4,0.3,0.5,0.4c0.2,0.1,0.4,0.3,0.5,0.4c0.2,0.1,0.3,0.3,0.5,0.4c0.2,0.1,0.3,0.3,0.5,0.5
			s0.3,0.3,0.5,0.5s0.3,0.3,0.5,0.5s0.3,0.3,0.5,0.5s0.3,0.3,0.5,0.5s0.3,0.3,0.5,0.5s0.3,0.3,0.5,0.5s0.3,0.3,0.5,0.5
			s0.3,0.3,0.5,0.5s0.3,0.3,0.5,0.5s0.3,0.3,0.5,0.5s0.3,0.3,0.5,0.5s0.3,0.4,0.5,0.5c0.2,0.2,0.3,0.4,0.5,0.5
			c0.2,0.2,0.3,0.4,0.4,0.5c0.1,0.2,0.3,0.4,0.4,0.6s0.3,0.4,0.4,0.6c0.2,0.2,0.3,0.4,0.5,0.6s0.3,0.4,0.4,0.6s0.3,0.4,0.4,0.6
			s0.3,0.4,0.4,0.6s0.3,0.4,0.4,0.6s0.3,0.4,0.4,0.6c0.1,0.2,0.3,0.4,0.4,0.6c0.1,0.2,0.3,0.4,0.4,0.6c0.1,0.2,0.3,0.4,0.4,0.6
			c0.1,0.2,0.2,0.4,0.4,0.6c0.1,0.2,0.2,0.4,0.4,0.6c0.1,0.2,0.2,0.4,0.3,0.6s0.2,0.4,0.3,0.6c0.1,0.2,0.2,0.4,0.3,0.6
			c0.1,0.2,0.2,0.4,0.3,0.6c0.1,0.2,0.2,0.4,0.3,0.6c0.1,0.2,0.2,0.4,0.3,0.6c0.1,0.2,0.2,0.4,0.3,0.6c0.1,0.2,0.2,0.4,0.3,0.6
			c0.1,0.2,0.2,0.4,0.3,0.5c0.1,0.2,0.2,0.4,0.3,0.5c0.1,0.2,0.2,0.4,0.3,0.5c0.1,0.2,0.2,0.4,0.3,0.5c0.1,0.2,0.2,0.3,0.2,0.5
			c0.1,0.2,0.2,0.3,0.2,0.5c0.1,0.2,0.2,0.3,0.2,0.5c0.1,0.2,0.1,0.3,0.2,0.5c0.1,0.2,0.1,0.3,0.2,0.5c0.1,0.2,0.1,0.3,0.2,0.5
			c0.1,0.2,0.1,0.3,0.2,0.5c0.1,0.2,0.1,0.3,0.2,0.5c0.1,0.2,0.1,0.3,0.2,0.5c0.1,0.2,0.1,0.3,0.2,0.5c0.1,0.1,0.1,0.3,0.2,0.4
			c0.1,0.1,0.1,0.3,0.2,0.4c0.1,0.1,0.1,0.3,0.2,0.4c0.1,0.1,0.1,0.3,0.1,0.4c0,0.1,0.1,0.3,0.1,0.4c0,0.1,0.1,0.3,0.1,0.4
			c0,0.1,0.1,0.3,0.1,0.4c0,0.1,0.1,0.2,0.1,0.4c0,0.1,0.1,0.2,0.1,0.4c0,0.1,0.1,0.2,0.1,0.3s0.1,0.2,0.1,0.3s0.1,0.2,0.1,0.3
			s0.1,0.2,0.1,0.3s0.1,0.2,0.1,0.3s0.1,0.2,0.1,0.3s0.1,0.2,0.1,0.3s0,0.2,0.1,0.3c0,0.1,0,0.2,0.1,0.2c0,0.1,0,0.2,0.1,0.2
			c0,0.1,0,0.1,0.1,0.2c0,0.1,0,0.1,0,0.2c0,0.1,0,0.1,0,0.2c0,0.1,0,0.1,0,0.2c0,0.1,0,0.1,0,0.2v0.1v0.1v0.1v0.1c0,0,0,0,0,0.1
			c0,0,0,0,0,0.1s0,0,0,0h-0.2h-0.2h-0.2h-0.2h-0.2h-0.2h-0.2h-0.2h-0.2h-0.2h-0.2h-0.2h-0.2h-0.2h-0.2h-0.2h-0.2h-0.2h-0.2h-0.2
			h-0.2h-0.2h-0.2h-0.2h-0.2h-0.2h-0.2h-0.2h-0.2h-0.2h-0.2h-0.2h-0.2h-0.2h-0.2h-0.2h-0.2h-0.2h-0.2h-0.2h-0.2h-0.2h-0.2h-0.2h-0.2
			h-0.2h-0.2h-0.2h-0.2h-0.2h-0.2h-0.2h-0.2h-0.2h-0.2h-0.2h-0.2h-0.2h-0.2h-0.2h-0.2h-0.2h-0.2h-0.2h0.1h0.1h0.1h0.1h0.1h0.1h0.1
			h0.1h0.1h0.1h0.1h0.1h0.1h0.1h0.1h0.1h0.1h0.1h0.1h0.1h0.1h0.1h0.1h0.1h0.1h0.1h0.1h0.1h0.1h0.1h0.1h0.1h0.1h0.1h0.1h0.1h0.1h0.1
			h0.1h0.1h0.1h0.1h0.1h0.1h0.1h0.1h0.1h0.1h0.1h0.1h0.1h0.1h0.1h0.1h0.1h0.1h0.1h0.1h0.1h0.1h0.1h0.1h0.1h0.1h-0.1h-0.1h-0.1h-0.1
			H131h-0.1h-0.1h-0.1h-0.1h-0.1h-0.1h-0.1h-0.1h-0.1H130h-0.1h-0.1h-0.1h-0.1h-0.1h-0.1h-0.1h-0.1h-0.1H129h-0.1h-0.1h-0.1h-0.1
			h-0.1h-0.1h-0.1h-0.1h-0.1H128h-0.1h-0.1h-0.1h-0.1h-0.1h-0.1h-0.1h-0.1h-0.1H127h-0.1h-0.1h-0.1h-0.1h-0.1h-0.1h-0.1h-0.1h-0.1
			H126h-0.1h-0.1h-0.1h-0.1h-0.1h-0.1h-0.1h-0.1h-0.1l0,0l0,0l0,0c0,0,0,0,0-0.1c0,0,0,0,0-0.1v-0.1v-0.1v-0.1v-0.1v-0.1v-0.1
			c0,0,0-0.1,0-0.2c0-0.1,0-0.1,0-0.2c0-0.1,0-0.1-0.1-0.2c0-0.1,0-0.1-0.1-0.2c0-0.1,0-0.1-0.1-0.2c0-0.1,0-0.1-0.1-0.2
			c0-0.1,0-0.2-0.1-0.2s0-0.2-0.1-0.2c0-0.1-0.1-0.2-0.1-0.2c0-0.1-0.1-0.2-0.1-0.3s-0.1-0.2-0.1-0.3s-0.1-0.2-0.1-0.3
			s-0.1-0.2-0.1-0.3s-0.1-0.2-0.1-0.3s-0.1-0.2-0.1-0.3s-0.1-0.2-0.1-0.3s-0.1-0.2-0.1-0.3s-0.1-0.2-0.1-0.3s-0.1-0.2-0.1-0.3
			s-0.1-0.2-0.1-0.3s-0.1-0.2-0.1-0.4c0-0.1-0.1-0.2-0.1-0.4c0-0.1-0.1-0.2-0.2-0.4c-0.1-0.1-0.1-0.2-0.2-0.4
			c-0.1-0.1-0.1-0.3-0.2-0.4c-0.1-0.1-0.1-0.3-0.2-0.4c-0.1-0.1-0.1-0.3-0.2-0.4c-0.1-0.1-0.1-0.3-0.2-0.4c-0.1-0.1-0.1-0.3-0.2-0.4
			c-0.1-0.1-0.1-0.3-0.2-0.4c-0.1-0.1-0.1-0.3-0.2-0.4c-0.1-0.1-0.1-0.3-0.2-0.4c-0.1-0.1-0.1-0.3-0.2-0.4c-0.1-0.1-0.1-0.3-0.2-0.4
			c-0.1-0.1-0.2-0.3-0.2-0.4c-0.1-0.1-0.2-0.3-0.2-0.4c-0.1-0.1-0.2-0.3-0.2-0.4c-0.1-0.1-0.2-0.3-0.2-0.4c-0.1-0.1-0.2-0.3-0.3-0.5
			c-0.1-0.2-0.2-0.3-0.3-0.5c-0.1-0.2-0.2-0.3-0.3-0.5c-0.1-0.2-0.2-0.3-0.3-0.5c-0.1-0.2-0.2-0.3-0.3-0.5c-0.1-0.2-0.2-0.3-0.3-0.5
			c-0.1-0.2-0.2-0.3-0.3-0.5c-0.1-0.2-0.2-0.3-0.3-0.5c-0.1-0.2-0.2-0.3-0.3-0.5c-0.1-0.2-0.2-0.3-0.3-0.5c-0.1-0.2-0.2-0.3-0.3-0.5
			c-0.1-0.2-0.2-0.3-0.3-0.5c-0.1-0.2-0.2-0.3-0.3-0.5c-0.1-0.2-0.2-0.3-0.4-0.5s-0.2-0.3-0.4-0.5c-0.1-0.1-0.2-0.3-0.3-0.4
			c-0.1-0.1-0.2-0.3-0.4-0.4c-0.1-0.1-0.2-0.3-0.4-0.4c-0.1-0.1-0.2-0.3-0.4-0.4c-0.1-0.1-0.2-0.3-0.4-0.4c-0.1-0.1-0.2-0.3-0.4-0.4
			c-0.1-0.1-0.2-0.3-0.4-0.4c-0.1-0.1-0.2-0.3-0.4-0.4c-0.1-0.1-0.2-0.3-0.4-0.4c-0.1-0.1-0.3-0.3-0.4-0.4s-0.3-0.3-0.4-0.4
			s-0.3-0.3-0.4-0.4s-0.3-0.3-0.4-0.4s-0.3-0.2-0.4-0.4c-0.1-0.1-0.3-0.2-0.4-0.4c-0.1-0.1-0.3-0.2-0.4-0.4
			c-0.1-0.1-0.3-0.2-0.4-0.4c-0.1-0.1-0.3-0.2-0.4-0.3c-0.1-0.1-0.3-0.2-0.4-0.3c-0.1-0.1-0.3-0.2-0.4-0.3c-0.1-0.1-0.3-0.2-0.4-0.3
			c-0.1-0.1-0.3-0.2-0.4-0.3c-0.1-0.1-0.3-0.2-0.4-0.3c-0.1-0.1-0.3-0.2-0.4-0.3c-0.1-0.1-0.3-0.2-0.4-0.3c-0.1-0.1-0.3-0.2-0.4-0.3
			c-0.1-0.1-0.3-0.2-0.4-0.3c-0.1-0.1-0.3-0.2-0.5-0.3c-0.2-0.1-0.3-0.2-0.5-0.3c-0.2-0.1-0.3-0.2-0.5-0.3c-0.2-0.1-0.3-0.2-0.5-0.3
			c-0.2-0.1-0.3-0.2-0.5-0.3c-0.2-0.1-0.3-0.2-0.5-0.3c-0.2-0.1-0.3-0.2-0.5-0.3c-0.2-0.1-0.3-0.2-0.5-0.3c-0.2-0.1-0.3-0.2-0.5-0.3
			c-0.2-0.1-0.3-0.2-0.5-0.3c-0.2-0.1-0.3-0.2-0.5-0.3c-0.2-0.1-0.3-0.2-0.5-0.2c-0.2-0.1-0.3-0.2-0.5-0.2c-0.2-0.1-0.3-0.2-0.5-0.2
			c-0.2-0.1-0.3-0.2-0.5-0.2c-0.2-0.1-0.3-0.2-0.5-0.2c-0.2-0.1-0.4-0.2-0.5-0.2s-0.4-0.1-0.5-0.2c-0.2-0.1-0.4-0.1-0.5-0.2
			s-0.4-0.1-0.5-0.2c-0.2-0.1-0.4-0.1-0.6-0.2c-0.2-0.1-0.4-0.1-0.6-0.2c-0.2-0.1-0.4-0.1-0.6-0.2c-0.2-0.1-0.4-0.1-0.6-0.2
			c-0.2-0.1-0.4-0.1-0.6-0.2c-0.2-0.1-0.4-0.1-0.6-0.2c-0.2-0.1-0.4-0.1-0.6-0.2s-0.4-0.1-0.6-0.2c-0.2-0.1-0.4-0.1-0.6-0.2
			C89,16,88.8,16,88.6,15.9c-0.2-0.1-0.4-0.1-0.6-0.2c-0.2-0.1-0.4-0.1-0.6-0.2c-0.2-0.1-0.4-0.1-0.6-0.2c-0.2-0.1-0.4-0.1-0.6-0.2
			C86,15,85.8,15,85.6,15s-0.4-0.1-0.6-0.1s-0.4-0.1-0.6-0.1s-0.4-0.1-0.6-0.1s-0.4-0.1-0.6-0.1s-0.4-0.1-0.6-0.1s-0.4-0.1-0.6-0.1
			s-0.4-0.1-0.6-0.1s-0.4-0.1-0.6-0.1s-0.4-0.1-0.6-0.1S79.7,14,79.4,14c-0.2,0-0.4-0.1-0.6-0.1s-0.4,0-0.6-0.1
			c-0.2,0-0.4,0-0.7-0.1c-0.2,0-0.4,0-0.7-0.1c-0.2,0-0.4,0-0.7-0.1c-0.2,0-0.4,0-0.7,0c-0.2,0-0.5,0-0.7,0s-0.5,0-0.7,0
			s-0.5,0-0.7,0s-0.5,0-0.7,0s-0.5,0-0.7,0s-0.5,0-0.7,0s-0.5,0-0.7,0s-0.5,0-0.7,0s-0.5,0-0.7,0s-0.5,0-0.7,0s-0.5,0-0.7,0
			s-0.5,0-0.7,0s-0.5,0-0.7,0s-0.5,0-0.7,0s-0.5,0-0.7,0.1s-0.5,0-0.7,0.1c-0.2,0-0.5,0-0.7,0.1c-0.2,0-0.5,0.1-0.7,0.1
			S62.1,14,61.9,14c-0.2,0-0.5,0.1-0.7,0.1s-0.5,0.1-0.7,0.1s-0.5,0.1-0.7,0.1s-0.5,0.1-0.7,0.1s-0.5,0.1-0.8,0.1s-0.5,0.1-0.8,0.1
			s-0.5,0.1-0.8,0.1s-0.5,0.1-0.8,0.1c-0.3,0.1-0.5,0.1-0.7,0.2c-0.2,0.1-0.5,0.1-0.7,0.2c-0.2,0.1-0.5,0.1-0.7,0.2
			c-0.2,0.1-0.5,0.1-0.7,0.2c-0.2,0.1-0.5,0.1-0.7,0.2c-0.2,0.1-0.5,0.1-0.7,0.2c-0.2,0.1-0.5,0.1-0.7,0.2s-0.5,0.1-0.7,0.2
			s-0.5,0.1-0.7,0.2s-0.5,0.2-0.7,0.2c-0.2,0.1-0.5,0.2-0.7,0.2c-0.2,0.1-0.5,0.2-0.7,0.3s-0.5,0.2-0.7,0.3
			c-0.2,0.1-0.5,0.2-0.7,0.3c-0.2,0.1-0.5,0.2-0.7,0.3c-0.2,0.1-0.5,0.2-0.7,0.3c-0.2,0.1-0.5,0.2-0.7,0.3c-0.2,0.1-0.5,0.2-0.7,0.3
			c-0.2,0.1-0.5,0.2-0.7,0.3c-0.2,0.1-0.5,0.2-0.7,0.3c-0.2,0.1-0.5,0.2-0.7,0.3c-0.2,0.1-0.5,0.2-0.7,0.4c-0.2,0.1-0.5,0.2-0.7,0.4
			c-0.2,0.1-0.5,0.2-0.7,0.4c-0.2,0.1-0.4,0.3-0.7,0.4c-0.2,0.1-0.4,0.3-0.7,0.4c-0.2,0.1-0.4,0.3-0.6,0.4c-0.2,0.1-0.4,0.3-0.6,0.4
			c-0.2,0.1-0.4,0.3-0.6,0.5c-0.2,0.2-0.4,0.3-0.6,0.5s-0.4,0.3-0.6,0.5c-0.2,0.2-0.4,0.3-0.6,0.5c-0.2,0.2-0.4,0.3-0.6,0.5
			c-0.2,0.2-0.4,0.3-0.6,0.5c-0.2,0.2-0.4,0.3-0.6,0.5c-0.2,0.2-0.4,0.4-0.6,0.5c-0.2,0.2-0.4,0.4-0.5,0.5c-0.2,0.2-0.4,0.4-0.5,0.6
			c-0.2,0.2-0.3,0.4-0.5,0.6s-0.3,0.4-0.5,0.6s-0.3,0.4-0.5,0.6s-0.3,0.4-0.5,0.6s-0.3,0.4-0.5,0.6s-0.3,0.4-0.5,0.6
			s-0.3,0.4-0.5,0.6s-0.3,0.4-0.5,0.6c-0.1,0.2-0.3,0.4-0.4,0.6c-0.1,0.2-0.3,0.4-0.4,0.6s-0.3,0.4-0.4,0.6
			c-0.1,0.2-0.3,0.4-0.4,0.6c-0.1,0.2-0.3,0.4-0.4,0.6c-0.1,0.2-0.3,0.4-0.4,0.6c-0.1,0.2-0.3,0.4-0.4,0.6c-0.1,0.2-0.3,0.4-0.4,0.7
			c-0.1,0.2-0.2,0.4-0.4,0.7c-0.1,0.2-0.2,0.4-0.4,0.7c-0.1,0.2-0.2,0.4-0.3,0.7c-0.1,0.2-0.2,0.4-0.3,0.7c-0.1,0.2-0.2,0.4-0.3,0.7
			c-0.1,0.2-0.2,0.4-0.3,0.7c-0.1,0.2-0.2,0.4-0.3,0.7c-0.1,0.2-0.2,0.4-0.3,0.7c-0.1,0.2-0.2,0.4-0.3,0.7c-0.1,0.2-0.2,0.4-0.3,0.6
			c-0.1,0.2-0.2,0.4-0.3,0.6c-0.1,0.2-0.2,0.4-0.3,0.6c-0.1,0.2-0.2,0.4-0.3,0.6c-0.1,0.2-0.2,0.4-0.3,0.6c-0.1,0.2-0.2,0.4-0.2,0.6
			c-0.1,0.2-0.2,0.4-0.2,0.6c-0.1,0.2-0.2,0.4-0.2,0.6c-0.1,0.2-0.1,0.4-0.2,0.6c-0.1,0.2-0.1,0.4-0.2,0.6c-0.1,0.2-0.1,0.4-0.2,0.6
			c-0.1,0.2-0.1,0.4-0.2,0.6c-0.1,0.2-0.1,0.4-0.2,0.6c-0.1,0.2-0.1,0.4-0.2,0.6c-0.1,0.2-0.1,0.4-0.2,0.6c-0.1,0.2-0.1,0.4-0.2,0.6
			c-0.1,0.2-0.1,0.4-0.2,0.6c0,0.2-0.1,0.4-0.1,0.5s-0.1,0.4-0.1,0.5c0,0.2-0.1,0.3-0.1,0.5s-0.1,0.3-0.1,0.5s-0.1,0.3-0.1,0.5
			s-0.1,0.3-0.1,0.5S16,57.4,16,57.6s-0.1,0.4-0.1,0.5c0,0.2-0.1,0.4-0.1,0.6c0,0.2-0.1,0.4-0.1,0.6c0,0.2-0.1,0.4-0.1,0.6
			c0,0.2-0.1,0.4-0.1,0.6c0,0.2-0.1,0.4-0.1,0.6c0,0.2-0.1,0.4-0.1,0.6c0,0.2-0.1,0.4-0.1,0.6c0,0.2-0.1,0.4-0.1,0.6
			c0,0.2-0.1,0.4-0.1,0.6c0,0.2-0.1,0.4-0.1,0.6s-0.1,0.4-0.1,0.7c0,0.2-0.1,0.4-0.1,0.7c0,0.2-0.1,0.4-0.1,0.7c0,0.2,0,0.5-0.1,0.7
			c0,0.2,0,0.5-0.1,0.7c0,0.2,0,0.5-0.1,0.7c0,0.2,0,0.5-0.1,0.7c0,0.2,0,0.5-0.1,0.7c0,0.2,0,0.5-0.1,0.7c0,0.2,0,0.5-0.1,0.7
			c0,0.2,0,0.5,0,0.7s0,0.5,0,0.7s0,0.5,0,0.7s0,0.5,0,0.8s0,0.5,0,0.8s0,0.5,0,0.8s0,0.5,0,0.8s0,0.5,0,0.8s0,0.5,0,0.8
			s0,0.5,0,0.8s0,0.5,0,0.8s0,0.5,0,0.8s0,0.5,0,0.8s0,0.5,0,0.8s0,0.5,0,0.8s0,0.5,0,0.8s0,0.5,0,0.8s0,0.5,0,0.8s0,0.5,0,0.8
			s0,0.5,0,0.8s0,0.5,0,0.8s0,0.5,0.1,0.8c0,0.3,0,0.5,0.1,0.8c0,0.3,0,0.5,0.1,0.8c0,0.3,0,0.5,0.1,0.8c0,0.3,0,0.5,0.1,0.8
			c0,0.3,0.1,0.5,0.1,0.8s0.1,0.5,0.1,0.8s0.1,0.5,0.1,0.8s0.1,0.5,0.1,0.8s0.1,0.5,0.1,0.8s0.1,0.5,0.1,0.8s0.1,0.5,0.1,0.8
			s0.1,0.5,0.1,0.8s0.1,0.5,0.1,0.8s0.1,0.5,0.1,0.8s0.1,0.5,0.2,0.8c0.1,0.3,0.1,0.5,0.2,0.8c0.1,0.3,0.1,0.5,0.2,0.8
			s0.1,0.5,0.2,0.8s0.1,0.5,0.2,0.8s0.1,0.5,0.2,0.8s0.1,0.5,0.2,0.8s0.1,0.5,0.2,0.8s0.1,0.5,0.2,0.8s0.1,0.5,0.2,0.8
			s0.1,0.5,0.2,0.8s0.2,0.5,0.2,0.7c0.1,0.2,0.2,0.5,0.2,0.7c0.1,0.2,0.2,0.5,0.2,0.7c0.1,0.2,0.2,0.5,0.3,0.7
			c0.1,0.2,0.2,0.5,0.3,0.7c0.1,0.2,0.2,0.5,0.3,0.7c0.1,0.2,0.2,0.5,0.3,0.7c0.1,0.2,0.2,0.5,0.3,0.7c0.1,0.2,0.2,0.5,0.3,0.7
			c0.1,0.2,0.2,0.5,0.3,0.7c0.1,0.2,0.2,0.5,0.3,0.7c0.1,0.2,0.2,0.4,0.3,0.7c0.1,0.2,0.2,0.4,0.3,0.7c0.1,0.2,0.2,0.4,0.3,0.7
			c0.1,0.2,0.2,0.4,0.3,0.6c0.1,0.2,0.2,0.4,0.3,0.6c0.1,0.2,0.2,0.4,0.4,0.6c0.1,0.2,0.2,0.4,0.4,0.6c0.1,0.2,0.2,0.4,0.4,0.6
			c0.1,0.2,0.2,0.4,0.4,0.6c0.1,0.2,0.3,0.4,0.4,0.6s0.3,0.4,0.4,0.6s0.3,0.4,0.4,0.6s0.3,0.4,0.4,0.6s0.3,0.4,0.4,0.6
			s0.3,0.4,0.4,0.6s0.3,0.4,0.4,0.6s0.3,0.4,0.4,0.5s0.3,0.4,0.4,0.5c0.1,0.2,0.3,0.4,0.4,0.5c0.2,0.2,0.3,0.4,0.5,0.5
			c0.2,0.2,0.3,0.3,0.5,0.5s0.3,0.3,0.5,0.5s0.3,0.3,0.5,0.5s0.3,0.3,0.5,0.5s0.3,0.3,0.5,0.5s0.3,0.3,0.5,0.5s0.3,0.3,0.5,0.5
			s0.3,0.3,0.5,0.5s0.3,0.3,0.5,0.5s0.4,0.3,0.5,0.4c0.2,0.1,0.4,0.3,0.5,0.4c0.2,0.1,0.4,0.3,0.5,0.4c0.2,0.1,0.4,0.3,0.6,0.4
			s0.4,0.3,0.6,0.4c0.2,0.1,0.4,0.3,0.6,0.4c0.2,0.1,0.4,0.3,0.6,0.4c0.2,0.1,0.4,0.3,0.6,0.4c0.2,0.1,0.4,0.3,0.6,0.4
			c0.2,0.1,0.4,0.3,0.6,0.4c0.2,0.1,0.4,0.2,0.6,0.4c0.2,0.1,0.4,0.2,0.6,0.4c0.2,0.1,0.4,0.2,0.6,0.4c0.2,0.1,0.4,0.2,0.6,0.3
			c0.2,0.1,0.4,0.2,0.6,0.3s0.4,0.2,0.6,0.3c0.2,0.1,0.4,0.2,0.6,0.3c0.2,0.1,0.4,0.2,0.7,0.3c0.2,0.1,0.4,0.2,0.7,0.3
			c0.2,0.1,0.4,0.2,0.7,0.3s0.5,0.2,0.8,0.3s0.5,0.2,0.8,0.3s0.5,0.2,0.8,0.3s0.5,0.2,0.8,0.3s0.5,0.2,0.8,0.3s0.5,0.2,0.8,0.3
			s0.5,0.2,0.8,0.3s0.5,0.2,0.8,0.2c0.3,0.1,0.5,0.2,0.8,0.2c0.3,0.1,0.5,0.1,0.8,0.2c0.3,0.1,0.5,0.1,0.8,0.2s0.5,0.1,0.8,0.2
			c0.3,0.1,0.5,0.1,0.8,0.2s0.5,0.1,0.8,0.2c0.3,0.1,0.5,0.1,0.8,0.2c0.3,0.1,0.5,0.1,0.8,0.2c0.3,0,0.5,0.1,0.8,0.1
			s0.5,0.1,0.8,0.1s0.5,0.1,0.8,0.1s0.5,0.1,0.8,0.1s0.5,0.1,0.8,0.1s0.5,0.1,0.8,0.1s0.5,0.1,0.8,0.1s0.5,0,0.8,0.1
			c0.3,0,0.5,0,0.8,0.1c0.3,0,0.5,0,0.8,0.1c0.3,0,0.5,0,0.8,0s0.5,0,0.8,0s0.5,0,0.8,0s0.5,0,0.8,0s0.5,0,0.8,0s0.5,0,0.8,0
			s0.5,0,0.8,0s0.5,0,0.8,0s0.5,0,0.8,0s0.5,0,0.8,0s0.5,0,0.8,0s0.5,0,0.8,0s0.5,0,0.8-0.1c0.3,0,0.5,0,0.8-0.1
			c0.3,0,0.5,0,0.8-0.1c0.2,0,0.5,0,0.7-0.1s0.5-0.1,0.7-0.1s0.5-0.1,0.7-0.1s0.5-0.1,0.7-0.1s0.5-0.1,0.7-0.1s0.5-0.1,0.7-0.1
			s0.5-0.1,0.7-0.1s0.5-0.1,0.7-0.1s0.5-0.1,0.7-0.1s0.5-0.1,0.7-0.1s0.5-0.1,0.7-0.1s0.4-0.1,0.7-0.1c0.2,0,0.4-0.1,0.7-0.1
			c0.2,0,0.4-0.1,0.7-0.1c0.2,0,0.4-0.1,0.6-0.1s0.4-0.1,0.6-0.2c0.2-0.1,0.4-0.1,0.6-0.2c0.2-0.1,0.4-0.1,0.6-0.2
			c0.2-0.1,0.4-0.1,0.6-0.2c0.2-0.1,0.4-0.1,0.6-0.2c0.2-0.1,0.4-0.1,0.6-0.2c0.2-0.1,0.4-0.1,0.6-0.2c0.2-0.1,0.4-0.1,0.6-0.2
			c0.2-0.1,0.4-0.1,0.6-0.2c0.2-0.1,0.4-0.1,0.5-0.2c0.2-0.1,0.4-0.1,0.5-0.2c0.2-0.1,0.4-0.1,0.5-0.2c0.2-0.1,0.4-0.1,0.5-0.2
			c0.2-0.1,0.4-0.2,0.5-0.2c0.2-0.1,0.4-0.2,0.5-0.2c0.2-0.1,0.4-0.2,0.5-0.2c0.2-0.1,0.4-0.2,0.5-0.3c0.2-0.1,0.4-0.2,0.5-0.3
			c0.2-0.1,0.4-0.2,0.5-0.3c0.2-0.1,0.3-0.2,0.5-0.3s0.3-0.2,0.5-0.3s0.3-0.2,0.5-0.3s0.3-0.2,0.5-0.3s0.3-0.2,0.5-0.3
			s0.3-0.2,0.5-0.3s0.3-0.2,0.5-0.3s0.3-0.2,0.5-0.3s0.3-0.2,0.5-0.3s0.3-0.2,0.5-0.3s0.3-0.2,0.5-0.4c0.2-0.1,0.3-0.2,0.5-0.4
			c0.2-0.1,0.3-0.2,0.5-0.4c0.2-0.1,0.3-0.2,0.5-0.4c0.2-0.1,0.3-0.3,0.5-0.4c0.2-0.1,0.3-0.3,0.5-0.4c0.1-0.1,0.3-0.3,0.4-0.4
			c0.1-0.1,0.3-0.3,0.4-0.4s0.3-0.3,0.4-0.4c0.1-0.1,0.3-0.3,0.4-0.4c0.1-0.1,0.3-0.3,0.4-0.4c0.1-0.1,0.3-0.3,0.4-0.4
			c0.1-0.1,0.3-0.3,0.4-0.4c0.1-0.1,0.3-0.3,0.4-0.4c0.1-0.1,0.3-0.3,0.4-0.4s0.3-0.3,0.4-0.4c0.1-0.1,0.3-0.3,0.4-0.4
			c0.1-0.1,0.2-0.3,0.4-0.4c0.1-0.1,0.2-0.3,0.4-0.4c0.1-0.1,0.2-0.3,0.4-0.4c0.1-0.1,0.2-0.3,0.3-0.5c0.1-0.2,0.2-0.3,0.3-0.5
			c0.1-0.2,0.2-0.3,0.3-0.5c0.1-0.2,0.2-0.3,0.3-0.5c0.1-0.2,0.2-0.3,0.3-0.5s0.2-0.3,0.3-0.5c0.1-0.2,0.2-0.3,0.3-0.5
			c0.1-0.2,0.2-0.3,0.3-0.5c0.1-0.2,0.2-0.3,0.3-0.5c0.1-0.2,0.2-0.3,0.3-0.5c0.1-0.2,0.2-0.3,0.3-0.5c0.1-0.2,0.2-0.3,0.2-0.5
			c0.1-0.2,0.2-0.3,0.2-0.5c0.1-0.2,0.1-0.3,0.2-0.5s0.1-0.3,0.2-0.5s0.1-0.3,0.2-0.5s0.1-0.3,0.2-0.5s0.1-0.3,0.2-0.5
			s0.1-0.3,0.2-0.5s0.1-0.3,0.2-0.5s0.1-0.3,0.1-0.5s0.1-0.3,0.1-0.5s0.1-0.3,0.1-0.5s0.1-0.4,0.1-0.6s0.1-0.4,0.1-0.6
			s0.1-0.4,0.1-0.6s0.1-0.4,0.1-0.6s0.1-0.4,0.1-0.6s0.1-0.4,0.1-0.6s0-0.4,0.1-0.6c0-0.2,0-0.4,0.1-0.6c0-0.2,0-0.4,0-0.6
			s0-0.4,0-0.6s0-0.4,0-0.6s0-0.4,0-0.6s0-0.4,0-0.6s0-0.4,0-0.6s0-0.4,0-0.6s0-0.4,0-0.5c0-0.2,0-0.4,0-0.5s0-0.4-0.1-0.5
			c0-0.2,0-0.4-0.1-0.5c0-0.2,0-0.4-0.1-0.5c0-0.2-0.1-0.4-0.1-0.5c0-0.2-0.1-0.3-0.1-0.5s-0.1-0.3-0.1-0.5s-0.1-0.3-0.1-0.5
			s-0.1-0.3-0.1-0.5s-0.1-0.3-0.1-0.5s-0.1-0.3-0.1-0.5c-0.1-0.2-0.1-0.3-0.2-0.5s-0.1-0.3-0.2-0.5s-0.1-0.3-0.2-0.5
			s-0.1-0.3-0.2-0.5s-0.1-0.3-0.2-0.5s-0.1-0.3-0.2-0.5s-0.1-0.3-0.2-0.5s-0.1-0.3-0.2-0.5c-0.1-0.1-0.2-0.3-0.2-0.4
			c-0.1-0.1-0.2-0.3-0.2-0.4c-0.1-0.1-0.2-0.3-0.3-0.4c-0.1-0.1-0.2-0.3-0.3-0.4c-0.1-0.1-0.2-0.3-0.3-0.4c-0.1-0.1-0.2-0.3-0.3-0.4
			c-0.1-0.1-0.2-0.3-0.3-0.4c-0.1-0.1-0.2-0.3-0.3-0.4c-0.1-0.1-0.2-0.3-0.3-0.4c-0.1-0.1-0.2-0.3-0.3-0.4c-0.1-0.1-0.2-0.3-0.3-0.4
			c-0.1-0.1-0.2-0.3-0.3-0.4c-0.1-0.1-0.2-0.3-0.3-0.4c-0.1-0.1-0.2-0.3-0.4-0.4c-0.1-0.1-0.2-0.2-0.4-0.4s-0.2-0.2-0.4-0.4
			c-0.1-0.1-0.3-0.2-0.4-0.4c-0.1-0.1-0.3-0.2-0.4-0.4c-0.1-0.1-0.3-0.2-0.4-0.3c-0.1-0.1-0.3-0.2-0.4-0.3c-0.1-0.1-0.3-0.2-0.4-0.3
			c-0.1-0.1-0.3-0.2-0.4-0.3c-0.1-0.1-0.3-0.2-0.4-0.3c-0.1-0.1-0.3-0.2-0.4-0.3c-0.1-0.1-0.3-0.2-0.5-0.3c-0.2-0.1-0.3-0.2-0.5-0.3
			c-0.2-0.1-0.3-0.2-0.5-0.3c-0.2-0.1-0.3-0.2-0.5-0.3c-0.2-0.1-0.3-0.2-0.5-0.3c0,0.2-0.1,0.5-0.1,0.7s-0.1,0.5-0.1,0.7
			s-0.1,0.4-0.1,0.7c0,0.2-0.1,0.4-0.1,0.7c0,0.2-0.1,0.4-0.1,0.7c0,0.2-0.1,0.4-0.1,0.7c0,0.2-0.1,0.4-0.1,0.6s-0.1,0.4-0.2,0.6
			s-0.1,0.4-0.2,0.6s-0.1,0.4-0.2,0.6s-0.1,0.4-0.2,0.6s-0.1,0.4-0.2,0.6s-0.1,0.4-0.2,0.6s-0.1,0.4-0.2,0.6s-0.1,0.4-0.2,0.6
			s-0.1,0.4-0.2,0.6s-0.1,0.4-0.2,0.6s-0.1,0.4-0.2,0.6s-0.1,0.4-0.2,0.6s-0.2,0.4-0.2,0.6s-0.2,0.4-0.2,0.6
			c-0.1,0.2-0.2,0.4-0.2,0.6c-0.1,0.2-0.2,0.4-0.3,0.5s-0.2,0.4-0.3,0.5c-0.1,0.2-0.2,0.4-0.3,0.5c-0.1,0.2-0.2,0.4-0.3,0.5
			c-0.1,0.2-0.2,0.3-0.3,0.5c-0.1,0.2-0.2,0.3-0.3,0.5c-0.1,0.2-0.2,0.3-0.3,0.5c-0.1,0.2-0.2,0.3-0.3,0.5c-0.1,0.2-0.2,0.3-0.3,0.5
			c-0.1,0.2-0.2,0.3-0.3,0.5c-0.1,0.2-0.2,0.3-0.3,0.5c-0.1,0.2-0.2,0.3-0.3,0.5c-0.1,0.2-0.2,0.3-0.3,0.5c-0.1,0.2-0.2,0.3-0.3,0.5
			c-0.1,0.2-0.2,0.3-0.3,0.5c-0.1,0.1-0.2,0.3-0.3,0.4c-0.1,0.1-0.2,0.3-0.3,0.4c-0.1,0.1-0.2,0.3-0.4,0.4c-0.1,0.1-0.2,0.3-0.4,0.4
			c-0.1,0.1-0.2,0.3-0.4,0.4c-0.1,0.1-0.2,0.3-0.4,0.4c-0.1,0.1-0.3,0.3-0.4,0.4s-0.3,0.3-0.4,0.4s-0.3,0.3-0.4,0.4
			s-0.3,0.3-0.4,0.4s-0.3,0.2-0.4,0.4c-0.1,0.1-0.3,0.2-0.4,0.4c-0.1,0.1-0.3,0.2-0.4,0.3c-0.1,0.1-0.3,0.2-0.4,0.3
			c-0.1,0.1-0.3,0.2-0.4,0.3c-0.1,0.1-0.3,0.2-0.4,0.3c-0.1,0.1-0.3,0.2-0.4,0.3c-0.1,0.1-0.3,0.2-0.4,0.3c-0.1,0.1-0.3,0.2-0.4,0.3
			c-0.2,0.1-0.3,0.2-0.5,0.3c-0.2,0.1-0.3,0.2-0.5,0.3c-0.2,0.1-0.3,0.2-0.5,0.3c-0.2,0.1-0.3,0.2-0.5,0.3c-0.2,0.1-0.3,0.2-0.5,0.3
			c-0.2,0.1-0.3,0.2-0.5,0.2c-0.2,0.1-0.3,0.2-0.5,0.2c-0.2,0.1-0.3,0.2-0.5,0.2c-0.2,0.1-0.5,0.2-0.7,0.3c-0.2,0.1-0.5,0.2-0.7,0.3
			c-0.2,0.1-0.5,0.2-0.8,0.3c-0.3,0.1-0.5,0.2-0.8,0.3c-0.3,0.1-0.5,0.2-0.8,0.3c-0.3,0.1-0.5,0.2-0.8,0.2c-0.3,0.1-0.5,0.1-0.8,0.2
			s-0.5,0.1-0.8,0.2s-0.5,0.1-0.8,0.2s-0.5,0.1-0.8,0.2s-0.5,0.1-0.8,0.1s-0.5,0.1-0.8,0.1s-0.5,0.1-0.8,0.1s-0.5,0.1-0.8,0.1
			s-0.5,0.1-0.8,0.1s-0.5,0-0.8,0.1c-0.3,0-0.5,0-0.8,0s-0.5,0-0.8,0s-0.5,0-0.8,0s-0.5,0-0.8,0s-0.5,0-0.8,0s-0.5,0-0.8,0
			s-0.5,0-0.8-0.1c-0.3,0-0.5,0-0.8-0.1c-0.3,0-0.5-0.1-0.8-0.1s-0.5-0.1-0.8-0.1s-0.5-0.1-0.8-0.1s-0.5-0.1-0.8-0.1
			s-0.5-0.1-0.8-0.2s-0.5-0.1-0.8-0.2s-0.5-0.1-0.8-0.2s-0.5-0.1-0.8-0.2c-0.2-0.1-0.5-0.1-0.7-0.2s-0.5-0.2-0.7-0.2
			s-0.5-0.2-0.7-0.2c-0.2-0.1-0.5-0.2-0.7-0.3c-0.2-0.1-0.5-0.2-0.7-0.3c-0.2-0.1-0.5-0.2-0.7-0.3c-0.2-0.1-0.5-0.2-0.7-0.3
			c-0.2-0.1-0.5-0.2-0.7-0.3c-0.2-0.1-0.5-0.2-0.7-0.3c-0.2-0.1-0.4-0.2-0.7-0.3c-0.2-0.1-0.4-0.2-0.7-0.4c-0.2-0.1-0.4-0.2-0.6-0.4
			c-0.2-0.1-0.4-0.3-0.6-0.4c-0.2-0.1-0.4-0.3-0.6-0.4c-0.2-0.1-0.4-0.3-0.6-0.4c-0.2-0.1-0.4-0.3-0.6-0.4c-0.2-0.1-0.4-0.3-0.6-0.4
			c-0.2-0.2-0.4-0.3-0.6-0.5c-0.2-0.2-0.4-0.3-0.6-0.5c-0.2-0.2-0.4-0.3-0.5-0.5c-0.2-0.2-0.4-0.3-0.5-0.5c-0.2-0.2-0.3-0.3-0.5-0.5
			s-0.3-0.3-0.5-0.5s-0.3-0.4-0.5-0.5c-0.2-0.2-0.3-0.4-0.5-0.5c-0.2-0.2-0.3-0.4-0.4-0.6c-0.1-0.2-0.3-0.4-0.4-0.6
			c-0.1-0.2-0.3-0.4-0.4-0.6c-0.1-0.2-0.3-0.4-0.4-0.6c-0.1-0.2-0.3-0.4-0.4-0.6c-0.1-0.2-0.2-0.4-0.4-0.6c-0.1-0.2-0.2-0.4-0.3-0.6
			c-0.1-0.1-0.1-0.2-0.2-0.4c-0.1-0.1-0.1-0.2-0.2-0.4c-0.1-0.1-0.1-0.2-0.2-0.4c-0.1-0.1-0.1-0.2-0.2-0.4c-0.1-0.1-0.1-0.2-0.2-0.4
			c0-0.1-0.1-0.2-0.1-0.4c0-0.1-0.1-0.2-0.1-0.4c0-0.1-0.1-0.2-0.1-0.4c0-0.1-0.1-0.2-0.1-0.4c0-0.1-0.1-0.2-0.1-0.4
			s-0.1-0.2-0.1-0.4c0-0.1-0.1-0.2-0.1-0.4c0-0.1-0.1-0.2-0.1-0.4c0-0.1-0.1-0.2-0.1-0.4c0-0.1-0.1-0.2-0.1-0.4
			c0-0.1-0.1-0.3-0.1-0.4s-0.1-0.3-0.1-0.4s-0.1-0.3-0.1-0.4s0-0.3-0.1-0.4c0-0.1,0-0.3-0.1-0.4c0-0.1,0-0.3-0.1-0.4
			c0-0.1,0-0.3-0.1-0.4c0-0.1,0-0.3,0-0.4s0-0.3,0-0.4s0-0.3,0-0.4s0-0.3,0-0.4s0-0.3,0-0.4s0-0.3,0-0.4s0-0.3,0-0.4s0-0.3,0-0.4
			s0-0.3,0-0.4s0-0.3,0-0.4s0-0.3,0-0.4s0-0.3,0-0.4s0-0.3,0-0.4s0-0.3,0-0.4s0-0.3,0-0.4s0-0.3,0-0.4s0-0.3,0-0.4s0-0.3,0.1-0.4
			c0-0.1,0-0.3,0.1-0.4c0-0.1,0-0.3,0.1-0.4c0-0.1,0-0.3,0.1-0.4c0-0.1,0-0.2,0.1-0.4c0-0.1,0.1-0.2,0.1-0.4c0-0.1,0.1-0.2,0.1-0.4
			c0-0.1,0.1-0.2,0.1-0.4c0-0.1,0.1-0.2,0.1-0.4c0-0.1,0.1-0.2,0.1-0.4c0-0.1,0.1-0.2,0.1-0.4c0-0.1,0.1-0.2,0.1-0.4
			c0-0.1,0.1-0.2,0.1-0.4s0.1-0.2,0.1-0.4c0-0.1,0.1-0.2,0.1-0.4c0-0.1,0.1-0.2,0.1-0.4c0-0.1,0.1-0.2,0.1-0.4
			c0-0.1,0.1-0.2,0.1-0.4c0.1-0.1,0.1-0.2,0.2-0.3c0.1-0.1,0.1-0.2,0.2-0.3c0.1-0.1,0.1-0.2,0.2-0.3c0.1-0.1,0.1-0.2,0.2-0.3
			c0.1-0.1,0.1-0.2,0.2-0.3c0.1-0.1,0.1-0.2,0.2-0.3c0.1-0.1,0.1-0.2,0.2-0.3c0-0.1,0.1-0.2,0.1-0.2c0-0.1,0.1-0.2,0.1-0.2
			c0-0.1,0.1-0.2,0.1-0.2c0.1-0.1,0.1-0.2,0.2-0.2c0.1-0.1,0.1-0.2,0.2-0.2c0.1-0.1,0.1-0.2,0.2-0.3c0.1-0.1,0.1-0.2,0.2-0.3
			c0.1-0.1,0.1-0.2,0.2-0.3c0.1-0.1,0.1-0.2,0.2-0.3c0.1-0.1,0.1-0.2,0.2-0.3c0.1-0.1,0.1-0.2,0.2-0.3c0.1-0.1,0.1-0.2,0.2-0.3
			c0.1-0.1,0.1-0.2,0.2-0.3c0.1-0.1,0.2-0.2,0.2-0.3c0.1-0.1,0.2-0.2,0.2-0.3c0.1-0.1,0.2-0.2,0.2-0.3c0.1-0.1,0.2-0.2,0.3-0.3
			c0.1-0.1,0.2-0.2,0.3-0.3c0.1-0.1,0.2-0.2,0.3-0.3c0.1-0.1,0.2-0.2,0.3-0.3c0.1-0.1,0.2-0.2,0.3-0.3s0.2-0.2,0.3-0.3
			c0.1-0.1,0.2-0.2,0.3-0.3c0.1-0.1,0.2-0.2,0.3-0.3c0.1-0.1,0.2-0.2,0.3-0.3c0.1-0.1,0.2-0.2,0.3-0.3c0.1-0.1,0.2-0.2,0.3-0.3
			c0.1-0.1,0.2-0.2,0.4-0.3c0.1-0.1,0.2-0.2,0.4-0.3c0.1-0.1,0.2-0.2,0.4-0.3c0.1-0.1,0.3-0.2,0.4-0.3c0.1-0.1,0.3-0.2,0.4-0.3
			c0.1-0.1,0.3-0.2,0.4-0.3c0.1-0.1,0.3-0.2,0.4-0.3c0.1-0.1,0.3-0.2,0.4-0.3c0.1-0.1,0.3-0.2,0.4-0.2c0.1-0.1,0.3-0.2,0.4-0.2
			c0.2-0.1,0.3-0.2,0.5-0.2c0.2-0.1,0.3-0.2,0.5-0.2c0.2-0.1,0.3-0.2,0.5-0.2c0.2-0.1,0.3-0.2,0.5-0.2c0.2-0.1,0.3-0.1,0.5-0.2
			s0.3-0.1,0.5-0.2s0.3-0.1,0.5-0.2s0.4-0.1,0.5-0.2c0.2-0.1,0.4-0.1,0.6-0.2c0.2-0.1,0.4-0.1,0.6-0.2c0.2-0.1,0.4-0.1,0.6-0.2
			c0.2-0.1,0.4-0.1,0.6-0.2c0.2-0.1,0.4-0.1,0.6-0.2s0.4-0.1,0.6-0.2c0.2-0.1,0.4-0.1,0.6-0.2c0.2-0.1,0.4-0.1,0.6-0.1
			c0.2,0,0.4-0.1,0.7-0.1c0.2,0,0.4-0.1,0.7-0.1c0.2,0,0.4-0.1,0.7-0.1c0.2,0,0.5-0.1,0.7-0.1c0.2,0,0.5-0.1,0.7-0.1
			s0.5-0.1,0.7-0.1s0.5-0.1,0.7-0.1s0.5-0.1,0.7-0.1c0.3,0,0.5,0,0.8-0.1c0.3,0,0.5,0,0.8-0.1c0.3,0,0.5,0,0.8,0c0.1,0,0.2,0,0.4,0
			c0.1,0,0.2,0,0.4,0c0.1,0,0.2,0,0.4,0c0.1,0,0.2,0,0.4,0c0.1,0,0.2,0,0.4,0c0.1,0,0.2,0,0.4,0c0.1,0,0.2,0,0.4,0
			c0.1,0,0.2,0,0.4,0c0.1,0,0.2,0,0.4,0c0.1,0,0.2,0,0.4,0c0.1,0,0.2,0,0.4,0c0.1,0,0.2,0,0.4,0c0.1,0,0.2,0,0.4,0
			c0.1,0,0.2,0,0.4,0c0.1,0,0.2,0,0.4,0c0.1,0,0.2,0,0.4,0s0.2,0,0.4,0c0.1,0,0.2,0,0.4,0c0.1,0,0.2,0,0.4,0c0.1,0,0.2,0,0.4,0
			c0.1,0,0.2,0,0.4,0c0.1,0,0.2,0,0.4,0c0.1,0,0.2,0,0.4,0c0.1,0,0.2,0,0.4,0c0.1,0,0.2,0,0.3,0c0.1,0,0.2,0,0.3,0
			c0.1,0,0.2,0,0.3,0c0.1,0,0.2,0,0.3,0c0.1,0,0.2,0,0.3,0c0.1,0,0.2,0,0.3,0c0.1,0,0.2,0,0.3,0c0.1,0,0.2,0,0.3,0
			c0.1,0,0.2,0,0.3,0c0.1,0,0.2,0,0.3,0c0.1,0,0.2,0,0.3,0c0.1,0,0.2,0,0.3,0c0.1,0,0.2,0,0.3,0c0.1,0,0.2,0,0.3,0
			c0.1,0,0.2,0,0.3,0c0.1,0,0.2,0,0.3,0c0.1,0,0.2,0,0.3,0c0.1,0,0.2,0,0.3,0c0.1,0,0.2,0,0.3,0c0.1,0,0.2,0,0.3,0
			c0.1,0,0.2,0,0.3,0c0.1,0,0.2,0,0.3,0c0.1,0,0.2,0,0.3,0c0.1,0,0.2,0,0.3,0c0.1,0,0.2,0,0.3,0c0.1,0,0.2,0,0.3,0
			c0.1,0,0.2,0,0.3,0c0.1,0,0.2,0,0.3,0c0.1,0,0.2,0,0.3,0c0.1,0,0.2,0,0.3,0c0.1,0,0.2,0,0.3,0s0.2,0,0.3,0c0.1,0,0.2,0,0.3,0
			c0.1,0,0.2,0,0.3,0c0.1,0,0.2,0,0.3,0c0.1,0,0.2,0,0.3,0c0.1,0,0.2,0,0.3,0c0.1,0,0.2,0,0.3,0c0.1,0,0.2,0,0.3,0
			c0.1,0,0.2,0,0.3,0c0-0.1,0-0.3-0.1-0.4c0-0.1,0-0.3-0.1-0.4c0-0.1,0-0.3-0.1-0.4c0-0.1-0.1-0.3-0.1-0.4s-0.1-0.3-0.1-0.4
			c0-0.1-0.1-0.3-0.1-0.4c0-0.1-0.1-0.3-0.1-0.4S90,62.6,90,62.5c0-0.1-0.1-0.3-0.1-0.4c0-0.1-0.1-0.3-0.1-0.4
			c0-0.1-0.1-0.3-0.1-0.4c0-0.1-0.1-0.3-0.1-0.4c0-0.1-0.1-0.3-0.1-0.4c0-0.1-0.1-0.3-0.1-0.4c0-0.1-0.1-0.3-0.1-0.4
			c0-0.1-0.1-0.3-0.1-0.4c0-0.1-0.1-0.3-0.2-0.4c-0.1-0.1-0.1-0.3-0.2-0.4s-0.1-0.3-0.2-0.4c-0.1-0.1-0.1-0.3-0.2-0.4
			c-0.1-0.1-0.1-0.3-0.2-0.4c-0.1-0.1-0.1-0.3-0.2-0.4c-0.1-0.1-0.1-0.2-0.2-0.4c-0.1-0.1-0.1-0.2-0.2-0.4c-0.1-0.1-0.1-0.2-0.2-0.4
			s-0.1-0.2-0.2-0.4c-0.1-0.1-0.1-0.2-0.2-0.4c-0.1-0.1-0.2-0.2-0.2-0.4c-0.1-0.1-0.2-0.2-0.2-0.3c-0.1-0.1-0.2-0.2-0.2-0.3
			c-0.1-0.1-0.2-0.2-0.3-0.3c-0.1-0.1-0.2-0.2-0.3-0.3c-0.1-0.1-0.2-0.2-0.3-0.3c-0.1-0.1-0.2-0.2-0.3-0.3c-0.1-0.1-0.2-0.2-0.3-0.3
			c-0.1-0.1-0.2-0.2-0.3-0.3c-0.1-0.1-0.2-0.2-0.3-0.3c-0.1-0.1-0.2-0.2-0.3-0.3c-0.1-0.1-0.2-0.2-0.3-0.3c-0.1-0.1-0.2-0.2-0.3-0.3
			c-0.1-0.1-0.2-0.2-0.3-0.3c-0.1-0.1-0.2-0.2-0.4-0.3c-0.1-0.1-0.2-0.2-0.4-0.3c-0.1-0.1-0.2-0.2-0.4-0.3c-0.1-0.1-0.3-0.2-0.4-0.2
			c0.6,3.5,0.5,3.5,0.3,3.4c-0.1-0.1-0.3-0.2-0.4-0.2c-0.1-0.1-0.3-0.1-0.4-0.2c-0.1-0.1-0.3-0.1-0.4-0.2c-0.1-0.1-0.3-0.1-0.4-0.2
			c-0.1-0.1-0.3-0.1-0.4-0.2c-0.1-0.1-0.3-0.1-0.5-0.2s-0.3-0.1-0.5-0.2c-0.2-0.1-0.3-0.1-0.5-0.2c-0.2,0-0.3-0.1-0.5-0.1
			s-0.3-0.1-0.5-0.1S77,51,76.8,51s-0.3-0.1-0.5-0.1s-0.4-0.1-0.5-0.1s-0.4-0.1-0.5-0.1c-0.2,0-0.4,0-0.6-0.1c-0.2,0-0.4,0-0.6-0.1
			c-0.2,0-0.4,0-0.6,0s-0.4,0-0.6,0s-0.4,0-0.5,0s-0.4,0-0.5,0c-0.2,0-0.4,0-0.5,0c-0.2,0-0.3,0-0.5,0s-0.3,0-0.5,0s-0.3,0-0.5,0
			s-0.3,0-0.5,0s-0.3,0-0.5,0s-0.3,0-0.5,0s-0.3,0-0.5,0s-0.3,0-0.5,0.1c-0.2,0-0.3,0-0.4,0.1c-0.1,0-0.3,0-0.4,0.1
			c-0.1,0-0.3,0-0.4,0.1c-0.1,0-0.3,0.1-0.4,0.1s-0.3,0.1-0.4,0.1s-0.3,0.1-0.4,0.1s-0.3,0.1-0.4,0.1s-0.3,0.1-0.4,0.1
			s-0.3,0.1-0.4,0.1c-0.1,0-0.3,0.1-0.4,0.1c-0.1,0-0.2,0.1-0.4,0.1c-0.1,0-0.2,0.1-0.4,0.1c-0.1,0-0.2,0.1-0.4,0.1
			c-0.1,0-0.2,0.1-0.3,0.1s-0.2,0.1-0.3,0.1s-0.2,0.1-0.3,0.1s-0.2,0.1-0.3,0.1s-0.2,0.1-0.3,0.1c-0.1,0.1-0.2,0.1-0.3,0.2
			c-0.1,0.1-0.2,0.1-0.3,0.2c-0.1,0.1-0.2,0.1-0.3,0.2c-0.1,0.1-0.2,0.1-0.3,0.2c-0.1,0.1-0.2,0.1-0.3,0.2c-0.1,0.1-0.2,0.1-0.3,0.2
			c-0.1,0.1-0.2,0.1-0.3,0.2c-0.1,0.1-0.2,0.1-0.3,0.2c-0.1,0.1-0.2,0.1-0.3,0.2c-0.1,0.1-0.2,0.1-0.3,0.2c-0.1,0.1-0.2,0.1-0.2,0.2
			c-0.1,0.1-0.2,0.1-0.2,0.2c-0.1,0.1-0.2,0.1-0.2,0.2c-0.1,0.1-0.2,0.1-0.2,0.2c-0.1,0.1-0.2,0.1-0.2,0.2s-0.1,0.1-0.2,0.2
			c-0.1,0.1-0.1,0.1-0.2,0.2c-0.1,0.1-0.1,0.1-0.2,0.2s-0.1,0.1-0.2,0.2c-0.1,0.1-0.1,0.1-0.2,0.2c-0.1,0.1-0.1,0.1-0.2,0.2
			c-0.1,0.1-0.1,0.1-0.2,0.2s-0.1,0.1-0.2,0.2c-0.1,0.1-0.1,0.1-0.2,0.2c-0.1,0.1-0.1,0.1-0.2,0.2c-0.1,0.1-0.1,0.1-0.2,0.2
			c-0.1,0.1-0.1,0.1-0.2,0.2c-0.1,0.1-0.1,0.1-0.2,0.2c0-0.1-0.1,0-0.1,0.1s-0.1,0.1-0.1,0.2c0,0.1-0.1,0.1-0.1,0.2
			c0,0.1-0.1,0.1-0.1,0.2c0,0.1-0.1,0.1-0.1,0.2c0,0.1-0.1,0.1-0.1,0.2c0,0.1-0.1,0.1-0.1,0.2L53,59.2l-0.2-0.1L52.6,59l-0.2-0.1
			l-0.2-0.1L52,58.7l-0.2-0.1l-0.2-0.1l-0.2-0.1l-0.2-0.1L51,58.2l0-0.2l-0.2-0.1l-0.2-0.1l-0.2-0.1l-0.2-0.1L50,57.5l-0.2-0.1
			l-0.2-0.1l-0.2-0.1l0-0.2l-0.2-0.1L49,56.8l-0.2-0.1l-0.2-0.1l-0.2-0.1l-0.2-0.1L48,56.3l-0.2-0.1L47.7,56l-0.2-0.1l-0.2-0.1
			l-0.2-0.1L47,55.5l-0.2-0.1l-0.2-0.1l-0.2-0.1l-0.2-0.1L46.1,55l-0.2-0.1l-0.2-0.1l-0.2-0.1l-0.2-0.1l-0.2-0.1L45,54.3l-0.2-0.1
			l-0.2-0.1L44.5,54l-0.2-0.1l-0.2-0.1L44,53.7l-0.2-0.1l-0.2-0.1l-0.2-0.1l-0.2-0.1L43,53.2L42.9,53l-0.2-0.1l-0.2-0.1l-0.2-0.1
			l-0.2-0.1L42,52.4l-0.2-0.1l-0.2-0.1c0-0.1,0.1-0.2,0.1-0.2c0-0.1,0.1-0.2,0.2-0.2c0.1-0.1,0.1-0.2,0.2-0.2
			c0.1-0.1,0.1-0.2,0.2-0.3c0.1-0.1,0.1-0.2,0.2-0.3c0.1-0.1,0.1-0.2,0.2-0.3c0.1-0.1,0.1-0.2,0.2-0.3c0.1-0.1,0.1-0.2,0.2-0.3
			c0.1-0.1,0.1-0.2,0.2-0.3c0.1-0.1,0.2-0.2,0.2-0.3c0.1-0.1,0.2-0.2,0.2-0.3c0.1-0.1,0.2-0.2,0.2-0.3c0.1-0.1,0.2-0.2,0.3-0.3
			s0.2-0.2,0.3-0.3s0.2-0.2,0.3-0.3s0.2-0.2,0.3-0.3s0.2-0.2,0.3-0.3s0.2-0.2,0.3-0.3s0.2-0.2,0.3-0.3s0.2-0.2,0.3-0.3
			s0.2-0.2,0.3-0.3s0.2-0.2,0.4-0.3s0.2-0.2,0.4-0.3c0.1-0.1,0.2-0.2,0.4-0.3c0.1-0.1,0.3-0.2,0.4-0.3c0.1-0.1,0.3-0.2,0.4-0.3
			c0.1-0.1,0.3-0.2,0.4-0.3c0.1-0.1,0.3-0.2,0.4-0.3c0.1-0.1,0.3-0.2,0.4-0.3c0.1-0.1,0.3-0.2,0.4-0.3c0.2-0.1,0.3-0.2,0.5-0.3
			s0.3-0.2,0.5-0.3s0.3-0.2,0.5-0.3s0.3-0.2,0.5-0.3s0.3-0.2,0.5-0.3s0.3-0.2,0.5-0.3s0.4-0.2,0.5-0.3c0.2-0.1,0.4-0.2,0.5-0.3
			c0.2-0.1,0.4-0.2,0.6-0.3s0.4-0.2,0.6-0.3c0.2-0.1,0.4-0.2,0.6-0.3c0.2-0.1,0.4-0.2,0.6-0.3c0.2-0.1,0.4-0.2,0.6-0.2
			c0.2-0.1,0.4-0.2,0.6-0.2c0.2-0.1,0.4-0.2,0.6-0.2c0.2-0.1,0.4-0.1,0.7-0.2c0.2-0.1,0.4-0.1,0.7-0.2c0.2-0.1,0.5-0.1,0.7-0.2
			c0.2-0.1,0.5-0.1,0.7-0.2c0.2-0.1,0.5-0.1,0.7-0.2c0.2-0.1,0.5-0.1,0.7-0.2c0.2-0.1,0.5-0.1,0.7-0.1s0.5-0.1,0.8-0.1
			c0.3,0,0.5-0.1,0.8-0.1s0.5-0.1,0.8-0.1s0.5-0.1,0.8-0.1s0.5-0.1,0.8-0.1s0.6,0,0.8-0.1c0.3,0,0.6,0,0.8-0.1c0.3,0,0.6,0,0.9,0
			s0.6,0,0.9,0s0.6,0,0.9,0s0.6,0,0.9,0s0.6,0,0.9,0s0.6,0,0.9,0s0.6,0,0.9,0.1c0.3,0,0.6,0.1,0.8,0.1c0.3,0,0.6,0.1,0.8,0.1
			c0.3,0,0.6,0.1,0.8,0.1c0.3,0,0.5,0.1,0.8,0.1s0.5,0.1,0.8,0.2c0.3,0.1,0.5,0.1,0.8,0.2c0.3,0.1,0.5,0.1,0.8,0.2s0.5,0.1,0.8,0.2
			c0.3,0.1,0.5,0.1,0.8,0.2c0.3,0.1,0.5,0.2,0.8,0.2c0.2,0.1,0.5,0.2,0.7,0.3s0.5,0.2,0.7,0.3s0.5,0.2,0.7,0.3s0.5,0.2,0.7,0.3
			s0.5,0.2,0.7,0.3s0.5,0.2,0.7,0.3s0.5,0.2,0.7,0.4c0.2,0.1,0.4,0.3,0.7,0.4c0.2,0.1,0.4,0.3,0.7,0.4c0.2,0.1,0.4,0.3,0.6,0.4
			c0.2,0.1,0.4,0.3,0.6,0.4c0.2,0.1,0.4,0.3,0.6,0.4c0.2,0.2,0.4,0.3,0.6,0.5s0.4,0.3,0.6,0.5s0.4,0.3,0.6,0.5s0.4,0.3,0.6,0.5
			s0.4,0.3,0.6,0.5s0.4,0.4,0.5,0.5c0.2,0.2,0.4,0.4,0.5,0.6c0.2,0.2,0.4,0.4,0.5,0.6c0.2,0.2,0.3,0.4,0.5,0.6
			c0.2,0.2,0.3,0.4,0.5,0.6c0.2,0.2,0.3,0.4,0.5,0.6c0.2,0.2,0.3,0.4,0.5,0.6s0.3,0.4,0.5,0.6c0.2,0.2,0.3,0.4,0.4,0.7
			c0.1,0.2,0.3,0.4,0.4,0.7c0.1,0.2,0.3,0.5,0.4,0.7s0.3,0.5,0.4,0.7s0.3,0.5,0.4,0.7s0.3,0.5,0.4,0.7s0.2,0.5,0.4,0.7
			c0.1,0.3,0.2,0.5,0.3,0.8c0.1,0.3,0.2,0.5,0.3,0.8c0.1,0.3,0.2,0.5,0.3,0.8c0.1,0.3,0.2,0.5,0.3,0.8c0.1,0.3,0.2,0.5,0.3,0.8
			c0.1,0.3,0.2,0.5,0.3,0.8c0.1,0.3,0.2,0.6,0.3,0.8c0.1,0.3,0.2,0.6,0.2,0.9c0.1,0.3,0.2,0.6,0.2,0.9c0.1,0.3,0.1,0.6,0.2,0.9
			c0.1,0.3,0.1,0.6,0.2,0.9c0.1,0.3,0.1,0.6,0.2,0.9s0.1,0.6,0.2,0.9s0.1,0.6,0.2,0.9s0.1,0.6,0.1,0.9s0.1,0.6,0.1,0.9
			s0.1,0.6,0.1,1c0,0.3,0.1,0.6,0.1,1c0,0.3,0.1,0.7,0.1,1s0,0.7,0.1,1c0.3,0.1,0.6,0.3,0.9,0.4s0.6,0.3,0.9,0.4s0.6,0.3,0.9,0.4
			s0.6,0.3,0.9,0.4s0.6,0.3,0.9,0.4c0.3,0.2,0.6,0.3,0.9,0.5s0.6,0.3,0.8,0.5c0.3,0.2,0.6,0.3,0.8,0.5c0.3,0.2,0.5,0.3,0.8,0.5
			s0.5,0.3,0.8,0.5s0.5,0.4,0.8,0.5c0.3,0.2,0.5,0.4,0.8,0.5c0.3,0.2,0.5,0.4,0.7,0.6s0.5,0.4,0.7,0.6s0.5,0.4,0.7,0.6
			s0.5,0.4,0.7,0.6s0.5,0.4,0.7,0.6s0.4,0.4,0.7,0.6c0.2,0.2,0.4,0.4,0.6,0.6s0.4,0.4,0.6,0.6s0.4,0.4,0.6,0.7
			c0.2,0.2,0.4,0.4,0.6,0.7c0.2,0.2,0.4,0.4,0.6,0.7c0.2,0.2,0.4,0.5,0.6,0.7s0.4,0.5,0.5,0.7c0.2,0.2,0.3,0.5,0.5,0.7
			s0.3,0.5,0.5,0.7s0.3,0.5,0.5,0.7s0.3,0.5,0.5,0.7s0.3,0.5,0.4,0.7s0.3,0.5,0.4,0.8s0.3,0.5,0.4,0.8s0.3,0.5,0.4,0.8
			s0.3,0.5,0.4,0.8s0.2,0.5,0.4,0.8c0.1,0.3,0.2,0.5,0.3,0.8s0.2,0.5,0.3,0.8s0.2,0.5,0.3,0.8s0.2,0.5,0.3,0.8s0.2,0.6,0.3,0.8
			c0.1,0.3,0.2,0.6,0.2,0.8c0.1,0.3,0.2,0.6,0.2,0.8c0.1,0.3,0.1,0.6,0.2,0.9c0.1,0.3,0.1,0.6,0.2,0.9c0.1,0.3,0.1,0.6,0.2,0.9
			c0.1,0.3,0.1,0.6,0.1,0.9s0.1,0.6,0.1,0.9s0.1,0.6,0.1,0.9s0.1,0.6,0.1,0.9s0,0.6,0.1,0.9c0,0.3,0,0.6,0,0.9s0,0.6,0,0.9
			s0,0.6,0,0.9s0,0.6,0,0.9s0,0.6,0,0.9s0,0.6-0.1,0.9c0,0.3,0,0.6-0.1,0.9c0,0.3-0.1,0.6-0.1,0.9s-0.1,0.6-0.1,1
			c0,0.3-0.1,0.6-0.1,1c0,0.3-0.1,0.6-0.2,1c-0.1,0.3-0.1,0.6-0.2,1c-0.1,0.3-0.1,0.6-0.2,1c-0.1,0.3-0.1,0.6-0.2,1
			c-0.1,0.2-0.1,0.5-0.2,0.7c-0.1,0.2-0.1,0.5-0.2,0.7c-0.1,0.2-0.1,0.5-0.2,0.7c-0.1,0.2-0.1,0.5-0.2,0.7c-0.1,0.2-0.2,0.5-0.2,0.7
			c-0.1,0.2-0.2,0.5-0.2,0.7c-0.1,0.2-0.2,0.5-0.3,0.7s-0.2,0.5-0.3,0.7c-0.1,0.2-0.2,0.5-0.3,0.7c-0.1,0.2-0.2,0.5-0.3,0.7
			c-0.1,0.2-0.2,0.5-0.3,0.7c-0.1,0.2-0.2,0.5-0.3,0.7c-0.1,0.2-0.2,0.4-0.3,0.7c-0.1,0.2-0.2,0.4-0.4,0.7c-0.1,0.2-0.2,0.4-0.4,0.7
			s-0.3,0.4-0.4,0.7c-0.1,0.2-0.3,0.4-0.4,0.7c-0.1,0.2-0.3,0.4-0.4,0.7c-0.1,0.2-0.3,0.4-0.4,0.6c-0.1,0.2-0.3,0.4-0.4,0.6
			c-0.1,0.2-0.3,0.4-0.4,0.6c-0.1,0.2-0.3,0.4-0.5,0.6c-0.2,0.2-0.3,0.4-0.5,0.6c-0.2,0.2-0.3,0.4-0.5,0.6c-0.2,0.2-0.3,0.4-0.5,0.6
			c-0.2,0.2-0.3,0.4-0.5,0.6c-0.2,0.2-0.3,0.4-0.5,0.6c-0.2,0.2-0.3,0.4-0.5,0.6c-0.2,0.2-0.3,0.4-0.5,0.6c-0.2,0.2-0.4,0.4-0.5,0.6
			c-0.2,0.2-0.4,0.4-0.5,0.6c-0.2,0.2-0.4,0.4-0.6,0.6c-0.2,0.2-0.4,0.4-0.6,0.6c-0.2,0.2-0.4,0.4-0.6,0.6c-0.2,0.2-0.4,0.4-0.6,0.6
			c-0.2,0.2-0.4,0.4-0.6,0.5c-0.2,0.2-0.4,0.4-0.6,0.5c-0.2,0.2-0.4,0.4-0.6,0.5c-0.2,0.2-0.4,0.3-0.6,0.5s-0.4,0.3-0.6,0.5
			s-0.4,0.3-0.6,0.5s-0.4,0.3-0.6,0.5s-0.4,0.3-0.7,0.5s-0.4,0.3-0.7,0.5c-0.2,0.2-0.4,0.3-0.7,0.5s-0.4,0.3-0.7,0.5
			c-0.2,0.2-0.5,0.3-0.7,0.4c-0.2,0.1-0.5,0.3-0.7,0.4c-0.2,0.1-0.5,0.3-0.7,0.4c-0.2,0.1-0.5,0.3-0.7,0.4s-0.5,0.3-0.7,0.4
			c-0.2,0.1-0.5,0.3-0.7,0.4c-0.2,0.1-0.5,0.3-0.7,0.4c-0.2,0.1-0.5,0.3-0.7,0.4c-0.2,0.1-0.5,0.2-0.7,0.4c-0.2,0.1-0.5,0.2-0.7,0.3
			s-0.5,0.2-0.7,0.3s-0.5,0.2-0.7,0.3s-0.5,0.2-0.7,0.3s-0.5,0.2-0.8,0.3s-0.5,0.2-0.8,0.3s-0.5,0.2-0.8,0.3s-0.5,0.2-0.8,0.3
			s-0.5,0.2-0.8,0.3c-0.1,0-0.2,0.1-0.3,0.1c-0.1,0-0.2,0.1-0.3,0.1c-0.1,0-0.2,0.1-0.4,0.1c-0.1,0-0.2,0.1-0.4,0.1
			c-0.1,0-0.2,0.1-0.4,0.1c-0.1,0-0.2,0.1-0.4,0.1c-0.1,0-0.2,0.1-0.4,0.1s-0.2,0.1-0.4,0.1c-0.1,0-0.2,0.1-0.4,0.1
			c-0.1,0-0.2,0.1-0.4,0.1c-0.1,0-0.2,0.1-0.4,0.1c-0.1,0-0.2,0.1-0.4,0.1c-0.1,0-0.3,0.1-0.4,0.1s-0.3,0.1-0.4,0.1
			s-0.3,0.1-0.4,0.1s-0.3,0.1-0.4,0.1s-0.3,0.1-0.4,0.1s-0.3,0.1-0.4,0.1s-0.3,0.1-0.4,0.1s-0.3,0.1-0.4,0.1s-0.3,0.1-0.4,0.1
			s-0.3,0.1-0.4,0.1s-0.3,0.1-0.4,0.1s-0.3,0.1-0.4,0.1s-0.3,0.1-0.4,0.1s-0.3,0.1-0.4,0.1s-0.3,0.1-0.4,0.1s-0.3,0-0.4,0.1
			c-0.1,0-0.3,0-0.4,0.1c-0.1,0-0.3,0-0.4,0.1c-0.1,0-0.3,0-0.4,0.1c-0.1,0-0.3,0-0.4,0.1c-0.1,0-0.3,0-0.4,0.1
			c-0.1,0-0.3,0-0.4,0.1c-0.1,0-0.3,0-0.4,0.1c-0.1,0-0.3,0-0.4,0.1c-0.1,0-0.3,0-0.4,0.1c-0.1,0-0.3,0-0.4,0.1
			c-0.1,0-0.3,0-0.4,0.1c-0.1,0-0.3,0-0.4,0.1c-0.1,0-0.3,0-0.4,0.1s-0.3,0-0.4,0s-0.3,0-0.4,0s-0.3,0-0.4,0s-0.3,0-0.4,0
			s-0.3,0-0.4,0s-0.3,0-0.4,0s-0.3,0-0.4,0s-0.3,0-0.4,0s-0.3,0-0.4,0s-0.3,0-0.4,0c-0.2,0-0.3,0-0.5,0s-0.3,0-0.5,0s-0.3,0-0.5,0
			s-0.3,0-0.5,0s-0.3,0-0.5,0s-0.3,0-0.5,0s-0.3,0-0.5,0s-0.3,0-0.5,0s-0.3,0-0.5,0s-0.3,0-0.5,0s-0.3,0-0.5,0s-0.3,0-0.5,0
			C69.9,158.4,69.7,158.4,69.6,158.4z M76.2,81.3c-0.1,0-0.2,0-0.4,0c-0.1,0-0.3,0-0.4,0s-0.3,0-0.4,0s-0.3,0-0.4,0s-0.3,0-0.4,0
			s-0.3,0-0.4,0s-0.3,0-0.4,0s-0.3,0-0.4,0s-0.3,0-0.4,0s-0.3,0-0.4,0s-0.3,0-0.4,0s-0.3,0-0.4,0s-0.3,0-0.4,0s-0.3,0-0.4,0
			s-0.3,0-0.4,0s-0.3,0-0.4,0s-0.3,0-0.4,0s-0.3,0-0.4,0s-0.3,0-0.4,0s-0.3,0-0.4,0s-0.3,0-0.4,0s-0.3,0-0.4,0s-0.3,0-0.4,0.1
			s-0.3,0-0.4,0.1c-0.1,0-0.3,0-0.4,0.1c-0.1,0-0.3,0-0.4,0.1c-0.1,0-0.3,0-0.4,0.1c-0.1,0-0.3,0-0.4,0.1c-0.1,0-0.3,0.1-0.4,0.1
			s-0.3,0.1-0.4,0.1s-0.3,0.1-0.4,0.1c-0.1,0-0.3,0.1-0.4,0.1c-0.1,0-0.3,0.1-0.4,0.1c-0.1,0-0.2,0.1-0.4,0.1
			c-0.1,0-0.2,0.1-0.4,0.1c-0.1,0-0.2,0.1-0.4,0.1c-0.1,0-0.2,0.1-0.4,0.1s-0.2,0.1-0.4,0.1c-0.1,0-0.2,0.1-0.4,0.1
			c-0.1,0-0.2,0.1-0.3,0.1s-0.2,0.1-0.3,0.1s-0.2,0.1-0.3,0.1c-0.1,0.1-0.2,0.1-0.3,0.2s-0.2,0.1-0.3,0.2s-0.2,0.1-0.3,0.2
			s-0.2,0.1-0.3,0.2s-0.2,0.1-0.3,0.2s-0.2,0.1-0.3,0.2s-0.2,0.1-0.3,0.2s-0.2,0.1-0.3,0.2S57.1,85,57,85.1s-0.2,0.1-0.3,0.2
			s-0.2,0.1-0.3,0.2s-0.2,0.2-0.3,0.2c-0.1,0.1-0.2,0.2-0.3,0.2c-0.1,0.1-0.2,0.2-0.3,0.2c-0.1,0.1-0.2,0.2-0.2,0.3
			c-0.1,0.1-0.2,0.2-0.2,0.3c-0.1,0.1-0.2,0.2-0.2,0.3c-0.1,0.1-0.2,0.2-0.2,0.3c-0.1,0.1-0.1,0.2-0.2,0.3c-0.1,0.1-0.1,0.2-0.2,0.3
			c-0.1,0.1-0.1,0.2-0.2,0.3c-0.1,0.1-0.1,0.2-0.2,0.3l-0.1,0.1c0,0-0.1,0.1-0.1,0.2s-0.1,0.1-0.1,0.2s-0.1,0.1-0.1,0.2
			s0,0.1-0.1,0.2c0,0.1,0,0.1-0.1,0.2c0,0.1,0,0.1-0.1,0.2c0,0.1,0,0.1-0.1,0.2c0,0.1,0,0.1-0.1,0.2c0,0.1,0,0.1-0.1,0.2
			c0,0.1,0,0.1-0.1,0.2c0,0.1,0,0.1-0.1,0.2c0,0.1,0,0.1-0.1,0.2c0,0.1,0,0.1-0.1,0.2c0,0.1,0,0.1,0,0.2s0,0.1,0,0.2s0,0.1,0,0.2
			s0,0.1,0,0.2s0,0.1,0,0.2s0,0.1,0,0.2s0,0.1,0,0.2s0,0.1,0,0.2s0,0.1,0,0.2s0,0.1,0,0.2s0,0.1,0,0.2s0,0.1,0,0.2s0,0.1,0,0.2
			s0,0.1,0,0.2s0,0.1,0,0.2s0,0.1,0,0.2s0,0.1,0,0.2s0,0.1,0,0.2s0,0.1,0,0.2s0,0.1,0,0.2s0,0.1,0,0.2s0,0.1,0,0.2s0,0.1,0,0.2
			s0,0.1,0,0.2s0,0.1,0,0.2s0,0.1,0,0.2s0,0.1,0,0.2s0,0.1,0,0.2s0,0.1,0,0.2s0,0.1,0,0.2s0,0.1,0,0.2s0,0.1,0,0.2s0,0.1,0,0.2
			s0,0.1,0,0.2s0,0.1,0,0.2s0,0.1,0,0.2s0,0.1,0,0.2s0,0.1,0,0.2s0,0.1,0.1,0.2c0,0.1,0,0.1,0.1,0.2c0,0.1,0,0.1,0.1,0.2
			c0,0.1,0,0.1,0.1,0.2c0,0.1,0,0.1,0.1,0.2c0,0.1,0,0.1,0.1,0.2c0,0.1,0,0.1,0.1,0.2c0,0.1,0,0.1,0.1,0.2s0,0.1,0.1,0.2
			c0,0.1,0,0.1,0.1,0.2c0,0.1,0.1,0.1,0.1,0.2s0.1,0.1,0.1,0.2c0.1,0.1,0.1,0.2,0.2,0.3c0.1,0.1,0.1,0.2,0.2,0.3
			c0.1,0.1,0.1,0.2,0.2,0.3c0.1,0.1,0.1,0.2,0.2,0.3c0.1,0.1,0.1,0.2,0.2,0.3c0.1,0.1,0.2,0.2,0.2,0.3c0.1,0.1,0.2,0.2,0.3,0.3
			c0.1,0.1,0.2,0.2,0.3,0.3c0.1,0.1,0.2,0.2,0.3,0.3c0.1,0.1,0.2,0.2,0.3,0.3c0.1,0.1,0.2,0.2,0.3,0.3c0.1,0.1,0.2,0.2,0.3,0.3
			c0.1,0.1,0.2,0.2,0.3,0.2c0.1,0.1,0.2,0.2,0.3,0.2c0.1,0.1,0.2,0.2,0.3,0.2c0.1,0.1,0.2,0.2,0.3,0.2c0.1,0.1,0.2,0.1,0.4,0.2
			c0.1,0.1,0.2,0.1,0.4,0.2c0.1,0.1,0.2,0.1,0.4,0.2c0.1,0.1,0.3,0.1,0.4,0.2c0.1,0.1,0.3,0.1,0.4,0.2c0.1,0.1,0.3,0.1,0.4,0.2
			c0.1,0.1,0.3,0.1,0.4,0.2c0.1,0.1,0.3,0.1,0.4,0.2c0.1,0.1,0.3,0.1,0.4,0.2c0.1,0.1,0.3,0.1,0.4,0.2c0.1,0.1,0.3,0.1,0.4,0.1
			c0.1,0,0.3,0.1,0.4,0.1c0.1,0,0.3,0.1,0.4,0.1c0.1,0,0.3,0.1,0.4,0.1c0.1,0,0.3,0.1,0.4,0.1c0.1,0,0.3,0.1,0.5,0.1
			s0.3,0.1,0.5,0.1s0.3,0.1,0.5,0.1s0.3,0.1,0.5,0.1s0.3,0.1,0.5,0.1s0.3,0,0.5,0.1c0.2,0,0.3,0,0.5,0.1c0.2,0,0.3,0,0.5,0.1
			c0.2,0,0.3,0,0.5,0s0.3,0,0.5,0s0.3,0,0.5,0s0.3,0,0.5,0s0.3,0,0.5,0s0.3,0,0.5,0s0.3,0,0.5,0s0.3,0,0.5,0s0.3,0,0.5,0
			s0.3,0,0.5,0s0.3,0,0.5,0s0.3,0,0.5-0.1c0.2,0,0.3,0,0.5-0.1c0.2,0,0.3,0,0.5-0.1c0.2,0,0.3-0.1,0.5-0.1s0.3-0.1,0.5-0.1
			s0.3-0.1,0.5-0.1s0.3-0.1,0.5-0.1s0.3-0.1,0.4-0.1s0.3-0.1,0.4-0.1s0.3-0.1,0.4-0.1s0.3-0.1,0.4-0.2s0.3-0.1,0.4-0.2
			s0.3-0.1,0.4-0.2s0.3-0.1,0.4-0.2c0.1,0,0.2-0.1,0.3-0.2c0.1-0.1,0.2-0.1,0.3-0.2c0.1-0.1,0.2-0.1,0.3-0.2
			c0.1-0.1,0.2-0.1,0.3-0.2c0.1-0.1,0.2-0.1,0.3-0.2c0.1-0.1,0.2-0.1,0.3-0.2c0.1-0.1,0.2-0.1,0.3-0.2c0.1-0.1,0.2-0.1,0.3-0.2
			c0.1-0.1,0.2-0.1,0.3-0.2c0.1-0.1,0.2-0.1,0.3-0.2c0.1-0.1,0.2-0.1,0.3-0.2c0.1-0.1,0.2-0.2,0.3-0.2c0.1-0.1,0.2-0.2,0.3-0.2
			c0.1-0.1,0.2-0.2,0.3-0.2c0.1-0.1,0.2-0.2,0.3-0.3c0.1-0.1,0.2-0.2,0.3-0.3c0.1-0.1,0.2-0.2,0.3-0.3c0.1-0.1,0.2-0.2,0.3-0.3
			c0.1-0.1,0.2-0.2,0.2-0.3c0.1-0.1,0.2-0.2,0.2-0.3c0.1-0.1,0.2-0.2,0.2-0.3c0.1-0.1,0.2-0.2,0.2-0.3c0.1-0.1,0.2-0.2,0.2-0.3
			s0.2-0.2,0.2-0.3c0.1-0.1,0.2-0.2,0.2-0.3c0.1-0.1,0.1-0.2,0.2-0.3c0.1-0.1,0.1-0.2,0.2-0.3c0.1-0.1,0.1-0.2,0.2-0.3
			c0.1-0.1,0.1-0.2,0.2-0.3c0.1-0.1,0.1-0.2,0.2-0.3c0.1-0.1,0.1-0.2,0.2-0.4c0.1-0.1,0.1-0.2,0.2-0.4c0.1-0.1,0.1-0.2,0.2-0.4
			c0.1-0.1,0.1-0.2,0.2-0.4c0.1-0.1,0.1-0.3,0.2-0.4s0.1-0.3,0.2-0.4s0.1-0.3,0.2-0.4s0.1-0.3,0.2-0.4s0.1-0.3,0.2-0.4
			s0.1-0.3,0.2-0.4s0.1-0.3,0.2-0.4s0.1-0.3,0.2-0.4s0.1-0.3,0.1-0.4s0.1-0.3,0.1-0.4s0.1-0.3,0.1-0.4s0.1-0.3,0.1-0.4
			s0.1-0.3,0.1-0.4s0.1-0.3,0.1-0.5s0.1-0.3,0.1-0.5s0.1-0.3,0.1-0.5s0.1-0.3,0.1-0.5s0.1-0.3,0.1-0.5s0.1-0.3,0.1-0.5
			s0.1-0.3,0.1-0.5s0.1-0.3,0.1-0.5s0.1-0.3,0.1-0.5s0.1-0.3,0.1-0.5s0.1-0.3,0.1-0.5s0-0.3,0.1-0.5c0-0.2,0-0.3,0.1-0.5
			s0-0.3,0.1-0.5c0-0.2,0-0.3,0.1-0.5c0-0.2,0-0.4,0.1-0.5c0-0.2,0-0.4,0-0.5c-0.1,0-0.1,0-0.2,0s-0.1,0-0.2,0s-0.1,0-0.2,0
			s-0.1,0-0.2,0s-0.1,0-0.2,0s-0.1,0-0.2,0s-0.1,0-0.2,0s-0.1,0-0.2,0s-0.1,0-0.2,0s-0.1,0-0.2,0s-0.1,0-0.2,0s-0.2,0-0.2,0
			c-0.1,0-0.2,0-0.2,0c-0.1,0-0.2,0-0.2,0c-0.1,0-0.2,0-0.2,0c-0.1,0-0.2,0-0.2,0c-0.1,0-0.2,0-0.2,0c-0.1,0-0.2,0-0.2,0
			c-0.1,0-0.2,0-0.2,0c-0.1,0-0.2,0-0.2,0c-0.1,0-0.2,0-0.2,0c-0.1,0-0.2,0-0.2,0c-0.1,0-0.2,0-0.2,0c-0.1,0-0.2,0-0.2,0
			c-0.1,0-0.2,0-0.2,0c-0.1,0-0.2,0-0.2,0c-0.1,0-0.2,0-0.2,0c-0.1,0-0.2,0-0.2,0c-0.1,0-0.2,0-0.2,0c-0.1,0-0.2,0-0.2,0
			c-0.1,0-0.2,0-0.2,0c-0.1,0-0.2,0-0.2,0c-0.1,0-0.2,0-0.2,0c-0.1,0-0.2,0-0.2,0c-0.1,0-0.2,0-0.2,0c-0.1,0-0.2,0-0.2,0
			c-0.1,0-0.2,0-0.2,0c-0.1,0-0.2,0-0.2,0c-0.1,0-0.2,0-0.2,0c-0.1,0-0.2,0-0.2,0c-0.1,0-0.2,0-0.2,0c-0.1,0-0.2,0-0.2,0
			c-0.1,0-0.2,0-0.3,0c-0.1,0-0.2,0-0.3,0c-0.1,0-0.2,0-0.3,0c-0.1,0-0.2,0-0.3,0c-0.1,0-0.2,0-0.3,0c-0.1,0-0.2,0-0.3,0
			s-0.2,0-0.3,0c-0.1,0-0.2,0-0.3,0c-0.1,0-0.2,0-0.3,0c-0.1,0-0.2,0-0.3,0c-0.1,0-0.2,0-0.3,0c-0.1,0-0.2,0-0.3,0
			c-0.1,0-0.2,0-0.3,0c-0.1,0-0.2,0-0.3,0c-0.1,0-0.2,0-0.3,0c-0.1,0-0.2,0-0.3,0c-0.1,0-0.2,0-0.3,0c-0.1,0-0.2,0-0.3,0
			c-0.1,0-0.2,0-0.3,0c-0.1,0-0.2,0-0.3,0c-0.1,0-0.2,0-0.3,0C76.4,81.3,76.3,81.3,76.2,81.3z"/>
	</g>
</g>
</svg>
