<svg width="21" height="21" viewBox="0 0 21 21" fill="none" xmlns="http://www.w3.org/2000/svg">
<path d="M15.4806 9.73309C15.3902 9.68974 15.2983 9.64801 15.2052 9.60806C15.0431 6.62137 13.4111 4.91148 10.6708 4.89398C10.6584 4.89391 10.6461 4.89391 10.6337 4.89391C8.99461 4.89391 7.63143 5.59354 6.79241 6.86664L8.29948 7.90046C8.92627 6.9495 9.90994 6.74677 10.6344 6.74677C10.6427 6.74677 10.6511 6.74678 10.6594 6.74685C11.5617 6.7526 12.2426 7.01494 12.6832 7.52653C13.0039 7.89899 13.2184 8.41367 13.3246 9.06323C12.5246 8.92726 11.6595 8.88546 10.7346 8.93849C8.12926 9.08856 6.45434 10.6081 6.56683 12.7194C6.62391 13.7904 7.15747 14.7118 8.06914 15.3137C8.83995 15.8225 9.8327 16.0713 10.8645 16.015C12.227 15.9403 13.296 15.4205 14.0417 14.4699C14.608 13.748 14.9662 12.8125 15.1244 11.6338C15.7737 12.0257 16.255 12.5414 16.5208 13.1613C16.9727 14.2151 16.9991 15.9469 15.586 17.3587C14.348 18.5955 12.8599 19.1306 10.6109 19.1471C8.11608 19.1286 6.22932 18.3285 5.0026 16.769C3.85388 15.3088 3.26022 13.1996 3.23807 10.5C3.26022 7.80038 3.85388 5.69118 5.0026 4.23092C6.22932 2.67147 8.11605 1.87141 10.6108 1.85287C13.1237 1.87155 15.0433 2.67547 16.317 4.24244C16.9415 5.01086 17.4124 5.97721 17.7228 7.10394L19.4889 6.63274C19.1126 5.24587 18.5206 4.05078 17.7149 3.05966C16.0821 1.05073 13.694 0.0213443 10.617 0H10.6047C7.53393 0.0212702 5.17257 1.05457 3.58622 3.07117C2.17458 4.8657 1.44642 7.36265 1.42195 10.4926L1.42188 10.5L1.42195 10.5074C1.44642 13.6373 2.17458 16.1343 3.58622 17.9289C5.17257 19.9454 7.53393 20.9788 10.6047 21H10.617C13.347 20.9811 15.2714 20.2663 16.8567 18.6825C18.9307 16.6103 18.8683 14.013 18.1847 12.4185C17.6943 11.2751 16.7592 10.3465 15.4806 9.73309ZM10.7669 14.1648C9.62506 14.2291 8.43876 13.7166 8.38027 12.6188C8.33691 11.8048 8.95954 10.8966 10.837 10.7884C11.052 10.776 11.263 10.7699 11.4703 10.7699C12.1522 10.7699 12.7902 10.8362 13.3702 10.963C13.1539 13.6648 11.8849 14.1035 10.7669 14.1648Z" fill="black"/>
</svg>
