<svg width="40" height="40" viewBox="0 0 40 40" fill="none" xmlns="http://www.w3.org/2000/svg">
<rect width="40" height="40" rx="8" fill="#F7CD87"/>
<g clip-path="url(#clip0_8577_52476)">
<path d="M19.3307 18.6666H19.3407M19.3331 22.6666H19.3431M16.6666 20.6666H21.9999M24.6666 16.3333C24.6666 15.781 24.2189 15.3333 23.6666 15.3333C23.1143 15.3333 22.6666 15.781 22.6666 16.3333C22.6666 16.8855 23.1143 17.3333 23.6666 17.3333C24.2189 17.3333 24.6666 16.8855 24.6666 16.3333ZM13.8494 19.4292C13.1806 20.1761 13.1663 21.303 13.78 22.0957C14.998 23.6688 16.3311 25.0019 17.9041 26.2198C18.6969 26.8336 19.8237 26.8192 20.5707 26.1505C22.5985 24.3347 24.4556 22.4372 26.2479 20.3519C26.4251 20.1457 26.5359 19.8931 26.5607 19.6223C26.6707 18.4252 26.8967 14.9764 25.9601 14.0397C25.0235 13.1031 21.5746 13.3291 20.3775 13.4391C20.1068 13.464 19.8541 13.5748 19.6479 13.752C17.5627 15.5442 15.6651 17.4013 13.8494 19.4292Z" stroke="#191919" stroke-linecap="round" stroke-linejoin="round"/>
</g>
<defs>
<clipPath id="clip0_8577_52476">
<rect width="16" height="16" fill="white" transform="translate(12 12)"/>
</clipPath>
</defs>
</svg>
