<svg width="20" height="20" viewBox="0 0 20 20" fill="none" xmlns="http://www.w3.org/2000/svg">
<g id="star-06">
<path id="Icon" d="M3.74984 18.3334V14.1667M3.74984 5.83341V1.66675M1.6665 3.75008H5.83317M1.6665 16.2501H5.83317M14.5758 11.4452L15.0976 11.2445C16.1023 10.8581 16.6046 10.6649 16.7504 10.386C16.8767 10.1442 16.8767 9.85595 16.7504 9.61419C16.6046 9.33527 16.1023 9.14205 15.0976 8.75562L14.5758 8.55493C13.9648 8.31992 13.6592 8.20242 13.4023 8.01969C13.1745 7.85774 12.9755 7.65875 12.8136 7.43099C12.6308 7.174 12.5133 6.86849 12.2783 6.25747L12.0776 5.73568C11.6912 4.73096 11.498 4.2286 11.2191 4.08287C10.9773 3.95657 10.689 3.95657 10.4473 4.08287C10.1684 4.2286 9.97514 4.73096 9.58871 5.73568L9.38802 6.25747C9.15301 6.86849 9.03551 7.174 8.85278 7.43099C8.69083 7.65875 8.49183 7.85774 8.26407 8.01969C8.00709 8.20242 7.70158 8.31992 7.09055 8.55493L6.56877 8.75562C5.56405 9.14205 5.06169 9.33527 4.91596 9.61419C4.78966 9.85595 4.78966 10.1442 4.91596 10.386C5.06169 10.6649 5.56405 10.8581 6.56877 11.2445L7.09056 11.4452C7.70158 11.6802 8.00709 11.7977 8.26408 11.9805C8.49184 12.1424 8.69083 12.3414 8.85278 12.5692C9.03551 12.8262 9.15301 13.1317 9.38802 13.7427L9.58871 14.2645C9.97514 15.2692 10.1684 15.7716 10.4473 15.9173C10.689 16.0436 10.9773 16.0436 11.2191 15.9173C11.498 15.7716 11.6912 15.2692 12.0776 14.2645L12.2783 13.7427C12.5133 13.1317 12.6308 12.8262 12.8136 12.5692C12.9755 12.3414 13.1745 12.1424 13.4023 11.9805C13.6592 11.7977 13.9648 11.6802 14.5758 11.4452Z" stroke="#9E660A" strokeWidth="1.25" strokeLinecap="round" strokeLinejoin="round"/>
</g>
</svg>
