<svg width="56" height="49" viewBox="0 0 56 49" fill="none" xmlns="http://www.w3.org/2000/svg">
<g filter="url(#filter0_f_29_11868)">
<mask id="mask0_29_11868" style="mask-type:alpha" maskUnits="userSpaceOnUse" x="10" y="10" width="36" height="29">
<path d="M18.7296 10.0001C18.4257 10.0001 18.1343 10.1208 17.9194 10.3357L10.3356 17.9195C9.90631 18.3488 9.88638 19.0384 10.2902 19.4918L27.0487 38.3082C27.5044 38.8198 28.3044 38.8198 28.7601 38.3082L45.5184 19.4921C45.9222 19.0387 45.9023 18.349 45.473 17.9197L37.8888 10.3356C37.6739 10.1207 37.3825 10 37.0786 10L18.7296 10.0001Z" fill="#C4C4C4"/>
</mask>
<g mask="url(#mask0_29_11868)">
<g filter="url(#filter1_d_29_11868)">
<path d="M17.9341 19.9713H27.9051L22.9195 11.7695L17.9341 19.9713Z" fill="url(#paint0_linear_29_11868)"/>
<path d="M27.9051 19.9713H37.8759L32.8905 11.7695L27.9051 19.9713Z" fill="url(#paint1_linear_29_11868)"/>
<path d="M46.2386 18.6842L37.5544 10L37.8761 19.9708L46.2386 18.6842Z" fill="url(#paint2_linear_29_11868)"/>
<path d="M18.2554 10L9.5712 18.6842L17.9338 19.9708L18.2554 10Z" fill="url(#paint3_linear_29_11868)"/>
<path d="M9.5712 18.6836L27.9047 39.2684L17.9338 19.9701L9.5712 18.6836Z" fill="url(#paint4_linear_29_11868)"/>
<path d="M27.9051 39.2684L46.2385 18.6836L37.8759 19.9701L27.9051 39.2684Z" fill="url(#paint5_linear_29_11868)"/>
<path d="M27.9051 39.2709L37.8759 19.9727H27.9051V39.2709Z" fill="url(#paint6_linear_29_11868)"/>
<path d="M27.9051 39.2709V19.9727H17.9341L27.9051 39.2709Z" fill="url(#paint7_linear_29_11868)"/>
<path d="M27.905 19.9713L32.8903 11.7695H27.905H22.9194L27.905 19.9713Z" fill="url(#paint8_linear_29_11868)"/>
<path d="M18.2558 10L17.9341 19.9708L22.9195 11.769L18.2558 10Z" fill="url(#paint9_linear_29_11868)"/>
<path d="M37.8762 19.9708L37.5546 10L32.8909 11.769L37.8762 19.9708Z" fill="url(#paint10_linear_29_11868)"/>
<path d="M37.5538 10H27.9047H18.2554L22.9191 11.769H27.9047H32.8901L37.5538 10Z" fill="url(#paint11_linear_29_11868)"/>
</g>
</g>
</g>
<mask id="mask1_29_11868" style="mask-type:alpha" maskUnits="userSpaceOnUse" x="10" y="10" width="36" height="29">
<path d="M18.7296 10.0001C18.4257 10.0001 18.1343 10.1208 17.9194 10.3357L10.3356 17.9195C9.90631 18.3488 9.88638 19.0384 10.2902 19.4918L27.0487 38.3082C27.5044 38.8198 28.3044 38.8198 28.7601 38.3082L45.5184 19.4921C45.9222 19.0387 45.9023 18.349 45.473 17.9197L37.8888 10.3356C37.6739 10.1207 37.3825 10 37.0786 10L18.7296 10.0001Z" fill="#C4C4C4"/>
</mask>
<g mask="url(#mask1_29_11868)">
<g filter="url(#filter2_d_29_11868)">
<path d="M17.9341 19.9713H27.9051L22.9195 11.7695L17.9341 19.9713Z" fill="url(#paint12_linear_29_11868)"/>
<path d="M27.9051 19.9713H37.8759L32.8905 11.7695L27.9051 19.9713Z" fill="url(#paint13_linear_29_11868)"/>
<path d="M46.2386 18.6842L37.5544 10L37.8761 19.9708L46.2386 18.6842Z" fill="url(#paint14_linear_29_11868)"/>
<path d="M18.2554 10L9.5712 18.6842L17.9338 19.9708L18.2554 10Z" fill="url(#paint15_linear_29_11868)"/>
<path d="M9.5712 18.6836L27.9047 39.2684L17.9338 19.9701L9.5712 18.6836Z" fill="url(#paint16_linear_29_11868)"/>
<path d="M27.9051 39.2684L46.2385 18.6836L37.8759 19.9701L27.9051 39.2684Z" fill="url(#paint17_linear_29_11868)"/>
<path d="M27.9051 39.2709L37.8759 19.9727H27.9051V39.2709Z" fill="url(#paint18_linear_29_11868)"/>
<path d="M27.9051 39.2709V19.9727H17.9341L27.9051 39.2709Z" fill="url(#paint19_linear_29_11868)"/>
<path d="M27.905 19.9713L32.8903 11.7695H27.905H22.9194L27.905 19.9713Z" fill="url(#paint20_linear_29_11868)"/>
<path d="M18.2558 10L17.9341 19.9708L22.9195 11.769L18.2558 10Z" fill="url(#paint21_linear_29_11868)"/>
<path d="M37.8762 19.9708L37.5546 10L32.8909 11.769L37.8762 19.9708Z" fill="url(#paint22_linear_29_11868)"/>
<path d="M37.5538 10H27.9047H18.2554L22.9191 11.769H27.9047H32.8901L37.5538 10Z" fill="url(#paint23_linear_29_11868)"/>
</g>
</g>
<defs>
<filter id="filter0_f_29_11868" x="0" y="0" width="55.8086" height="48.6914" filterUnits="userSpaceOnUse" color-interpolation-filters="sRGB">
<feFlood flood-opacity="0" result="BackgroundImageFix"/>
<feBlend mode="normal" in="SourceGraphic" in2="BackgroundImageFix" result="shape"/>
<feGaussianBlur stdDeviation="5" result="effect1_foregroundBlur_29_11868"/>
</filter>
<filter id="filter1_d_29_11868" x="1.01557" y="2.66661" width="53.7787" height="46.3808" filterUnits="userSpaceOnUse" color-interpolation-filters="sRGB">
<feFlood flood-opacity="0" result="BackgroundImageFix"/>
<feColorMatrix in="SourceAlpha" type="matrix" values="0 0 0 0 0 0 0 0 0 0 0 0 0 0 0 0 0 0 127 0" result="hardAlpha"/>
<feOffset dy="1.22223"/>
<feGaussianBlur stdDeviation="4.27781"/>
<feColorMatrix type="matrix" values="0 0 0 0 0.776471 0 0 0 0 0.662745 0 0 0 0 0.960784 0 0 0 0.71 0"/>
<feBlend mode="normal" in2="BackgroundImageFix" result="effect1_dropShadow_29_11868"/>
<feBlend mode="normal" in="SourceGraphic" in2="effect1_dropShadow_29_11868" result="shape"/>
</filter>
<filter id="filter2_d_29_11868" x="1.01557" y="2.66661" width="53.7787" height="46.3808" filterUnits="userSpaceOnUse" color-interpolation-filters="sRGB">
<feFlood flood-opacity="0" result="BackgroundImageFix"/>
<feColorMatrix in="SourceAlpha" type="matrix" values="0 0 0 0 0 0 0 0 0 0 0 0 0 0 0 0 0 0 127 0" result="hardAlpha"/>
<feOffset dy="1.22223"/>
<feGaussianBlur stdDeviation="4.27781"/>
<feColorMatrix type="matrix" values="0 0 0 0 0.776471 0 0 0 0 0.662745 0 0 0 0 0.960784 0 0 0 0.71 0"/>
<feBlend mode="normal" in2="BackgroundImageFix" result="effect1_dropShadow_29_11868"/>
<feBlend mode="normal" in="SourceGraphic" in2="effect1_dropShadow_29_11868" result="shape"/>
</filter>
<linearGradient id="paint0_linear_29_11868" x1="24.0452" y1="12.7344" x2="18.7382" y2="19.9713" gradientUnits="userSpaceOnUse">
<stop stop-color="#FBD79D"/>
<stop offset="1" stop-color="#FFBF59"/>
</linearGradient>
<linearGradient id="paint1_linear_29_11868" x1="32.8905" y1="11.7695" x2="32.8905" y2="19.9713" gradientUnits="userSpaceOnUse">
<stop stop-color="#F6E9D5"/>
<stop offset="1" stop-color="#FBFBFB"/>
</linearGradient>
<linearGradient id="paint2_linear_29_11868" x1="37.5541" y1="10" x2="41.8965" y2="19.9708" gradientUnits="userSpaceOnUse">
<stop stop-color="#FFBF57"/>
<stop offset="1" stop-color="#FFD591"/>
</linearGradient>
<linearGradient id="paint3_linear_29_11868" x1="18.2554" y1="10" x2="13.9133" y2="19.9708" gradientUnits="userSpaceOnUse">
<stop stop-color="#E8A63C"/>
<stop offset="1" stop-color="#FA9D08"/>
</linearGradient>
<linearGradient id="paint4_linear_29_11868" x1="13.4308" y1="19.9701" x2="27.2401" y2="38.667" gradientUnits="userSpaceOnUse">
<stop stop-color="#FEB135"/>
<stop offset="1" stop-color="#FB9F0A"/>
</linearGradient>
<linearGradient id="paint5_linear_29_11868" x1="42.5393" y1="18.6836" x2="40.3307" y2="40.5249" gradientUnits="userSpaceOnUse">
<stop stop-color="#FFC25F"/>
<stop offset="1" stop-color="#EAA12B"/>
</linearGradient>
<linearGradient id="paint6_linear_29_11868" x1="33.051" y1="19.9727" x2="35.757" y2="38.0987" gradientUnits="userSpaceOnUse">
<stop stop-color="#FAEEDB"/>
<stop offset="1" stop-color="#EAA12B"/>
</linearGradient>
<linearGradient id="paint7_linear_29_11868" x1="23.0801" y1="19.9727" x2="33.5044" y2="34.7553" gradientUnits="userSpaceOnUse">
<stop stop-color="#FFE3B6"/>
<stop offset="1" stop-color="#FFB742"/>
</linearGradient>
<linearGradient id="paint8_linear_29_11868" x1="30.3171" y1="11.9303" x2="28.0657" y2="19.9713" gradientUnits="userSpaceOnUse">
<stop stop-color="#FBBA51"/>
<stop offset="1" stop-color="#FBD291"/>
</linearGradient>
<linearGradient id="paint9_linear_29_11868" x1="20.5072" y1="10.9649" x2="21.587" y2="19.5091" gradientUnits="userSpaceOnUse">
<stop stop-color="#FFD99C"/>
<stop offset="1" stop-color="#FAF0DF"/>
</linearGradient>
<linearGradient id="paint10_linear_29_11868" x1="35.464" y1="10.9649" x2="36.5438" y2="19.5091" gradientUnits="userSpaceOnUse">
<stop stop-color="#FFD99C"/>
<stop offset="1" stop-color="#FAF0DF"/>
</linearGradient>
<linearGradient id="paint11_linear_29_11868" x1="18.8987" y1="10.9649" x2="36.1063" y2="10.9649" gradientUnits="userSpaceOnUse">
<stop stop-color="#FDCB7A"/>
<stop offset="1" stop-color="#FFE8C2"/>
</linearGradient>
<linearGradient id="paint12_linear_29_11868" x1="24.0452" y1="12.7344" x2="18.7382" y2="19.9713" gradientUnits="userSpaceOnUse">
<stop stop-color="#FBD79D"/>
<stop offset="1" stop-color="#FFBF59"/>
</linearGradient>
<linearGradient id="paint13_linear_29_11868" x1="32.8905" y1="11.7695" x2="32.8905" y2="19.9713" gradientUnits="userSpaceOnUse">
<stop stop-color="#F6E9D5"/>
<stop offset="1" stop-color="#FBFBFB"/>
</linearGradient>
<linearGradient id="paint14_linear_29_11868" x1="37.5541" y1="10" x2="41.8965" y2="19.9708" gradientUnits="userSpaceOnUse">
<stop stop-color="#FFBF57"/>
<stop offset="1" stop-color="#FFD591"/>
</linearGradient>
<linearGradient id="paint15_linear_29_11868" x1="18.2554" y1="10" x2="13.9133" y2="19.9708" gradientUnits="userSpaceOnUse">
<stop stop-color="#E8A63C"/>
<stop offset="1" stop-color="#FA9D08"/>
</linearGradient>
<linearGradient id="paint16_linear_29_11868" x1="13.4308" y1="19.9701" x2="27.2401" y2="38.667" gradientUnits="userSpaceOnUse">
<stop stop-color="#FEB135"/>
<stop offset="1" stop-color="#FB9F0A"/>
</linearGradient>
<linearGradient id="paint17_linear_29_11868" x1="42.5393" y1="18.6836" x2="40.3307" y2="40.5249" gradientUnits="userSpaceOnUse">
<stop stop-color="#FFC25F"/>
<stop offset="1" stop-color="#EAA12B"/>
</linearGradient>
<linearGradient id="paint18_linear_29_11868" x1="33.051" y1="19.9727" x2="35.757" y2="38.0987" gradientUnits="userSpaceOnUse">
<stop stop-color="#FAEEDB"/>
<stop offset="1" stop-color="#EAA12B"/>
</linearGradient>
<linearGradient id="paint19_linear_29_11868" x1="23.0801" y1="19.9727" x2="33.5044" y2="34.7553" gradientUnits="userSpaceOnUse">
<stop stop-color="#FFE3B6"/>
<stop offset="1" stop-color="#FFB742"/>
</linearGradient>
<linearGradient id="paint20_linear_29_11868" x1="30.3171" y1="11.9303" x2="28.0657" y2="19.9713" gradientUnits="userSpaceOnUse">
<stop stop-color="#FBBA51"/>
<stop offset="1" stop-color="#FBD291"/>
</linearGradient>
<linearGradient id="paint21_linear_29_11868" x1="20.5072" y1="10.9649" x2="21.587" y2="19.5091" gradientUnits="userSpaceOnUse">
<stop stop-color="#FFD99C"/>
<stop offset="1" stop-color="#FAF0DF"/>
</linearGradient>
<linearGradient id="paint22_linear_29_11868" x1="35.464" y1="10.9649" x2="36.5438" y2="19.5091" gradientUnits="userSpaceOnUse">
<stop stop-color="#FFD99C"/>
<stop offset="1" stop-color="#FAF0DF"/>
</linearGradient>
<linearGradient id="paint23_linear_29_11868" x1="18.8987" y1="10.9649" x2="36.1063" y2="10.9649" gradientUnits="userSpaceOnUse">
<stop stop-color="#FDCB7A"/>
<stop offset="1" stop-color="#FFE8C2"/>
</linearGradient>
</defs>
</svg>
