<svg width="28" height="25" viewBox="0 0 28 25" fill="none" xmlns="http://www.w3.org/2000/svg">
<g filter="url(#filter0_f_29_11909)">
<mask id="mask0_29_11909" style="mask-type:alpha" maskUnits="userSpaceOnUse" x="5" y="5" width="18" height="15">
<path d="M9.3648 5.00004C9.21285 5.00004 9.06713 5.0604 8.95969 5.16785L5.16779 8.95974C4.95314 9.1744 4.94317 9.51922 5.14507 9.74591L13.5243 19.1541C13.7522 19.4099 14.1522 19.4099 14.38 19.1541L22.7592 9.74603C22.9611 9.51934 22.9511 9.17452 22.7365 8.95987L18.9444 5.1678C18.8369 5.06036 18.6912 5 18.5393 5L9.3648 5.00004Z" fill="#C4C4C4"/>
</mask>
<g mask="url(#mask0_29_11909)">
<g filter="url(#filter1_d_29_11909)">
<path d="M8.96704 9.98369H13.9525L11.4597 5.88281L8.96704 9.98369Z" fill="url(#paint0_linear_29_11909)"/>
<path d="M13.9525 9.98369H18.9379L16.4452 5.88281L13.9525 9.98369Z" fill="url(#paint1_linear_29_11909)"/>
<path d="M23.1193 9.3421L18.7772 5L18.938 9.98538L23.1193 9.3421Z" fill="url(#paint2_linear_29_11909)"/>
<path d="M9.12769 5L4.78558 9.3421L8.96687 9.98538L9.12769 5Z" fill="url(#paint3_linear_29_11909)"/>
<path d="M4.78558 9.34375L13.9523 19.6361L8.96687 9.98702L4.78558 9.34375Z" fill="url(#paint4_linear_29_11909)"/>
<path d="M13.9525 19.6361L23.1192 9.34375L18.9379 9.98702L13.9525 19.6361Z" fill="url(#paint5_linear_29_11909)"/>
<path d="M13.9525 19.6335L18.9379 9.98438H13.9525V19.6335Z" fill="url(#paint6_linear_29_11909)"/>
<path d="M13.9525 19.6335V9.98438H8.96704L13.9525 19.6335Z" fill="url(#paint7_linear_29_11909)"/>
<path d="M13.9525 9.98369L16.4452 5.88281H13.9525H11.4597L13.9525 9.98369Z" fill="url(#paint8_linear_29_11909)"/>
<path d="M9.12786 5L8.96704 9.98538L11.4597 5.8845L9.12786 5Z" fill="url(#paint9_linear_29_11909)"/>
<path d="M18.9381 9.98538L18.7773 5L16.4454 5.8845L18.9381 9.98538Z" fill="url(#paint10_linear_29_11909)"/>
<path d="M18.7769 5H13.9523H9.12769L11.4596 5.8845H13.9523H16.445L18.7769 5Z" fill="url(#paint11_linear_29_11909)"/>
</g>
</g>
</g>
<mask id="mask1_29_11909" style="mask-type:alpha" maskUnits="userSpaceOnUse" x="5" y="5" width="18" height="15">
<path d="M9.3648 5.00004C9.21285 5.00004 9.06713 5.0604 8.95969 5.16785L5.16779 8.95974C4.95314 9.1744 4.94317 9.51922 5.14507 9.74591L13.5243 19.1541C13.7522 19.4099 14.1522 19.4099 14.38 19.1541L22.7592 9.74603C22.9611 9.51934 22.9511 9.17452 22.7365 8.95987L18.9444 5.1678C18.8369 5.06036 18.6912 5 18.5393 5L9.3648 5.00004Z" fill="#C4C4C4"/>
</mask>
<g mask="url(#mask1_29_11909)">
<g filter="url(#filter2_d_29_11909)">
<path d="M8.96704 9.98369H13.9525L11.4597 5.88281L8.96704 9.98369Z" fill="url(#paint12_linear_29_11909)"/>
<path d="M13.9525 9.98369H18.9379L16.4452 5.88281L13.9525 9.98369Z" fill="url(#paint13_linear_29_11909)"/>
<path d="M23.1193 9.3421L18.7772 5L18.938 9.98538L23.1193 9.3421Z" fill="url(#paint14_linear_29_11909)"/>
<path d="M9.12769 5L4.78558 9.3421L8.96687 9.98538L9.12769 5Z" fill="url(#paint15_linear_29_11909)"/>
<path d="M4.78558 9.34375L13.9523 19.6361L8.96687 9.98702L4.78558 9.34375Z" fill="url(#paint16_linear_29_11909)"/>
<path d="M13.9525 19.6361L23.1192 9.34375L18.9379 9.98702L13.9525 19.6361Z" fill="url(#paint17_linear_29_11909)"/>
<path d="M13.9525 19.6335L18.9379 9.98438H13.9525V19.6335Z" fill="url(#paint18_linear_29_11909)"/>
<path d="M13.9525 19.6335V9.98438H8.96704L13.9525 19.6335Z" fill="url(#paint19_linear_29_11909)"/>
<path d="M13.9525 9.98369L16.4452 5.88281H13.9525H11.4597L13.9525 9.98369Z" fill="url(#paint20_linear_29_11909)"/>
<path d="M9.12786 5L8.96704 9.98538L11.4597 5.8845L9.12786 5Z" fill="url(#paint21_linear_29_11909)"/>
<path d="M18.9381 9.98538L18.7773 5L16.4454 5.8845L18.9381 9.98538Z" fill="url(#paint22_linear_29_11909)"/>
<path d="M18.7769 5H13.9523H9.12769L11.4596 5.8845H13.9523H16.445L18.7769 5Z" fill="url(#paint23_linear_29_11909)"/>
</g>
</g>
<defs>
<filter id="filter0_f_29_11909" x="0" y="0" width="27.9043" height="24.3477" filterUnits="userSpaceOnUse" color-interpolation-filters="sRGB">
<feFlood flood-opacity="0" result="BackgroundImageFix"/>
<feBlend mode="normal" in="SourceGraphic" in2="BackgroundImageFix" result="shape"/>
<feGaussianBlur stdDeviation="2.5" result="effect1_foregroundBlur_29_11909"/>
</filter>
<filter id="filter1_d_29_11909" x="0.50777" y="1.3333" width="26.8893" height="23.1923" filterUnits="userSpaceOnUse" color-interpolation-filters="sRGB">
<feFlood flood-opacity="0" result="BackgroundImageFix"/>
<feColorMatrix in="SourceAlpha" type="matrix" values="0 0 0 0 0 0 0 0 0 0 0 0 0 0 0 0 0 0 127 0" result="hardAlpha"/>
<feOffset dy="0.611116"/>
<feGaussianBlur stdDeviation="2.13891"/>
<feColorMatrix type="matrix" values="0 0 0 0 0.776471 0 0 0 0 0.662745 0 0 0 0 0.960784 0 0 0 0.71 0"/>
<feBlend mode="normal" in2="BackgroundImageFix" result="effect1_dropShadow_29_11909"/>
<feBlend mode="normal" in="SourceGraphic" in2="effect1_dropShadow_29_11909" result="shape"/>
</filter>
<filter id="filter2_d_29_11909" x="0.50777" y="1.3333" width="26.8893" height="23.1923" filterUnits="userSpaceOnUse" color-interpolation-filters="sRGB">
<feFlood flood-opacity="0" result="BackgroundImageFix"/>
<feColorMatrix in="SourceAlpha" type="matrix" values="0 0 0 0 0 0 0 0 0 0 0 0 0 0 0 0 0 0 127 0" result="hardAlpha"/>
<feOffset dy="0.611116"/>
<feGaussianBlur stdDeviation="2.13891"/>
<feColorMatrix type="matrix" values="0 0 0 0 0.776471 0 0 0 0 0.662745 0 0 0 0 0.960784 0 0 0 0.71 0"/>
<feBlend mode="normal" in2="BackgroundImageFix" result="effect1_dropShadow_29_11909"/>
<feBlend mode="normal" in="SourceGraphic" in2="effect1_dropShadow_29_11909" result="shape"/>
</filter>
<linearGradient id="paint0_linear_29_11909" x1="12.0226" y1="6.36527" x2="9.36909" y2="9.98369" gradientUnits="userSpaceOnUse">
<stop stop-color="#BCD1DC"/>
<stop offset="1" stop-color="#93B4C5"/>
</linearGradient>
<linearGradient id="paint1_linear_29_11909" x1="16.4452" y1="5.88281" x2="16.4452" y2="9.98369" gradientUnits="userSpaceOnUse">
<stop stop-color="#F6E9D5"/>
<stop offset="1" stop-color="#FBFBFB"/>
</linearGradient>
<linearGradient id="paint2_linear_29_11909" x1="18.777" y1="5" x2="20.9482" y2="9.98538" gradientUnits="userSpaceOnUse">
<stop stop-color="#92B3C4"/>
<stop offset="1" stop-color="#B8CED9"/>
</linearGradient>
<linearGradient id="paint3_linear_29_11909" x1="9.12769" y1="5" x2="6.95664" y2="9.98538" gradientUnits="userSpaceOnUse">
<stop stop-color="#D9E6EB"/>
<stop offset="1" stop-color="#9BA7AD"/>
</linearGradient>
<linearGradient id="paint4_linear_29_11909" x1="6.71541" y1="9.98702" x2="13.62" y2="19.3355" gradientUnits="userSpaceOnUse">
<stop stop-color="#7CA3B7"/>
<stop offset="1" stop-color="#6D8A98"/>
</linearGradient>
<linearGradient id="paint5_linear_29_11909" x1="21.2696" y1="9.34375" x2="20.1653" y2="20.2644" gradientUnits="userSpaceOnUse">
<stop stop-color="#97B7C7"/>
<stop offset="1" stop-color="#7D8F98"/>
</linearGradient>
<linearGradient id="paint6_linear_29_11909" x1="16.5255" y1="9.98437" x2="17.8785" y2="19.0474" gradientUnits="userSpaceOnUse">
<stop stop-color="#DFEEF6"/>
<stop offset="1" stop-color="#6597B0"/>
</linearGradient>
<linearGradient id="paint7_linear_29_11909" x1="11.54" y1="9.98437" x2="16.7522" y2="17.3757" gradientUnits="userSpaceOnUse">
<stop stop-color="#D0DEE5"/>
<stop offset="1" stop-color="#A1A1A1"/>
</linearGradient>
<linearGradient id="paint8_linear_29_11909" x1="15.1585" y1="5.96322" x2="14.0328" y2="9.98369" gradientUnits="userSpaceOnUse">
<stop stop-color="#8FAEBD"/>
<stop offset="1" stop-color="#BFC8CD"/>
</linearGradient>
<linearGradient id="paint9_linear_29_11909" x1="10.2536" y1="5.48246" x2="10.7935" y2="9.75455" gradientUnits="userSpaceOnUse">
<stop stop-color="#BFD2DC"/>
<stop offset="1" stop-color="#DFF1FA"/>
</linearGradient>
<linearGradient id="paint10_linear_29_11909" x1="17.732" y1="5.48246" x2="18.2719" y2="9.75455" gradientUnits="userSpaceOnUse">
<stop stop-color="#BFD2DC"/>
<stop offset="1" stop-color="#DFF1FA"/>
</linearGradient>
<linearGradient id="paint11_linear_29_11909" x1="9.44932" y1="5.48245" x2="18.0531" y2="5.48246" gradientUnits="userSpaceOnUse">
<stop stop-color="#A9C2CE"/>
<stop offset="1" stop-color="#D7E4EA"/>
</linearGradient>
<linearGradient id="paint12_linear_29_11909" x1="12.0226" y1="6.36527" x2="9.36909" y2="9.98369" gradientUnits="userSpaceOnUse">
<stop stop-color="#BCD1DC"/>
<stop offset="1" stop-color="#93B4C5"/>
</linearGradient>
<linearGradient id="paint13_linear_29_11909" x1="16.4452" y1="5.88281" x2="16.4452" y2="9.98369" gradientUnits="userSpaceOnUse">
<stop stop-color="#F6E9D5"/>
<stop offset="1" stop-color="#FBFBFB"/>
</linearGradient>
<linearGradient id="paint14_linear_29_11909" x1="18.777" y1="5" x2="20.9482" y2="9.98538" gradientUnits="userSpaceOnUse">
<stop stop-color="#92B3C4"/>
<stop offset="1" stop-color="#B8CED9"/>
</linearGradient>
<linearGradient id="paint15_linear_29_11909" x1="9.12769" y1="5" x2="6.95664" y2="9.98538" gradientUnits="userSpaceOnUse">
<stop stop-color="#D9E6EB"/>
<stop offset="1" stop-color="#9BA7AD"/>
</linearGradient>
<linearGradient id="paint16_linear_29_11909" x1="6.71541" y1="9.98702" x2="13.62" y2="19.3355" gradientUnits="userSpaceOnUse">
<stop stop-color="#7CA3B7"/>
<stop offset="1" stop-color="#6D8A98"/>
</linearGradient>
<linearGradient id="paint17_linear_29_11909" x1="21.2696" y1="9.34375" x2="20.1653" y2="20.2644" gradientUnits="userSpaceOnUse">
<stop stop-color="#97B7C7"/>
<stop offset="1" stop-color="#7D8F98"/>
</linearGradient>
<linearGradient id="paint18_linear_29_11909" x1="16.5255" y1="9.98437" x2="17.8785" y2="19.0474" gradientUnits="userSpaceOnUse">
<stop stop-color="#DFEEF6"/>
<stop offset="1" stop-color="#6597B0"/>
</linearGradient>
<linearGradient id="paint19_linear_29_11909" x1="11.54" y1="9.98437" x2="16.7522" y2="17.3757" gradientUnits="userSpaceOnUse">
<stop stop-color="#D0DEE5"/>
<stop offset="1" stop-color="#A1A1A1"/>
</linearGradient>
<linearGradient id="paint20_linear_29_11909" x1="15.1585" y1="5.96322" x2="14.0328" y2="9.98369" gradientUnits="userSpaceOnUse">
<stop stop-color="#8FAEBD"/>
<stop offset="1" stop-color="#BFC8CD"/>
</linearGradient>
<linearGradient id="paint21_linear_29_11909" x1="10.2536" y1="5.48246" x2="10.7935" y2="9.75455" gradientUnits="userSpaceOnUse">
<stop stop-color="#BFD2DC"/>
<stop offset="1" stop-color="#DFF1FA"/>
</linearGradient>
<linearGradient id="paint22_linear_29_11909" x1="17.732" y1="5.48246" x2="18.2719" y2="9.75455" gradientUnits="userSpaceOnUse">
<stop stop-color="#BFD2DC"/>
<stop offset="1" stop-color="#DFF1FA"/>
</linearGradient>
<linearGradient id="paint23_linear_29_11909" x1="9.44932" y1="5.48245" x2="18.0531" y2="5.48246" gradientUnits="userSpaceOnUse">
<stop stop-color="#A9C2CE"/>
<stop offset="1" stop-color="#D7E4EA"/>
</linearGradient>
</defs>
</svg>
