<svg width="16" height="16" viewBox="0 0 16 16" fill="none" xmlns="http://www.w3.org/2000/svg">
<g clip-path="url(#clip0_141_7128)">
<path d="M3.99967 13.391H5.73987C5.96676 13.391 6.19226 13.418 6.41222 13.472L8.25094 13.9189C8.6499 14.0161 9.06553 14.0255 9.46866 13.9472L11.5017 13.5517C12.0387 13.4471 12.5327 13.1899 12.9199 12.8133L14.3583 11.4141C14.769 11.0152 14.769 10.3679 14.3583 9.96831C13.9884 9.60856 13.4028 9.56806 12.9844 9.87315L11.3081 11.0962C11.068 11.2717 10.7759 11.3662 10.4754 11.3662H8.85667L9.88705 11.3661C10.4678 11.3661 10.9382 10.9085 10.9382 10.3435V10.139C10.9382 9.66994 10.6101 9.26091 10.1424 9.14752L8.55207 8.76077C8.29326 8.69799 8.02821 8.66627 7.76177 8.66627C7.11856 8.66627 5.95427 9.19881 5.95427 9.19881L3.99967 10.0162M1.33301 9.73294L1.33301 13.5996C1.33301 13.973 1.33301 14.1597 1.40567 14.3023C1.46959 14.4277 1.57157 14.5297 1.69701 14.5936C1.83962 14.6663 2.02631 14.6663 2.39967 14.6663H2.93301C3.30638 14.6663 3.49306 14.6663 3.63567 14.5936C3.76111 14.5297 3.8631 14.4277 3.92701 14.3023C3.99967 14.1597 3.99967 13.973 3.99967 13.5996V9.73294C3.99967 9.35957 3.99967 9.17289 3.92701 9.03028C3.8631 8.90484 3.76111 8.80285 3.63567 8.73893C3.49306 8.66627 3.30638 8.66627 2.93301 8.66627H2.39967C2.02631 8.66627 1.83962 8.66627 1.69701 8.73893C1.57157 8.80285 1.46959 8.90484 1.40567 9.03028C1.33301 9.17289 1.33301 9.35957 1.33301 9.73294ZM9.2533 1.54652C9.72216 1.32277 10.198 1.33845 10.6017 1.52457C11.1954 1.79826 11.4922 1.9351 11.524 1.94603C11.6706 1.99644 11.4583 1.93904 11.6103 1.96938C11.6433 1.97595 11.9753 2.00802 12.6393 2.07216C13.0781 2.11454 13.4956 2.33887 13.7961 2.76376C14.3701 3.57532 14.1802 4.64288 13.4136 5.22369C12.9398 5.58264 11.8352 6.17315 11.0604 6.57189C10.7742 6.71922 10.6311 6.79289 10.4813 6.79784C10.3528 6.80209 10.2162 6.76548 10.107 6.69756C9.97976 6.61837 9.89264 6.48301 9.7184 6.21229C9.24684 5.47961 8.58548 4.41591 8.35464 3.86816C7.98114 2.98186 8.3612 1.97225 9.2533 1.54652Z" stroke="#05512D" stroke-linecap="round" stroke-linejoin="round"/>
</g>
<defs>
<clipPath id="clip0_141_7128">
<rect width="16" height="16" fill="white"/>
</clipPath>
</defs>
</svg>
