<svg width="44" height="44" viewBox="0 0 44 44" fill="none" xmlns="http://www.w3.org/2000/svg">
<rect width="44" height="44" rx="22" fill="#F7CD87"/>
<path d="M22.4167 14.5001H18.5C17.0999 14.5001 16.3998 14.5001 15.865 14.7726C15.3946 15.0122 15.0122 15.3947 14.7725 15.8651C14.5 16.3999 14.5 17.0999 14.5 18.5001V25.5001C14.5 26.9002 14.5 27.6003 14.7725 28.1351C15.0122 28.6055 15.3946 28.9879 15.865 29.2276C16.3998 29.5001 17.0999 29.5001 18.5 29.5001H26.1667C26.9416 29.5001 27.3291 29.5001 27.647 29.4149C28.5098 29.1837 29.1836 28.5099 29.4148 27.6471C29.5 27.3292 29.5 26.9417 29.5 26.1667M27.8333 18.6667V13.6667M25.3333 16.1667H30.3333M20.75 19.0834C20.75 20.0039 20.0038 20.7501 19.0833 20.7501C18.1629 20.7501 17.4167 20.0039 17.4167 19.0834C17.4167 18.1629 18.1629 17.4167 19.0833 17.4167C20.0038 17.4167 20.75 18.1629 20.75 19.0834ZM24.4917 21.9319L17.4426 28.3401C17.0461 28.7006 16.8479 28.8808 16.8304 29.0369C16.8152 29.1722 16.867 29.3064 16.9693 29.3964C17.0873 29.5001 17.3552 29.5001 17.8911 29.5001H25.7133C26.9126 29.5001 27.5123 29.5001 27.9833 29.2986C28.5745 29.0457 29.0456 28.5746 29.2985 27.9833C29.5 27.5124 29.5 26.9127 29.5 25.7134C29.5 25.3099 29.5 25.1081 29.4559 24.9202C29.4004 24.6841 29.2941 24.4629 29.1444 24.2721C29.0252 24.1202 28.8677 23.9942 28.5526 23.7421L26.2215 21.8773C25.9062 21.625 25.7485 21.4989 25.5748 21.4543C25.4218 21.4151 25.2607 21.4202 25.1104 21.469C24.94 21.5244 24.7905 21.6602 24.4917 21.9319Z" stroke="#191919" stroke-width="1.25" stroke-linecap="round" stroke-linejoin="round"/>
</svg>
