<svg width="20" height="20" viewBox="0 0 20 20" fill="none" xmlns="http://www.w3.org/2000/svg">
<path d="M10.0007 12.4996L7.50065 9.99956M10.0007 12.4996C11.1647 12.0568 12.2814 11.4985 13.334 10.8329M10.0007 12.4996V14.7496C10.0007 15.3691 10.0007 15.6788 10.1727 15.9328C10.3049 16.1281 10.588 16.313 10.82 16.3556C11.1217 16.411 11.3572 16.3077 11.8281 16.1009C12.4237 15.8395 13.0136 15.4784 13.334 14.9996C14.234 13.6496 13.334 10.8329 13.334 10.8329M7.50065 9.99956C7.9441 8.84908 8.50249 7.74627 9.16732 6.70789C10.1383 5.15538 11.4903 3.8771 13.0948 2.99463C14.2331 2.36859 15.4715 1.95652 16.749 1.77396C17.2045 1.70887 17.4322 1.67632 17.6931 1.79066C17.8857 1.87509 18.1204 2.10861 18.2057 2.30085C18.3213 2.56121 18.2895 2.79097 18.2261 3.25049C17.9127 5.51931 16.7933 8.5134 13.334 10.8329M7.50065 9.99956H5.25056C4.6311 9.99956 4.32136 9.99956 4.06736 9.82752C3.87213 9.69529 3.68721 9.41216 3.64461 9.18024C3.58917 8.87851 3.69254 8.64304 3.89927 8.1721C4.16071 7.57653 4.52178 6.98657 5.00065 6.66622C6.35065 5.76622 9.16732 6.66622 9.16732 6.66622M3.75065 13.7496C3.20425 14.2085 2.81708 15.0624 2.55433 15.8782C2.3866 16.399 2.30273 16.6594 2.41875 16.9806C2.50289 17.2136 2.78662 17.4973 3.01957 17.5815C3.34077 17.6975 3.60117 17.6136 4.12198 17.4459C4.93781 17.1831 5.79167 16.796 6.25065 16.2496C6.84232 15.5496 6.83398 14.4746 6.17565 13.8246C5.85174 13.5154 5.42506 13.3368 4.97751 13.3229C4.52995 13.3091 4.09305 13.461 3.75065 13.7496Z" stroke="#191919" stroke-width="1.5" stroke-linecap="round" stroke-linejoin="round"/>
</svg>
