<svg width="18" height="18" viewBox="0 0 18 18" fill="none" xmlns="http://www.w3.org/2000/svg">
<path d="M8.38542 11.5347L5.88542 9.03471M8.38542 11.5347C9.54946 11.092 10.6662 10.5336 11.7187 9.86804M8.38542 11.5347V13.7848C8.38542 14.4043 8.38542 14.714 8.55745 14.968C8.68968 15.1632 8.97281 15.3482 9.20473 15.3908C9.50646 15.4462 9.74193 15.3428 10.2129 15.1361C10.8084 14.8747 11.3984 14.5136 11.7187 14.0347C12.6187 12.6847 11.7187 9.86804 11.7187 9.86804M5.88542 9.03471C6.32887 7.88424 6.88725 6.78143 7.55208 5.74305C8.52307 4.19053 9.8751 2.91225 11.4796 2.02979C12.6178 1.40374 13.8563 0.991676 15.1337 0.80912C15.5892 0.744025 15.817 0.711478 16.0779 0.825817C16.2705 0.910244 16.5051 1.14377 16.5905 1.33601C16.706 1.59636 16.6743 1.82612 16.6108 2.28565C16.2975 4.55447 15.1781 7.54855 11.7187 9.86804M5.88542 9.03471H3.63533C3.01586 9.03471 2.70613 9.03471 2.45213 8.86267C2.2569 8.73044 2.07198 8.44731 2.02937 8.2154C1.97394 7.91367 2.0773 7.6782 2.28404 7.20725C2.54547 6.61169 2.90655 6.02172 3.38542 5.70138C4.73542 4.80138 7.55208 5.70138 7.55208 5.70138M2.13542 12.7847C1.58902 13.2437 1.20184 14.0976 0.939099 14.9134C0.771367 15.4342 0.6875 15.6946 0.803515 16.0158C0.887652 16.2487 1.17139 16.5325 1.40433 16.6166C1.72553 16.7326 1.98594 16.6488 2.50675 16.481C3.32258 16.2183 4.17644 15.8311 4.63542 15.2847C5.22708 14.5847 5.21875 13.5097 4.56042 12.8597C4.23651 12.5506 3.80983 12.3719 3.36227 12.3581C2.91472 12.3442 2.47781 12.4962 2.13542 12.7847Z" stroke="#F0F0F0" stroke-width="1.5" stroke-linecap="round" stroke-linejoin="round"/>
</svg>
