<svg width="36" height="36" viewBox="0 0 36 36" fill="none" xmlns="http://www.w3.org/2000/svg">
<rect width="36" height="36" rx="8" fill="#F0F0F0"/>
<path d="M20.5 16.3337C20.5 17.7144 19.3807 18.8337 18 18.8337M23.2045 12.167C24.1194 13.3083 24.6667 14.7571 24.6667 16.3337C24.6667 19.6646 21.9385 22.425 18.9503 25.389C18.6161 25.7205 18.449 25.8863 18.2584 25.9473C18.0903 26.0011 17.9107 26.0003 17.7431 25.945C17.553 25.8823 17.3877 25.7154 17.0572 25.3816L13.7731 22.0652M23.2045 12.167L25.5 9.66699M23.2045 12.167L10.5 25.5003M15.9167 17.5837C15.5779 17.157 15.5 16.9208 15.5 16.3337C15.5 14.9529 16.6193 13.8337 18 13.8337C18.2409 13.8337 18.8142 13.8806 19.25 14.2503M21.8873 10.917C20.793 10.1303 19.4506 9.66699 18 9.66699C14.3181 9.66699 11.3333 12.6518 11.3333 16.3337C11.3333 17.7261 11.8101 19.0189 12.5833 20.2685" stroke="#474747" stroke-width="1.25" stroke-linecap="round" stroke-linejoin="round"/>
</svg>
