<svg width="36" height="36" viewBox="0 0 36 36" fill="none" xmlns="http://www.w3.org/2000/svg">
<rect width="36" height="36" rx="8" fill="#F5BC61"/>
<path d="M18 18.8337C19.3807 18.8337 20.5 17.7144 20.5 16.3337C20.5 14.9529 19.3807 13.8337 18 13.8337C16.6193 13.8337 15.5 14.9529 15.5 16.3337C15.5 17.7144 16.6193 18.8337 18 18.8337Z" stroke="#474747" stroke-width="1.25" stroke-linecap="round" stroke-linejoin="round"/>
<path d="M17.0543 25.3937C17.3877 25.7244 17.5544 25.8897 17.7438 25.9509C17.9112 26.005 18.0888 26.005 18.2562 25.9509C18.4456 25.8897 18.6123 25.7244 18.9457 25.3937C21.9357 22.4278 24.6667 19.6663 24.6667 16.3337C24.6667 12.6518 21.6819 9.66699 18 9.66699C14.3181 9.66699 11.3333 12.6518 11.3333 16.3337C11.3333 19.6663 14.0643 22.4278 17.0543 25.3937Z" stroke="#474747" stroke-width="1.25" stroke-linecap="round" stroke-linejoin="round"/>
</svg>
