<svg width="20" height="20" viewBox="0 0 20 20" fill="none" xmlns="http://www.w3.org/2000/svg">
<path d="M9.99999 10.8346C11.3807 10.8346 12.5 9.71535 12.5 8.33464C12.5 6.95392 11.3807 5.83464 9.99999 5.83464C8.61928 5.83464 7.49999 6.95392 7.49999 8.33464C7.49999 9.71535 8.61928 10.8346 9.99999 10.8346Z" stroke="#767676" stroke-width="1.25" stroke-linecap="round" stroke-linejoin="round"/>
<path d="M9.05433 17.3946C9.38772 17.7253 9.55442 17.8907 9.74377 17.9519C9.91123 18.006 10.0888 18.006 10.2562 17.9519C10.4456 17.8907 10.6123 17.7253 10.9457 17.3946C13.9357 14.4288 16.6667 11.6673 16.6667 8.33464C16.6667 4.65274 13.6819 1.66797 9.99999 1.66797C6.3181 1.66797 3.33333 4.65274 3.33333 8.33464C3.33333 11.6673 6.06431 14.4288 9.05433 17.3946Z" stroke="#767676" stroke-width="1.25" stroke-linecap="round" stroke-linejoin="round"/>
</svg>
