<svg width="345" height="64" viewBox="0 0 345 64" fill="none" xmlns="http://www.w3.org/2000/svg">
<rect y="56" width="15.35" height="8" rx="4" fill="#F5BC61"/>
<rect x="17.35" y="48" width="15.35" height="16" rx="4" fill="#F5BC61"/>
<rect x="34.7" y="48" width="15.35" height="16" rx="4" fill="#F5BC61"/>
<rect x="52.05" y="40" width="15.35" height="24" rx="4" fill="#F5BC61"/>
<rect x="69.4" y="40" width="15.35" height="24" rx="4" fill="#F5BC61"/>
<rect x="86.75" y="32" width="15.35" height="32" rx="4" fill="#F5BC61"/>
<rect x="104.1" y="24" width="15.35" height="40" rx="4" fill="#F5BC61"/>
<rect x="121.45" y="8" width="15.35" height="56" rx="4" fill="#F5BC61"/>
<rect x="138.8" width="15.35" height="64" rx="4" fill="#F5BC61"/>
<rect x="156.15" y="16" width="15.35" height="48" rx="4" fill="#F5BC61"/>
<rect x="173.5" width="15.35" height="64" rx="4" fill="#F5BC61"/>
<rect x="190.85" y="16" width="15.35" height="48" rx="4" fill="#F5BC61"/>
<rect x="208.2" y="8" width="15.35" height="56" rx="4" fill="#F5BC61"/>
<rect x="225.55" width="15.35" height="64" rx="4" fill="#F5BC61"/>
<rect x="242.9" y="8" width="15.35" height="56" rx="4" fill="#F5BC61"/>
<rect x="260.25" y="16" width="15.35" height="48" rx="4" fill="#E6E6E6"/>
<rect x="277.6" y="32" width="15.35" height="32" rx="4" fill="#E6E6E6"/>
<rect x="294.95" y="40" width="15.35" height="24" rx="4" fill="#E6E6E6"/>
<rect x="312.3" y="48" width="15.35" height="16" rx="4" fill="#E6E6E6"/>
<rect x="329.65" y="48" width="15.35" height="16" rx="4" fill="#E6E6E6"/>
</svg>
