<svg width="20" height="20" viewBox="0 0 20 20" fill="none" xmlns="http://www.w3.org/2000/svg">
<g id="marker-pin-04">
<path id="Icon" d="M4.16675 11.9053C2.62395 12.5859 1.66675 13.5343 1.66675 14.5833C1.66675 16.6544 5.39771 18.3333 10.0001 18.3333C14.6025 18.3333 18.3334 16.6544 18.3334 14.5833C18.3334 13.5343 17.3762 12.5859 15.8334 11.9053M15.0001 6.66663C15.0001 9.03347 13.1682 10.5343 11.6384 12.077C10.8462 12.8759 10.4502 13.2753 10.2589 13.3378C10.0212 13.4155 9.979 13.4155 9.74124 13.3378C9.55001 13.2753 9.15392 12.8759 8.36175 12.077C6.83192 10.5343 5.00008 9.03347 5.00008 6.66663C5.00008 3.9052 7.23866 1.66663 10.0001 1.66663C12.7615 1.66663 15.0001 3.9052 15.0001 6.66663ZM10.8334 6.66663C10.8334 7.12686 10.4603 7.49996 10.0001 7.49996C9.53984 7.49996 9.16675 7.12686 9.16675 6.66663C9.16675 6.20639 9.53984 5.83329 10.0001 5.83329C10.4603 5.83329 10.8334 6.20639 10.8334 6.66663Z" stroke="#9E660A" strokeWidth="1.25" strokeLinecap="round" strokeLinejoin="round"/>
</g>
</svg>
