<svg width="20" height="20" viewBox="0 0 20 20" fill="none" xmlns="http://www.w3.org/2000/svg">
<path d="M10 10.832C10.4603 10.832 10.8334 10.4589 10.8334 9.9987C10.8334 9.53846 10.4603 9.16536 10 9.16536C9.53978 9.16536 9.16669 9.53846 9.16669 9.9987C9.16669 10.4589 9.53978 10.832 10 10.832Z" stroke="#474747" stroke-width="1.25" stroke-linecap="round" stroke-linejoin="round"/>
<path d="M10 4.9987C10.4603 4.9987 10.8334 4.6256 10.8334 4.16536C10.8334 3.70513 10.4603 3.33203 10 3.33203C9.53978 3.33203 9.16669 3.70513 9.16669 4.16536C9.16669 4.6256 9.53978 4.9987 10 4.9987Z" stroke="#474747" stroke-width="1.25" stroke-linecap="round" stroke-linejoin="round"/>
<path d="M10 16.6654C10.4603 16.6654 10.8334 16.2923 10.8334 15.832C10.8334 15.3718 10.4603 14.9987 10 14.9987C9.53978 14.9987 9.16669 15.3718 9.16669 15.832C9.16669 16.2923 9.53978 16.6654 10 16.6654Z" stroke="#474747" stroke-width="1.25" stroke-linecap="round" stroke-linejoin="round"/>
</svg>
