<svg width="17" height="19" viewBox="0 0 17 19" fill="none" xmlns="http://www.w3.org/2000/svg">
<path d="M8.33334 0C12.9358 0 16.6667 3.73083 16.6667 8.33333C16.6667 12.9358 12.9358 16.6667 8.33334 16.6667C6.91498 16.6687 5.51977 16.3072 4.28084 15.6167L4.02667 15.4683L1.50001 16.2117C1.36251 16.2522 1.21694 16.2569 1.0771 16.2254C0.937265 16.1939 0.807791 16.1272 0.700954 16.0316C0.594118 15.9361 0.51346 15.8148 0.466626 15.6793C0.419792 15.5438 0.408335 15.3986 0.43334 15.2575L0.455007 15.1667L1.19834 12.64C0.412551 11.3411 -0.00192703 9.85147 6.73571e-06 8.33333C6.73571e-06 3.73083 3.73084 0 8.33334 0ZM8.33334 1.66667C7.1397 1.66645 5.96789 1.98671 4.94028 2.59401C3.91268 3.20131 3.06697 4.07337 2.49148 5.11912C1.91598 6.16487 1.63181 7.34595 1.66864 8.53902C1.70547 9.7321 2.06194 10.8934 2.70084 11.9017C2.86584 12.1617 2.93667 12.4817 2.88084 12.7992L2.84834 12.935L2.48084 14.1858L3.73167 13.8183C4.09251 13.7117 4.46751 13.7767 4.76501 13.9658C5.63861 14.519 6.62892 14.8614 7.65763 14.9659C8.68634 15.0704 9.72526 14.9342 10.6923 14.568C11.6593 14.2018 12.5278 13.6157 13.2293 12.8561C13.9308 12.0964 14.446 11.184 14.7341 10.1909C15.0222 9.19786 15.0754 8.1514 14.8894 7.13425C14.7034 6.11711 14.2834 5.15717 13.6625 4.33031C13.0416 3.50346 12.2369 2.83236 11.312 2.37007C10.3871 1.90778 9.36735 1.66696 8.33334 1.66667ZM6.49417 6.49417C6.63767 6.35069 6.82858 6.26449 7.03111 6.25176C7.23363 6.23903 7.43384 6.30062 7.59417 6.425L7.67251 6.49417L9.58334 8.405L11.4942 6.49417C11.6441 6.34471 11.8454 6.25794 12.057 6.25148C12.2686 6.24501 12.4748 6.31935 12.6336 6.45937C12.7924 6.5994 12.8919 6.79463 12.912 7.0054C12.9321 7.21616 12.8712 7.42667 12.7417 7.59417L12.6725 7.6725L10.1725 10.1725C10.029 10.316 9.8381 10.4022 9.63557 10.4149C9.43305 10.4276 9.23284 10.366 9.07251 10.2417L8.99417 10.1725L7.08334 8.26167L5.17251 10.1725C5.02254 10.322 4.82131 10.4087 4.60969 10.4152C4.39806 10.4217 4.19191 10.3473 4.03311 10.2073C3.8743 10.0673 3.77475 9.87204 3.75467 9.66127C3.7346 9.4505 3.7955 9.23999 3.92501 9.0725L3.99417 8.99417L6.49417 6.49417Z" fill="black"/>
</svg>
