<svg width="32" height="32" viewBox="0 0 32 32" fill="none" xmlns="http://www.w3.org/2000/svg">
<rect width="32" height="32" rx="16" fill="#E8F1F7"/>
<path d="M21.4168 23.5003C21.2918 23.5003 21.1252 23.4587 21.0002 23.3753C20.5835 23.167 20.4585 22.6253 20.6668 22.2503C20.6668 22.2087 22.2085 19.417 22.2085 16.0003C22.2085 12.5837 20.7085 9.75033 20.7085 9.75033C20.5002 9.33367 20.6252 8.83367 21.0418 8.62533C21.4585 8.417 21.9585 8.542 22.1668 8.95867C22.2502 9.08367 23.9585 12.1253 23.9585 16.042C23.9585 19.9587 22.2502 23.0003 22.1668 23.1253C22.0002 23.3337 21.7085 23.5003 21.4168 23.5003ZM19.6668 20.917C19.7085 20.8337 20.5835 18.8337 20.5835 16.0003C20.5835 13.167 19.7085 11.167 19.6668 11.0837C19.5002 10.667 19.0002 10.4587 18.5835 10.667C18.1668 10.8337 17.9585 11.3337 18.1668 11.7503C18.1668 11.7503 18.9168 13.542 18.9168 16.0003C18.9168 18.4587 18.1668 20.2503 18.1668 20.2503C18.0002 20.667 18.1668 21.167 18.5835 21.3337C18.7085 21.3753 18.7918 21.417 18.9168 21.417C19.2502 21.417 19.5418 21.2503 19.6668 20.917ZM15.7085 19.7503C15.9585 19.7087 16.1668 19.542 16.2918 19.3337C16.3335 19.2503 17.2502 17.7087 17.2502 16.0003C17.2502 14.292 16.3335 12.7087 16.2918 12.667C16.0418 12.2503 15.5418 12.1253 15.1668 12.3753C14.7502 12.6253 14.6252 13.1253 14.8752 13.5003C14.8752 13.5003 15.5835 14.7503 15.5835 16.0003C15.5835 16.542 15.4585 17.1253 15.2918 17.542L9.87516 12.8753C9.66683 12.7087 9.37516 12.6253 9.12516 12.7087C8.87516 12.792 8.62516 12.9587 8.54183 13.2503C8.54183 13.292 8.0835 14.542 8.0835 16.0003C8.0835 17.4587 8.54183 18.7087 8.54183 18.792C8.7085 19.2087 9.16683 19.4587 9.62516 19.292C10.0418 19.1253 10.2918 18.667 10.1252 18.2087C10.1252 18.2087 9.75016 17.1253 9.75016 16.0003C9.75016 15.667 9.79183 15.3337 9.8335 15.042L15.0418 19.542C15.2085 19.667 15.3752 19.7503 15.5835 19.7503H15.7085Z" fill="#2196F3"/>
</svg>
