<svg width="20" height="22" viewBox="0 0 20 22" fill="none" xmlns="http://www.w3.org/2000/svg">
<path d="M5.75 2.75H5.55C3.86984 2.75 3.02976 2.75 2.38803 3.07698C1.82354 3.3646 1.3646 3.82354 1.07698 4.38803C0.75 5.02976 0.75 5.86984 0.75 7.55V8.75M5.75 2.75H13.75M5.75 2.75V0.75M5.75 2.75V4.75M13.75 2.75H13.95C15.6302 2.75 16.4702 2.75 17.112 3.07698C17.6765 3.3646 18.1354 3.82354 18.423 4.38803C18.75 5.02976 18.75 5.86984 18.75 7.55V8.75M13.75 2.75V0.75M13.75 2.75V4.75M0.75 8.75V15.95C0.75 17.6302 0.75 18.4702 1.07698 19.112C1.3646 19.6765 1.82354 20.1354 2.38803 20.423C3.02976 20.75 3.86984 20.75 5.55 20.75H10.25M0.75 8.75H18.75M18.75 8.75V10.25M13.6287 18.8713L15.75 16.75M15.75 16.75L17.8713 14.6287M15.75 16.75L13.6287 14.6287M15.75 16.75L17.8713 18.8713" stroke="white" stroke-width="1.5" stroke-linecap="round" stroke-linejoin="round"/>
</svg>
