<svg width="20" height="20" viewBox="0 0 20 20" fill="none" xmlns="http://www.w3.org/2000/svg">
<path d="M7.79514 17.5013C8.38275 18.0199 9.15462 18.3346 10 18.3346C10.8454 18.3346 11.6172 18.0199 12.2048 17.5013M15 6.66797C15 5.34189 14.4732 4.07012 13.5355 3.13243C12.5978 2.19475 11.3261 1.66797 10 1.66797C8.67391 1.66797 7.40214 2.19475 6.46446 3.13243C5.52678 4.07012 5 5.34189 5 6.66797C5 9.24312 4.35039 11.0063 3.62472 12.1725C3.0126 13.1562 2.70654 13.6481 2.71777 13.7853C2.73019 13.9372 2.76238 13.9951 2.88481 14.086C2.99538 14.168 3.49382 14.168 4.49071 14.168H15.5093C16.5062 14.168 17.0046 14.168 17.1152 14.086C17.2376 13.9951 17.2698 13.9372 17.2822 13.7853C17.2934 13.6481 16.9874 13.1562 16.3753 12.1725C15.6496 11.0063 15 9.24312 15 6.66797Z" stroke="#474747" stroke-width="1.25" stroke-linecap="round" stroke-linejoin="round"/>
</svg>
