<svg width="19" height="20" viewBox="0 0 19 20" fill="none" xmlns="http://www.w3.org/2000/svg">
<path d="M10.75 13.25H6.25C4.85444 13.25 4.15665 13.25 3.58886 13.4222C2.31045 13.81 1.31004 14.8105 0.92224 16.0889C0.75 16.6567 0.75 17.3544 0.75 18.75M13.6287 17.8713L15.75 15.75M15.75 15.75L17.8713 13.6287M15.75 15.75L13.6287 13.6287M15.75 15.75L17.8713 17.8713M13.25 5.25C13.25 7.73528 11.2353 9.75 8.75 9.75C6.26472 9.75 4.25 7.73528 4.25 5.25C4.25 2.76472 6.26472 0.75 8.75 0.75C11.2353 0.75 13.25 2.76472 13.25 5.25Z" stroke="white" stroke-width="1.5" stroke-linecap="round" stroke-linejoin="round"/>
</svg>
