<svg width="15" height="15" viewBox="0 0 15 15" fill="none" xmlns="http://www.w3.org/2000/svg">
<path d="M7.16667 4.5H7.17333M7.16667 9.83333H7.17333M3.83333 7.16667H10.5M7.5 4.5C7.5 4.6841 7.35076 4.83333 7.16667 4.83333C6.98257 4.83333 6.83333 4.6841 6.83333 4.5C6.83333 4.31591 6.98257 4.16667 7.16667 4.16667C7.35076 4.16667 7.5 4.31591 7.5 4.5ZM7.5 9.83333C7.5 10.0174 7.35076 10.1667 7.16667 10.1667C6.98257 10.1667 6.83333 10.0174 6.83333 9.83333C6.83333 9.64924 6.98257 9.5 7.16667 9.5C7.35076 9.5 7.5 9.64924 7.5 9.83333ZM13.8333 7.16667C13.8333 10.8486 10.8486 13.8333 7.16667 13.8333C3.48477 13.8333 0.5 10.8486 0.5 7.16667C0.5 3.48477 3.48477 0.5 7.16667 0.5C10.8486 0.5 13.8333 3.48477 13.8333 7.16667Z" stroke="#474747" stroke-linecap="round" stroke-linejoin="round"/>
</svg>
