<svg width="361" height="327" viewBox="0 0 361 327" fill="none" xmlns="http://www.w3.org/2000/svg">
<circle cx="176.583" cy="167.583" r="130.25" stroke="url(#paint0_linear_8794_24183)" stroke-opacity="0.5" stroke-width="2"/>
<rect y="151" width="96" height="88" rx="12" fill="#474747"/>
<path d="M60 176.334H36M60 179.667V174.734C60 172.493 60 171.373 59.564 170.518C59.1805 169.765 58.5686 169.153 57.816 168.77C56.9603 168.334 55.8402 168.334 53.6 168.334H42.4C40.1598 168.334 39.0397 168.334 38.184 168.77C37.4314 169.153 36.8195 169.765 36.436 170.518C36 171.373 36 172.493 36 174.734V185.934C36 188.174 36 189.294 36.436 190.15C36.8195 190.902 37.4314 191.514 38.184 191.898C39.0397 192.334 40.1598 192.334 42.4 192.334H48M53.3333 165.667V171M42.6667 165.667V171M51.3333 188.334L52.4915 189.492C53.0195 190.02 53.2835 190.284 53.588 190.383C53.8558 190.47 54.1442 190.47 54.412 190.383C54.7165 190.284 54.9805 190.02 55.5085 189.492L60 185" stroke="#FEF7EC" stroke-width="2" stroke-linecap="round" stroke-linejoin="round"/>
<path d="M30.62 221V209.48H32.292V214.448H38.052V209.48H39.732V221H38.052V216.024H32.292V221H30.62ZM45.7314 221.24C44.8674 221.24 44.118 221.045 43.4834 220.656C42.8487 220.267 42.358 219.731 42.0114 219.048C41.67 218.36 41.4994 217.568 41.4994 216.672C41.4994 215.771 41.6754 214.979 42.0274 214.296C42.3794 213.608 42.8727 213.075 43.5074 212.696C44.142 212.312 44.8834 212.12 45.7314 212.12C46.5954 212.12 47.3447 212.315 47.9794 212.704C48.614 213.093 49.1047 213.629 49.4514 214.312C49.798 214.995 49.9714 215.781 49.9714 216.672C49.9714 217.573 49.7954 218.368 49.4434 219.056C49.0967 219.739 48.606 220.275 47.9714 220.664C47.3367 221.048 46.59 221.24 45.7314 221.24ZM45.7314 219.664C46.558 219.664 47.174 219.387 47.5794 218.832C47.99 218.272 48.1954 217.552 48.1954 216.672C48.1954 215.771 47.9874 215.051 47.5714 214.512C47.1607 213.968 46.5474 213.696 45.7314 213.696C45.1714 213.696 44.71 213.824 44.3474 214.08C43.9847 214.331 43.7154 214.68 43.5394 215.128C43.3634 215.571 43.2754 216.085 43.2754 216.672C43.2754 217.579 43.4834 218.304 43.8994 218.848C44.3154 219.392 44.926 219.664 45.7314 219.664ZM54.8771 221.232C53.8265 221.232 52.9705 221 52.3091 220.536C51.6478 220.072 51.2425 219.419 51.0931 218.576L52.8051 218.312C52.9118 218.76 53.1571 219.115 53.5411 219.376C53.9305 219.632 54.4131 219.76 54.9891 219.76C55.5118 219.76 55.9198 219.653 56.2131 219.44C56.5118 219.227 56.6611 218.933 56.6611 218.56C56.6611 218.341 56.6078 218.165 56.5011 218.032C56.3998 217.893 56.1838 217.763 55.8531 217.64C55.5225 217.517 55.0185 217.365 54.3411 217.184C53.5998 216.992 53.0105 216.787 52.5731 216.568C52.1411 216.344 51.8318 216.085 51.6451 215.792C51.4638 215.493 51.3731 215.133 51.3731 214.712C51.3731 214.189 51.5118 213.733 51.7891 213.344C52.0665 212.955 52.4558 212.653 52.9571 212.44C53.4638 212.227 54.0558 212.12 54.7331 212.12C55.3945 212.12 55.9838 212.224 56.5011 212.432C57.0185 212.64 57.4371 212.936 57.7571 213.32C58.0771 213.699 58.2691 214.144 58.3331 214.656L56.6211 214.968C56.5625 214.552 56.3678 214.224 56.0371 213.984C55.7065 213.744 55.2771 213.613 54.7491 213.592C54.2425 213.571 53.8318 213.656 53.5171 213.848C53.2025 214.035 53.0451 214.293 53.0451 214.624C53.0451 214.816 53.1038 214.979 53.2211 215.112C53.3438 215.245 53.5785 215.373 53.9251 215.496C54.2718 215.619 54.7838 215.765 55.4611 215.936C56.1865 216.123 56.7625 216.331 57.1891 216.56C57.6158 216.784 57.9198 217.053 58.1011 217.368C58.2878 217.677 58.3811 218.053 58.3811 218.496C58.3811 219.349 58.0691 220.019 57.4451 220.504C56.8265 220.989 55.9705 221.232 54.8771 221.232ZM65.0953 221C64.5513 221.107 64.0179 221.152 63.4953 221.136C62.9726 221.12 62.5059 221.019 62.0953 220.832C61.6846 220.645 61.3753 220.352 61.1673 219.952C60.9806 219.595 60.8793 219.232 60.8633 218.864C60.8526 218.491 60.8473 218.069 60.8473 217.6V209.96H62.5273V217.52C62.5273 217.867 62.5299 218.168 62.5353 218.424C62.5459 218.68 62.6019 218.896 62.7033 219.072C62.8953 219.403 63.1993 219.592 63.6153 219.64C64.0366 219.683 64.5299 219.664 65.0953 219.584V221ZM59.1913 213.704V212.36H65.0953V213.704H59.1913Z" fill="#DBDBDB"/>
<rect x="265" y="151" width="96" height="88" rx="12" fill="#474747"/>
<path d="M319.667 189.667H319.4C317.16 189.667 316.04 189.667 315.184 189.231C314.431 188.848 313.819 188.236 313.436 187.483C313 186.627 313 185.507 313 183.267V174.734C313 172.493 313 171.373 313.436 170.518C313.819 169.765 314.431 169.153 315.184 168.77C316.04 168.334 317.16 168.334 319.4 168.334H319.667M319.667 189.667C319.667 191.14 320.861 192.334 322.333 192.334C323.806 192.334 325 191.14 325 189.667C325 188.194 323.806 187 322.333 187C320.861 187 319.667 188.194 319.667 189.667ZM319.667 168.334C319.667 169.806 320.861 171 322.333 171C323.806 171 325 169.806 325 168.334C325 166.861 323.806 165.667 322.333 165.667C320.861 165.667 319.667 166.861 319.667 168.334ZM306.333 179L319.667 179M306.333 179C306.333 180.473 305.139 181.667 303.667 181.667C302.194 181.667 301 180.473 301 179C301 177.528 302.194 176.334 303.667 176.334C305.139 176.334 306.333 177.528 306.333 179ZM319.667 179C319.667 180.473 320.861 181.667 322.333 181.667C323.806 181.667 325 180.473 325 179C325 177.528 323.806 176.334 322.333 176.334C320.861 176.334 319.667 177.528 319.667 179Z" stroke="#FEF7EC" stroke-width="2" stroke-linecap="round" stroke-linejoin="round"/>
<path d="M281.62 221V209.48H283.316L288.988 218.04V209.48H290.684V221H288.988L283.316 212.432V221H281.62ZM296.749 221.24C295.89 221.24 295.136 221.053 294.485 220.68C293.84 220.301 293.336 219.776 292.973 219.104C292.616 218.427 292.437 217.643 292.437 216.752C292.437 215.808 292.613 214.989 292.965 214.296C293.322 213.603 293.818 213.067 294.453 212.688C295.088 212.309 295.826 212.12 296.669 212.12C297.549 212.12 298.298 212.325 298.917 212.736C299.536 213.141 299.997 213.72 300.301 214.472C300.61 215.224 300.733 216.117 300.669 217.152H298.997V216.544C298.986 215.541 298.794 214.8 298.421 214.32C298.053 213.84 297.49 213.6 296.733 213.6C295.896 213.6 295.266 213.864 294.845 214.392C294.424 214.92 294.213 215.683 294.213 216.68C294.213 217.629 294.424 218.365 294.845 218.888C295.266 219.405 295.874 219.664 296.669 219.664C297.192 219.664 297.642 219.547 298.021 219.312C298.405 219.072 298.704 218.731 298.917 218.288L300.557 218.808C300.221 219.581 299.712 220.181 299.029 220.608C298.346 221.029 297.586 221.24 296.749 221.24ZM293.669 217.152V215.848H299.837V217.152H293.669ZM307.408 221C306.864 221.107 306.33 221.152 305.808 221.136C305.285 221.12 304.818 221.019 304.408 220.832C303.997 220.645 303.688 220.352 303.48 219.952C303.293 219.595 303.192 219.232 303.176 218.864C303.165 218.491 303.16 218.069 303.16 217.6V209.96H304.84V217.52C304.84 217.867 304.842 218.168 304.848 218.424C304.858 218.68 304.914 218.896 305.016 219.072C305.208 219.403 305.512 219.592 305.928 219.64C306.349 219.683 306.842 219.664 307.408 219.584V221ZM301.504 213.704V212.36H307.408V213.704H301.504ZM311.069 221L308.429 212.352L310.085 212.36L311.893 218.288L313.717 212.36H315.157L316.981 218.288L318.789 212.36H320.437L317.797 221H316.453L314.437 214.744L312.413 221H311.069ZM325.31 221.24C324.446 221.24 323.696 221.045 323.062 220.656C322.427 220.267 321.936 219.731 321.59 219.048C321.248 218.36 321.078 217.568 321.078 216.672C321.078 215.771 321.254 214.979 321.606 214.296C321.958 213.608 322.451 213.075 323.086 212.696C323.72 212.312 324.462 212.12 325.31 212.12C326.174 212.12 326.923 212.315 327.558 212.704C328.192 213.093 328.683 213.629 329.03 214.312C329.376 214.995 329.55 215.781 329.55 216.672C329.55 217.573 329.374 218.368 329.022 219.056C328.675 219.739 328.184 220.275 327.55 220.664C326.915 221.048 326.168 221.24 325.31 221.24ZM325.31 219.664C326.136 219.664 326.752 219.387 327.158 218.832C327.568 218.272 327.774 217.552 327.774 216.672C327.774 215.771 327.566 215.051 327.15 214.512C326.739 213.968 326.126 213.696 325.31 213.696C324.75 213.696 324.288 213.824 323.926 214.08C323.563 214.331 323.294 214.68 323.118 215.128C322.942 215.571 322.854 216.085 322.854 216.672C322.854 217.579 323.062 218.304 323.478 218.848C323.894 219.392 324.504 219.664 325.31 219.664ZM331.308 221V212.36H332.796V214.456L332.588 214.184C332.694 213.907 332.833 213.653 333.004 213.424C333.174 213.189 333.372 212.997 333.596 212.848C333.814 212.688 334.057 212.565 334.324 212.48C334.596 212.389 334.873 212.336 335.156 212.32C335.438 212.299 335.71 212.312 335.972 212.36V213.928C335.689 213.853 335.374 213.832 335.028 213.864C334.686 213.896 334.372 214.005 334.084 214.192C333.812 214.368 333.596 214.581 333.436 214.832C333.281 215.083 333.169 215.363 333.1 215.672C333.03 215.976 332.996 216.299 332.996 216.64V221H331.308ZM337.487 221L337.495 209.48H339.191V216.52L342.583 212.36H344.711L341.127 216.68L345.079 221H342.807L339.191 216.84V221H337.487Z" fill="#DBDBDB"/>
<rect x="153" y="271" width="56" height="56" rx="12" fill="#E1910E"/>
<path d="M181 289.667V308.334M171.667 299H190.334" stroke="white" stroke-width="2" stroke-linecap="round" stroke-linejoin="round"/>
<rect x="216" width="96" height="88" rx="12" fill="#474747"/>
<path d="M259.2 16H254.133C253.387 16 253.013 16 252.728 16.1453C252.477 16.2732 252.273 16.4771 252.145 16.728C252 17.0132 252 17.3866 252 18.1333V23.2C252 23.9467 252 24.3201 252.145 24.6053C252.273 24.8562 252.477 25.0602 252.728 25.188C253.013 25.3333 253.387 25.3333 254.133 25.3333H259.2C259.947 25.3333 260.32 25.3333 260.605 25.188C260.856 25.0602 261.06 24.8562 261.188 24.6053C261.333 24.3201 261.333 23.9467 261.333 23.2V18.1333C261.333 17.3866 261.333 17.0132 261.188 16.728C261.06 16.4771 260.856 16.2732 260.605 16.1453C260.32 16 259.947 16 259.2 16Z" stroke="#FEF7EC" stroke-width="2" stroke-linecap="round" stroke-linejoin="round"/>
<path d="M273.867 16H268.8C268.053 16 267.68 16 267.395 16.1453C267.144 16.2732 266.94 16.4771 266.812 16.728C266.667 17.0132 266.667 17.3866 266.667 18.1333V23.2C266.667 23.9467 266.667 24.3201 266.812 24.6053C266.94 24.8562 267.144 25.0602 267.395 25.188C267.68 25.3333 268.053 25.3333 268.8 25.3333H273.867C274.613 25.3333 274.987 25.3333 275.272 25.188C275.523 25.0602 275.727 24.8562 275.855 24.6053C276 24.3201 276 23.9467 276 23.2V18.1333C276 17.3866 276 17.0132 275.855 16.728C275.727 16.4771 275.523 16.2732 275.272 16.1453C274.987 16 274.613 16 273.867 16Z" stroke="#FEF7EC" stroke-width="2" stroke-linecap="round" stroke-linejoin="round"/>
<path d="M273.867 30.6667H268.8C268.053 30.6667 267.68 30.6667 267.395 30.812C267.144 30.9398 266.94 31.1438 266.812 31.3947C266.667 31.6799 266.667 32.0533 266.667 32.8V37.8667C266.667 38.6134 266.667 38.9868 266.812 39.272C266.94 39.5229 267.144 39.7268 267.395 39.8547C267.68 40 268.053 40 268.8 40H273.867C274.613 40 274.987 40 275.272 39.8547C275.523 39.7268 275.727 39.5229 275.855 39.272C276 38.9868 276 38.6134 276 37.8667V32.8C276 32.0533 276 31.6799 275.855 31.3947C275.727 31.1438 275.523 30.9398 275.272 30.812C274.987 30.6667 274.613 30.6667 273.867 30.6667Z" stroke="#FEF7EC" stroke-width="2" stroke-linecap="round" stroke-linejoin="round"/>
<path d="M259.2 30.6667H254.133C253.387 30.6667 253.013 30.6667 252.728 30.812C252.477 30.9398 252.273 31.1438 252.145 31.3947C252 31.6799 252 32.0533 252 32.8V37.8667C252 38.6134 252 38.9868 252.145 39.272C252.273 39.5229 252.477 39.7268 252.728 39.8547C253.013 40 253.387 40 254.133 40H259.2C259.947 40 260.32 40 260.605 39.8547C260.856 39.7268 261.06 39.5229 261.188 39.272C261.333 38.9868 261.333 38.6134 261.333 37.8667V32.8C261.333 32.0533 261.333 31.6799 261.188 31.3947C261.06 31.1438 260.856 30.9398 260.605 30.812C260.32 30.6667 259.947 30.6667 259.2 30.6667Z" stroke="#FEF7EC" stroke-width="2" stroke-linecap="round" stroke-linejoin="round"/>
<path d="M243.12 70V58.48H250.48V60.056H244.792V63.288H249.52V64.864H244.792V68.424H250.48V70H243.12ZM254.737 70L251.601 61.36H253.289L255.585 67.904L257.881 61.36H259.569L256.433 70H254.737ZM264.53 70.24C263.671 70.24 262.917 70.0533 262.266 69.68C261.621 69.3013 261.117 68.776 260.754 68.104C260.397 67.4267 260.218 66.6427 260.218 65.752C260.218 64.808 260.394 63.9893 260.746 63.296C261.103 62.6027 261.599 62.0667 262.234 61.688C262.869 61.3093 263.607 61.12 264.45 61.12C265.33 61.12 266.079 61.3253 266.698 61.736C267.317 62.1413 267.778 62.72 268.082 63.472C268.391 64.224 268.514 65.1173 268.45 66.152H266.778V65.544C266.767 64.5413 266.575 63.8 266.202 63.32C265.834 62.84 265.271 62.6 264.514 62.6C263.677 62.6 263.047 62.864 262.626 63.392C262.205 63.92 261.994 64.6827 261.994 65.68C261.994 66.6293 262.205 67.3653 262.626 67.888C263.047 68.4053 263.655 68.664 264.45 68.664C264.973 68.664 265.423 68.5467 265.802 68.312C266.186 68.072 266.485 67.7307 266.698 67.288L268.338 67.808C268.002 68.5813 267.493 69.1813 266.81 69.608C266.127 70.0293 265.367 70.24 264.53 70.24ZM261.45 66.152V64.848H267.618V66.152H261.45ZM276.075 70V65.752C276.075 65.416 276.045 65.072 275.987 64.72C275.933 64.3627 275.827 64.032 275.667 63.728C275.512 63.424 275.291 63.1787 275.003 62.992C274.72 62.8053 274.349 62.712 273.891 62.712C273.592 62.712 273.309 62.7627 273.043 62.864C272.776 62.96 272.541 63.1173 272.339 63.336C272.141 63.5547 271.984 63.8427 271.867 64.2C271.755 64.5573 271.699 64.992 271.699 65.504L270.659 65.112C270.659 64.328 270.805 63.6373 271.099 63.04C271.392 62.4373 271.813 61.968 272.363 61.632C272.912 61.296 273.576 61.128 274.355 61.128C274.952 61.128 275.453 61.224 275.859 61.416C276.264 61.608 276.592 61.8613 276.843 62.176C277.099 62.4853 277.293 62.824 277.427 63.192C277.56 63.56 277.651 63.92 277.699 64.272C277.747 64.624 277.771 64.9333 277.771 65.2V70H276.075ZM270.003 70V61.36H271.499V63.856H271.699V70H270.003ZM284.798 70C284.254 70.1067 283.721 70.152 283.198 70.136C282.676 70.12 282.209 70.0187 281.798 69.832C281.388 69.6453 281.078 69.352 280.87 68.952C280.684 68.5947 280.582 68.232 280.566 67.864C280.556 67.4907 280.55 67.0693 280.55 66.6V58.96H282.23V66.52C282.23 66.8667 282.233 67.168 282.238 67.424C282.249 67.68 282.305 67.896 282.406 68.072C282.598 68.4027 282.902 68.592 283.318 68.64C283.74 68.6827 284.233 68.664 284.798 68.584V70ZM278.894 62.704V61.36H284.798V62.704H278.894Z" fill="#DBDBDB"/>
<rect x="51" width="96" height="88" rx="12" fill="#474747"/>
<path d="M99 38.6673H111M92.2497 37.4176L109 20.6673C110.105 19.5627 110.105 17.7719 109 16.6673C107.895 15.5627 106.105 15.5627 105 16.6673L88.2497 33.4176C87.7885 33.8788 87.5579 34.1094 87.393 34.3785C87.2468 34.6171 87.139 34.8772 87.0737 35.1493C87 35.4562 87 35.7824 87 36.4346V36.534C87 37.2807 87 37.6541 87.1453 37.9393C87.2732 38.1902 87.4771 38.3941 87.728 38.522C88.0132 38.6673 88.3866 38.6673 89.1333 38.6673H89.2327C89.885 38.6673 90.2111 38.6673 90.518 38.5936C90.7901 38.5283 91.0502 38.4205 91.2888 38.2743C91.5579 38.1094 91.7885 37.8788 92.2497 37.4176Z" stroke="#FEF7EC" stroke-width="2" stroke-linecap="round" stroke-linejoin="round"/>
<path d="M82.62 70V58.48H87.276C87.388 58.48 87.5267 58.4853 87.692 58.496C87.8573 58.5013 88.0147 58.5173 88.164 58.544C88.804 58.6453 89.3373 58.864 89.764 59.2C90.196 59.536 90.5187 59.96 90.732 60.472C90.9453 60.984 91.052 61.5493 91.052 62.168C91.052 62.792 90.9453 63.36 90.732 63.872C90.5187 64.384 90.196 64.808 89.764 65.144C89.3373 65.48 88.804 65.6987 88.164 65.8C88.0147 65.8213 87.8547 65.8373 87.684 65.848C87.5187 65.8587 87.3827 65.864 87.276 65.864H84.292V70H82.62ZM84.292 64.28H87.212C87.3187 64.28 87.436 64.2747 87.564 64.264C87.6973 64.2533 87.8227 64.2347 87.94 64.208C88.2813 64.128 88.556 63.9813 88.764 63.768C88.972 63.5493 89.1213 63.2987 89.212 63.016C89.3027 62.7333 89.348 62.4507 89.348 62.168C89.348 61.8853 89.3027 61.6053 89.212 61.328C89.1213 61.0453 88.972 60.7973 88.764 60.584C88.556 60.3653 88.2813 60.216 87.94 60.136C87.8227 60.104 87.6973 60.0827 87.564 60.072C87.436 60.0613 87.3187 60.056 87.212 60.056H84.292V64.28ZM96.2939 70.24C95.4299 70.24 94.6805 70.0453 94.0459 69.656C93.4112 69.2667 92.9205 68.7307 92.5739 68.048C92.2325 67.36 92.0619 66.568 92.0619 65.672C92.0619 64.7707 92.2379 63.9787 92.5899 63.296C92.9419 62.608 93.4352 62.0747 94.0699 61.696C94.7045 61.312 95.4459 61.12 96.2939 61.12C97.1579 61.12 97.9072 61.3147 98.5419 61.704C99.1765 62.0933 99.6672 62.6293 100.014 63.312C100.361 63.9947 100.534 64.7813 100.534 65.672C100.534 66.5733 100.358 67.368 100.006 68.056C99.6592 68.7387 99.1685 69.2747 98.5339 69.664C97.8992 70.048 97.1525 70.24 96.2939 70.24ZM96.2939 68.664C97.1205 68.664 97.7365 68.3867 98.1419 67.832C98.5525 67.272 98.7579 66.552 98.7579 65.672C98.7579 64.7707 98.5499 64.0507 98.1339 63.512C97.7232 62.968 97.1099 62.696 96.2939 62.696C95.7339 62.696 95.2725 62.824 94.9099 63.08C94.5472 63.3307 94.2779 63.68 94.1019 64.128C93.9259 64.5707 93.8379 65.0853 93.8379 65.672C93.8379 66.5787 94.0459 67.304 94.4619 67.848C94.8779 68.392 95.4885 68.664 96.2939 68.664ZM105.44 70.232C104.389 70.232 103.533 70 102.872 69.536C102.21 69.072 101.805 68.4187 101.656 67.576L103.368 67.312C103.474 67.76 103.72 68.1147 104.104 68.376C104.493 68.632 104.976 68.76 105.552 68.76C106.074 68.76 106.482 68.6533 106.776 68.44C107.074 68.2267 107.224 67.9333 107.224 67.56C107.224 67.3413 107.17 67.1653 107.064 67.032C106.962 66.8933 106.746 66.7627 106.416 66.64C106.085 66.5173 105.581 66.3653 104.904 66.184C104.162 65.992 103.573 65.7867 103.136 65.568C102.704 65.344 102.394 65.0853 102.208 64.792C102.026 64.4933 101.936 64.1333 101.936 63.712C101.936 63.1893 102.074 62.7333 102.352 62.344C102.629 61.9547 103.018 61.6533 103.52 61.44C104.026 61.2267 104.618 61.12 105.296 61.12C105.957 61.12 106.546 61.224 107.064 61.432C107.581 61.64 108 61.936 108.32 62.32C108.64 62.6987 108.832 63.144 108.896 63.656L107.184 63.968C107.125 63.552 106.93 63.224 106.6 62.984C106.269 62.744 105.84 62.6133 105.312 62.592C104.805 62.5707 104.394 62.656 104.08 62.848C103.765 63.0347 103.608 63.2933 103.608 63.624C103.608 63.816 103.666 63.9787 103.784 64.112C103.906 64.2453 104.141 64.3733 104.488 64.496C104.834 64.6187 105.346 64.7653 106.024 64.936C106.749 65.1227 107.325 65.3307 107.752 65.56C108.178 65.784 108.482 66.0533 108.664 66.368C108.85 66.6773 108.944 67.0533 108.944 67.496C108.944 68.3493 108.632 69.0187 108.008 69.504C107.389 69.9893 106.533 70.232 105.44 70.232ZM115.658 70C115.114 70.1067 114.58 70.152 114.058 70.136C113.535 70.12 113.068 70.0187 112.658 69.832C112.247 69.6453 111.938 69.352 111.73 68.952C111.543 68.5947 111.442 68.232 111.426 67.864C111.415 67.4907 111.41 67.0693 111.41 66.6V58.96H113.09V66.52C113.09 66.8667 113.092 67.168 113.098 67.424C113.108 67.68 113.164 67.896 113.266 68.072C113.458 68.4027 113.762 68.592 114.178 68.64C114.599 68.6827 115.092 68.664 115.658 68.584V70ZM109.754 62.704V61.36H115.658V62.704H109.754Z" fill="#DBDBDB"/>
<defs>
<linearGradient id="paint0_linear_8794_24183" x1="50.2284" y1="62.59" x2="340.472" y2="179.024" gradientUnits="userSpaceOnUse">
<stop stop-color="#FFC700"/>
<stop offset="1" stop-color="#FFD84D"/>
</linearGradient>
</defs>
</svg>
