<svg width="22" height="18" viewBox="0 0 22 18" fill="none" xmlns="http://www.w3.org/2000/svg">
<path d="M15.25 11.75L20.25 16.75M20.25 11.75L15.25 16.75M20.75 5.75H0.75M20.75 7.75V3.95C20.75 2.8299 20.75 2.26984 20.532 1.84202C20.3403 1.4657 20.0343 1.15974 19.658 0.967989C19.2302 0.75 18.6701 0.75 17.55 0.75H3.95C2.8299 0.75 2.26984 0.75 1.84202 0.967987C1.4657 1.15973 1.15973 1.46569 0.967987 1.84202C0.75 2.26984 0.75 2.8299 0.75 3.95V11.55C0.75 12.6701 0.75 13.2302 0.967987 13.658C1.15973 14.0343 1.46569 14.3403 1.84202 14.532C2.26984 14.75 2.8299 14.75 3.95 14.75H10.75" stroke="white" stroke-width="1.5" stroke-linecap="round" stroke-linejoin="round"/>
</svg>
