<svg width="20" height="20" viewBox="0 0 20 20" fill="none" xmlns="http://www.w3.org/2000/svg">
<path d="M8.86859 2.79934C9.2646 2.40332 9.46261 2.20531 9.69094 2.13113C9.89179 2.06587 10.1081 2.06587 10.309 2.13113C10.5373 2.20531 10.7353 2.40332 11.1313 2.79934L11.2529 2.92096C11.676 3.344 11.8875 3.55552 12.0691 3.63157C12.3174 3.73555 12.3098 3.73449 12.577 3.70176C12.7724 3.67781 13.335 3.3626 14.4601 2.73219C16.2047 1.75463 18.2466 3.7966 17.2691 5.54121C16.6387 6.6663 16.3234 7.22884 16.2995 7.42429C16.2668 7.69149 16.2657 7.68382 16.3697 7.93213C16.4457 8.11375 16.6573 8.32527 17.0803 8.74831L17.2019 8.86993C17.5979 9.26595 17.7959 9.46396 17.8701 9.69228C17.9354 9.89313 17.9354 10.1095 17.8701 10.3103C17.7959 10.5386 17.5979 10.7367 17.2019 11.1327L17.0803 11.2543C16.6573 11.6773 16.4457 11.8889 16.2641 11.9649C16.0158 12.0689 16.0235 12.0678 15.7563 12.0351C15.5608 12.0111 14.9983 11.6959 13.8732 11.0655C12.1286 10.088 10.0866 12.1299 11.0642 13.8745C11.6946 14.9996 12.0098 15.5622 12.0337 15.7576C12.0665 16.0248 12.0675 16.0172 11.9636 16.2655C11.8875 16.4471 11.676 16.6586 11.2529 17.0816L11.1313 17.2033C10.7353 17.5993 10.5373 17.7973 10.309 17.8715C10.1081 17.9367 9.89179 17.9367 9.69094 17.8715C9.46261 17.7973 9.26461 17.5993 8.86859 17.2033L8.74697 17.0816C8.32393 16.6586 8.11241 16.4471 7.93078 16.371C7.68247 16.2671 7.69015 16.2681 7.42294 16.3008C7.2275 16.3248 6.66495 16.64 5.53987 17.2704C3.79526 18.248 1.75329 16.206 2.73084 14.4614C3.36126 13.3363 3.67647 12.7738 3.70041 12.5783C3.73315 12.3111 3.73421 12.3188 3.63023 12.0705C3.55417 11.8889 3.34265 11.6773 2.91961 11.2543L2.798 11.1327C2.40198 10.7367 2.20397 10.5386 2.12978 10.3103C2.06452 10.1095 2.06452 9.89313 2.12978 9.69228C2.20397 9.46396 2.40198 9.26595 2.798 8.86993L2.91961 8.74832C3.34265 8.32527 3.55417 8.11375 3.7358 8.0377C3.98411 7.93372 3.97644 7.93478 4.24364 7.96752C4.43909 7.99146 5.00163 8.30667 6.12672 8.93709C7.87133 9.91464 9.9133 7.87267 8.93574 6.12806C8.30532 5.00297 7.99012 4.44043 7.96617 4.24498C7.93344 3.97778 7.93238 3.98545 8.03636 3.73714C8.11241 3.55552 8.32393 3.344 8.74697 2.92096L8.86859 2.79934Z" stroke="#9E660A" stroke-width="1.5" stroke-linecap="round" stroke-linejoin="round"/>
</svg>
