<svg width="20" height="20" viewBox="0 0 20 20" fill="none" xmlns="http://www.w3.org/2000/svg">
<path d="M8.86862 2.79934C9.26464 2.40332 9.46264 2.20531 9.69097 2.13113C9.89182 2.06587 10.1082 2.06587 10.309 2.13113C10.5373 2.20531 10.7353 2.40332 11.1314 2.79934L11.253 2.92096C11.676 3.344 11.8875 3.55552 12.0692 3.63157C12.3175 3.73555 12.3098 3.73449 12.577 3.70176C12.7725 3.67781 13.335 3.3626 14.4601 2.73219C16.2047 1.75463 18.2467 3.7966 17.2691 5.54121C16.6387 6.6663 16.3235 7.22884 16.2995 7.42429C16.2668 7.69149 16.2657 7.68382 16.3697 7.93213C16.4458 8.11375 16.6573 8.32527 17.0803 8.74831L17.202 8.86993C17.598 9.26595 17.796 9.46396 17.8702 9.69228C17.9354 9.89313 17.9354 10.1095 17.8702 10.3103C17.796 10.5386 17.598 10.7367 17.202 11.1327L17.0803 11.2543C16.6573 11.6773 16.4458 11.8889 16.2641 11.9649C16.0158 12.0689 16.0235 12.0678 15.7563 12.0351C15.5609 12.0111 14.9983 11.6959 13.8732 11.0655C12.1286 10.088 10.0867 12.1299 11.0642 13.8745C11.6946 14.9996 12.0098 15.5622 12.0338 15.7576C12.0665 16.0248 12.0676 16.0172 11.9636 16.2655C11.8875 16.4471 11.676 16.6586 11.253 17.0816L11.1314 17.2033C10.7353 17.5993 10.5373 17.7973 10.309 17.8715C10.1082 17.9367 9.89182 17.9367 9.69097 17.8715C9.46264 17.7973 9.26464 17.5993 8.86862 17.2033L8.747 17.0816C8.32396 16.6586 8.11244 16.4471 7.93081 16.371C7.68251 16.2671 7.69018 16.2681 7.42297 16.3008C7.22753 16.3248 6.66498 16.64 5.5399 17.2704C3.79529 18.248 1.75332 16.206 2.73087 14.4614C3.36129 13.3363 3.6765 12.7738 3.70044 12.5783C3.73318 12.3111 3.73424 12.3188 3.63026 12.0705C3.5542 11.8889 3.34268 11.6773 2.91964 11.2543L2.79803 11.1327C2.40201 10.7367 2.204 10.5386 2.12981 10.3103C2.06456 10.1095 2.06456 9.89313 2.12981 9.69228C2.204 9.46396 2.40201 9.26595 2.79803 8.86993L2.91964 8.74832C3.34268 8.32527 3.5542 8.11375 3.73583 8.0377C3.98414 7.93372 3.97647 7.93478 4.24367 7.96752C4.43912 7.99146 5.00166 8.30667 6.12675 8.93709C7.87136 9.91464 9.91333 7.87267 8.93577 6.12806C8.30536 5.00297 7.99015 4.44043 7.9662 4.24498C7.93347 3.97778 7.93241 3.98545 8.03639 3.73714C8.11244 3.55552 8.32396 3.344 8.747 2.92096L8.86862 2.79934Z" stroke="#767676" stroke-width="1.5" stroke-linecap="round" stroke-linejoin="round"/>
</svg>
