<svg width="120" height="120" viewBox="0 0 120 120" fill="none" xmlns="http://www.w3.org/2000/svg">
<path d="M5.71429 0H0V5.71429H5.71429V0Z" fill="#191919"/>
<path d="M11.4286 0H5.71429V5.71429H11.4286V0Z" fill="#191919"/>
<path d="M17.1429 0H11.4286V5.71429H17.1429V0Z" fill="#191919"/>
<path d="M22.8571 0H17.1429V5.71429H22.8571V0Z" fill="#191919"/>
<path d="M28.5714 0H22.8571V5.71429H28.5714V0Z" fill="#191919"/>
<path d="M34.2857 0H28.5714V5.71429H34.2857V0Z" fill="#191919"/>
<path d="M40 0H34.2857V5.71429H40V0Z" fill="#191919"/>
<path d="M51.4286 0H45.7143V5.71429H51.4286V0Z" fill="#191919"/>
<path d="M62.8571 0H57.1428V5.71429H62.8571V0Z" fill="#191919"/>
<path d="M68.5714 0H62.8571V5.71429H68.5714V0Z" fill="#191919"/>
<path d="M74.2857 0H68.5714V5.71429H74.2857V0Z" fill="#191919"/>
<path d="M85.7143 0H80V5.71429H85.7143V0Z" fill="#191919"/>
<path d="M91.4286 0H85.7143V5.71429H91.4286V0Z" fill="#191919"/>
<path d="M97.1429 0H91.4286V5.71429H97.1429V0Z" fill="#191919"/>
<path d="M102.857 0H97.1429V5.71429H102.857V0Z" fill="#191919"/>
<path d="M108.571 0H102.857V5.71429H108.571V0Z" fill="#191919"/>
<path d="M114.286 0H108.571V5.71429H114.286V0Z" fill="#191919"/>
<path d="M120 0H114.286V5.71429H120V0Z" fill="#191919"/>
<path d="M5.71429 5.71429H0V11.4286H5.71429V5.71429Z" fill="#191919"/>
<path d="M40 5.71429H34.2857V11.4286H40V5.71429Z" fill="#191919"/>
<path d="M57.1428 5.71429H51.4286L51.4286 11.4286H57.1429L57.1428 5.71429Z" fill="#191919"/>
<path d="M62.8571 5.71429H57.1428L57.1429 11.4286H62.8571V5.71429Z" fill="#191919"/>
<path d="M68.5714 5.71429H62.8571V11.4286H68.5714V5.71429Z" fill="#191919"/>
<path d="M74.2857 5.71429H68.5714V11.4286H74.2857V5.71429Z" fill="#191919"/>
<path d="M85.7143 5.71429H80V11.4286H85.7143V5.71429Z" fill="#191919"/>
<path d="M120 5.71429H114.286V11.4286H120V5.71429Z" fill="#191919"/>
<path d="M5.71429 11.4286H0V17.1429H5.71429V11.4286Z" fill="#191919"/>
<path d="M17.1429 11.4286H11.4286V17.1429H17.1429V11.4286Z" fill="#191919"/>
<path d="M22.8571 11.4286H17.1429V17.1429H22.8571V11.4286Z" fill="#191919"/>
<path d="M28.5714 11.4286H22.8571V17.1429H28.5714V11.4286Z" fill="#191919"/>
<path d="M40 11.4286H34.2857V17.1429H40V11.4286Z" fill="#191919"/>
<path d="M68.5714 11.4286H62.8571L62.8571 17.1429H68.5714V11.4286Z" fill="#191919"/>
<path d="M85.7143 11.4286H80V17.1429H85.7143V11.4286Z" fill="#191919"/>
<path d="M97.1429 11.4286H91.4286V17.1429H97.1429V11.4286Z" fill="#191919"/>
<path d="M102.857 11.4286H97.1429V17.1429H102.857V11.4286Z" fill="#191919"/>
<path d="M108.571 11.4286H102.857V17.1429H108.571V11.4286Z" fill="#191919"/>
<path d="M120 11.4286H114.286V17.1429H120V11.4286Z" fill="#191919"/>
<path d="M5.71429 17.1429H0V22.8571H5.71429V17.1429Z" fill="#191919"/>
<path d="M17.1429 17.1429H11.4286V22.8571H17.1429V17.1429Z" fill="#191919"/>
<path d="M22.8571 17.1429H17.1429V22.8571H22.8571V17.1429Z" fill="#191919"/>
<path d="M28.5714 17.1429H22.8571V22.8571H28.5714V17.1429Z" fill="#191919"/>
<path d="M40 17.1429H34.2857V22.8571H40V17.1429Z" fill="#191919"/>
<path d="M57.1429 17.1429H51.4286V22.8571H57.1429V17.1429Z" fill="#191919"/>
<path d="M62.8571 17.1429H57.1429V22.8571H62.8571L62.8571 17.1429Z" fill="#191919"/>
<path d="M68.5714 17.1429H62.8571L62.8571 22.8571H68.5714V17.1429Z" fill="#191919"/>
<path d="M85.7143 17.1429H80V22.8571H85.7143V17.1429Z" fill="#191919"/>
<path d="M97.1429 17.1429H91.4286V22.8571H97.1429V17.1429Z" fill="#191919"/>
<path d="M102.857 17.1429H97.1429V22.8571H102.857V17.1429Z" fill="#191919"/>
<path d="M108.571 17.1429H102.857V22.8571H108.571V17.1429Z" fill="#191919"/>
<path d="M120 17.1429H114.286V22.8571H120V17.1429Z" fill="#191919"/>
<path d="M5.71429 22.8571H0V28.5714H5.71429V22.8571Z" fill="#191919"/>
<path d="M17.1429 22.8571H11.4286V28.5714H17.1429V22.8571Z" fill="#191919"/>
<path d="M22.8571 22.8571H17.1429V28.5714H22.8571V22.8571Z" fill="#191919"/>
<path d="M28.5714 22.8571H22.8571V28.5714H28.5714V22.8571Z" fill="#191919"/>
<path d="M40 22.8571H34.2857V28.5714H40V22.8571Z" fill="#191919"/>
<path d="M51.4286 22.8571H45.7143V28.5714H51.4286L51.4286 22.8571Z" fill="#191919"/>
<path d="M57.1429 22.8571H51.4286L51.4286 28.5714H57.1429V22.8571Z" fill="#191919"/>
<path d="M62.8571 22.8571H57.1429V28.5714H62.8571V22.8571Z" fill="#191919"/>
<path d="M85.7143 22.8571H80V28.5714H85.7143V22.8571Z" fill="#191919"/>
<path d="M97.1429 22.8571H91.4286V28.5714H97.1429V22.8571Z" fill="#191919"/>
<path d="M102.857 22.8571H97.1429V28.5714H102.857V22.8571Z" fill="#191919"/>
<path d="M108.571 22.8571H102.857V28.5714H108.571V22.8571Z" fill="#191919"/>
<path d="M120 22.8571H114.286V28.5714H120V22.8571Z" fill="#191919"/>
<path d="M5.71429 28.5714H0V34.2857H5.71429V28.5714Z" fill="#191919"/>
<path d="M40 28.5714H34.2857V34.2857H40V28.5714Z" fill="#191919"/>
<path d="M85.7143 28.5714H80V34.2857H85.7143V28.5714Z" fill="#191919"/>
<path d="M120 28.5714H114.286V34.2857H120V28.5714Z" fill="#191919"/>
<path d="M5.71429 34.2857H0V40H5.71429V34.2857Z" fill="#191919"/>
<path d="M11.4286 34.2857H5.71429V40H11.4286V34.2857Z" fill="#191919"/>
<path d="M17.1429 34.2857H11.4286V40H17.1429V34.2857Z" fill="#191919"/>
<path d="M22.8571 34.2857H17.1429V40H22.8571V34.2857Z" fill="#191919"/>
<path d="M28.5714 34.2857H22.8571V40H28.5714V34.2857Z" fill="#191919"/>
<path d="M34.2857 34.2857H28.5714V40H34.2857V34.2857Z" fill="#191919"/>
<path d="M40 34.2857H34.2857V40H40V34.2857Z" fill="#191919"/>
<path d="M51.4286 34.2857H45.7143V40H51.4286V34.2857Z" fill="#191919"/>
<path d="M62.8571 34.2857H57.1428V40H62.8571V34.2857Z" fill="#191919"/>
<path d="M74.2857 34.2857H68.5714V40H74.2857V34.2857Z" fill="#191919"/>
<path d="M85.7143 34.2857H80V40H85.7143V34.2857Z" fill="#191919"/>
<path d="M91.4286 34.2857H85.7143V40H91.4286V34.2857Z" fill="#191919"/>
<path d="M97.1429 34.2857H91.4286V40H97.1429V34.2857Z" fill="#191919"/>
<path d="M102.857 34.2857H97.1429V40H102.857V34.2857Z" fill="#191919"/>
<path d="M108.571 34.2857H102.857V40H108.571V34.2857Z" fill="#191919"/>
<path d="M114.286 34.2857H108.571V40H114.286V34.2857Z" fill="#191919"/>
<path d="M120 34.2857H114.286V40H120V34.2857Z" fill="#191919"/>
<path d="M51.4286 40H45.7143V45.7143H51.4286V40Z" fill="#191919"/>
<path d="M62.8571 40H57.1428V45.7143H62.8571V40Z" fill="#191919"/>
<path d="M74.2857 40H68.5714V45.7143H74.2857V40Z" fill="#191919"/>
<path d="M5.71429 45.7143H0V51.4286H5.71429V45.7143Z" fill="#191919"/>
<path d="M22.8571 45.7143H17.1429V51.4286H22.8571V45.7143Z" fill="#191919"/>
<path d="M28.5714 45.7143H22.8571V51.4286H28.5714V45.7143Z" fill="#191919"/>
<path d="M34.2857 45.7143H28.5714V51.4286H34.2857V45.7143Z" fill="#191919"/>
<path d="M40 45.7143H34.2857V51.4286H40V45.7143Z" fill="#191919"/>
<path d="M45.7143 45.7143L40 45.7143V51.4286H45.7143L45.7143 45.7143Z" fill="#191919"/>
<path d="M51.4286 45.7143H45.7143L45.7143 51.4286H51.4286V45.7143Z" fill="#191919"/>
<path d="M74.2857 45.7143H68.5714V51.4286H74.2857V45.7143Z" fill="#191919"/>
<path d="M80 45.7143L74.2857 45.7143V51.4286H80V45.7143Z" fill="#191919"/>
<path d="M85.7143 45.7143H80V51.4286H85.7143V45.7143Z" fill="#191919"/>
<path d="M97.1429 45.7143H91.4286V51.4286H97.1429V45.7143Z" fill="#191919"/>
<path d="M120 45.7143H114.286V51.4286H120V45.7143Z" fill="#191919"/>
<path d="M5.71429 51.4286H0V57.1429H5.71429V51.4286Z" fill="#191919"/>
<path d="M11.4286 51.4286L5.71429 51.4286V57.1429H11.4286V51.4286Z" fill="#191919"/>
<path d="M17.1429 51.4286L11.4286 51.4286V57.1429H17.1429V51.4286Z" fill="#191919"/>
<path d="M22.8571 51.4286H17.1429V57.1429H22.8571V51.4286Z" fill="#191919"/>
<path d="M34.2857 51.4286H28.5714V57.1429H34.2857V51.4286Z" fill="#191919"/>
<path d="M51.4286 51.4286H45.7143L45.7143 57.1429H51.4286V51.4286Z" fill="#191919"/>
<path d="M57.1429 51.4286L51.4286 51.4286V57.1429H57.1429V51.4286Z" fill="#191919"/>
<path d="M62.8571 51.4286H57.1429V57.1429H62.8571V51.4286Z" fill="#191919"/>
<path d="M74.2857 51.4286H68.5714V57.1429H74.2857V51.4286Z" fill="#191919"/>
<path d="M85.7143 51.4286H80V57.1429H85.7143V51.4286Z" fill="#191919"/>
<path d="M91.4286 51.4286H85.7143V57.1429H91.4286V51.4286Z" fill="#191919"/>
<path d="M97.1429 51.4286H91.4286V57.1429H97.1429V51.4286Z" fill="#191919"/>
<path d="M102.857 51.4286L97.1429 51.4286V57.1429H102.857V51.4286Z" fill="#191919"/>
<path d="M108.571 51.4286H102.857V57.1429H108.571V51.4286Z" fill="#191919"/>
<path d="M114.286 51.4286L108.571 51.4286V57.1429H114.286V51.4286Z" fill="#191919"/>
<path d="M40 57.1428L34.2857 57.1429V62.8571H40V57.1428Z" fill="#191919"/>
<path d="M45.7143 57.1429L40 57.1428V62.8571H45.7143L45.7143 57.1429Z" fill="#191919"/>
<path d="M51.4286 57.1429H45.7143L45.7143 62.8571H51.4286V57.1429Z" fill="#191919"/>
<path d="M57.1429 57.1429H51.4286V62.8571H57.1429V57.1429Z" fill="#191919"/>
<path d="M68.5714 57.1429H62.8571L62.8571 62.8571H68.5714V57.1429Z" fill="#191919"/>
<path d="M80 57.1429H74.2857V62.8571H80V57.1429Z" fill="#191919"/>
<path d="M85.7143 57.1429H80V62.8571H85.7143V57.1429Z" fill="#191919"/>
<path d="M91.4286 57.1429H85.7143V62.8571H91.4286V57.1429Z" fill="#191919"/>
<path d="M102.857 57.1429H97.1429V62.8571H102.857V57.1429Z" fill="#191919"/>
<path d="M114.286 57.1429H108.571V62.8571H114.286V57.1429Z" fill="#191919"/>
<path d="M120 57.1428L114.286 57.1429V62.8571H120V57.1428Z" fill="#191919"/>
<path d="M5.71429 62.8571H0V68.5714H5.71429V62.8571Z" fill="#191919"/>
<path d="M11.4286 62.8571H5.71429V68.5714H11.4286V62.8571Z" fill="#191919"/>
<path d="M17.1429 62.8571H11.4286V68.5714H17.1429V62.8571Z" fill="#191919"/>
<path d="M22.8571 62.8571H17.1429V68.5714H22.8571V62.8571Z" fill="#191919"/>
<path d="M34.2857 62.8571L28.5714 62.8571V68.5714H34.2857V62.8571Z" fill="#191919"/>
<path d="M45.7143 62.8571H40V68.5714H45.7143V62.8571Z" fill="#191919"/>
<path d="M51.4286 62.8571H45.7143V68.5714H51.4286V62.8571Z" fill="#191919"/>
<path d="M57.1429 62.8571H51.4286V68.5714H57.1429V62.8571Z" fill="#191919"/>
<path d="M62.8571 62.8571H57.1429V68.5714H62.8571L62.8571 62.8571Z" fill="#191919"/>
<path d="M91.4286 62.8571H85.7143V68.5714H91.4286V62.8571Z" fill="#191919"/>
<path d="M97.1429 62.8571H91.4286V68.5714H97.1429V62.8571Z" fill="#191919"/>
<path d="M102.857 62.8571H97.1429V68.5714H102.857V62.8571Z" fill="#191919"/>
<path d="M108.571 62.8571H102.857V68.5714H108.571V62.8571Z" fill="#191919"/>
<path d="M5.71429 68.5714H0V74.2857H5.71429V68.5714Z" fill="#191919"/>
<path d="M11.4286 68.5714H5.71429V74.2857H11.4286V68.5714Z" fill="#191919"/>
<path d="M22.8571 68.5714H17.1429V74.2857H22.8571V68.5714Z" fill="#191919"/>
<path d="M28.5714 68.5714H22.8571V74.2857H28.5714V68.5714Z" fill="#191919"/>
<path d="M40 68.5714H34.2857V74.2857H40V68.5714Z" fill="#191919"/>
<path d="M45.7143 68.5714H40V74.2857H45.7143V68.5714Z" fill="#191919"/>
<path d="M57.1429 68.5714H51.4286L51.4286 74.2857H57.1429V68.5714Z" fill="#191919"/>
<path d="M74.2857 68.5714H68.5714V74.2857H74.2857V68.5714Z" fill="#191919"/>
<path d="M80 68.5714H74.2857V74.2857H80V68.5714Z" fill="#191919"/>
<path d="M85.7143 68.5714H80V74.2857H85.7143V68.5714Z" fill="#191919"/>
<path d="M91.4286 68.5714H85.7143V74.2857H91.4286V68.5714Z" fill="#191919"/>
<path d="M102.857 68.5714H97.1429V74.2857H102.857V68.5714Z" fill="#191919"/>
<path d="M120 68.5714H114.286V74.2857H120V68.5714Z" fill="#191919"/>
<path d="M51.4286 74.2857H45.7143L45.7143 80H51.4286L51.4286 74.2857Z" fill="#191919"/>
<path d="M68.5714 74.2857H62.8571V80H68.5714V74.2857Z" fill="#191919"/>
<path d="M74.2857 74.2857H68.5714V80H74.2857V74.2857Z" fill="#191919"/>
<path d="M80 74.2857H74.2857V80H80V74.2857Z" fill="#191919"/>
<path d="M85.7143 74.2857H80V80H85.7143V74.2857Z" fill="#191919"/>
<path d="M114.286 74.2857H108.571V80H114.286V74.2857Z" fill="#191919"/>
<path d="M120 74.2857H114.286V80H120V74.2857Z" fill="#191919"/>
<path d="M5.71429 80H0V85.7143H5.71429V80Z" fill="#191919"/>
<path d="M11.4286 80H5.71429V85.7143H11.4286V80Z" fill="#191919"/>
<path d="M17.1429 80H11.4286V85.7143H17.1429V80Z" fill="#191919"/>
<path d="M22.8571 80H17.1429V85.7143H22.8571V80Z" fill="#191919"/>
<path d="M28.5714 80H22.8571V85.7143H28.5714V80Z" fill="#191919"/>
<path d="M34.2857 80H28.5714V85.7143H34.2857V80Z" fill="#191919"/>
<path d="M40 80H34.2857V85.7143H40V80Z" fill="#191919"/>
<path d="M51.4286 80H45.7143V85.7143H51.4286V80Z" fill="#191919"/>
<path d="M62.8571 80H57.1428V85.7143H62.8571L62.8571 80Z" fill="#191919"/>
<path d="M68.5714 80H62.8571L62.8571 85.7143H68.5714V80Z" fill="#191919"/>
<path d="M74.2857 80H68.5714V85.7143H74.2857V80Z" fill="#191919"/>
<path d="M80 80H74.2857V85.7143H80V80Z" fill="#191919"/>
<path d="M97.1429 80H91.4286V85.7143H97.1429V80Z" fill="#191919"/>
<path d="M108.571 80H102.857V85.7143H108.571V80Z" fill="#191919"/>
<path d="M114.286 80H108.571V85.7143H114.286V80Z" fill="#191919"/>
<path d="M120 80H114.286V85.7143H120V80Z" fill="#191919"/>
<path d="M5.71429 85.7143H0V91.4286H5.71429V85.7143Z" fill="#191919"/>
<path d="M40 85.7143H34.2857V91.4286H40V85.7143Z" fill="#191919"/>
<path d="M51.4286 85.7143H45.7143V91.4286H51.4286V85.7143Z" fill="#191919"/>
<path d="M57.1428 85.7143H51.4286V91.4286H57.1429L57.1428 85.7143Z" fill="#191919"/>
<path d="M62.8571 85.7143H57.1428L57.1429 91.4286H62.8571V85.7143Z" fill="#191919"/>
<path d="M91.4286 85.7143H85.7143V91.4286H91.4286V85.7143Z" fill="#191919"/>
<path d="M97.1429 85.7143H91.4286V91.4286H97.1429V85.7143Z" fill="#191919"/>
<path d="M102.857 85.7143H97.1429V91.4286H102.857V85.7143Z" fill="#191919"/>
<path d="M108.571 85.7143H102.857V91.4286H108.571V85.7143Z" fill="#191919"/>
<path d="M5.71429 91.4286H0V97.1429H5.71429V91.4286Z" fill="#191919"/>
<path d="M17.1429 91.4286H11.4286V97.1429H17.1429V91.4286Z" fill="#191919"/>
<path d="M22.8571 91.4286H17.1429V97.1429H22.8571V91.4286Z" fill="#191919"/>
<path d="M28.5714 91.4286H22.8571V97.1429H28.5714V91.4286Z" fill="#191919"/>
<path d="M40 91.4286H34.2857V97.1429H40V91.4286Z" fill="#191919"/>
<path d="M51.4286 91.4286H45.7143V97.1429H51.4286V91.4286Z" fill="#191919"/>
<path d="M62.8571 91.4286H57.1429L57.1428 97.1429H62.8571V91.4286Z" fill="#191919"/>
<path d="M68.5714 91.4286H62.8571V97.1429H68.5714V91.4286Z" fill="#191919"/>
<path d="M97.1429 91.4286H91.4286V97.1429H97.1429V91.4286Z" fill="#191919"/>
<path d="M108.571 91.4286H102.857V97.1429H108.571V91.4286Z" fill="#191919"/>
<path d="M114.286 91.4286H108.571V97.1429H114.286V91.4286Z" fill="#191919"/>
<path d="M5.71429 97.1429H0V102.857H5.71429V97.1429Z" fill="#191919"/>
<path d="M17.1429 97.1429H11.4286V102.857H17.1429V97.1429Z" fill="#191919"/>
<path d="M22.8571 97.1429H17.1429V102.857H22.8571V97.1429Z" fill="#191919"/>
<path d="M28.5714 97.1429H22.8571V102.857H28.5714V97.1429Z" fill="#191919"/>
<path d="M40 97.1429H34.2857V102.857H40V97.1429Z" fill="#191919"/>
<path d="M51.4286 97.1429H45.7143V102.857H51.4286V97.1429Z" fill="#191919"/>
<path d="M57.1428 97.1429H51.4286V102.857H57.1429L57.1428 97.1429Z" fill="#191919"/>
<path d="M62.8571 97.1429H57.1428L57.1429 102.857H62.8571V97.1429Z" fill="#191919"/>
<path d="M91.4286 97.1429H85.7143V102.857H91.4286V97.1429Z" fill="#191919"/>
<path d="M97.1429 97.1429H91.4286V102.857H97.1429V97.1429Z" fill="#191919"/>
<path d="M102.857 97.1429H97.1429V102.857H102.857V97.1429Z" fill="#191919"/>
<path d="M108.571 97.1429H102.857V102.857H108.571V97.1429Z" fill="#191919"/>
<path d="M5.71429 102.857H0V108.571H5.71429V102.857Z" fill="#191919"/>
<path d="M17.1429 102.857H11.4286V108.571H17.1429V102.857Z" fill="#191919"/>
<path d="M22.8571 102.857H17.1429V108.571H22.8571V102.857Z" fill="#191919"/>
<path d="M28.5714 102.857H22.8571V108.571H28.5714V102.857Z" fill="#191919"/>
<path d="M40 102.857H34.2857V108.571H40V102.857Z" fill="#191919"/>
<path d="M62.8571 102.857H57.1429L57.1428 108.571H62.8571V102.857Z" fill="#191919"/>
<path d="M68.5714 102.857H62.8571V108.571H68.5714V102.857Z" fill="#191919"/>
<path d="M74.2857 102.857H68.5714V108.571H74.2857V102.857Z" fill="#191919"/>
<path d="M80 102.857H74.2857V108.571H80V102.857Z" fill="#191919"/>
<path d="M97.1429 102.857H91.4286V108.571H97.1429V102.857Z" fill="#191919"/>
<path d="M108.571 102.857H102.857V108.571H108.571V102.857Z" fill="#191919"/>
<path d="M114.286 102.857H108.571V108.571H114.286V102.857Z" fill="#191919"/>
<path d="M120 102.857H114.286V108.571H120V102.857Z" fill="#191919"/>
<path d="M5.71429 108.571H0V114.286H5.71429V108.571Z" fill="#191919"/>
<path d="M40 108.571H34.2857V114.286H40V108.571Z" fill="#191919"/>
<path d="M57.1428 108.571H51.4286V114.286H57.1429L57.1428 108.571Z" fill="#191919"/>
<path d="M68.5714 108.571H62.8571L62.8571 114.286H68.5714V108.571Z" fill="#191919"/>
<path d="M74.2857 108.571H68.5714V114.286H74.2857V108.571Z" fill="#191919"/>
<path d="M80 108.571H74.2857V114.286H80V108.571Z" fill="#191919"/>
<path d="M85.7143 108.571H80V114.286H85.7143V108.571Z" fill="#191919"/>
<path d="M91.4286 108.571H85.7143V114.286H91.4286V108.571Z" fill="#191919"/>
<path d="M97.1429 108.571H91.4286V114.286H97.1429V108.571Z" fill="#191919"/>
<path d="M102.857 108.571H97.1429V114.286H102.857V108.571Z" fill="#191919"/>
<path d="M5.71429 114.286H0V120H5.71429V114.286Z" fill="#191919"/>
<path d="M11.4286 114.286H5.71429V120H11.4286V114.286Z" fill="#191919"/>
<path d="M17.1429 114.286H11.4286V120H17.1429V114.286Z" fill="#191919"/>
<path d="M22.8571 114.286H17.1429V120H22.8571V114.286Z" fill="#191919"/>
<path d="M28.5714 114.286H22.8571V120H28.5714V114.286Z" fill="#191919"/>
<path d="M34.2857 114.286H28.5714V120H34.2857V114.286Z" fill="#191919"/>
<path d="M40 114.286H34.2857V120H40V114.286Z" fill="#191919"/>
<path d="M51.4286 114.286H45.7143V120H51.4286L51.4286 114.286Z" fill="#191919"/>
<path d="M57.1429 114.286H51.4286L51.4286 120H57.1429V114.286Z" fill="#191919"/>
<path d="M68.5714 114.286H62.8571V120H68.5714V114.286Z" fill="#191919"/>
<path d="M97.1429 114.286H91.4286V120H97.1429V114.286Z" fill="#191919"/>
<path d="M102.857 114.286H97.1429V120H102.857V114.286Z" fill="#191919"/>
<path d="M120 114.286H114.286V120H120V114.286Z" fill="#191919"/>
</svg>
