<svg width="152" height="152" viewBox="0 0 152 152" fill="none" xmlns="http://www.w3.org/2000/svg">
<rect x="1" y="1" width="150" height="150" rx="15" fill="white"/>
<rect x="1" y="1" width="150" height="150" rx="15" stroke="url(#paint0_linear_8824_26254)" stroke-width="2"/>
<path d="M21.7143 16H16V21.7143H21.7143V16Z" fill="#191919"/>
<path d="M27.4286 16H21.7143V21.7143H27.4286V16Z" fill="#191919"/>
<path d="M33.1429 16H27.4286V21.7143H33.1429V16Z" fill="#191919"/>
<path d="M38.8571 16H33.1429V21.7143H38.8571V16Z" fill="#191919"/>
<path d="M44.5714 16H38.8571V21.7143H44.5714V16Z" fill="#191919"/>
<path d="M50.2857 16H44.5714V21.7143H50.2857V16Z" fill="#191919"/>
<path d="M56 16H50.2857V21.7143H56V16Z" fill="#191919"/>
<path d="M67.4286 16H61.7143V21.7143H67.4286V16Z" fill="#191919"/>
<path d="M78.8571 16H73.1428V21.7143H78.8571V16Z" fill="#191919"/>
<path d="M84.5714 16H78.8571V21.7143H84.5714V16Z" fill="#191919"/>
<path d="M90.2857 16H84.5714V21.7143H90.2857V16Z" fill="#191919"/>
<path d="M101.714 16H96V21.7143H101.714V16Z" fill="#191919"/>
<path d="M107.429 16H101.714V21.7143H107.429V16Z" fill="#191919"/>
<path d="M113.143 16H107.429V21.7143H113.143V16Z" fill="#191919"/>
<path d="M118.857 16H113.143V21.7143H118.857V16Z" fill="#191919"/>
<path d="M124.571 16H118.857V21.7143H124.571V16Z" fill="#191919"/>
<path d="M130.286 16H124.571V21.7143H130.286V16Z" fill="#191919"/>
<path d="M136 16H130.286V21.7143H136V16Z" fill="#191919"/>
<path d="M21.7143 21.7143H16V27.4286H21.7143V21.7143Z" fill="#191919"/>
<path d="M56 21.7143H50.2857V27.4286H56V21.7143Z" fill="#191919"/>
<path d="M73.1428 21.7143H67.4286L67.4286 27.4286H73.1429L73.1428 21.7143Z" fill="#191919"/>
<path d="M78.8571 21.7143H73.1428L73.1429 27.4286H78.8571V21.7143Z" fill="#191919"/>
<path d="M84.5714 21.7143H78.8571V27.4286H84.5714V21.7143Z" fill="#191919"/>
<path d="M90.2857 21.7143H84.5714V27.4286H90.2857V21.7143Z" fill="#191919"/>
<path d="M101.714 21.7143H96V27.4286H101.714V21.7143Z" fill="#191919"/>
<path d="M136 21.7143H130.286V27.4286H136V21.7143Z" fill="#191919"/>
<path d="M21.7143 27.4286H16V33.1429H21.7143V27.4286Z" fill="#191919"/>
<path d="M33.1429 27.4286H27.4286V33.1429H33.1429V27.4286Z" fill="#191919"/>
<path d="M38.8571 27.4286H33.1429V33.1429H38.8571V27.4286Z" fill="#191919"/>
<path d="M44.5714 27.4286H38.8571V33.1429H44.5714V27.4286Z" fill="#191919"/>
<path d="M56 27.4286H50.2857V33.1429H56V27.4286Z" fill="#191919"/>
<path d="M84.5714 27.4286H78.8571L78.8571 33.1429H84.5714V27.4286Z" fill="#191919"/>
<path d="M101.714 27.4286H96V33.1429H101.714V27.4286Z" fill="#191919"/>
<path d="M113.143 27.4286H107.429V33.1429H113.143V27.4286Z" fill="#191919"/>
<path d="M118.857 27.4286H113.143V33.1429H118.857V27.4286Z" fill="#191919"/>
<path d="M124.571 27.4286H118.857V33.1429H124.571V27.4286Z" fill="#191919"/>
<path d="M136 27.4286H130.286V33.1429H136V27.4286Z" fill="#191919"/>
<path d="M21.7143 33.1429H16V38.8571H21.7143V33.1429Z" fill="#191919"/>
<path d="M33.1429 33.1429H27.4286V38.8571H33.1429V33.1429Z" fill="#191919"/>
<path d="M38.8571 33.1429H33.1429V38.8571H38.8571V33.1429Z" fill="#191919"/>
<path d="M44.5714 33.1429H38.8571V38.8571H44.5714V33.1429Z" fill="#191919"/>
<path d="M56 33.1429H50.2857V38.8571H56V33.1429Z" fill="#191919"/>
<path d="M73.1429 33.1429H67.4286V38.8571H73.1429V33.1429Z" fill="#191919"/>
<path d="M78.8571 33.1429H73.1429V38.8571H78.8571L78.8571 33.1429Z" fill="#191919"/>
<path d="M84.5714 33.1429H78.8571L78.8571 38.8571H84.5714V33.1429Z" fill="#191919"/>
<path d="M101.714 33.1429H96V38.8571H101.714V33.1429Z" fill="#191919"/>
<path d="M113.143 33.1429H107.429V38.8571H113.143V33.1429Z" fill="#191919"/>
<path d="M118.857 33.1429H113.143V38.8571H118.857V33.1429Z" fill="#191919"/>
<path d="M124.571 33.1429H118.857V38.8571H124.571V33.1429Z" fill="#191919"/>
<path d="M136 33.1429H130.286V38.8571H136V33.1429Z" fill="#191919"/>
<path d="M21.7143 38.8571H16V44.5714H21.7143V38.8571Z" fill="#191919"/>
<path d="M33.1429 38.8571H27.4286V44.5714H33.1429V38.8571Z" fill="#191919"/>
<path d="M38.8571 38.8571H33.1429V44.5714H38.8571V38.8571Z" fill="#191919"/>
<path d="M44.5714 38.8571H38.8571V44.5714H44.5714V38.8571Z" fill="#191919"/>
<path d="M56 38.8571H50.2857V44.5714H56V38.8571Z" fill="#191919"/>
<path d="M67.4286 38.8571H61.7143V44.5714H67.4286L67.4286 38.8571Z" fill="#191919"/>
<path d="M73.1429 38.8571H67.4286L67.4286 44.5714H73.1429V38.8571Z" fill="#191919"/>
<path d="M78.8571 38.8571H73.1429V44.5714H78.8571V38.8571Z" fill="#191919"/>
<path d="M101.714 38.8571H96V44.5714H101.714V38.8571Z" fill="#191919"/>
<path d="M113.143 38.8571H107.429V44.5714H113.143V38.8571Z" fill="#191919"/>
<path d="M118.857 38.8571H113.143V44.5714H118.857V38.8571Z" fill="#191919"/>
<path d="M124.571 38.8571H118.857V44.5714H124.571V38.8571Z" fill="#191919"/>
<path d="M136 38.8571H130.286V44.5714H136V38.8571Z" fill="#191919"/>
<path d="M21.7143 44.5714H16V50.2857H21.7143V44.5714Z" fill="#191919"/>
<path d="M56 44.5714H50.2857V50.2857H56V44.5714Z" fill="#191919"/>
<path d="M101.714 44.5714H96V50.2857H101.714V44.5714Z" fill="#191919"/>
<path d="M136 44.5714H130.286V50.2857H136V44.5714Z" fill="#191919"/>
<path d="M21.7143 50.2857H16V56H21.7143V50.2857Z" fill="#191919"/>
<path d="M27.4286 50.2857H21.7143V56H27.4286V50.2857Z" fill="#191919"/>
<path d="M33.1429 50.2857H27.4286V56H33.1429V50.2857Z" fill="#191919"/>
<path d="M38.8571 50.2857H33.1429V56H38.8571V50.2857Z" fill="#191919"/>
<path d="M44.5714 50.2857H38.8571V56H44.5714V50.2857Z" fill="#191919"/>
<path d="M50.2857 50.2857H44.5714V56H50.2857V50.2857Z" fill="#191919"/>
<path d="M56 50.2857H50.2857V56H56V50.2857Z" fill="#191919"/>
<path d="M67.4286 50.2857H61.7143V56H67.4286V50.2857Z" fill="#191919"/>
<path d="M78.8571 50.2857H73.1428V56H78.8571V50.2857Z" fill="#191919"/>
<path d="M90.2857 50.2857H84.5714V56H90.2857V50.2857Z" fill="#191919"/>
<path d="M101.714 50.2857H96V56H101.714V50.2857Z" fill="#191919"/>
<path d="M107.429 50.2857H101.714V56H107.429V50.2857Z" fill="#191919"/>
<path d="M113.143 50.2857H107.429V56H113.143V50.2857Z" fill="#191919"/>
<path d="M118.857 50.2857H113.143V56H118.857V50.2857Z" fill="#191919"/>
<path d="M124.571 50.2857H118.857V56H124.571V50.2857Z" fill="#191919"/>
<path d="M130.286 50.2857H124.571V56H130.286V50.2857Z" fill="#191919"/>
<path d="M136 50.2857H130.286V56H136V50.2857Z" fill="#191919"/>
<path d="M67.4286 56H61.7143V61.7143H67.4286V56Z" fill="#191919"/>
<path d="M78.8571 56H73.1428V61.7143H78.8571V56Z" fill="#191919"/>
<path d="M90.2857 56H84.5714V61.7143H90.2857V56Z" fill="#191919"/>
<path d="M21.7143 61.7143H16V67.4286H21.7143V61.7143Z" fill="#191919"/>
<path d="M38.8571 61.7143H33.1429V67.4286H38.8571V61.7143Z" fill="#191919"/>
<path d="M44.5714 61.7143H38.8571V67.4286H44.5714V61.7143Z" fill="#191919"/>
<path d="M50.2857 61.7143H44.5714V67.4286H50.2857V61.7143Z" fill="#191919"/>
<path d="M56 61.7143H50.2857V67.4286H56V61.7143Z" fill="#191919"/>
<path d="M61.7143 61.7143L56 61.7143V67.4286H61.7143L61.7143 61.7143Z" fill="#191919"/>
<path d="M67.4286 61.7143H61.7143L61.7143 67.4286H67.4286V61.7143Z" fill="#191919"/>
<path d="M90.2857 61.7143H84.5714V67.4286H90.2857V61.7143Z" fill="#191919"/>
<path d="M96 61.7143L90.2857 61.7143V67.4286H96V61.7143Z" fill="#191919"/>
<path d="M101.714 61.7143H96V67.4286H101.714V61.7143Z" fill="#191919"/>
<path d="M113.143 61.7143H107.429V67.4286H113.143V61.7143Z" fill="#191919"/>
<path d="M136 61.7143H130.286V67.4286H136V61.7143Z" fill="#191919"/>
<path d="M21.7143 67.4286H16V73.1429H21.7143V67.4286Z" fill="#191919"/>
<path d="M27.4286 67.4286L21.7143 67.4286V73.1429H27.4286V67.4286Z" fill="#191919"/>
<path d="M33.1429 67.4286L27.4286 67.4286V73.1429H33.1429V67.4286Z" fill="#191919"/>
<path d="M38.8571 67.4286H33.1429V73.1429H38.8571V67.4286Z" fill="#191919"/>
<path d="M50.2857 67.4286H44.5714V73.1429H50.2857V67.4286Z" fill="#191919"/>
<path d="M67.4286 67.4286H61.7143L61.7143 73.1429H67.4286V67.4286Z" fill="#191919"/>
<path d="M73.1429 67.4286L67.4286 67.4286V73.1429H73.1429V67.4286Z" fill="#191919"/>
<path d="M78.8571 67.4286H73.1429V73.1429H78.8571V67.4286Z" fill="#191919"/>
<path d="M90.2857 67.4286H84.5714V73.1429H90.2857V67.4286Z" fill="#191919"/>
<path d="M101.714 67.4286H96V73.1429H101.714V67.4286Z" fill="#191919"/>
<path d="M107.429 67.4286H101.714V73.1429H107.429V67.4286Z" fill="#191919"/>
<path d="M113.143 67.4286H107.429V73.1429H113.143V67.4286Z" fill="#191919"/>
<path d="M118.857 67.4286L113.143 67.4286V73.1429H118.857V67.4286Z" fill="#191919"/>
<path d="M124.571 67.4286H118.857V73.1429H124.571V67.4286Z" fill="#191919"/>
<path d="M130.286 67.4286L124.571 67.4286V73.1429H130.286V67.4286Z" fill="#191919"/>
<path d="M56 73.1428L50.2857 73.1429V78.8571H56V73.1428Z" fill="#191919"/>
<path d="M61.7143 73.1429L56 73.1428V78.8571H61.7143L61.7143 73.1429Z" fill="#191919"/>
<path d="M67.4286 73.1429H61.7143L61.7143 78.8571H67.4286V73.1429Z" fill="#191919"/>
<path d="M73.1429 73.1429H67.4286V78.8571H73.1429V73.1429Z" fill="#191919"/>
<path d="M84.5714 73.1429H78.8571L78.8571 78.8571H84.5714V73.1429Z" fill="#191919"/>
<path d="M96 73.1429H90.2857V78.8571H96V73.1429Z" fill="#191919"/>
<path d="M101.714 73.1429H96V78.8571H101.714V73.1429Z" fill="#191919"/>
<path d="M107.429 73.1429H101.714V78.8571H107.429V73.1429Z" fill="#191919"/>
<path d="M118.857 73.1429H113.143V78.8571H118.857V73.1429Z" fill="#191919"/>
<path d="M130.286 73.1429H124.571V78.8571H130.286V73.1429Z" fill="#191919"/>
<path d="M136 73.1428L130.286 73.1429V78.8571H136V73.1428Z" fill="#191919"/>
<path d="M21.7143 78.8571H16V84.5714H21.7143V78.8571Z" fill="#191919"/>
<path d="M27.4286 78.8571H21.7143V84.5714H27.4286V78.8571Z" fill="#191919"/>
<path d="M33.1429 78.8571H27.4286V84.5714H33.1429V78.8571Z" fill="#191919"/>
<path d="M38.8571 78.8571H33.1429V84.5714H38.8571V78.8571Z" fill="#191919"/>
<path d="M50.2857 78.8571L44.5714 78.8571V84.5714H50.2857V78.8571Z" fill="#191919"/>
<path d="M61.7143 78.8571H56V84.5714H61.7143V78.8571Z" fill="#191919"/>
<path d="M67.4286 78.8571H61.7143V84.5714H67.4286V78.8571Z" fill="#191919"/>
<path d="M73.1429 78.8571H67.4286V84.5714H73.1429V78.8571Z" fill="#191919"/>
<path d="M78.8571 78.8571H73.1429V84.5714H78.8571L78.8571 78.8571Z" fill="#191919"/>
<path d="M107.429 78.8571H101.714V84.5714H107.429V78.8571Z" fill="#191919"/>
<path d="M113.143 78.8571H107.429V84.5714H113.143V78.8571Z" fill="#191919"/>
<path d="M118.857 78.8571H113.143V84.5714H118.857V78.8571Z" fill="#191919"/>
<path d="M124.571 78.8571H118.857V84.5714H124.571V78.8571Z" fill="#191919"/>
<path d="M21.7143 84.5714H16V90.2857H21.7143V84.5714Z" fill="#191919"/>
<path d="M27.4286 84.5714H21.7143V90.2857H27.4286V84.5714Z" fill="#191919"/>
<path d="M38.8571 84.5714H33.1429V90.2857H38.8571V84.5714Z" fill="#191919"/>
<path d="M44.5714 84.5714H38.8571V90.2857H44.5714V84.5714Z" fill="#191919"/>
<path d="M56 84.5714H50.2857V90.2857H56V84.5714Z" fill="#191919"/>
<path d="M61.7143 84.5714H56V90.2857H61.7143V84.5714Z" fill="#191919"/>
<path d="M73.1429 84.5714H67.4286L67.4286 90.2857H73.1429V84.5714Z" fill="#191919"/>
<path d="M90.2857 84.5714H84.5714V90.2857H90.2857V84.5714Z" fill="#191919"/>
<path d="M96 84.5714H90.2857V90.2857H96V84.5714Z" fill="#191919"/>
<path d="M101.714 84.5714H96V90.2857H101.714V84.5714Z" fill="#191919"/>
<path d="M107.429 84.5714H101.714V90.2857H107.429V84.5714Z" fill="#191919"/>
<path d="M118.857 84.5714H113.143V90.2857H118.857V84.5714Z" fill="#191919"/>
<path d="M136 84.5714H130.286V90.2857H136V84.5714Z" fill="#191919"/>
<path d="M67.4286 90.2857H61.7143L61.7143 96H67.4286L67.4286 90.2857Z" fill="#191919"/>
<path d="M84.5714 90.2857H78.8571V96H84.5714V90.2857Z" fill="#191919"/>
<path d="M90.2857 90.2857H84.5714V96H90.2857V90.2857Z" fill="#191919"/>
<path d="M96 90.2857H90.2857V96H96V90.2857Z" fill="#191919"/>
<path d="M101.714 90.2857H96V96H101.714V90.2857Z" fill="#191919"/>
<path d="M130.286 90.2857H124.571V96H130.286V90.2857Z" fill="#191919"/>
<path d="M136 90.2857H130.286V96H136V90.2857Z" fill="#191919"/>
<path d="M21.7143 96H16V101.714H21.7143V96Z" fill="#191919"/>
<path d="M27.4286 96H21.7143V101.714H27.4286V96Z" fill="#191919"/>
<path d="M33.1429 96H27.4286V101.714H33.1429V96Z" fill="#191919"/>
<path d="M38.8571 96H33.1429V101.714H38.8571V96Z" fill="#191919"/>
<path d="M44.5714 96H38.8571V101.714H44.5714V96Z" fill="#191919"/>
<path d="M50.2857 96H44.5714V101.714H50.2857V96Z" fill="#191919"/>
<path d="M56 96H50.2857V101.714H56V96Z" fill="#191919"/>
<path d="M67.4286 96H61.7143V101.714H67.4286V96Z" fill="#191919"/>
<path d="M78.8571 96H73.1428V101.714H78.8571L78.8571 96Z" fill="#191919"/>
<path d="M84.5714 96H78.8571L78.8571 101.714H84.5714V96Z" fill="#191919"/>
<path d="M90.2857 96H84.5714V101.714H90.2857V96Z" fill="#191919"/>
<path d="M96 96H90.2857V101.714H96V96Z" fill="#191919"/>
<path d="M113.143 96H107.429V101.714H113.143V96Z" fill="#191919"/>
<path d="M124.571 96H118.857V101.714H124.571V96Z" fill="#191919"/>
<path d="M130.286 96H124.571V101.714H130.286V96Z" fill="#191919"/>
<path d="M136 96H130.286V101.714H136V96Z" fill="#191919"/>
<path d="M21.7143 101.714H16V107.429H21.7143V101.714Z" fill="#191919"/>
<path d="M56 101.714H50.2857V107.429H56V101.714Z" fill="#191919"/>
<path d="M67.4286 101.714H61.7143V107.429H67.4286V101.714Z" fill="#191919"/>
<path d="M73.1428 101.714H67.4286V107.429H73.1429L73.1428 101.714Z" fill="#191919"/>
<path d="M78.8571 101.714H73.1428L73.1429 107.429H78.8571V101.714Z" fill="#191919"/>
<path d="M107.429 101.714H101.714V107.429H107.429V101.714Z" fill="#191919"/>
<path d="M113.143 101.714H107.429V107.429H113.143V101.714Z" fill="#191919"/>
<path d="M118.857 101.714H113.143V107.429H118.857V101.714Z" fill="#191919"/>
<path d="M124.571 101.714H118.857V107.429H124.571V101.714Z" fill="#191919"/>
<path d="M21.7143 107.429H16V113.143H21.7143V107.429Z" fill="#191919"/>
<path d="M33.1429 107.429H27.4286V113.143H33.1429V107.429Z" fill="#191919"/>
<path d="M38.8571 107.429H33.1429V113.143H38.8571V107.429Z" fill="#191919"/>
<path d="M44.5714 107.429H38.8571V113.143H44.5714V107.429Z" fill="#191919"/>
<path d="M56 107.429H50.2857V113.143H56V107.429Z" fill="#191919"/>
<path d="M67.4286 107.429H61.7143V113.143H67.4286V107.429Z" fill="#191919"/>
<path d="M78.8571 107.429H73.1429L73.1428 113.143H78.8571V107.429Z" fill="#191919"/>
<path d="M84.5714 107.429H78.8571V113.143H84.5714V107.429Z" fill="#191919"/>
<path d="M113.143 107.429H107.429V113.143H113.143V107.429Z" fill="#191919"/>
<path d="M124.571 107.429H118.857V113.143H124.571V107.429Z" fill="#191919"/>
<path d="M130.286 107.429H124.571V113.143H130.286V107.429Z" fill="#191919"/>
<path d="M21.7143 113.143H16V118.857H21.7143V113.143Z" fill="#191919"/>
<path d="M33.1429 113.143H27.4286V118.857H33.1429V113.143Z" fill="#191919"/>
<path d="M38.8571 113.143H33.1429V118.857H38.8571V113.143Z" fill="#191919"/>
<path d="M44.5714 113.143H38.8571V118.857H44.5714V113.143Z" fill="#191919"/>
<path d="M56 113.143H50.2857V118.857H56V113.143Z" fill="#191919"/>
<path d="M67.4286 113.143H61.7143V118.857H67.4286V113.143Z" fill="#191919"/>
<path d="M73.1428 113.143H67.4286V118.857H73.1429L73.1428 113.143Z" fill="#191919"/>
<path d="M78.8571 113.143H73.1428L73.1429 118.857H78.8571V113.143Z" fill="#191919"/>
<path d="M107.429 113.143H101.714V118.857H107.429V113.143Z" fill="#191919"/>
<path d="M113.143 113.143H107.429V118.857H113.143V113.143Z" fill="#191919"/>
<path d="M118.857 113.143H113.143V118.857H118.857V113.143Z" fill="#191919"/>
<path d="M124.571 113.143H118.857V118.857H124.571V113.143Z" fill="#191919"/>
<path d="M21.7143 118.857H16V124.571H21.7143V118.857Z" fill="#191919"/>
<path d="M33.1429 118.857H27.4286V124.571H33.1429V118.857Z" fill="#191919"/>
<path d="M38.8571 118.857H33.1429V124.571H38.8571V118.857Z" fill="#191919"/>
<path d="M44.5714 118.857H38.8571V124.571H44.5714V118.857Z" fill="#191919"/>
<path d="M56 118.857H50.2857V124.571H56V118.857Z" fill="#191919"/>
<path d="M78.8571 118.857H73.1429L73.1428 124.571H78.8571V118.857Z" fill="#191919"/>
<path d="M84.5714 118.857H78.8571V124.571H84.5714V118.857Z" fill="#191919"/>
<path d="M90.2857 118.857H84.5714V124.571H90.2857V118.857Z" fill="#191919"/>
<path d="M96 118.857H90.2857V124.571H96V118.857Z" fill="#191919"/>
<path d="M113.143 118.857H107.429V124.571H113.143V118.857Z" fill="#191919"/>
<path d="M124.571 118.857H118.857V124.571H124.571V118.857Z" fill="#191919"/>
<path d="M130.286 118.857H124.571V124.571H130.286V118.857Z" fill="#191919"/>
<path d="M136 118.857H130.286V124.571H136V118.857Z" fill="#191919"/>
<path d="M21.7143 124.571H16V130.286H21.7143V124.571Z" fill="#191919"/>
<path d="M56 124.571H50.2857V130.286H56V124.571Z" fill="#191919"/>
<path d="M73.1428 124.571H67.4286V130.286H73.1429L73.1428 124.571Z" fill="#191919"/>
<path d="M84.5714 124.571H78.8571L78.8571 130.286H84.5714V124.571Z" fill="#191919"/>
<path d="M90.2857 124.571H84.5714V130.286H90.2857V124.571Z" fill="#191919"/>
<path d="M96 124.571H90.2857V130.286H96V124.571Z" fill="#191919"/>
<path d="M101.714 124.571H96V130.286H101.714V124.571Z" fill="#191919"/>
<path d="M107.429 124.571H101.714V130.286H107.429V124.571Z" fill="#191919"/>
<path d="M113.143 124.571H107.429V130.286H113.143V124.571Z" fill="#191919"/>
<path d="M118.857 124.571H113.143V130.286H118.857V124.571Z" fill="#191919"/>
<path d="M21.7143 130.286H16V136H21.7143V130.286Z" fill="#191919"/>
<path d="M27.4286 130.286H21.7143V136H27.4286V130.286Z" fill="#191919"/>
<path d="M33.1429 130.286H27.4286V136H33.1429V130.286Z" fill="#191919"/>
<path d="M38.8571 130.286H33.1429V136H38.8571V130.286Z" fill="#191919"/>
<path d="M44.5714 130.286H38.8571V136H44.5714V130.286Z" fill="#191919"/>
<path d="M50.2857 130.286H44.5714V136H50.2857V130.286Z" fill="#191919"/>
<path d="M56 130.286H50.2857V136H56V130.286Z" fill="#191919"/>
<path d="M67.4286 130.286H61.7143V136H67.4286L67.4286 130.286Z" fill="#191919"/>
<path d="M73.1429 130.286H67.4286L67.4286 136H73.1429V130.286Z" fill="#191919"/>
<path d="M84.5714 130.286H78.8571V136H84.5714V130.286Z" fill="#191919"/>
<path d="M113.143 130.286H107.429V136H113.143V130.286Z" fill="#191919"/>
<path d="M118.857 130.286H113.143V136H118.857V130.286Z" fill="#191919"/>
<path d="M136 130.286H130.286V136H136V130.286Z" fill="#191919"/>
<defs>
<linearGradient id="paint0_linear_8824_26254" x1="11.6675" y1="11.668" x2="88.0626" y2="164.458" gradientUnits="userSpaceOnUse">
<stop stop-color="#9E8F76"/>
<stop offset="0.195" stop-color="#7A6A50"/>
<stop offset="0.41" stop-color="#F6D9AB"/>
<stop offset="0.61" stop-color="#9D7F4E"/>
<stop offset="0.855" stop-color="#C9A770"/>
<stop offset="1" stop-color="#796A52"/>
</linearGradient>
</defs>
</svg>
