<svg width="16" height="16" viewBox="0 0 16 16" fill="none" xmlns="http://www.w3.org/2000/svg">
<g filter="url(#filter0_d_8649_22382)">
<path d="M6.66667 5.33482C6.78413 5.00091 7.01598 4.71934 7.32116 4.53998C7.62633 4.36063 7.98513 4.29507 8.33401 4.35491C8.68289 4.41475 8.99934 4.59614 9.2273 4.86694C9.45526 5.13774 9.58002 5.48048 9.57949 5.83445C9.57949 6.83371 8.08061 7.33333 8.08061 7.33333M8.09994 9.33333H8.1066M2 9.33333V5.2C2 4.07989 2 3.51984 2.21799 3.09202C2.40973 2.71569 2.71569 2.40973 3.09202 2.21799C3.51984 2 4.0799 2 5.2 2H10.8C11.9201 2 12.4802 2 12.908 2.21799C13.2843 2.40973 13.5903 2.71569 13.782 3.09202C14 3.51984 14 4.0799 14 5.2V8.8C14 9.92011 14 10.4802 13.782 10.908C13.5903 11.2843 13.2843 11.5903 12.908 11.782C12.4802 12 11.9201 12 10.8 12H9.1225C8.70646 12 8.49845 12 8.29948 12.0408C8.12295 12.0771 7.95213 12.137 7.79166 12.219C7.61078 12.3114 7.44834 12.4413 7.12348 12.7012L5.53317 13.9735C5.25578 14.1954 5.11708 14.3063 5.00036 14.3065C4.89885 14.3066 4.80282 14.2604 4.73949 14.1811C4.66667 14.0899 4.66667 13.9122 4.66667 13.557V13.0667C4.66667 12.7318 4.66667 12.5644 4.60913 12.4351C4.55191 12.3064 4.48991 12.2325 4.37326 12.1536C4.25596 12.0744 4.03795 12.0357 3.60195 11.9582C3.56024 11.9508 3.52067 11.9421 3.48236 11.9319C2.79218 11.7469 2.25308 11.2078 2.06815 10.5176C2 10.2633 2 9.95331 2 9.33333Z" stroke="white" stroke-linecap="round" stroke-linejoin="round"/>
</g>
<defs>
<filter id="filter0_d_8649_22382" x="-0.5" y="0" width="17" height="17" filterUnits="userSpaceOnUse" color-interpolation-filters="sRGB">
<feFlood flood-opacity="0" result="BackgroundImageFix"/>
<feColorMatrix in="SourceAlpha" type="matrix" values="0 0 0 0 0 0 0 0 0 0 0 0 0 0 0 0 0 0 127 0" result="hardAlpha"/>
<feOffset dy="0.5"/>
<feGaussianBlur stdDeviation="0.25"/>
<feComposite in2="hardAlpha" operator="out"/>
<feColorMatrix type="matrix" values="0 0 0 0 0 0 0 0 0 0 0 0 0 0 0 0 0 0 0.15 0"/>
<feBlend mode="normal" in2="BackgroundImageFix" result="effect1_dropShadow_8649_22382"/>
<feBlend mode="normal" in="SourceGraphic" in2="effect1_dropShadow_8649_22382" result="shape"/>
</filter>
</defs>
</svg>

