<svg width="48" height="48" viewBox="0 0 48 48" fill="none" xmlns="http://www.w3.org/2000/svg">
<g clip-path="url(#clip0_8577_28201)">
<path d="M12.4732 25.3675C10.3135 25.3463 6.08242 27.5498 6.43609 36.5328C6.84869 36.1202 7.90379 35.3126 8.82331 35.3834C7.9981 36.6212 6.71902 39.9633 8.2044 43.4292C9.76641 41.7493 13.1734 38.3895 14.3051 38.3895C13.6567 39.4505 12.3953 41.8908 12.5368 43.164C16.5236 42.6548 24.2961 40.0694 22.6162 36.2675C22.0947 36.1388 21.5413 35.8909 20.9164 35.4917C20.4125 37.4102 17.8314 38.4587 16.6039 38.7432C16.8868 38.1773 16.6628 35.8549 16.5155 34.7645C16.0203 34.5523 13.4209 35.6781 12.1831 36.2676C11.6173 35.2773 12.7726 32.5541 13.4209 31.3163C12.9965 31.1748 11.8294 31.7289 11.299 32.0236C10.6624 30.1138 12.3066 28.0687 13.2083 27.2849C12.8098 26.5438 12.5848 25.9116 12.4732 25.3675Z" fill="url(#paint0_linear_8577_28201)"/>
<path d="M13.2083 27.2849C12.3066 28.0687 10.6624 30.1138 11.299 32.0236C11.8294 31.7289 12.9965 31.1748 13.4209 31.3163C12.7726 32.5541 11.6173 35.2773 12.1831 36.2676C13.4209 35.6781 16.0203 34.5523 16.5155 34.7645C16.6628 35.8549 16.8868 38.1773 16.6039 38.7432C17.8314 38.4587 20.4125 37.4102 20.9164 35.4917L13.2083 27.2849Z" fill="url(#paint1_linear_8577_28201)"/>
<path d="M30.661 17.7887C25.8865 13.0143 24.0298 8.50505 24.0298 8.50505L23.3225 8.68188C23.3225 8.68188 24.4719 12.6606 30.1305 18.3192C34.7281 22.9168 39.8562 25.2156 39.8562 25.2156L40.0331 24.5083C40.0331 24.5083 34.9049 22.0327 30.661 17.7887Z" fill="url(#paint2_radial_8577_28201)"/>
<path d="M18.2828 30.1669C16.2954 28.1795 14.2396 25.1461 12.7675 22.7735C12.5525 23.3464 12.2183 24.1288 12.4722 25.3675C12.5838 25.9117 12.8088 26.5438 13.2073 27.2849C13.8441 28.4694 14.9239 29.932 16.6913 31.7584C18.4721 33.5985 19.8063 34.7833 20.9153 35.4917C21.5403 35.8909 22.0937 36.1389 22.6152 36.2676C23.9251 36.5908 25.0916 36.1355 25.6213 35.9139C23.778 34.8691 21.0206 32.9046 18.2828 30.1669Z" fill="url(#paint3_radial_8577_28201)"/>
<g style="mix-blend-mode:soft-light">
<path d="M16.6923 31.7586C14.9249 29.9323 13.8451 28.4696 13.2083 27.2852C12.3066 28.069 10.6624 30.1141 11.299 32.0239C11.8294 31.7292 12.9965 31.1751 13.4209 31.3165C12.7726 32.5544 11.6173 35.2776 12.1831 36.2678C13.4209 35.6784 16.0203 34.5526 16.5155 34.7648C16.6628 35.8552 16.8868 38.1776 16.6039 38.7435C17.8314 38.459 20.4125 37.4105 20.9164 35.492C19.8073 34.7836 18.4731 33.5988 16.6923 31.7586Z" fill="white"/>
</g>
<path d="M30.1312 18.3192C24.4726 12.6606 23.3232 8.68188 23.3232 8.68188C21.3917 8.90912 16.479 13.3723 12.9555 16.8765C11.5776 18.2468 11.3016 20.3605 12.3082 22.0228C12.454 22.2637 12.6077 22.5147 12.7682 22.7735C14.2404 25.1461 16.2961 28.1795 18.2835 30.1669C21.0213 32.9046 23.7787 34.8691 25.622 35.9139C26.1363 36.2054 26.5832 36.4287 26.9638 36.5996C27.9956 37.0629 29.1325 36.7766 30.0026 36.054C34.6951 32.1568 38.5394 27.4474 39.857 25.2156C39.857 25.2156 34.7289 22.9168 30.1312 18.3192Z" fill="url(#paint4_radial_8577_28201)"/>
<path d="M42.3074 13.1526C42.2384 11.4735 42.2039 10.6339 41.5473 9.41573C41.105 8.59515 39.8237 7.34238 38.9934 6.91859C37.7608 6.28949 36.9374 6.2742 35.2907 6.24361C31.5947 6.17495 27.2971 6.6618 24.0292 8.50519C24.0292 8.50519 25.886 13.0144 30.6604 17.7888C34.9044 22.0328 40.0325 24.5084 40.0325 24.5084C41.0517 23.1721 42.5618 19.3467 42.3074 13.1526Z" fill="url(#paint5_radial_8577_28201)"/>
<g filter="url(#filter0_i_8577_28201)">
<ellipse cx="24.4473" cy="23.7751" rx="5.75178" ry="5.75178" transform="rotate(45 24.4473 23.7751)" fill="url(#paint6_radial_8577_28201)"/>
</g>
<ellipse cx="24.4473" cy="23.7753" rx="4.75147" ry="4.75147" transform="rotate(45 24.4473 23.7753)" fill="url(#paint7_radial_8577_28201)"/>
<path d="M7.2941 16.5252C15.6935 8.12591 18.5229 9.89406 20.468 11.6624L20.1255 12.0272L12.3338 20.3271C11.4143 19.9734 8.82664 18.1167 7.64776 17.2326L7.2941 16.5252Z" fill="url(#paint8_linear_8577_28201)"/>
<path d="M20.468 11.6624C18.5229 9.89406 15.6935 8.12591 7.2941 16.5252L7.64776 17.2326C10.455 13.9686 17.1967 8.03733 20.1255 12.0272L20.468 11.6624Z" fill="#D3373A"/>
<path d="M31.6964 40.9278C40.0958 32.5284 38.3276 29.699 36.5593 27.7539L36.1945 28.0964L27.8946 35.8881C28.2482 36.8077 30.105 39.3953 30.9891 40.5742L31.6964 40.9278Z" fill="url(#paint9_linear_8577_28201)"/>
<path d="M36.5593 27.7539C38.3276 29.699 40.0958 32.5284 31.6964 40.9278L30.9891 40.5742C34.2531 37.7669 40.1843 31.0253 36.1945 28.0964L36.5593 27.7539Z" fill="#C92023"/>
</g>
<defs>
<filter id="filter0_i_8577_28201" x="18.6953" y="18.0234" width="11.754" height="11.5034" filterUnits="userSpaceOnUse" color-interpolation-filters="sRGB">
<feFlood flood-opacity="0" result="BackgroundImageFix"/>
<feBlend mode="normal" in="SourceGraphic" in2="BackgroundImageFix" result="shape"/>
<feColorMatrix in="SourceAlpha" type="matrix" values="0 0 0 0 0 0 0 0 0 0 0 0 0 0 0 0 0 0 127 0" result="hardAlpha"/>
<feOffset dx="0.500155"/>
<feGaussianBlur stdDeviation="0.125039"/>
<feComposite in2="hardAlpha" operator="arithmetic" k2="-1" k3="1"/>
<feColorMatrix type="matrix" values="0 0 0 0 0.87451 0 0 0 0 0.333333 0 0 0 0 0.333333 0 0 0 1 0"/>
<feBlend mode="normal" in2="shape" result="effect1_innerShadow_8577_28201"/>
</filter>
<linearGradient id="paint0_linear_8577_28201" x1="7.73658" y1="28.8148" x2="20.1899" y2="41.2105" gradientUnits="userSpaceOnUse">
<stop stop-color="#FCB63F"/>
<stop offset="1" stop-color="#FB6B24"/>
</linearGradient>
<linearGradient id="paint1_linear_8577_28201" x1="7.73658" y1="28.8148" x2="20.1899" y2="41.2105" gradientUnits="userSpaceOnUse">
<stop stop-color="#FCB63F"/>
<stop offset="1" stop-color="#FB6B24"/>
</linearGradient>
<radialGradient id="paint2_radial_8577_28201" cx="0" cy="0" r="1" gradientTransform="matrix(7.83514 6.6994 -29.7864 30.3805 17.5191 27.1906)" gradientUnits="userSpaceOnUse">
<stop stop-color="#FD8E79"/>
<stop offset="1" stop-color="#D43E41"/>
</radialGradient>
<radialGradient id="paint3_radial_8577_28201" cx="0" cy="0" r="1" gradientTransform="matrix(7.83514 6.6994 -29.7864 30.3805 17.5191 27.1906)" gradientUnits="userSpaceOnUse">
<stop stop-color="#FD8E79"/>
<stop offset="1" stop-color="#D43E41"/>
</radialGradient>
<radialGradient id="paint4_radial_8577_28201" cx="0" cy="0" r="1" gradientTransform="matrix(10.1678 10.1678 -16.0406 15.9233 22.5016 23.4214)" gradientUnits="userSpaceOnUse">
<stop stop-color="#FFFEFE"/>
<stop offset="1" stop-color="#F4CDCF"/>
</radialGradient>
<radialGradient id="paint5_radial_8577_28201" cx="0" cy="0" r="1" gradientUnits="userSpaceOnUse" gradientTransform="translate(33.1986 12.3696) rotate(43.4089) scale(9.00626 13.2531)">
<stop stop-color="#FD8E79"/>
<stop offset="1" stop-color="#D43E41"/>
</radialGradient>
<radialGradient id="paint6_radial_8577_28201" cx="0" cy="0" r="1" gradientUnits="userSpaceOnUse" gradientTransform="translate(22.8218 24.4003) rotate(-1.1233) scale(6.3782 6.39547)">
<stop stop-color="#FD8E79"/>
<stop offset="1" stop-color="#D43E41"/>
</radialGradient>
<radialGradient id="paint7_radial_8577_28201" cx="0" cy="0" r="1" gradientUnits="userSpaceOnUse" gradientTransform="translate(22.1966 24.1504) rotate(21.541) scale(5.10825)">
<stop stop-color="#FFF1B4"/>
<stop offset="1" stop-color="#FCAB35"/>
</radialGradient>
<linearGradient id="paint8_linear_8577_28201" x1="17.1967" y1="10.513" x2="12.0685" y2="20.5924" gradientUnits="userSpaceOnUse">
<stop stop-color="#F64E4F"/>
<stop offset="1" stop-color="#FB7D6E"/>
</linearGradient>
<linearGradient id="paint9_linear_8577_28201" x1="32.2269" y1="31.9094" x2="35.5867" y2="35.4461" gradientUnits="userSpaceOnUse">
<stop stop-color="#AE2528"/>
<stop offset="1" stop-color="#E5585B"/>
</linearGradient>
<clipPath id="clip0_8577_28201">
<rect width="48" height="48" fill="white"/>
</clipPath>
</defs>
</svg>
