<svg width="20" height="20" viewBox="0 0 20 20" fill="none" xmlns="http://www.w3.org/2000/svg">
<path d="M15 10H12.5M7.5 10V12.5M10 15H7.5M10 10.0092L9.99167 10M5 10.0092L4.99167 10M10 12.5092L9.99167 12.5M5 12.5092L4.99167 12.5M5 15.0092L4.99167 15M10 7.50917L9.99167 7.5M10 5.00917L9.99167 5M5 2.5H3.83333C3.36662 2.5 3.13327 2.5 2.95501 2.59083C2.79821 2.67072 2.67072 2.79821 2.59083 2.95501C2.5 3.13327 2.5 3.36662 2.5 3.83333V5M5 17.5H3.83333C3.36662 17.5 3.13327 17.5 2.95501 17.4092C2.79821 17.3293 2.67072 17.2018 2.59083 17.045C2.5 16.8667 2.5 16.6334 2.5 16.1667V15M15 2.5H16.1667C16.6334 2.5 16.8667 2.5 17.045 2.59083C17.2018 2.67072 17.3293 2.79821 17.4092 2.95501C17.5 3.13327 17.5 3.36662 17.5 3.83333V5M15 17.5H16.1667C16.6334 17.5 16.8667 17.5 17.045 17.4092C17.2018 17.3293 17.3293 17.2018 17.4092 17.045C17.5 16.8667 17.5 16.6334 17.5 16.1667V15M12.5 5.5V7C12.5 7.13261 12.5527 7.25979 12.6464 7.35355C12.7402 7.44732 12.8674 7.5 13 7.5H14.5C14.6326 7.5 14.7598 7.44732 14.8536 7.35355C14.9473 7.25979 15 7.13261 15 7V5.5C15 5.36739 14.9473 5.24021 14.8536 5.14645C14.7598 5.05268 14.6326 5 14.5 5H13C12.8674 5 12.7402 5.05268 12.6464 5.14645C12.5527 5.24021 12.5 5.36739 12.5 5.5ZM12.5 13V14.5C12.5 14.6326 12.5527 14.7598 12.6464 14.8536C12.7402 14.9473 12.8674 15 13 15H14.5C14.6326 15 14.7598 14.9473 14.8536 14.8536C14.9473 14.7598 15 14.6326 15 14.5V13C15 12.8674 14.9473 12.7402 14.8536 12.6464C14.7598 12.5527 14.6326 12.5 14.5 12.5H13C12.8674 12.5 12.7402 12.5527 12.6464 12.6464C12.5527 12.7402 12.5 12.8674 12.5 13ZM5 5.5V7C5 7.13261 5.05268 7.25979 5.14645 7.35355C5.24021 7.44732 5.36739 7.5 5.5 7.5H7C7.13261 7.5 7.25979 7.44732 7.35355 7.35355C7.44732 7.25979 7.5 7.13261 7.5 7V5.5C7.5 5.36739 7.44732 5.24021 7.35355 5.14645C7.25979 5.05268 7.13261 5 7 5H5.5C5.36739 5 5.24021 5.05268 5.14645 5.14645C5.05268 5.24021 5 5.36739 5 5.5Z" stroke="#474747" stroke-width="1.25" stroke-linecap="round" stroke-linejoin="round"/>
</svg>
