<svg width="17" height="17" viewBox="0 0 17 17" fill="none" xmlns="http://www.w3.org/2000/svg">
<path d="M3.25 8.25H5.75M10.75 8.25V10.75M8.25 13.25H10.75M8.25 8.25917L8.25833 8.25M13.25 8.25917L13.2583 8.25M8.25 10.7592L8.25833 10.75M13.25 10.7592L13.2583 10.75M13.25 13.2592L13.2583 13.25M8.25 5.75917L8.25833 5.75M8.25 3.25917L8.25833 3.25M13.25 0.75H14.15C14.7101 0.75 14.9901 0.75 15.204 0.858993C15.3922 0.954867 15.5451 1.10785 15.641 1.29601C15.75 1.50992 15.75 1.78995 15.75 2.35V3.25M13.25 15.75H14.15C14.7101 15.75 14.9901 15.75 15.204 15.641C15.3922 15.5451 15.5451 15.3922 15.641 15.204C15.75 14.9901 15.75 14.7101 15.75 14.15V13.25M3.25 0.75H2.35C1.78995 0.75 1.50992 0.75 1.29601 0.858993C1.10785 0.954867 0.954867 1.10785 0.858993 1.29601C0.75 1.50992 0.75 1.78995 0.75 2.35V3.25M3.25 15.75H2.35C1.78995 15.75 1.50992 15.75 1.29601 15.641C1.10785 15.5451 0.954867 15.3922 0.858993 15.204C0.75 14.9901 0.75 14.7101 0.75 14.15V13.25M5.75 3.75V5.25C5.75 5.38261 5.69732 5.50979 5.60355 5.60355C5.50979 5.69732 5.38261 5.75 5.25 5.75H3.75C3.61739 5.75 3.49021 5.69732 3.39645 5.60355C3.30268 5.50979 3.25 5.38261 3.25 5.25V3.75C3.25 3.61739 3.30268 3.49021 3.39645 3.39645C3.49021 3.30268 3.61739 3.25 3.75 3.25H5.25C5.38261 3.25 5.50979 3.30268 5.60355 3.39645C5.69732 3.49021 5.75 3.61739 5.75 3.75ZM5.75 11.25V12.75C5.75 12.8826 5.69732 13.0098 5.60355 13.1036C5.50979 13.1973 5.38261 13.25 5.25 13.25H3.75C3.61739 13.25 3.49021 13.1973 3.39645 13.1036C3.30268 13.0098 3.25 12.8826 3.25 12.75V11.25C3.25 11.1174 3.30268 10.9902 3.39645 10.8964C3.49021 10.8027 3.61739 10.75 3.75 10.75H5.25C5.38261 10.75 5.50979 10.8027 5.60355 10.8964C5.69732 10.9902 5.75 11.1174 5.75 11.25ZM13.25 3.75V5.25C13.25 5.38261 13.1973 5.50979 13.1036 5.60355C13.0098 5.69732 12.8826 5.75 12.75 5.75H11.25C11.1174 5.75 10.9902 5.69732 10.8964 5.60355C10.8027 5.50979 10.75 5.38261 10.75 5.25V3.75C10.75 3.61739 10.8027 3.49021 10.8964 3.39645C10.9902 3.30268 11.1174 3.25 11.25 3.25H12.75C12.8826 3.25 13.0098 3.30268 13.1036 3.39645C13.1973 3.49021 13.25 3.61739 13.25 3.75Z" stroke="#191919" stroke-width="1.5" stroke-linecap="round" stroke-linejoin="round"/>
</svg>
