<svg width="32" height="32" viewBox="0 0 32 32" fill="none" xmlns="http://www.w3.org/2000/svg">
<rect width="32" height="32" rx="16" fill="#F0F0F0"/>
<path d="M13.8294 22.1429L14.3164 23.2383C14.4612 23.5644 14.6975 23.8414 14.9966 24.0358C15.2957 24.2303 15.6448 24.3337 16.0016 24.3337C16.3583 24.3337 16.7075 24.2303 17.0066 24.0358C17.3057 23.8414 17.542 23.5644 17.6868 23.2383L18.1738 22.1429C18.3472 21.7542 18.6388 21.4302 19.0071 21.217C19.3778 21.0032 19.8066 20.9121 20.2321 20.9568L21.4238 21.0837C21.7785 21.1212 22.1365 21.055 22.4544 20.8931C22.7722 20.7312 23.0363 20.4806 23.2145 20.1716C23.393 19.8628 23.4781 19.5089 23.4593 19.1527C23.4406 18.7966 23.3189 18.4535 23.109 18.1651L22.4034 17.1957C22.1522 16.8479 22.018 16.4293 22.0201 16.0003C22.02 15.5725 22.1555 15.1556 22.4071 14.8096L23.1127 13.8401C23.3226 13.5518 23.4443 13.2087 23.463 12.8526C23.4818 12.4964 23.3967 12.1424 23.2183 11.8337C23.04 11.5247 22.7759 11.2741 22.4581 11.1122C22.1402 10.9503 21.7822 10.8841 21.4275 10.9216L20.2358 11.0485C19.8103 11.0932 19.3815 11.0021 19.0108 10.7883C18.6418 10.5739 18.3501 10.2481 18.1775 9.85773L17.6868 8.76236C17.542 8.4363 17.3057 8.15925 17.0066 7.96482C16.7075 7.77039 16.3583 7.66693 16.0016 7.66699C15.6448 7.66693 15.2957 7.77039 14.9966 7.96482C14.6975 8.15925 14.4612 8.4363 14.3164 8.76236L13.8294 9.85773C13.6568 10.2481 13.3651 10.5739 12.996 10.7883C12.6254 11.0021 12.1966 11.0932 11.771 11.0485L10.5757 10.9216C10.2209 10.8841 9.86294 10.9503 9.54509 11.1122C9.22724 11.2741 8.96317 11.5247 8.78492 11.8337C8.60644 12.1424 8.52141 12.4964 8.54014 12.8526C8.55888 13.2087 8.68058 13.5518 8.89048 13.8401L9.59603 14.8096C9.84765 15.1556 9.98315 15.5725 9.98307 16.0003C9.98315 16.4282 9.84765 16.845 9.59603 17.1911L8.89048 18.1605C8.68058 18.4489 8.55888 18.7919 8.54014 19.1481C8.52141 19.5043 8.60644 19.8582 8.78492 20.167C8.96335 20.4758 9.22744 20.7263 9.54525 20.8882C9.86306 21.05 10.221 21.1163 10.5757 21.079L11.7673 20.9522C12.1929 20.9075 12.6217 20.9986 12.9923 21.2124C13.3628 21.4262 13.6558 21.752 13.8294 22.1429Z" stroke="#474747" stroke-width="1.25" stroke-linecap="round" stroke-linejoin="round"/>
<path d="M16.0001 18.5003C17.3808 18.5003 18.5001 17.381 18.5001 16.0003C18.5001 14.6196 17.3808 13.5003 16.0001 13.5003C14.6194 13.5003 13.5001 14.6196 13.5001 16.0003C13.5001 17.381 14.6194 18.5003 16.0001 18.5003Z" stroke="#474747" stroke-width="1.25" stroke-linecap="round" stroke-linejoin="round"/>
</svg>
