<svg width="361" height="28" viewBox="0 0 361 28" fill="none" xmlns="http://www.w3.org/2000/svg">
<rect width="361" height="28" fill="#F7CD87"/>
<path d="M22.6666 11.3334V10.6667M22.6666 14.3334V13.6667M22.6666 17.3334V16.6667M19.4666 8.66675H28.5333C29.28 8.66675 29.6534 8.66675 29.9386 8.81207C30.1895 8.9399 30.3935 9.14388 30.5213 9.39476C30.6666 9.67998 30.6666 10.0533 30.6666 10.8001C30.6666 10.9997 30.6666 11.0995 30.6559 11.1587C30.611 11.4053 30.5628 11.4759 30.3493 11.6072C30.2981 11.6387 30.1386 11.7009 29.8195 11.8253C28.9497 12.1643 28.3333 13.0102 28.3333 14.0001C28.3333 14.9899 28.9497 15.8358 29.8195 16.1749C30.1386 16.2993 30.2981 16.3614 30.3493 16.3929C30.5628 16.5243 30.611 16.5948 30.6559 16.8415C30.6666 16.9006 30.6666 17.0004 30.6666 17.2001C30.6666 17.9468 30.6666 18.3202 30.5213 18.6054C30.3935 18.8563 30.1895 19.0603 29.9386 19.1881C29.6534 19.3334 29.28 19.3334 28.5333 19.3334H19.4666C18.7199 19.3334 18.3465 19.3334 18.0613 19.1881C17.8104 19.0603 17.6065 18.8563 17.4786 18.6054C17.3333 18.3202 17.3333 17.9468 17.3333 17.2001C17.3333 17.0004 17.3333 16.9006 17.3441 16.8415C17.3889 16.5948 17.4371 16.5243 17.6506 16.3929C17.7018 16.3614 17.8614 16.2993 18.1804 16.1749C19.0503 15.8358 19.6666 14.9899 19.6666 14.0001C19.6666 13.0102 19.0503 12.1643 18.1804 11.8253C17.8614 11.7009 17.7018 11.6387 17.6506 11.6072C17.4371 11.4759 17.3889 11.4053 17.3441 11.1587C17.3333 11.0995 17.3333 10.9997 17.3333 10.8001C17.3333 10.0533 17.3333 9.67998 17.4786 9.39476C17.6065 9.14388 17.8104 8.9399 18.0613 8.81207C18.3465 8.66675 18.7199 8.66675 19.4666 8.66675Z" stroke="#191919" stroke-linecap="round" stroke-linejoin="round"/>
<path d="M39.906 19.18C39.294 19.18 38.742 19.076 38.25 18.868C37.762 18.66 37.358 18.364 37.038 17.98C36.722 17.592 36.516 17.134 36.42 16.606L37.524 16.432C37.664 16.976 37.954 17.402 38.394 17.71C38.838 18.014 39.36 18.166 39.96 18.166C40.348 18.166 40.698 18.106 41.01 17.986C41.326 17.862 41.576 17.686 41.76 17.458C41.944 17.23 42.036 16.96 42.036 16.648C42.036 16.456 42.002 16.292 41.934 16.156C41.87 16.016 41.78 15.898 41.664 15.802C41.552 15.702 41.424 15.618 41.28 15.55C41.136 15.482 40.986 15.426 40.83 15.382L38.628 14.728C38.388 14.656 38.156 14.566 37.932 14.458C37.708 14.346 37.508 14.208 37.332 14.044C37.156 13.876 37.016 13.676 36.912 13.444C36.808 13.208 36.756 12.93 36.756 12.61C36.756 12.098 36.888 11.662 37.152 11.302C37.42 10.938 37.782 10.66 38.238 10.468C38.694 10.276 39.208 10.182 39.78 10.186C40.36 10.19 40.878 10.294 41.334 10.498C41.794 10.698 42.174 10.986 42.474 11.362C42.778 11.738 42.982 12.188 43.086 12.712L41.952 12.91C41.892 12.558 41.758 12.256 41.55 12.004C41.346 11.748 41.09 11.552 40.782 11.416C40.474 11.276 40.136 11.204 39.768 11.2C39.416 11.196 39.098 11.252 38.814 11.368C38.53 11.484 38.304 11.646 38.136 11.854C37.968 12.058 37.884 12.294 37.884 12.562C37.884 12.826 37.96 13.04 38.112 13.204C38.264 13.364 38.45 13.492 38.67 13.588C38.894 13.68 39.112 13.756 39.324 13.816L40.968 14.29C41.156 14.342 41.372 14.414 41.616 14.506C41.864 14.598 42.104 14.728 42.336 14.896C42.568 15.06 42.76 15.28 42.912 15.556C43.064 15.828 43.14 16.172 43.14 16.588C43.14 17.004 43.056 17.374 42.888 17.698C42.724 18.022 42.494 18.294 42.198 18.514C41.902 18.73 41.558 18.894 41.166 19.006C40.774 19.122 40.354 19.18 39.906 19.18ZM48.0166 19C47.6326 19.076 47.2526 19.106 46.8766 19.09C46.5046 19.078 46.1726 19.004 45.8806 18.868C45.5886 18.728 45.3666 18.512 45.2146 18.22C45.0866 17.964 45.0166 17.706 45.0046 17.446C44.9966 17.182 44.9926 16.884 44.9926 16.552V10.72H46.0606V16.504C46.0606 16.768 46.0626 16.994 46.0666 17.182C46.0746 17.37 46.1166 17.532 46.1926 17.668C46.3366 17.924 46.5646 18.074 46.8766 18.118C47.1926 18.162 47.5726 18.15 48.0166 18.082V19ZM43.6786 13.402V12.52H48.0166V13.402H43.6786ZM51.1742 19.18C50.6902 19.18 50.2842 19.092 49.9562 18.916C49.6322 18.736 49.3862 18.5 49.2182 18.208C49.0542 17.916 48.9722 17.596 48.9722 17.248C48.9722 16.908 49.0362 16.614 49.1642 16.366C49.2962 16.114 49.4802 15.906 49.7162 15.742C49.9522 15.574 50.2342 15.442 50.5622 15.346C50.8702 15.262 51.2142 15.19 51.5942 15.13C51.9782 15.066 52.3662 15.008 52.7582 14.956C53.1502 14.904 53.5162 14.854 53.8562 14.806L53.4722 15.028C53.4842 14.452 53.3682 14.026 53.1242 13.75C52.8842 13.474 52.4682 13.336 51.8762 13.336C51.4842 13.336 51.1402 13.426 50.8442 13.606C50.5522 13.782 50.3462 14.07 50.2262 14.47L49.2122 14.164C49.3682 13.596 49.6702 13.15 50.1182 12.826C50.5662 12.502 51.1562 12.34 51.8882 12.34C52.4762 12.34 52.9802 12.446 53.4002 12.658C53.8242 12.866 54.1282 13.182 54.3122 13.606C54.4042 13.806 54.4622 14.024 54.4862 14.26C54.5102 14.492 54.5222 14.736 54.5222 14.992V19H53.5742V17.446L53.7962 17.59C53.5522 18.114 53.2102 18.51 52.7702 18.778C52.3342 19.046 51.8022 19.18 51.1742 19.18ZM51.3362 18.286C51.7202 18.286 52.0522 18.218 52.3322 18.082C52.6162 17.942 52.8442 17.76 53.0162 17.536C53.1882 17.308 53.3002 17.06 53.3522 16.792C53.4122 16.592 53.4442 16.37 53.4482 16.126C53.4562 15.878 53.4602 15.688 53.4602 15.556L53.8322 15.718C53.4842 15.766 53.1422 15.812 52.8062 15.856C52.4702 15.9 52.1522 15.948 51.8522 16C51.5522 16.048 51.2822 16.106 51.0422 16.174C50.8662 16.23 50.7002 16.302 50.5442 16.39C50.3922 16.478 50.2682 16.592 50.1722 16.732C50.0802 16.868 50.0342 17.038 50.0342 17.242C50.0342 17.418 50.0782 17.586 50.1662 17.746C50.2582 17.906 50.3982 18.036 50.5862 18.136C50.7782 18.236 51.0282 18.286 51.3362 18.286ZM60.6962 19V15.754C60.6962 15.446 60.6682 15.15 60.6122 14.866C60.5602 14.582 60.4662 14.328 60.3302 14.104C60.1982 13.876 60.0182 13.696 59.7902 13.564C59.5662 13.432 59.2822 13.366 58.9382 13.366C58.6702 13.366 58.4262 13.412 58.2062 13.504C57.9902 13.592 57.8042 13.728 57.6482 13.912C57.4922 14.096 57.3702 14.328 57.2822 14.608C57.1982 14.884 57.1562 15.21 57.1562 15.586L56.4542 15.37C56.4542 14.742 56.5662 14.204 56.7902 13.756C57.0182 13.304 57.3362 12.958 57.7442 12.718C58.1562 12.474 58.6402 12.352 59.1962 12.352C59.6162 12.352 59.9742 12.418 60.2702 12.55C60.5662 12.682 60.8122 12.858 61.0082 13.078C61.2042 13.294 61.3582 13.538 61.4702 13.81C61.5822 14.078 61.6602 14.352 61.7042 14.632C61.7522 14.908 61.7762 15.17 61.7762 15.418V19H60.6962ZM56.0762 19V12.52H57.0362V14.254H57.1562V19H56.0762ZM65.8215 19.18C65.2175 19.18 64.6995 19.03 64.2675 18.73C63.8355 18.426 63.5015 18.016 63.2655 17.5C63.0335 16.984 62.9175 16.402 62.9175 15.754C62.9175 15.106 63.0335 14.524 63.2655 14.008C63.5015 13.492 63.8355 13.086 64.2675 12.79C64.6995 12.49 65.2155 12.34 65.8155 12.34C66.4275 12.34 66.9415 12.488 67.3575 12.784C67.7735 13.08 68.0875 13.486 68.2995 14.002C68.5155 14.518 68.6235 15.102 68.6235 15.754C68.6235 16.398 68.5155 16.98 68.2995 17.5C68.0875 18.016 67.7735 18.426 67.3575 18.73C66.9415 19.03 66.4295 19.18 65.8215 19.18ZM65.9535 18.202C66.3895 18.202 66.7475 18.098 67.0275 17.89C67.3075 17.678 67.5135 17.388 67.6455 17.02C67.7815 16.648 67.8495 16.226 67.8495 15.754C67.8495 15.274 67.7815 14.852 67.6455 14.488C67.5135 14.12 67.3095 13.834 67.0335 13.63C66.7575 13.422 66.4075 13.318 65.9835 13.318C65.5435 13.318 65.1795 13.426 64.8915 13.642C64.6075 13.858 64.3955 14.15 64.2555 14.518C64.1195 14.886 64.0515 15.298 64.0515 15.754C64.0515 16.214 64.1215 16.63 64.2615 17.002C64.4015 17.37 64.6115 17.662 64.8915 17.878C65.1755 18.094 65.5295 18.202 65.9535 18.202ZM67.8495 19V14.23H67.7295V10.36H68.8035V19H67.8495ZM72.3265 19.18C71.8425 19.18 71.4365 19.092 71.1085 18.916C70.7845 18.736 70.5385 18.5 70.3705 18.208C70.2065 17.916 70.1245 17.596 70.1245 17.248C70.1245 16.908 70.1885 16.614 70.3165 16.366C70.4485 16.114 70.6325 15.906 70.8685 15.742C71.1045 15.574 71.3865 15.442 71.7145 15.346C72.0225 15.262 72.3665 15.19 72.7465 15.13C73.1305 15.066 73.5185 15.008 73.9105 14.956C74.3025 14.904 74.6685 14.854 75.0085 14.806L74.6245 15.028C74.6365 14.452 74.5205 14.026 74.2765 13.75C74.0365 13.474 73.6205 13.336 73.0285 13.336C72.6365 13.336 72.2925 13.426 71.9965 13.606C71.7045 13.782 71.4985 14.07 71.3785 14.47L70.3645 14.164C70.5205 13.596 70.8225 13.15 71.2705 12.826C71.7185 12.502 72.3085 12.34 73.0405 12.34C73.6285 12.34 74.1325 12.446 74.5525 12.658C74.9765 12.866 75.2805 13.182 75.4645 13.606C75.5565 13.806 75.6145 14.024 75.6385 14.26C75.6625 14.492 75.6745 14.736 75.6745 14.992V19H74.7265V17.446L74.9485 17.59C74.7045 18.114 74.3625 18.51 73.9225 18.778C73.4865 19.046 72.9545 19.18 72.3265 19.18ZM72.4885 18.286C72.8725 18.286 73.2045 18.218 73.4845 18.082C73.7685 17.942 73.9965 17.76 74.1685 17.536C74.3405 17.308 74.4525 17.06 74.5045 16.792C74.5645 16.592 74.5965 16.37 74.6005 16.126C74.6085 15.878 74.6125 15.688 74.6125 15.556L74.9845 15.718C74.6365 15.766 74.2945 15.812 73.9585 15.856C73.6225 15.9 73.3045 15.948 73.0045 16C72.7045 16.048 72.4345 16.106 72.1945 16.174C72.0185 16.23 71.8525 16.302 71.6965 16.39C71.5445 16.478 71.4205 16.592 71.3245 16.732C71.2325 16.868 71.1865 17.038 71.1865 17.242C71.1865 17.418 71.2305 17.586 71.3185 17.746C71.4105 17.906 71.5505 18.036 71.7385 18.136C71.9305 18.236 72.1805 18.286 72.4885 18.286ZM77.2345 19V12.52H78.1885V14.086L78.0325 13.882C78.1085 13.682 78.2065 13.498 78.3265 13.33C78.4505 13.162 78.5885 13.024 78.7405 12.916C78.9085 12.78 79.0985 12.676 79.3105 12.604C79.5225 12.532 79.7385 12.49 79.9585 12.478C80.1785 12.462 80.3845 12.476 80.5765 12.52V13.522C80.3525 13.462 80.1065 13.446 79.8385 13.474C79.5705 13.502 79.3225 13.6 79.0945 13.768C78.8865 13.916 78.7245 14.096 78.6085 14.308C78.4965 14.52 78.4185 14.75 78.3745 14.998C78.3305 15.242 78.3085 15.492 78.3085 15.748V19H77.2345ZM84.1379 19.18C83.5339 19.18 83.0159 19.03 82.5839 18.73C82.1519 18.426 81.8179 18.016 81.5819 17.5C81.3499 16.984 81.2339 16.402 81.2339 15.754C81.2339 15.106 81.3499 14.524 81.5819 14.008C81.8179 13.492 82.1519 13.086 82.5839 12.79C83.0159 12.49 83.5319 12.34 84.1319 12.34C84.7439 12.34 85.2579 12.488 85.6739 12.784C86.0899 13.08 86.4039 13.486 86.6159 14.002C86.8319 14.518 86.9399 15.102 86.9399 15.754C86.9399 16.398 86.8319 16.98 86.6159 17.5C86.4039 18.016 86.0899 18.426 85.6739 18.73C85.2579 19.03 84.7459 19.18 84.1379 19.18ZM84.2699 18.202C84.7059 18.202 85.0639 18.098 85.3439 17.89C85.6239 17.678 85.8299 17.388 85.9619 17.02C86.0979 16.648 86.1659 16.226 86.1659 15.754C86.1659 15.274 86.0979 14.852 85.9619 14.488C85.8299 14.12 85.6259 13.834 85.3499 13.63C85.0739 13.422 84.7239 13.318 84.2999 13.318C83.8599 13.318 83.4959 13.426 83.2079 13.642C82.9239 13.858 82.7119 14.15 82.5719 14.518C82.4359 14.886 82.3679 15.298 82.3679 15.754C82.3679 16.214 82.4379 16.63 82.5779 17.002C82.7179 17.37 82.9279 17.662 83.2079 17.878C83.4919 18.094 83.8459 18.202 84.2699 18.202ZM86.1659 19V14.23H86.0459V10.36H87.1199V19H86.1659ZM91.2033 19V10.36H94.6173C94.7013 10.36 94.8013 10.364 94.9173 10.372C95.0333 10.376 95.1453 10.388 95.2533 10.408C95.7213 10.48 96.1133 10.64 96.4293 10.888C96.7493 11.136 96.9893 11.45 97.1493 11.83C97.3093 12.206 97.3893 12.624 97.3893 13.084C97.3893 13.54 97.3073 13.958 97.1433 14.338C96.9833 14.714 96.7433 15.028 96.4233 15.28C96.1073 15.528 95.7173 15.688 95.2533 15.76C95.1453 15.776 95.0333 15.788 94.9173 15.796C94.8013 15.804 94.7013 15.808 94.6173 15.808H92.2713V19H91.2033ZM92.2713 14.794H94.5813C94.6573 14.794 94.7433 14.79 94.8393 14.782C94.9393 14.774 95.0333 14.76 95.1213 14.74C95.3973 14.676 95.6213 14.56 95.7933 14.392C95.9693 14.22 96.0973 14.02 96.1773 13.792C96.2573 13.56 96.2973 13.324 96.2973 13.084C96.2973 12.844 96.2573 12.61 96.1773 12.382C96.0973 12.15 95.9693 11.948 95.7933 11.776C95.6213 11.604 95.3973 11.488 95.1213 11.428C95.0333 11.404 94.9393 11.39 94.8393 11.386C94.7433 11.378 94.6573 11.374 94.5813 11.374H92.2713V14.794ZM100.182 19.18C99.698 19.18 99.292 19.092 98.964 18.916C98.64 18.736 98.394 18.5 98.226 18.208C98.062 17.916 97.98 17.596 97.98 17.248C97.98 16.908 98.044 16.614 98.172 16.366C98.304 16.114 98.488 15.906 98.724 15.742C98.96 15.574 99.242 15.442 99.57 15.346C99.878 15.262 100.222 15.19 100.602 15.13C100.986 15.066 101.374 15.008 101.766 14.956C102.158 14.904 102.524 14.854 102.864 14.806L102.48 15.028C102.492 14.452 102.376 14.026 102.132 13.75C101.892 13.474 101.476 13.336 100.884 13.336C100.492 13.336 100.148 13.426 99.852 13.606C99.56 13.782 99.354 14.07 99.234 14.47L98.22 14.164C98.376 13.596 98.678 13.15 99.126 12.826C99.574 12.502 100.164 12.34 100.896 12.34C101.484 12.34 101.988 12.446 102.408 12.658C102.832 12.866 103.136 13.182 103.32 13.606C103.412 13.806 103.47 14.024 103.494 14.26C103.518 14.492 103.53 14.736 103.53 14.992V19H102.582V17.446L102.804 17.59C102.56 18.114 102.218 18.51 101.778 18.778C101.342 19.046 100.81 19.18 100.182 19.18ZM100.344 18.286C100.728 18.286 101.06 18.218 101.34 18.082C101.624 17.942 101.852 17.76 102.024 17.536C102.196 17.308 102.308 17.06 102.36 16.792C102.42 16.592 102.452 16.37 102.456 16.126C102.464 15.878 102.468 15.688 102.468 15.556L102.84 15.718C102.492 15.766 102.15 15.812 101.814 15.856C101.478 15.9 101.16 15.948 100.86 16C100.56 16.048 100.29 16.106 100.05 16.174C99.874 16.23 99.708 16.302 99.552 16.39C99.4 16.478 99.276 16.592 99.18 16.732C99.088 16.868 99.042 17.038 99.042 17.242C99.042 17.418 99.086 17.586 99.174 17.746C99.266 17.906 99.406 18.036 99.594 18.136C99.786 18.236 100.036 18.286 100.344 18.286ZM105.21 11.374V10.27H106.278V11.374H105.21ZM105.21 19V12.52H106.278V19H105.21ZM110.622 19.18C110.018 19.18 109.5 19.03 109.068 18.73C108.636 18.426 108.302 18.016 108.066 17.5C107.834 16.984 107.718 16.402 107.718 15.754C107.718 15.106 107.834 14.524 108.066 14.008C108.302 13.492 108.636 13.086 109.068 12.79C109.5 12.49 110.016 12.34 110.616 12.34C111.228 12.34 111.742 12.488 112.158 12.784C112.574 13.08 112.888 13.486 113.1 14.002C113.316 14.518 113.424 15.102 113.424 15.754C113.424 16.398 113.316 16.98 113.1 17.5C112.888 18.016 112.574 18.426 112.158 18.73C111.742 19.03 111.23 19.18 110.622 19.18ZM110.754 18.202C111.19 18.202 111.548 18.098 111.828 17.89C112.108 17.678 112.314 17.388 112.446 17.02C112.582 16.648 112.65 16.226 112.65 15.754C112.65 15.274 112.582 14.852 112.446 14.488C112.314 14.12 112.11 13.834 111.834 13.63C111.558 13.422 111.208 13.318 110.784 13.318C110.344 13.318 109.98 13.426 109.692 13.642C109.408 13.858 109.196 14.15 109.056 14.518C108.92 14.886 108.852 15.298 108.852 15.754C108.852 16.214 108.922 16.63 109.062 17.002C109.202 17.37 109.412 17.662 109.692 17.878C109.976 18.094 110.33 18.202 110.754 18.202ZM112.65 19V14.23H112.53V10.36H113.604V19H112.65ZM119.914 19V11.374H116.968V10.36H123.928V11.374H120.982V19H119.914ZM125.003 11.374V10.27H126.071V11.374H125.003ZM125.003 19V12.52H126.071V19H125.003ZM130.601 19.18C129.945 19.18 129.387 19.034 128.927 18.742C128.471 18.446 128.123 18.04 127.883 17.524C127.643 17.008 127.519 16.42 127.511 15.76C127.519 15.084 127.645 14.49 127.889 13.978C128.137 13.462 128.491 13.06 128.951 12.772C129.411 12.484 129.965 12.34 130.613 12.34C131.297 12.34 131.885 12.508 132.377 12.844C132.873 13.18 133.205 13.64 133.373 14.224L132.317 14.542C132.181 14.166 131.959 13.874 131.651 13.666C131.347 13.458 130.997 13.354 130.601 13.354C130.157 13.354 129.791 13.458 129.503 13.666C129.215 13.87 129.001 14.154 128.861 14.518C128.721 14.878 128.649 15.292 128.645 15.76C128.653 16.48 128.819 17.062 129.143 17.506C129.471 17.946 129.957 18.166 130.601 18.166C131.025 18.166 131.377 18.07 131.657 17.878C131.937 17.682 132.149 17.4 132.293 17.032L133.373 17.314C133.149 17.918 132.799 18.38 132.323 18.7C131.847 19.02 131.273 19.18 130.601 19.18ZM134.592 19L134.598 10.36H135.678V15.64L138.396 12.52H139.782L136.92 15.76L140.118 19H138.624L135.678 15.88V19H134.592ZM143.406 19.18C142.77 19.18 142.214 19.04 141.738 18.76C141.266 18.476 140.898 18.082 140.634 17.578C140.37 17.07 140.238 16.478 140.238 15.802C140.238 15.094 140.368 14.482 140.628 13.966C140.888 13.446 141.25 13.046 141.714 12.766C142.182 12.482 142.73 12.34 143.358 12.34C144.01 12.34 144.564 12.49 145.02 12.79C145.48 13.09 145.824 13.518 146.052 14.074C146.284 14.63 146.384 15.292 146.352 16.06H145.272V15.676C145.26 14.88 145.098 14.286 144.786 13.894C144.474 13.498 144.01 13.3 143.394 13.3C142.734 13.3 142.232 13.512 141.888 13.936C141.544 14.36 141.372 14.968 141.372 15.76C141.372 16.524 141.544 17.116 141.888 17.536C142.232 17.956 142.722 18.166 143.358 18.166C143.786 18.166 144.158 18.068 144.474 17.872C144.79 17.676 145.038 17.394 145.218 17.026L146.244 17.38C145.992 17.952 145.612 18.396 145.104 18.712C144.6 19.024 144.034 19.18 143.406 19.18ZM141.012 16.06V15.202H145.8V16.06H141.012ZM151.306 19C150.922 19.076 150.542 19.106 150.166 19.09C149.794 19.078 149.462 19.004 149.17 18.868C148.878 18.728 148.656 18.512 148.504 18.22C148.376 17.964 148.306 17.706 148.294 17.446C148.286 17.182 148.282 16.884 148.282 16.552V10.72H149.35V16.504C149.35 16.768 149.352 16.994 149.356 17.182C149.364 17.37 149.406 17.532 149.482 17.668C149.626 17.924 149.854 18.074 150.166 18.118C150.482 18.162 150.862 18.15 151.306 18.082V19ZM146.968 13.402V12.52H151.306V13.402H146.968Z" fill="#191919"/>
</svg>
