<svg width="32" height="32" viewBox="0 0 32 32" fill="none" xmlns="http://www.w3.org/2000/svg">
<rect width="32" height="32" rx="6" fill="#F7CD87"/>
<path d="M11.8333 24.3333H20.1666M8.93164 14.5883C8.6083 13.6933 8.44664 13.2458 8.51497 12.9591C8.5908 12.645 8.81414 12.4008 9.09914 12.3191C9.35997 12.2441 9.7658 12.425 10.5766 12.7858C11.2933 13.1041 11.6516 13.2633 11.9891 13.255C12.3608 13.245 12.7175 13.0966 13.0016 12.8325C13.26 12.5933 13.4325 12.2125 13.7783 11.4508L14.5408 9.77079C15.1775 8.36829 15.4958 7.66663 16 7.66663C16.5041 7.66663 16.8225 8.36829 17.4591 9.77079L18.2216 11.4508C18.5675 12.2125 18.7408 12.5933 18.9983 12.8325C19.2825 13.0958 19.64 13.245 20.0108 13.255C20.3475 13.2633 20.7066 13.1041 21.4233 12.785C22.235 12.425 22.64 12.2441 22.9008 12.3191C23.1858 12.4008 23.4091 12.645 23.4841 12.9591C23.5533 13.2458 23.3916 13.6925 23.0675 14.5883L21.6783 18.435C21.0833 20.0808 20.7866 20.9033 20.1641 21.3683C19.5416 21.8333 18.7375 21.8333 17.13 21.8333H14.87C13.2616 21.8333 12.4583 21.8333 11.8366 21.3683C11.2141 20.9033 10.9166 20.0808 10.3216 18.435L8.93164 14.5883Z" stroke="#191919" stroke-width="1.25" stroke-linecap="round" stroke-linejoin="round"/>
</svg>
