<svg width="20" height="20" viewBox="0 0 20 20" fill="none" xmlns="http://www.w3.org/2000/svg">
<path d="M5.83333 18.3346H14.1667M2.93167 8.58964C2.60833 7.69464 2.44667 7.24714 2.515 6.96047C2.59083 6.6463 2.81417 6.40214 3.09917 6.32047C3.36 6.24547 3.76583 6.4263 4.57667 6.78714C5.29333 7.10547 5.65167 7.26464 5.98917 7.2563C6.36083 7.2463 6.7175 7.09797 7.00167 6.8338C7.26 6.59464 7.4325 6.2138 7.77833 5.45214L8.54083 3.77214C9.1775 2.36964 9.49583 1.66797 10 1.66797C10.5042 1.66797 10.8225 2.36964 11.4592 3.77214L12.2217 5.45214C12.5675 6.2138 12.7408 6.59464 12.9983 6.8338C13.2825 7.09714 13.64 7.2463 14.0108 7.2563C14.3475 7.26464 14.7067 7.10547 15.4233 6.7863C16.235 6.4263 16.64 6.24547 16.9008 6.32047C17.1858 6.40214 17.4092 6.6463 17.4842 6.96047C17.5533 7.24714 17.3917 7.6938 17.0675 8.58964L15.6783 12.4363C15.0833 14.0821 14.7867 14.9046 14.1642 15.3696C13.5417 15.8346 12.7375 15.8346 11.13 15.8346H8.87C7.26167 15.8346 6.45833 15.8346 5.83667 15.3696C5.21417 14.9046 4.91667 14.0821 4.32167 12.4363L2.93167 8.58964Z" stroke="#F0F0F0" stroke-width="1.5" stroke-linecap="round" stroke-linejoin="round"/>
</svg>
