<svg width="20" height="20" viewBox="0 0 20 20" fill="none" xmlns="http://www.w3.org/2000/svg">
<path d="M5.8333 18.3334H14.1666M2.93164 8.58841C2.6083 7.69341 2.44664 7.24591 2.51497 6.95925C2.5908 6.64508 2.81414 6.40091 3.09914 6.31925C3.35997 6.24425 3.7658 6.42508 4.57664 6.78591C5.2933 7.10425 5.65164 7.26341 5.98914 7.25508C6.3608 7.24508 6.71747 7.09675 7.00164 6.83258C7.25997 6.59341 7.43247 6.21258 7.7783 5.45091L8.5408 3.77091C9.17747 2.36841 9.4958 1.66675 9.99997 1.66675C10.5041 1.66675 10.8225 2.36841 11.4591 3.77091L12.2216 5.45091C12.5675 6.21258 12.7408 6.59341 12.9983 6.83258C13.2825 7.09591 13.64 7.24508 14.0108 7.25508C14.3475 7.26341 14.7066 7.10425 15.4233 6.78508C16.235 6.42508 16.64 6.24425 16.9008 6.31925C17.1858 6.40091 17.4091 6.64508 17.4841 6.95925C17.5533 7.24591 17.3916 7.69258 17.0675 8.58841L15.6783 12.4351C15.0833 14.0809 14.7866 14.9034 14.1641 15.3684C13.5416 15.8334 12.7375 15.8334 11.13 15.8334H8.86997C7.26164 15.8334 6.4583 15.8334 5.83664 15.3684C5.21414 14.9034 4.91664 14.0809 4.32164 12.4351L2.93164 8.58841Z" stroke="url(#paint0_linear_8577_55044)" stroke-width="1.25" stroke-linecap="round" stroke-linejoin="round"/>
<defs>
<linearGradient id="paint0_linear_8577_55044" x1="3.65094" y1="2.94613" x2="12.5411" y2="18.9489" gradientUnits="userSpaceOnUse">
<stop stop-color="#9E8F76"/>
<stop offset="0.195" stop-color="#7A6A50"/>
<stop offset="0.41" stop-color="#F6D9AB"/>
<stop offset="0.61" stop-color="#9D7F4E"/>
<stop offset="0.855" stop-color="#C9A770"/>
<stop offset="1" stop-color="#796A52"/>
</linearGradient>
</defs>
</svg>
