<svg width="22" height="21" viewBox="0 0 22 21" fill="none" xmlns="http://www.w3.org/2000/svg">
<path d="M8.75 13.75L5.67474 16.8637C5.24579 17.298 5.03131 17.5152 4.84695 17.5305C4.68701 17.5438 4.53042 17.4795 4.42596 17.3576C4.30556 17.2172 4.30556 16.912 4.30556 16.3015V14.7416C4.30556 14.194 3.85707 13.7977 3.3152 13.7183C2.00374 13.5262 0.973776 12.4963 0.781675 11.1848C0.75 10.9686 0.75 10.7105 0.75 10.1944V5.55C0.75 3.86984 0.75 3.02976 1.07698 2.38803C1.3646 1.82354 1.82354 1.3646 2.38803 1.07698C3.02976 0.75 3.86984 0.75 5.55 0.75H12.95C14.6302 0.75 15.4702 0.75 16.112 1.07698C16.6765 1.3646 17.1354 1.82354 17.423 2.38803C17.75 3.02976 17.75 3.86984 17.75 5.55V9.75M13.7469 18.6643H11.95C10.8299 18.6643 10.2698 18.6643 9.84202 18.4463C9.46569 18.2546 9.15973 17.9486 8.96799 17.5723C8.75 17.1444 8.75 16.5844 8.75 15.4643V12.95C8.75 11.8299 8.75 11.2698 8.96799 10.842C9.15973 10.4657 9.46569 10.1597 9.84202 9.96799C10.2698 9.75 10.8299 9.75 11.95 9.75H17.55C18.6701 9.75 19.2302 9.75 19.658 9.96799C20.0343 10.1597 20.3403 10.4657 20.532 10.842C20.75 11.2698 20.75 11.8299 20.75 12.95V15.6643C20.75 16.5962 20.75 17.0621 20.5978 17.4297C20.3948 17.9197 20.0054 18.3091 19.5154 18.512C19.2569 18.6191 18.9498 18.6509 18.4662 18.6603C18.0709 18.668 17.75 18.9848 17.75 19.3802C17.75 19.9584 17.1001 20.2981 16.6253 19.9681L15.5736 19.2369C15.2677 19.0242 15.1147 18.9178 14.9482 18.8424C14.8004 18.7755 14.6451 18.7268 14.4856 18.6974C14.3058 18.6643 14.1195 18.6643 13.7469 18.6643Z" stroke="white" stroke-width="1.5" stroke-linecap="round" stroke-linejoin="round"/>
</svg>
