<svg width="20" height="20" viewBox="0 0 20 20" fill="none" xmlns="http://www.w3.org/2000/svg">
<path d="M8.33366 6.66634V5.83301M8.33366 10.4163V9.58301M8.33366 14.1663V13.333M4.33366 3.33301H15.667C16.6004 3.33301 17.0671 3.33301 17.4236 3.51466C17.7372 3.67445 17.9922 3.92942 18.152 4.24302C18.3337 4.59954 18.3337 5.06625 18.3337 5.99967C18.3337 6.24922 18.3337 6.37399 18.3202 6.44793C18.2642 6.75624 18.2039 6.8444 17.937 7.0086C17.873 7.04798 17.6736 7.12571 17.2748 7.28117C16.1874 7.70501 15.417 8.76237 15.417 9.99967C15.417 11.237 16.1874 12.2943 17.2748 12.7182C17.6736 12.8736 17.873 12.9514 17.937 12.9907C18.2039 13.1549 18.2642 13.2431 18.3202 13.5514C18.3337 13.6254 18.3337 13.7501 18.3337 13.9997C18.3337 14.9331 18.3337 15.3998 18.152 15.7563C17.9922 16.0699 17.7372 16.3249 17.4236 16.4847C17.0671 16.6663 16.6004 16.6663 15.667 16.6663H4.33366C3.40024 16.6663 2.93353 16.6663 2.57701 16.4847C2.2634 16.3249 2.00844 16.0699 1.84865 15.7563C1.66699 15.3998 1.66699 14.9331 1.66699 13.9997C1.66699 13.7501 1.66699 13.6254 1.68044 13.5514C1.7365 13.2431 1.79675 13.1549 2.06365 12.9907C2.12766 12.9514 2.32707 12.8736 2.72589 12.7182C3.81321 12.2943 4.58366 11.237 4.58366 9.99967C4.58366 8.76237 3.81321 7.70501 2.72589 7.28117C2.32707 7.12571 2.12766 7.04798 2.06365 7.0086C1.79675 6.8444 1.7365 6.75624 1.68044 6.44793C1.66699 6.37399 1.66699 6.24922 1.66699 5.99967C1.66699 5.06625 1.66699 4.59954 1.84865 4.24302C2.00844 3.92942 2.2634 3.67445 2.57701 3.51466C2.93353 3.33301 3.40024 3.33301 4.33366 3.33301Z" stroke="#191919" stroke-width="1.25" stroke-linecap="round" stroke-linejoin="round"/>
</svg>
