<svg width="32" height="32" viewBox="0 0 32 32" fill="none" xmlns="http://www.w3.org/2000/svg">
<rect width="32" height="32" rx="6" fill="#FAE1B7"/>
<path d="M24.3337 23.5V21.8333C24.3337 20.2801 23.2713 18.9751 21.8337 18.605M18.917 8.7423C20.1386 9.23679 21.0003 10.4344 21.0003 11.8333C21.0003 13.2322 20.1386 14.4299 18.917 14.9244M20.167 23.5C20.167 21.9469 20.167 21.1703 19.9133 20.5577C19.5749 19.741 18.926 19.092 18.1093 18.7537C17.4967 18.5 16.7201 18.5 15.167 18.5H12.667C11.1139 18.5 10.3373 18.5 9.72471 18.7537C8.90795 19.092 8.25904 19.741 7.92073 20.5577C7.66699 21.1703 7.66699 21.9469 7.66699 23.5M17.2503 11.8333C17.2503 13.6743 15.7579 15.1667 13.917 15.1667C12.076 15.1667 10.5837 13.6743 10.5837 11.8333C10.5837 9.99238 12.076 8.5 13.917 8.5C15.7579 8.5 17.2503 9.99238 17.2503 11.8333Z" stroke="#191919" stroke-width="1.25" stroke-linecap="round" stroke-linejoin="round"/>
<path d="M27 16.5H22H17C16.7348 16.5 16.4804 16.6054 16.2929 16.7929C16.1054 16.9804 16 17.2348 16 17.5V21C16 24.295 17.595 26.2919 18.9331 27.3869C20.3744 28.5656 21.8081 28.9656 21.8706 28.9825C21.9566 29.0059 22.0472 29.0059 22.1331 28.9825C22.1956 28.9656 23.6275 28.5656 25.0706 27.3869C26.405 26.2919 28 24.295 28 21V17.5C28 17.2348 27.8946 16.9804 27.7071 16.7929C27.5196 16.6054 27.2652 16.5 27 16.5ZM24.855 20.8538L21.355 24.3538C21.3086 24.4002 21.2534 24.4371 21.1927 24.4623C21.132 24.4874 21.067 24.5004 21.0012 24.5004C20.9355 24.5004 20.8705 24.4874 20.8098 24.4623C20.7491 24.4371 20.6939 24.4002 20.6475 24.3538L19.1475 22.8538C19.0537 22.7599 19.001 22.6327 19.001 22.5C19.001 22.3673 19.0537 22.2401 19.1475 22.1462C19.2413 22.0524 19.3686 21.9997 19.5012 21.9997C19.6339 21.9997 19.7612 22.0524 19.855 22.1462L21 23.2931L24.1462 20.1462C24.1927 20.0998 24.2479 20.0629 24.3086 20.0378C24.3692 20.0127 24.4343 19.9997 24.5 19.9997C24.5657 19.9997 24.6308 20.0127 24.6914 20.0378C24.7521 20.0629 24.8073 20.0998 24.8538 20.1462C24.9002 20.1927 24.9371 20.2479 24.9622 20.3086C24.9873 20.3692 25.0003 20.4343 25.0003 20.5C25.0003 20.5657 24.9873 20.6308 24.9622 20.6914C24.9371 20.7521 24.9002 20.8073 24.8538 20.8538H24.855Z" fill="#0BBA2B"/>
<path d="M24.855 20.8538L21.355 24.3538C21.3086 24.4003 21.2534 24.4372 21.1927 24.4623C21.132 24.4875 21.067 24.5004 21.0013 24.5004C20.9355 24.5004 20.8705 24.4875 20.8098 24.4623C20.7491 24.4372 20.6939 24.4003 20.6475 24.3538L19.1475 22.8538C19.0537 22.76 19.001 22.6327 19.001 22.5C19.001 22.3674 19.0537 22.2401 19.1475 22.1463C19.2413 22.0525 19.3686 21.9998 19.5013 21.9998C19.6339 21.9998 19.7612 22.0525 19.855 22.1463L21 23.2932L24.1463 20.1463C24.1927 20.0998 24.2479 20.063 24.3086 20.0378C24.3693 20.0127 24.4343 19.9998 24.5 19.9998C24.5657 19.9998 24.6308 20.0127 24.6915 20.0378C24.7521 20.063 24.8073 20.0998 24.8538 20.1463C24.9002 20.1927 24.9371 20.2479 24.9622 20.3086C24.9873 20.3693 25.0003 20.4343 25.0003 20.5C25.0003 20.5657 24.9873 20.6308 24.9622 20.6915C24.9371 20.7522 24.9002 20.8073 24.8538 20.8538H24.855Z" fill="white"/>
</svg>
