<svg width="18" height="17" viewBox="0 0 18 17" fill="none" xmlns="http://www.w3.org/2000/svg">
<path d="M8.95833 11.0417H5.20834C4.04537 11.0417 3.46388 11.0417 2.99072 11.1852C1.92538 11.5084 1.0917 12.342 0.768533 13.4074C0.625 13.8805 0.625 14.462 0.625 15.625M12.2917 13.125L13.0155 13.8489C13.3455 14.1789 13.5105 14.3439 13.7008 14.4057C13.8682 14.4601 14.0485 14.4601 14.2158 14.4057C14.4061 14.3439 14.5711 14.1789 14.9011 13.8489L17.2917 11.4583M11.0417 4.375C11.0417 6.44607 9.36273 8.125 7.29167 8.125C5.2206 8.125 3.54167 6.44607 3.54167 4.375C3.54167 2.30393 5.2206 0.625 7.29167 0.625C9.36273 0.625 11.0417 2.30393 11.0417 4.375Z" stroke="white" stroke-width="1.25" stroke-linecap="round" stroke-linejoin="round"/>
</svg>
