<svg width="18" height="19" viewBox="0 0 18 19" fill="none" xmlns="http://www.w3.org/2000/svg">
<path d="M5.625 12.2917H8.95833M13.9583 20.625H17.2917M5.625 14.375H8.95833M4.625 17.2917H9.95833C11.3585 17.2917 12.0585 17.2917 12.5933 17.0192C13.0637 16.7795 13.4462 16.397 13.6858 15.9266C13.9583 15.3919 13.9583 14.6918 13.9583 13.2917V4.625C13.9583 3.22487 13.9583 2.5248 13.6858 1.99002C13.4462 1.51962 13.0637 1.13717 12.5933 0.897484C12.0585 0.625 11.3585 0.625 9.95833 0.625H4.625C3.22487 0.625 2.5248 0.625 1.99002 0.897484C1.51962 1.13717 1.13717 1.51962 0.897484 1.99002C0.625 2.5248 0.625 3.22487 0.625 4.625V13.2917C0.625 14.6918 0.625 15.3919 0.897484 15.9266C1.13717 16.397 1.51962 16.7795 1.99002 17.0192C2.5248 17.2917 3.22487 17.2917 4.625 17.2917ZM9.79167 6.45833C9.79167 7.83904 8.67238 8.95833 7.29167 8.95833C5.91095 8.95833 4.79167 7.83904 4.79167 6.45833C4.79167 5.07762 5.91095 3.95833 7.29167 3.95833C8.67238 3.95833 9.79167 5.07762 9.79167 6.45833Z" stroke="#191919" stroke-width="1.25" stroke-linecap="round" stroke-linejoin="round"/>
</svg>
