<svg width="20" height="20" viewBox="0 0 20 20" fill="none" xmlns="http://www.w3.org/2000/svg">
<path fill-rule="evenodd" clip-rule="evenodd" d="M11.1632 3.25621C10.6028 3.61564 10.3227 3.79536 10.1823 3.82792C9.99361 3.87172 9.99401 3.87172 9.80529 3.82785C9.66499 3.79524 9.38525 3.61565 8.82578 3.25649C7.20169 2.21385 5.11555 2.17933 3.46257 3.59168C1.37503 5.37532 1.08113 8.35748 2.72049 10.467C4.08351 12.2209 8.20847 15.9201 9.56041 17.1174C9.71166 17.2513 9.78729 17.3183 9.8755 17.3446C9.9525 17.3676 10.0367 17.3676 10.1137 17.3446C10.2019 17.3183 10.2776 17.2513 10.4288 17.1174C11.7808 15.9201 15.9057 12.2209 17.2687 10.467C18.9081 8.35748 18.6501 5.35656 16.5267 3.59168C14.8465 2.19518 12.7787 2.22 11.1632 3.25621Z" stroke="#767676" stroke-width="1.5" stroke-linecap="round" stroke-linejoin="round"/>
</svg>
