<svg width="20" height="20" viewBox="0 0 20 20" fill="none" xmlns="http://www.w3.org/2000/svg">
<path d="M17.5 9.58464V7.33464C17.5 5.9345 17.5 5.23444 17.2275 4.69966C16.9878 4.22925 16.6054 3.8468 16.135 3.60712C15.6002 3.33464 14.9001 3.33464 13.5 3.33464H6.5C5.09987 3.33464 4.3998 3.33464 3.86502 3.60712C3.39462 3.8468 3.01217 4.22925 2.77248 4.69966C2.5 5.23444 2.5 5.9345 2.5 7.33464V14.3346C2.5 15.7348 2.5 16.4348 2.77248 16.9696C3.01217 17.44 3.39462 17.8225 3.86502 18.0622C4.3998 18.3346 5.09987 18.3346 6.5 18.3346H10.4167M17.5 8.33464H2.5M13.3333 1.66797V5.0013M6.66667 1.66797V5.0013M15 17.5013V12.5013M12.5 15.0013H17.5" stroke="#9E660A" stroke-width="1.5" stroke-linecap="round" stroke-linejoin="round"/>
</svg>
