<svg width="20" height="20" viewBox="0 0 20 20" fill="none" xmlns="http://www.w3.org/2000/svg">
<path d="M4.16699 11.9051C2.62419 12.5857 1.66699 13.5341 1.66699 14.5832C1.66699 16.6542 5.39795 18.3332 10.0003 18.3332C14.6027 18.3332 18.3337 16.6542 18.3337 14.5832C18.3337 13.5341 17.3765 12.5857 15.8337 11.9051M15.0003 6.6665C15.0003 8.8408 13.4544 10.2843 12.0169 11.7007C11.0275 12.6756 10.5329 13.163 10.3065 13.2358C10.0208 13.3277 9.97986 13.3277 9.69412 13.2358C9.4678 13.163 8.97313 12.6756 7.98379 11.7007C6.54624 10.2843 5.00033 8.8408 5.00033 6.6665C5.00033 3.90508 7.2389 1.6665 10.0003 1.6665C12.7617 1.6665 15.0003 3.90508 15.0003 6.6665ZM10.8337 6.6665C10.8337 7.12674 10.4606 7.49984 10.0003 7.49984C9.54009 7.49984 9.16699 7.12674 9.16699 6.6665C9.16699 6.20627 9.54009 5.83317 10.0003 5.83317C10.4606 5.83317 10.8337 6.20627 10.8337 6.6665Z" stroke="#767676" stroke-width="1.5" stroke-linecap="round" stroke-linejoin="round"/>
</svg>
